<svg width="152" height="28" viewBox="0 0 152 28" fill="none" xmlns="http://www.w3.org/2000/svg">
<g clip-path="url(#clip0_524_485)">
<path d="M5.18484 7.68272V13.2445H16.146C17.6487 13.2445 18.3383 12.9608 18.3383 11.5802V9.34701C18.3383 7.96717 17.6487 7.68272 16.146 7.68272H5.18484ZM0.394531 4.06969H18.3383C21.5455 4.06969 23.0474 5.20676 23.0474 8.1295V12.7984C23.0474 15.7212 21.5455 16.8575 18.3383 16.8575H5.18484V25.0181H0.394531V4.06969Z" fill="white"/>
<path d="M35.3496 7.68272V13.5289H46.3108C47.8128 13.5289 48.5031 13.2445 48.5031 11.8639V9.34701C48.5031 7.96717 47.8128 7.68272 46.3108 7.68272H35.3496ZM30.5586 4.06969H48.5031C51.7095 4.06969 53.2122 5.20676 53.2122 8.1295V13.0419C53.2122 15.9647 51.7095 17.101 48.5031 17.101H45.7426L55.4044 25.0181H48.4219L39.9776 17.101H35.3496V25.0181H30.5586V4.06969Z" fill="white"/>
<path d="M103.556 7.68272V13.2445H114.517C116.019 13.2445 116.709 12.9608 116.709 11.5802V9.34701C116.709 7.96717 116.019 7.68272 114.517 7.68272H103.556ZM98.7656 4.06969H116.709C119.916 4.06969 121.419 5.20676 121.419 8.1295V12.7984C121.419 15.7212 119.916 16.8575 116.709 16.8575H103.556V25.0181H98.7656V4.06969Z" fill="white"/>
<path d="M133.357 7.72367V12.2295H146.429C150.368 12.2295 151.667 13.2452 151.667 17.1829V20.0654C151.667 24.0031 150.368 25.0181 146.429 25.0181H133.479C129.542 25.0181 128.242 24.0031 128.242 20.0654V19.4972L132.545 18.6037V21.0804H147.363V16.2901H134.291C130.353 16.2901 129.094 15.2751 129.094 11.3367V9.02306C129.094 5.08465 130.353 4.0697 134.291 4.0697H146.185C149.921 4.0697 151.382 5.04514 151.382 8.65745V9.10423L147.079 10.1192V7.72367H133.357Z" fill="white"/>
<path d="M89.2854 13.8279C89.2854 21.4648 83.0944 27.6558 75.4575 27.6558C67.8199 27.6558 61.6289 21.4648 61.6289 13.8279C61.6289 6.19094 67.8199 -5.36895e-05 75.4575 -5.36895e-05C83.0944 -5.36895e-05 89.2854 6.19094 89.2854 13.8279Z" fill="white"/>
<path d="M82.327 11.1377H68.586C67.5372 11.1377 66.6875 10.2872 66.6875 9.23852V8.79174C66.6875 7.74231 67.5372 6.89257 68.586 6.89257H82.327C83.3764 6.89257 84.2268 7.74231 84.2268 8.79174V9.23852C84.2268 10.2872 83.3764 11.1377 82.327 11.1377Z" fill="#707A84"/>
<path d="M70.457 12.9625V13.456V19.6405V20.2705C70.457 20.5434 70.6783 20.7646 70.9505 20.7646H73.8452C73.8452 20.7546 73.8467 20.7517 73.8467 20.7438L73.9099 20.7646V20.2705V13.456V12.9625H70.457Z" fill="#707A84"/>
<path d="M80.4575 12.9625V13.456V19.6405V20.2705C80.4575 20.5434 80.2362 20.7646 79.964 20.7646H77.0686C77.0686 20.7546 77.0671 20.7517 77.0671 20.7438L77.0039 20.7646V20.2705V13.456V12.9625H80.4575Z" fill="#707A84"/>
</g>
<defs>
<clipPath id="clip0_524_485">
<rect width="151.272" height="27.6558" fill="white" transform="translate(0.394531)"/>
</clipPath>
</defs>
</svg>
