<svg width="224" height="47" viewBox="0 0 224 47" fill="none" xmlns="http://www.w3.org/2000/svg">
<path d="M20.114 19.271C18.4923 19.7029 16.8942 20.1285 15.2972 20.5579C13.212 21.1185 11.128 21.683 9.04288 22.2437C8.49835 22.3901 7.95244 22.5316 7.40569 22.6695C6.87385 22.8037 6.333 22.3865 6.32863 21.8363C6.30717 19.1333 6.28794 16.4304 6.26956 13.7275C6.26571 13.1606 6.26788 12.5938 6.26892 12.0269C6.26976 11.5711 6.44833 11.2966 6.8961 11.1653C7.55194 10.9729 8.21548 10.8055 8.87924 10.6417C10.0327 10.3569 11.1882 10.0802 12.344 9.80514C13.7985 9.45898 15.2552 9.12237 16.7091 8.77349C19.2228 8.17026 21.7346 7.55932 24.248 6.95457C25.3456 6.69048 26.4443 6.4311 27.5437 6.17485C27.9942 6.06985 28.551 6.51013 28.5512 6.96906C28.5522 10.1215 28.5484 13.274 28.5537 16.4265C28.5544 16.8259 28.2914 17.0015 27.9894 17.1013C27.35 17.3125 26.6982 17.4873 26.0481 17.6646C24.0789 18.2017 22.1081 18.7329 20.114 19.271Z" fill="#C6D8E7"/>
<path d="M10.6703 35.3133C9.57616 35.6108 8.50594 35.9042 7.4327 36.1861C6.83858 36.3422 6.27304 35.9035 6.27283 35.2954C6.2717 31.9239 6.27232 28.5524 6.27317 25.1808C6.27329 24.6973 6.51803 24.3359 6.98977 24.2057C8.43233 23.8076 9.87859 23.4227 11.3257 23.0413C14.3923 22.2333 17.4603 21.4303 20.528 20.6263C21.055 20.4882 21.5814 20.3471 22.1115 20.222C22.5657 20.1149 23.1622 20.5831 23.1715 21.0502C23.1809 21.5175 23.1748 21.9851 23.1748 22.4525C23.1744 25.3168 23.1743 28.1811 23.1729 31.0455C23.1727 31.6838 23.0491 31.8829 22.4391 32.0593C21.021 32.4692 19.5962 32.856 18.1743 33.2528C17.4106 33.4659 16.6483 33.6841 15.8835 33.8931C14.154 34.3658 12.4233 34.8343 10.6703 35.3133Z" fill="#C6D8E7"/>
<path d="M24.3692 32.9459C24.3691 28.7192 24.369 24.5224 24.369 20.3256C24.369 19.7617 24.5259 19.536 25.0672 19.3776C26.009 19.1021 26.9535 18.8357 27.8986 18.5717C28.9391 18.2812 29.985 18.0092 31.0219 17.7064C31.5412 17.5548 32.0038 17.5424 32.3455 18.0341C32.4189 18.1397 32.4848 18.279 32.485 18.4028C32.4912 24.1212 32.49 29.8396 32.4883 35.558C32.4882 35.9053 32.2413 36.2039 31.8266 36.3391C31.3088 36.5078 30.7875 36.6673 30.2638 36.817C28.7202 37.2582 27.1734 37.6887 25.6302 38.1315C24.9509 38.3264 24.37 37.8971 24.3697 37.1825C24.3691 35.7802 24.3693 34.378 24.3692 32.9459Z" fill="#C6D8E7"/>
<path d="M41.5663 30.7963C41.5467 31.5896 41.5255 32.3532 41.5084 33.1169C41.5011 33.4414 41.2855 33.5964 41.0231 33.689C40.5656 33.8506 40.103 33.9995 39.6372 34.1353C38.011 34.609 36.3792 35.064 34.7563 35.5486C34.0478 35.7601 33.8135 35.4593 33.498 35.0965C33.4233 35.0105 33.3936 34.8596 33.3935 34.7385C33.3879 29.071 33.3875 23.4034 33.388 17.7359C33.388 17.4008 33.6479 17.0856 34.0581 16.9582C34.6164 16.785 35.1806 16.6302 35.7447 16.4766C36.8823 16.1667 38.0213 15.862 39.1603 15.5573C39.6097 15.437 40.06 15.3198 40.5111 15.2058C40.8824 15.1119 41.4811 15.5482 41.5105 15.9297C41.5128 15.9593 41.5111 15.9893 41.5113 16.0191C41.5294 18.9901 41.5521 21.9611 41.5626 24.9321C41.5654 25.7155 41.5146 26.4991 41.5168 27.2826C41.52 28.444 41.5485 29.6053 41.5663 30.7963Z" fill="#C6D8E7"/>
<path d="M50.0488 12.9305C50.4496 13.2034 50.5403 13.5581 50.5389 14.0164C50.5221 19.3282 50.5279 24.64 50.5271 29.9519C50.527 30.7155 50.4587 30.8491 49.7359 31.0634C47.6736 31.6747 45.6054 32.2667 43.536 32.8541C42.9852 33.0105 42.4075 32.5123 42.4074 31.9121C42.4065 26.461 42.4059 21.0099 42.4054 15.5589C42.4053 15.0008 42.5911 14.7263 43.1423 14.5679C44.3523 14.2201 45.5667 13.8878 46.7814 13.5566C47.6419 13.3219 48.5027 13.0863 49.3703 12.8806C49.576 12.8319 49.8098 12.9014 50.0488 12.9305Z" fill="#C6D8E7"/>
<path d="M82.9705 27.161C83.5631 26.1811 83.9359 25.1472 84.1024 24.0079C83.9085 24.0079 83.7523 24.0077 83.5962 24.008C81.1378 24.0116 78.6794 24.0161 76.2211 24.0182C75.7384 24.0186 75.7378 24.0142 75.7383 23.5218C75.739 22.8057 75.7402 22.0896 75.7425 21.3735C75.7428 21.2863 75.751 21.1991 75.7564 21.0941C79.8507 21.0941 83.9264 21.0941 87.9962 21.0941C88.0142 21.1174 88.0352 21.132 88.0363 21.148C88.1969 23.4275 87.9469 25.6154 86.8011 27.6626C85.361 30.2355 83.2901 32.0344 80.4912 32.9477C78.3207 33.6559 76.1156 33.673 73.9011 33.0872C70.6351 32.2233 68.2672 30.2517 66.7637 27.2617C65.7811 25.3075 65.4754 23.2041 65.6605 21.0267C65.8058 19.3177 66.2651 17.705 67.134 16.2213C68.4739 13.933 70.4193 12.3597 72.9028 11.4628C75.6743 10.4619 78.4694 10.488 81.2324 11.4731C83.2565 12.1947 84.9405 13.4286 86.1692 15.2096C86.6337 15.8829 86.9842 16.6348 87.4201 17.4104C87.2371 17.4236 87.1348 17.4374 87.0325 17.4374C85.7684 17.4384 84.5044 17.4336 83.2405 17.4404C83.0376 17.4415 82.9125 17.3759 82.8089 17.1995C81.721 15.3472 80.0669 14.3814 77.962 14.1351C76.4779 13.9615 75.0333 14.1378 73.6743 14.7613C71.8216 15.6112 70.5339 17.0104 69.8875 18.9504C69.0741 21.3921 69.141 23.8236 70.2564 26.1515C71.3571 28.4487 73.2709 29.6945 75.7726 30.0809C76.8924 30.2538 77.9998 30.1819 79.09 29.9201C80.616 29.5538 81.841 28.7164 82.7592 27.4389C82.8229 27.3502 82.8925 27.2658 82.9705 27.161Z" fill="white"/>
<path d="M108.736 28.8053C107.72 30.7424 106.215 32.1148 104.197 32.9009C102.015 33.7513 99.7871 33.8227 97.5596 33.1112C95.1771 32.3503 93.5157 30.7611 92.5045 28.4905C91.6464 26.5637 91.5248 24.5318 91.886 22.4972C92.3278 20.0085 93.5989 18.0027 95.7913 16.6605C97.1124 15.8517 98.5679 15.4509 100.115 15.3715C101.929 15.2783 103.665 15.5589 105.269 16.4468C107.028 17.4207 108.315 18.8336 109.042 20.711C109.92 22.9787 109.972 25.2881 109.239 27.607C109.111 28.0115 108.912 28.3935 108.736 28.8053ZM97.6265 29.4806C98.125 29.7182 98.6047 30.0148 99.1261 30.1807C100.105 30.4923 101.103 30.4562 102.094 30.17C104.061 29.6015 105.455 27.9644 105.84 25.9024C106.017 24.9567 106.016 24.0004 105.852 23.0536C105.527 21.1788 104.578 19.7473 102.792 18.9733C100.143 17.8255 96.5557 18.8663 95.6822 22.4565C95.3034 24.0135 95.3583 25.568 95.8748 27.0979C96.2014 28.0653 96.7241 28.8843 97.6265 29.4806Z" fill="white"/>
<path fill-rule="evenodd" clip-rule="evenodd" d="M116.225 15.6361C116.381 15.5587 116.457 15.63 116.505 15.7783C116.609 16.0945 116.721 16.408 116.811 16.7484C116.773 16.7981 116.753 16.8222 116.732 16.8462C116.781 16.8611 116.83 16.8762 116.878 16.8911C116.899 16.938 116.92 16.9852 116.92 17.0548C116.895 17.1102 116.881 17.1635 116.878 17.2138L116.882 17.1859C116.888 17.1496 116.9 17.1121 116.918 17.0741C116.996 17.2163 117.053 17.3618 117.11 17.5291C117.007 17.4978 116.935 17.4346 116.9 17.354C116.935 17.4397 117.007 17.5087 117.109 17.5509C117.135 17.6146 117.162 17.6782 117.17 17.7767C117.146 17.8454 117.134 17.9072 117.133 17.9628C117.135 17.9128 117.147 17.8579 117.17 17.7979C117.249 17.947 117.312 18.11 117.373 18.2959C117.27 18.2517 117.195 18.1894 117.158 18.1069C117.195 18.195 117.269 18.2633 117.373 18.319C117.389 18.3487 117.405 18.3784 117.402 18.4191C117.371 18.4682 117.334 18.5168 117.324 18.5562C117.334 18.5176 117.371 18.4725 117.4 18.4365C117.516 18.7065 117.614 18.9701 117.712 19.2562C117.678 19.2526 117.632 19.2456 117.598 19.2305C117.632 19.2478 117.677 19.2612 117.711 19.2786C117.753 19.3839 117.795 19.4892 117.815 19.619C117.789 19.6912 117.766 19.7594 117.762 19.8175C117.767 19.7646 117.789 19.703 117.814 19.6405C117.876 19.742 117.918 19.8467 117.959 19.9729C117.831 19.9717 117.778 19.9306 117.765 19.8688C117.777 19.936 117.831 19.9824 117.958 19.9945C117.999 20.0992 118.04 20.2041 118.06 20.3335C118.03 20.4157 118.014 20.4782 118.012 20.527C118.014 20.4829 118.031 20.4269 118.059 20.3551C118.096 20.3811 118.113 20.4104 118.119 20.464C118.119 20.4708 118.12 20.4769 118.12 20.4824C118.132 20.4847 118.137 20.4931 118.142 20.5146C118.136 20.5154 118.13 20.5126 118.126 20.507C118.13 20.5166 118.135 20.5234 118.14 20.5302C118.162 20.5763 118.184 20.6226 118.205 20.6885C118.098 20.6693 118.039 20.6417 118.019 20.5875C118.039 20.6467 118.098 20.6787 118.203 20.7081C118.244 20.8128 118.285 20.9177 118.305 21.0475C118.303 21.0913 118.3 21.1339 118.298 21.1754C118.3 21.1399 118.302 21.1045 118.304 21.0693C118.342 21.0956 118.358 21.1251 118.363 21.1792C118.363 21.186 118.364 21.1919 118.365 21.1972C118.377 21.1992 118.383 21.2074 118.388 21.2283C118.382 21.2292 118.376 21.2267 118.372 21.2216C118.376 21.2308 118.381 21.2373 118.387 21.2438C118.646 21.9688 118.907 22.6932 119.164 23.4191C119.345 23.932 119.521 24.447 119.697 24.9844C119.609 24.8959 119.493 24.8008 119.429 24.6833C119.493 24.8011 119.609 24.8989 119.696 25.0078C119.731 25.0943 119.767 25.1809 119.783 25.2902C119.749 25.3665 119.734 25.4199 119.719 25.4732C119.769 25.4771 119.82 25.4811 119.87 25.485C120.207 26.4463 120.543 27.4078 120.881 28.3689C120.936 28.5275 120.996 28.6848 121.053 28.865C121.021 28.9326 120.976 28.9851 120.949 29.0382C120.976 28.9863 121.02 28.9382 121.053 28.8875C121.141 29.148 121.23 29.4084 121.301 29.7033C121.295 29.7529 121.293 29.7981 121.295 29.8376C121.294 29.8041 121.295 29.7669 121.301 29.7271C121.356 29.7809 121.395 29.8456 121.467 29.9658C121.848 28.8602 122.212 27.8043 122.594 26.7561C122.612 26.7817 122.626 26.8055 122.638 26.8283L122.668 26.8948L122.64 26.8264C122.63 26.8019 122.621 26.7746 122.61 26.7419C122.609 26.7201 122.604 26.6956 122.614 26.6874C122.663 26.7369 122.703 26.7947 122.742 26.8524C122.703 26.7946 122.663 26.7369 122.623 26.6792C122.652 26.5707 122.68 26.4622 122.735 26.3458C122.803 26.3041 122.884 26.2648 122.927 26.2283C122.885 26.2636 122.806 26.2992 122.748 26.329C122.776 26.1933 122.819 26.0664 122.875 25.9209C123.117 25.9267 122.996 26.0553 122.964 26.147C122.997 26.0551 123.119 25.9244 122.888 25.9022C122.906 25.8309 122.923 25.7595 122.972 25.6822C123.076 25.6216 123.149 25.5671 123.221 25.5125C123.149 25.567 123.076 25.6216 122.985 25.6686C122.965 25.6507 122.964 25.6403 122.971 25.6173C123.043 25.5547 123.106 25.5048 123.168 25.4549C123.106 25.5048 123.043 25.5547 122.981 25.6046C123.05 25.3974 123.12 25.1903 123.219 24.973C123.288 24.9623 123.328 24.9616 123.368 24.961C123.333 24.9156 123.297 24.8702 123.261 24.8248C123.567 23.933 123.873 23.0412 124.199 22.1559C124.218 22.1779 124.232 22.1981 124.243 22.2176L124.271 22.2746C124.254 22.2372 124.237 22.1998 124.215 22.142C124.211 22.1216 124.222 22.1277 124.218 22.1227C124.25 22.1505 124.284 22.1831 124.319 22.2157C124.284 22.1831 124.25 22.1502 124.215 22.1176C124.363 21.666 124.511 21.2143 124.678 20.7692C124.696 20.7978 124.71 20.8247 124.721 20.8509L124.749 20.9275C124.732 20.8769 124.714 20.8262 124.693 20.7524C124.681 20.7094 124.683 20.6903 124.705 20.6615C124.905 20.6731 124.888 20.7331 124.838 20.8021C124.889 20.7319 124.909 20.669 124.715 20.6508C124.721 20.6173 124.727 20.5839 124.768 20.5403C124.822 20.5109 124.866 20.4839 124.905 20.4583L124.907 20.457C124.869 20.4813 124.828 20.5057 124.782 20.5298C124.764 20.5021 124.767 20.4747 124.782 20.4295C124.847 20.3794 124.902 20.347 124.956 20.3149C124.902 20.347 124.847 20.3793 124.793 20.4114C124.813 20.34 124.833 20.2685 124.885 20.1917C124.976 20.1417 125.035 20.0971 125.094 20.0524C125.05 20.0132 125.005 19.9739 124.961 19.9346C124.979 19.8683 124.998 19.8018 125.037 19.7396C125.115 19.7332 125.172 19.7228 125.228 19.7124C125.178 19.6671 125.128 19.6218 125.078 19.5766C125.138 19.3956 125.197 19.2145 125.276 19.0374C125.301 19.0526 125.321 19.0669 125.338 19.0808L125.386 19.1213C125.356 19.0946 125.325 19.0679 125.291 19.02C125.292 18.9628 125.298 18.9267 125.314 18.8753C125.351 18.8844 125.399 18.8985 125.431 18.9155C125.4 18.8971 125.355 18.8785 125.324 18.8601C125.367 18.7308 125.41 18.6015 125.485 18.4647C125.582 18.4277 125.647 18.3981 125.712 18.3687C125.655 18.3337 125.598 18.2986 125.541 18.2636C125.605 18.0597 125.669 17.8558 125.752 17.6567C125.781 17.6739 125.805 17.69 125.827 17.7054L125.887 17.7504C125.849 17.7208 125.81 17.6912 125.766 17.639C125.752 17.5984 125.753 17.581 125.775 17.556C125.84 17.5743 125.895 17.6012 125.95 17.6282C125.895 17.6012 125.841 17.5744 125.786 17.5475C125.845 17.3616 125.904 17.1756 125.987 17.0083C126.02 17.0772 126.029 17.1277 126.037 17.178C126.029 17.1277 126.02 17.0772 126.009 17.0054C126.008 16.9846 126.013 16.9868 126.013 16.9842C126.042 17.0314 126.072 17.0808 126.102 17.1305C126.072 17.0808 126.042 17.0311 126.012 16.9814C126.067 16.7839 126.121 16.5863 126.205 16.3789C126.278 16.3661 126.321 16.3633 126.364 16.3605C126.329 16.2987 126.294 16.2368 126.259 16.175C126.344 15.9968 126.43 15.8184 126.537 15.6675C126.618 15.7625 126.684 15.8129 126.741 15.8207C126.69 15.8132 126.629 15.764 126.558 15.6719C126.661 15.6441 126.763 15.639 126.891 15.6403C126.859 15.7628 126.812 15.8233 126.751 15.821C126.818 15.8241 126.871 15.7654 126.917 15.6466C127.019 15.6424 127.122 15.6382 127.246 15.6615C127.203 15.8125 127.234 15.8883 127.314 15.9189C127.237 15.8885 127.211 15.8139 127.271 15.6675C127.377 15.6419 127.48 15.6377 127.612 15.6586C127.623 15.6603 127.634 15.6603 127.645 15.6612C127.684 15.6415 127.727 15.6376 127.79 15.6393C127.772 15.6487 127.749 15.6564 127.723 15.6612C127.755 15.6579 127.783 15.6517 127.812 15.6453C128.172 15.6399 128.532 15.6347 128.923 15.6555C128.935 15.6573 128.947 15.6574 128.958 15.6583C128.998 15.6382 129.041 15.6339 129.104 15.6358C129.087 15.6455 129.063 15.6534 129.037 15.6583C129.069 15.655 129.098 15.6489 129.126 15.6425C129.288 15.6382 129.451 15.6341 129.64 15.6368C129.733 15.6747 129.8 15.7057 129.868 15.7368C129.8 15.7057 129.733 15.6748 129.666 15.6437C129.869 15.6347 130.073 15.6256 130.328 15.6143C130.293 15.7199 130.269 15.7944 130.218 15.8657C130.138 15.8888 130.084 15.9152 130.03 15.9417C130.07 15.9801 130.11 16.0185 130.149 16.0569C130.116 16.1686 130.084 16.2803 130.016 16.4036C129.981 16.4275 129.95 16.4488 129.922 16.4688C129.947 16.4512 129.974 16.4338 130.003 16.4153C129.995 16.5054 129.965 16.5954 129.903 16.7104C129.898 16.719 129.894 16.7274 129.89 16.7351C129.894 16.7594 129.888 16.7921 129.87 16.8335C129.865 16.821 129.864 16.8056 129.868 16.7873C129.861 16.8087 129.858 16.8267 129.855 16.8449C129.855 16.8449 129.851 16.8373 129.836 16.8471C129.81 16.9127 129.799 16.9684 129.788 17.0241C129.785 17.0489 129.781 17.0739 129.766 17.1147C129.626 17.1282 129.529 17.1171 129.556 17.026C129.528 17.1181 129.623 17.1321 129.756 17.1305C129.734 17.2021 129.713 17.2739 129.654 17.3572C129.616 17.3783 129.583 17.4013 129.553 17.4256C129.579 17.4054 129.607 17.3861 129.639 17.3686C129.563 17.64 129.465 17.9117 129.353 18.1984C129.303 18.1858 129.231 18.1524 129.217 18.1338C129.231 18.1526 129.302 18.1875 129.34 18.2133C129.304 18.3202 129.268 18.4272 129.193 18.5486C129.119 18.5878 129.062 18.6261 129.021 18.6632C129.059 18.63 129.112 18.5967 129.178 18.5631C129.201 18.5747 129.2 18.5864 129.175 18.6242C129.172 18.6305 129.169 18.6365 129.166 18.642C129.171 18.6548 129.168 18.6777 129.151 18.7103C129.145 18.7035 129.145 18.693 129.148 18.6784C129.142 18.696 129.139 18.7092 129.136 18.7224C129.129 18.7634 129.122 18.8046 129.087 18.8633C129.083 18.8681 129.08 18.8728 129.077 18.8772C129.086 18.8902 129.079 18.9087 129.063 18.9367C129.058 18.9309 129.056 18.9225 129.058 18.912C129.053 18.9252 129.052 18.9362 129.051 18.9472C129.05 18.9462 129.051 18.9468 129.051 18.9472C129.018 18.9256 128.993 18.903 128.975 18.8804C128.993 18.9035 129.019 18.9261 129.052 18.9481C129.005 19.0866 128.957 19.2252 128.873 19.3863C128.867 19.3971 128.862 19.408 128.857 19.4183C128.857 19.4739 128.84 19.5351 128.81 19.6098C128.81 19.5827 128.813 19.5517 128.82 19.5183C128.809 19.5558 128.803 19.5907 128.797 19.6256C128.805 19.645 128.803 19.6627 128.756 19.6899C128.752 19.6942 128.748 19.6986 128.744 19.7029C128.706 19.8618 128.647 20.0236 128.576 20.2025C128.521 20.1686 128.478 20.117 128.436 20.0663C128.478 20.117 128.521 20.1685 128.564 20.2199C128.486 20.4392 128.408 20.6586 128.31 20.8721C128.254 20.8595 128.184 20.84 128.151 20.8354L128.138 20.8344C128.161 20.8336 128.243 20.8595 128.295 20.8882C128.228 21.1133 128.158 21.3165 128.073 21.5341C128.041 21.4758 127.999 21.4064 127.986 21.3391C127.999 21.407 128.037 21.4795 128.057 21.5487C128.029 21.64 128.001 21.7314 127.939 21.8285C127.833 21.8115 127.771 21.828 127.732 21.8656C127.769 21.8325 127.826 21.8207 127.924 21.8422C127.93 21.9004 127.917 21.9511 127.889 22.0131C127.807 22.0603 127.742 22.0959 127.622 22.1613C127.742 22.0959 127.807 22.0602 127.873 22.0245C127.798 22.2312 127.724 22.438 127.615 22.6628C127.537 22.7014 127.454 22.7897 127.381 22.8961C127.451 22.7946 127.53 22.7124 127.603 22.6805C127.529 22.946 127.433 23.2119 127.326 23.497C127.278 23.5009 127.214 23.4973 127.193 23.479C127.213 23.4976 127.277 23.5033 127.315 23.5163C127.21 23.7972 127.104 24.0782 126.987 24.3528C126.969 24.2829 126.962 24.2192 126.948 24.0834C126.962 24.2192 126.969 24.2829 126.974 24.3674C126.888 24.627 126.803 24.8658 126.702 25.1174C126.654 25.0728 126.585 25.0096 126.578 24.961C126.585 25.0098 126.652 25.0746 126.686 25.1304C126.636 25.2802 126.586 25.43 126.505 25.5831C126.479 25.5391 126.467 25.4934 126.461 25.4473C126.466 25.4944 126.474 25.5431 126.489 25.597C126.485 25.6745 126.465 25.7413 126.434 25.8259C126.278 25.7522 126.27 25.6749 126.309 25.5951C126.268 25.6775 126.272 25.7599 126.423 25.844C126.4 25.9165 126.378 25.989 126.321 26.0653C126.235 26.0859 126.143 26.0907 126.111 26.1178C126.143 26.0909 126.233 26.0873 126.306 26.077C125.94 27.1164 125.555 28.1479 125.169 29.1791C125.121 29.3091 125.068 29.4377 124.988 29.5856C124.934 29.604 124.91 29.6041 124.886 29.6039C124.959 29.3391 125.025 29.0713 125.103 28.808C125.024 29.0715 124.955 29.3397 124.865 29.6068C124.885 29.6038 124.885 29.6038 124.887 29.6217C124.909 29.6041 124.934 29.6042 124.976 29.6043C124.986 29.6361 124.978 29.6682 124.958 29.7116C124.936 29.7 124.92 29.6828 124.905 29.6578C124.919 29.6836 124.932 29.7037 124.945 29.7233C124.937 29.7564 124.928 29.7897 124.906 29.8338C124.825 29.7948 124.746 29.7506 124.785 29.6828L124.784 29.6831C124.746 29.7513 124.821 29.7977 124.892 29.8449C124.843 29.9948 124.794 30.1447 124.712 30.302C124.659 30.305 124.622 30.3034 124.59 30.303C124.621 30.3044 124.655 30.3093 124.697 30.3166C124.715 30.3342 124.716 30.3449 124.706 30.3676C124.644 30.3794 124.592 30.3788 124.54 30.3783C124.592 30.3788 124.644 30.3795 124.696 30.3799C124.35 31.2853 124.009 32.1926 123.651 33.0929C123.615 33.1828 123.471 33.2299 123.355 33.2705L123.239 33.1334C123.27 33.1703 123.301 33.2073 123.333 33.2645C123.288 33.2883 123.242 33.2918 123.175 33.2879C123.181 33.2314 123.21 33.1824 123.239 33.1334C123.21 33.1824 123.181 33.2313 123.153 33.2803C123.126 33.2848 123.1 33.2894 123.053 33.2657C122.997 33.2046 122.96 33.1715 122.924 33.1385C122.96 33.1714 122.997 33.2046 123.034 33.2588C122.984 33.2849 122.933 33.2899 122.865 33.2873C122.873 33.2327 122.898 33.1855 122.924 33.1385C122.898 33.1855 122.873 33.2326 122.847 33.2797C122.669 33.2844 122.491 33.2891 122.287 33.287C122.217 33.2432 122.164 33.1818 122.111 33.1508L122.111 33.1505C122.162 33.1811 122.211 33.2416 122.262 33.2803C121.363 33.288 120.464 33.2955 119.538 33.2746C119.63 33.1853 119.75 33.1264 119.868 33.0631C119.75 33.1264 119.63 33.1853 119.511 33.2683C119.234 33.3804 119.192 33.1548 119.129 32.9897C118.794 32.1189 118.47 31.2439 118.139 30.3717C116.987 27.3392 115.835 24.3067 114.681 21.2751C114.021 19.5413 113.357 17.8091 112.696 16.0753C112.646 15.9428 112.613 15.8037 112.565 15.6475C112.662 15.6427 112.749 15.6386 112.859 15.6646C112.893 15.7192 112.909 15.7715 112.926 15.7868C112.91 15.7715 112.897 15.7198 112.881 15.671C113.977 15.6401 115.073 15.6331 116.197 15.6311C116.161 15.6868 116.105 15.7756 116.044 15.7986C116.105 15.7757 116.164 15.6874 116.225 15.6361ZM126.982 23.8871C126.982 23.8908 126.983 23.8947 126.983 23.8985C126.983 23.8939 126.984 23.8884 126.985 23.8814C126.984 23.8832 126.983 23.8852 126.982 23.8871ZM127.582 22.4111C127.592 22.4396 127.602 22.468 127.603 22.5051C127.607 22.5065 127.612 22.5078 127.617 22.5086L127.582 22.4111ZM124.572 21.3935C124.586 21.4082 124.599 21.4229 124.607 21.4439C124.611 21.4441 124.616 21.4453 124.621 21.4448L124.572 21.3935ZM124.612 21.1754C124.632 21.1756 124.652 21.1763 124.672 21.1858C124.676 21.1829 124.68 21.18 124.683 21.176L124.612 21.1754ZM117.562 19.2071C117.569 19.2147 117.579 19.2204 117.589 19.2264C117.579 19.2209 117.569 19.2147 117.562 19.2071ZM125.442 18.9225C125.45 18.9279 125.457 18.9333 125.461 18.9392C125.457 18.9333 125.45 18.9282 125.442 18.9225ZM126.293 16.8164C126.278 16.8305 126.263 16.8437 126.242 16.8509C126.241 16.8553 126.241 16.8601 126.241 16.8652C126.258 16.8489 126.276 16.8327 126.293 16.8164Z" fill="white"/>
<path d="M119.783 25.3105C119.825 25.3538 119.848 25.3999 119.871 25.4653C119.82 25.4811 119.769 25.4771 119.719 25.4732C119.734 25.4199 119.749 25.3664 119.783 25.3105Z" fill="white"/>
<path d="M123.248 24.8359C123.297 24.8701 123.333 24.9156 123.368 24.961C123.328 24.9616 123.288 24.9623 123.231 24.9559C123.221 24.9151 123.228 24.881 123.248 24.8359Z" fill="white"/>
<path d="M124.949 19.9524C125.005 19.9739 125.05 20.0132 125.094 20.0524C125.035 20.0971 124.976 20.1416 124.899 20.1787C124.899 20.1041 124.919 20.037 124.949 19.9524Z" fill="white"/>
<path d="M125.068 19.5902C125.128 19.6218 125.178 19.6671 125.228 19.7124C125.172 19.7229 125.115 19.7333 125.05 19.7228C125.047 19.6692 125.052 19.6365 125.068 19.5902Z" fill="white"/>
<path d="M125.527 18.2775C125.598 18.2988 125.655 18.3337 125.712 18.3687C125.647 18.3981 125.582 18.4277 125.498 18.4491C125.491 18.3913 125.502 18.3413 125.527 18.2775Z" fill="white"/>
<path d="M129.84 16.8471C129.847 16.891 129.834 16.945 129.805 17.0115C129.799 16.9685 129.81 16.9127 129.84 16.8471Z" fill="white"/>
<path d="M116.813 16.7715C116.849 16.7978 116.866 16.8271 116.88 16.8737C116.829 16.8763 116.781 16.8611 116.732 16.8462C116.753 16.8222 116.773 16.7981 116.813 16.7715Z" fill="white"/>
<path d="M126.245 16.1883C126.294 16.2368 126.329 16.2987 126.364 16.3605C126.321 16.3633 126.278 16.366 126.218 16.3615C126.21 16.3033 126.22 16.2524 126.245 16.1883Z" fill="white"/>
<path d="M130.201 15.8793C130.202 15.94 130.193 15.9837 130.166 16.042C130.11 16.0184 130.07 15.9801 130.03 15.9417C130.084 15.9152 130.138 15.8887 130.201 15.8793Z" fill="white"/>
<path fill-rule="evenodd" clip-rule="evenodd" d="M136.182 11.0172C136.448 11.0129 136.544 11.1055 136.519 11.3769C136.518 11.3852 136.518 11.3934 136.517 11.4016L136.803 12.4438C137.085 13.4869 137.358 14.5315 137.624 15.5779C138.669 19.6801 139.708 23.7839 140.75 27.887C140.764 27.9447 140.774 28.0037 140.785 28.0871C140.517 27.9644 140.498 27.7229 140.466 27.4836C140.498 27.7241 140.516 27.9706 140.783 28.1121C140.784 28.1132 140.804 28.1325 140.803 28.1466C140.716 28.2376 140.63 28.3142 140.514 28.417C140.63 28.3142 140.716 28.2377 140.802 28.1612C140.879 28.4346 140.955 28.7081 141.032 28.9815C141.051 28.9875 141.071 28.9935 141.09 28.9995C141.166 28.757 141.242 28.5144 141.352 28.2527C141.411 28.2714 141.451 28.3021 141.476 28.3404C141.451 28.3018 141.413 28.2687 141.363 28.2318C141.373 28.0815 141.406 27.9326 141.473 27.767C141.716 27.6533 141.764 27.4044 141.61 27.2164C141.828 26.4119 142.047 25.6072 142.302 24.7875C142.334 24.7679 142.356 24.7517 142.373 24.7378C142.358 24.7497 142.341 24.7623 142.318 24.7754C142.297 24.7787 142.302 24.7664 142.31 24.7327C142.31 24.73 142.31 24.7273 142.31 24.7248C142.304 24.7184 142.301 24.6916 142.309 24.6548C142.314 24.6582 142.316 24.6643 142.317 24.6748C142.318 24.662 142.32 24.6532 142.321 24.6444C142.321 24.6442 142.32 24.6442 142.32 24.644C142.34 24.5521 142.359 24.4601 142.416 24.355C142.515 24.3167 142.583 24.2764 142.617 24.2334C142.585 24.272 142.521 24.3075 142.428 24.3388C142.426 24.2334 142.45 24.1307 142.487 24.0105C142.608 24.0777 142.654 24.1398 142.638 24.1957C142.658 24.1355 142.614 24.069 142.501 23.9928C142.564 23.7428 142.627 23.4927 142.72 23.2263C142.779 23.1913 142.808 23.1727 142.836 23.1541C142.807 23.1353 142.777 23.1165 142.747 23.0978C143.01 22.1229 143.269 21.1469 143.537 20.1733C143.994 18.5112 144.456 16.8506 144.948 15.1796C144.984 15.1754 145.012 15.1735 145.037 15.1729L145.102 15.1736C145.061 15.1722 145.02 15.171 144.961 15.1625C144.942 15.1453 144.94 15.1351 144.947 15.1125C145.005 15.1245 145.054 15.149 145.102 15.1736C145.054 15.149 145.005 15.1244 144.956 15.0998C145.079 14.6308 145.202 14.1617 145.357 13.6833C145.438 13.6697 145.487 13.6655 145.536 13.6612C145.484 13.6235 145.432 13.5855 145.379 13.5478C145.388 13.4978 145.396 13.4479 145.434 13.3902C145.502 13.3782 145.54 13.374 145.579 13.3699C145.534 13.3469 145.489 13.3239 145.444 13.3009C145.491 13.1166 145.537 12.9324 145.613 12.737C145.683 12.7226 145.724 12.7193 145.764 12.7161C145.717 12.695 145.669 12.6739 145.621 12.6528C145.751 12.1613 145.875 11.668 146.017 11.1803C146.036 11.1171 146.15 11.0818 146.247 11.0616C146.296 11.1185 146.324 11.1782 146.351 11.1926C146.325 11.1783 146.299 11.1192 146.27 11.0666C146.727 11.0401 147.186 11.0366 147.673 11.0391C147.673 11.0933 147.652 11.1798 147.627 11.2009C147.652 11.1799 147.676 11.0937 147.701 11.0448C147.727 11.0412 147.754 11.0378 147.806 11.0631C147.823 11.0647 147.84 11.0657 147.856 11.0673C148.385 11.0437 148.919 11.0423 149.459 11.0441C149.463 11.0452 149.467 11.046 149.471 11.047C150.161 10.9793 150.162 10.981 150.328 11.6276C150.35 11.7142 150.37 11.8015 150.369 11.9157C150.313 11.9787 150.288 12.0256 150.285 12.0611C150.291 12.0307 150.316 11.9911 150.367 11.9398C150.412 12.002 150.435 12.0673 150.457 12.1538C150.385 12.1516 150.321 12.1398 150.296 12.1086C150.321 12.1453 150.384 12.1623 150.456 12.175C150.477 12.2401 150.499 12.3053 150.496 12.3948C150.454 12.4397 150.41 12.4707 150.404 12.491C150.41 12.471 150.453 12.4424 150.494 12.4157C150.659 12.9447 150.802 13.4774 150.943 14.0332C150.894 14.0455 150.816 14.0487 150.793 14.0348C150.816 14.049 150.894 14.0484 150.941 14.0563C150.977 14.1702 151.013 14.2841 151.025 14.4248C151.019 14.4678 151.015 14.5092 151.011 14.5492C151.014 14.5156 151.018 14.4816 151.023 14.4476C151.072 14.5357 151.1 14.628 151.125 14.7408C151.107 14.8038 151.092 14.8463 151.076 14.8886C151.092 14.8463 151.108 14.804 151.123 14.7617C151.176 14.9387 151.228 15.1157 151.257 15.3205C151.221 15.401 151.201 15.4804 151.195 15.5548C151.202 15.4868 151.222 15.415 151.256 15.3436C151.333 15.5362 151.39 15.7336 151.445 15.9556C151.334 15.9414 151.254 15.8647 151.217 15.7567C151.254 15.8708 151.333 15.9538 151.444 15.9799C151.472 16.071 151.499 16.1622 151.501 16.2782C151.457 16.3614 151.431 16.432 151.423 16.4925C151.431 16.4371 151.457 16.3728 151.498 16.2988C151.563 16.4403 151.606 16.586 151.646 16.7518C151.526 16.7201 151.454 16.6696 151.429 16.5957C151.453 16.6747 151.525 16.7301 151.643 16.7718C151.685 16.9151 151.727 17.0586 151.747 17.228C151.708 17.2737 151.69 17.2935 151.673 17.3132C151.714 17.329 151.756 17.3451 151.797 17.361C152.108 18.5596 152.418 19.7583 152.708 20.9841C152.668 21.0377 152.648 21.0641 152.629 21.0905C152.674 21.1043 152.719 21.1182 152.764 21.132C152.776 21.16 152.787 21.188 152.776 21.2314C152.709 21.2648 152.664 21.2825 152.62 21.3004C152.664 21.2825 152.709 21.2646 152.772 21.2463C152.804 21.2715 152.818 21.2972 152.829 21.3451C152.761 21.3601 152.696 21.3529 152.63 21.3457C152.696 21.3529 152.761 21.3601 152.827 21.3672C152.871 21.5304 152.916 21.6937 152.937 21.8836C152.887 21.9913 152.858 22.0787 152.851 22.1502C152.859 22.0841 152.887 22.0039 152.935 21.907C153.007 22.0665 153.057 22.2293 153.108 22.4136C152.972 22.3866 152.891 22.3394 152.861 22.2613C152.89 22.3451 152.972 22.3974 153.109 22.4351C153.142 22.5616 153.175 22.6882 153.185 22.8394C153.136 22.904 153.11 22.9437 153.084 22.9835C153.11 22.9437 153.136 22.9039 153.183 22.8616C153.204 22.8591 153.214 22.8681 153.212 22.8746C153.189 22.9266 153.167 22.9721 153.146 23.0177C153.167 22.9721 153.188 22.9264 153.21 22.8809C153.232 22.9399 153.254 22.9991 153.254 23.0791C153.224 23.1467 153.193 23.2073 153.179 23.2621C153.193 23.2089 153.224 23.1527 153.251 23.0981C153.386 23.5185 153.501 23.9408 153.614 24.387C153.384 24.3754 153.375 24.2185 153.357 24.0669C153.375 24.2196 153.383 24.3816 153.611 24.411C153.647 24.5315 153.682 24.6521 153.694 24.7992C153.646 24.9524 153.622 25.0791 153.597 25.2057C153.622 25.0791 153.646 24.9524 153.693 24.8229C153.745 24.9081 153.774 24.9962 153.8 25.1044C153.755 25.1576 153.712 25.1907 153.668 25.2237C153.712 25.1907 153.755 25.1577 153.798 25.1246C153.819 25.1909 153.84 25.2572 153.839 25.3472C153.799 25.3906 153.782 25.4103 153.764 25.4299C153.805 25.4458 153.847 25.4617 153.888 25.4777C153.905 25.5287 153.921 25.5798 153.914 25.6486C153.904 25.6866 153.896 25.7237 153.889 25.7601C153.896 25.7283 153.903 25.6964 153.911 25.6645C153.965 25.7669 154 25.8712 154.032 25.9991C153.995 26.0539 153.96 26.0853 153.924 26.1166C153.96 26.0853 153.995 26.0541 154.031 26.0228C154.091 26.2468 154.151 26.4707 154.189 26.7206C154.134 26.8078 154.105 26.8828 154.104 26.9457C154.106 26.8881 154.135 26.8197 154.188 26.7428C154.249 26.8639 154.288 26.9889 154.325 27.1363C154.202 27.1152 154.132 27.0684 154.111 27.0011C154.131 27.0739 154.2 27.1264 154.322 27.1588C154.347 27.2425 154.371 27.3262 154.375 27.4343C154.302 27.5436 154.257 27.646 154.248 27.7477C154.258 27.6505 154.302 27.5548 154.373 27.4564C154.431 27.5812 154.471 27.7081 154.507 27.8547C154.481 27.9476 154.458 28.0213 154.417 28.151C154.458 28.0213 154.481 27.9477 154.504 27.8743C154.594 28.158 154.683 28.442 154.772 28.7469C154.655 28.6632 154.54 28.558 154.425 28.4531C154.54 28.5579 154.655 28.6629 154.77 28.7678C154.784 28.7893 154.798 28.8109 154.813 28.8707C154.816 28.8767 154.818 28.8821 154.821 28.8874C154.843 28.8773 154.867 28.8808 154.907 28.8843C154.911 28.9152 154.896 28.9467 154.881 28.9783C154.896 28.9467 154.911 28.9152 154.926 28.8836C154.928 28.8571 154.93 28.8304 154.96 28.782C155.115 28.678 155.289 28.6115 155.399 28.5101C155.289 28.6109 155.117 28.6744 154.969 28.7637C154.996 28.5024 155.042 28.2376 155.123 27.9532C155.199 27.9332 155.243 27.9327 155.286 27.9547C155.293 27.9951 155.301 28.0298 155.311 28.0716L155.352 28.2308C155.316 28.0937 155.301 28.0354 155.286 27.931C155.286 27.821 155.286 27.7572 155.302 27.6806C155.347 27.5768 155.376 27.4859 155.414 27.3747C155.487 27.1281 155.556 26.9031 155.607 26.6741C155.556 26.9031 155.487 27.1282 155.389 27.3741C155.321 27.3911 155.288 27.3882 155.254 27.3855C155.317 27.1226 155.379 26.8597 155.455 26.5785C155.509 26.5961 155.589 26.6356 155.604 26.663C155.589 26.6354 155.51 26.5938 155.468 26.5601C155.487 26.4673 155.505 26.3742 155.562 26.2679C155.669 26.2659 155.721 26.2363 155.745 26.1941C155.721 26.2315 155.672 26.2558 155.574 26.2517C155.581 26.1034 155.614 25.958 155.659 25.7943C155.7 25.8299 155.76 25.8854 155.768 25.9323C155.76 25.8851 155.701 25.8277 155.671 25.7759C155.703 25.628 155.736 25.4801 155.806 25.3165C155.9 25.2732 155.959 25.2338 155.987 25.1924C155.961 25.2289 155.905 25.2628 155.818 25.2981C155.816 25.1924 155.838 25.089 155.874 24.9673C155.968 25.0431 156.012 25.1021 156.004 25.1541C156.015 25.0976 155.974 25.0339 155.887 24.9489C155.929 24.758 155.971 24.5671 156.048 24.3616C156.129 24.3335 156.175 24.3198 156.299 24.2831C156.168 24.2538 156.118 24.2427 156.069 24.2315C156.131 23.9623 156.194 23.6932 156.295 23.4084C156.357 23.3744 156.404 23.3364 156.438 23.2972C156.407 23.3313 156.364 23.3637 156.31 23.3916C156.312 23.2624 156.339 23.1345 156.377 22.9885C156.462 23.0336 156.502 23.0983 156.499 23.1665C156.505 23.0939 156.468 23.0241 156.388 22.9705C156.727 21.6452 157.064 20.3195 157.405 18.9946C157.626 18.1305 157.852 17.2673 158.101 16.3988C158.174 16.3651 158.221 16.3362 158.268 16.3073C158.23 16.2629 158.191 16.2184 158.152 16.174C158.204 15.9476 158.256 15.7213 158.342 15.4762C158.388 15.4437 158.43 15.419 158.462 15.3955C158.431 15.4166 158.393 15.4359 158.355 15.4579C158.416 15.1093 158.5 14.7605 158.596 14.3947C158.754 14.4088 158.765 14.4878 158.747 14.5765C158.766 14.4868 158.757 14.4045 158.61 14.3779C158.618 14.3267 158.627 14.2753 158.667 14.2158C158.719 14.1988 158.773 14.1878 158.812 14.1753C158.775 14.1859 158.723 14.1921 158.677 14.1991C158.772 13.709 158.888 13.2275 159.018 12.7285C159.214 12.8474 159.171 13.004 159.124 13.1565C159.172 13.0028 159.218 12.8424 159.031 12.7107C159.063 12.5616 159.095 12.4124 159.159 12.257C159.212 12.2581 159.271 12.2651 159.305 12.2694C159.272 12.2637 159.217 12.2521 159.173 12.2399C159.238 11.8752 159.314 11.5194 159.411 11.1692C159.427 11.1114 159.53 11.046 159.598 11.0397C159.793 11.0216 159.991 11.032 160.216 11.0372C160.316 11.0767 160.395 11.136 160.472 11.1515C160.395 11.136 160.319 11.0774 160.243 11.0432C160.288 11.0395 160.333 11.0358 160.416 11.0543C160.433 11.0554 160.449 11.0552 160.464 11.0559C160.565 11.0392 160.679 11.0351 160.815 11.0365C160.763 11.0452 160.705 11.0524 160.642 11.0568C160.711 11.054 160.776 11.0482 160.84 11.0426C161.421 11.0368 162.003 11.0311 162.622 11.0492C162.639 11.0504 162.655 11.0505 162.67 11.0511C162.754 11.033 162.849 11.0275 162.966 11.028C162.924 11.0376 162.875 11.0457 162.821 11.0508C162.881 11.0473 162.936 11.0408 162.991 11.0343C163.036 11.0284 163.081 11.0225 163.152 11.0356C163.16 11.038 163.168 11.0393 163.174 11.0403C163.18 11.0272 163.191 11.0236 163.215 11.0267C163.214 11.0338 163.209 11.0387 163.202 11.0416C163.213 11.0405 163.222 11.0376 163.23 11.0343C163.484 11.1101 163.24 11.2586 163.243 11.3848C163.24 11.3906 163.239 11.3965 163.236 11.4022C163.253 11.4032 163.249 11.4188 163.241 11.4402C163.241 11.4416 163.24 11.443 163.24 11.4443C163.244 11.4479 163.247 11.4556 163.249 11.464C163.251 11.4708 163.246 11.4792 163.235 11.4947C163.232 11.4926 163.231 11.4892 163.231 11.4839C163.229 11.4914 163.227 11.497 163.226 11.5026C163.216 11.557 163.205 11.6113 163.181 11.6815C163.181 11.6383 163.184 11.5908 163.193 11.5409C163.181 11.5948 163.174 11.6461 163.167 11.6973C163.133 11.8244 163.1 11.9514 163.035 12.0962C162.98 12.114 162.955 12.1141 162.931 12.088L163.019 11.2696C162.986 11.5607 162.958 11.8115 162.913 12.0905C162.887 12.1581 162.879 12.1973 162.867 12.2583C162.75 12.5052 162.596 12.7256 162.783 12.9846C162.776 13.003 162.769 13.0215 162.736 13.0283C162.72 13.0188 162.71 13.0124 162.704 13.0074L162.693 12.9954C162.698 13.0025 162.704 13.0097 162.708 13.0359C162.705 13.0549 162.708 13.0567 162.706 13.0577C162.701 13.0377 162.697 13.0164 162.693 12.9954C162.697 13.0164 162.7 13.0376 162.704 13.0587C162.718 13.0609 162.732 13.0631 162.723 13.077C162.641 13.1509 162.581 13.2131 162.521 13.2752C162.572 13.3067 162.623 13.3381 162.674 13.3696C162.665 13.4183 162.655 13.467 162.612 13.5314C162.505 13.5986 162.428 13.6617 162.377 13.721C162.426 13.6656 162.5 13.6071 162.599 13.5459C162.575 13.7147 162.529 13.8846 162.469 14.0702C162.337 13.9972 162.286 13.9142 162.316 13.8214C162.283 13.9181 162.33 14.0048 162.455 14.086C162.456 14.0965 162.458 14.1071 162.432 14.1348C162.32 14.2492 162.237 14.3464 162.154 14.4435C162.087 14.4563 162.021 14.469 161.915 14.4894C162.021 14.469 162.087 14.4563 162.154 14.4644C162.194 14.5509 162.234 14.6165 162.274 14.6822C162.271 14.7163 162.268 14.7506 162.235 14.7921C162.134 14.7993 162.041 14.7845 161.966 14.7949C162.041 14.7852 162.132 14.8029 162.226 14.8066C162.221 14.9164 162.194 15.0189 162.134 15.14C162.039 15.1788 161.977 15.1993 161.915 15.2195C161.863 15.172 161.77 15.1182 161.752 15.0757C161.77 15.1185 161.863 15.1743 161.918 15.2394C161.976 15.2859 162.032 15.3124 162.087 15.3388C162.076 15.3877 162.064 15.4368 162.021 15.499C161.927 15.523 161.865 15.5334 161.803 15.544C161.861 15.5949 161.919 15.646 161.978 15.6969C161.962 15.7766 161.946 15.8562 161.895 15.9385C161.819 15.9192 161.777 15.8974 161.733 15.8565C161.718 15.9014 161.7 15.9289 161.68 15.9711C161.688 15.9789 161.695 15.9873 161.704 15.9951C161.788 15.9865 161.845 15.9781 161.901 15.9695C161.883 16.0453 161.864 16.1211 161.808 16.2161C161.58 16.2076 161.541 16.3162 161.534 16.4732C161.522 16.5407 161.488 16.6085 161.446 16.6939C161.4 16.6778 161.363 16.6442 161.326 16.6106C161.363 16.6442 161.4 16.678 161.437 16.7354C161.412 16.9065 161.559 17.1016 161.295 17.1894C161.318 17.2529 161.318 17.3169 161.318 17.4189C161.318 17.4511 161.318 17.4764 161.318 17.4835C161.322 17.4824 161.325 17.4818 161.328 17.4806C161.331 17.4601 161.324 17.4443 161.318 17.4047V17.189C161.559 17.1017 161.412 16.9063 161.446 16.7176C161.488 16.6085 161.522 16.5407 161.556 16.4729C161.541 16.3161 161.581 16.2076 161.796 16.2364C161.579 17.0594 161.337 17.8814 161.082 18.722C161.033 18.6758 160.996 18.6109 160.968 18.5039C160.991 18.2763 161.005 18.0906 161.019 17.9052C161.039 17.8992 161.054 17.888 161.092 17.8561C161.144 17.8023 161.171 17.7642 161.198 17.726C161.218 17.661 161.238 17.596 161.273 17.5088C161.283 17.4946 161.298 17.4888 161.311 17.4854C161.301 17.4857 161.284 17.4867 161.273 17.487C161.2 17.4442 161.142 17.401 161.083 17.3578C161.142 17.401 161.2 17.4442 161.258 17.5091C161.238 17.5959 161.218 17.6611 161.187 17.7121C161.143 17.7473 161.111 17.7964 161.073 17.8587C161.054 17.888 161.039 17.8992 160.998 17.9093C161.005 18.0906 160.991 18.2761 160.968 18.4817C160.917 18.4673 160.835 18.4281 160.819 18.4035C160.834 18.4287 160.915 18.4726 160.96 18.5238C160.996 18.6108 161.033 18.676 161.07 18.741C161.066 18.7746 161.062 18.8083 161.022 18.8522C160.958 18.8593 160.915 18.8608 160.872 18.8541L160.827 18.8442C160.774 19.073 160.715 19.2957 160.654 19.5157C160.716 19.2972 160.778 19.0787 160.84 18.8601C160.888 18.8608 160.937 18.8616 161.009 18.8639C160.864 19.4661 160.7 20.0685 160.524 20.6672C160.218 21.7043 159.905 22.7393 159.583 23.7946C159.509 23.7994 159.446 23.7848 159.373 23.7446C159.377 23.6712 159.392 23.6232 159.407 23.5752C159.428 23.5409 159.448 23.5063 159.469 23.4657C159.445 23.5048 159.419 23.5408 159.387 23.5771C159.392 23.6231 159.377 23.6711 159.355 23.7367C159.315 23.7298 159.282 23.7052 159.25 23.6806C159.282 23.7051 159.315 23.7297 159.365 23.762C159.446 23.7846 159.509 23.7995 159.572 23.8142C159.567 23.847 159.561 23.8797 159.522 23.9212C159.475 23.9209 159.436 23.9185 159.402 23.9149L159.31 23.9023C159.368 23.9112 159.428 23.9206 159.509 23.9323C159.197 25.0759 158.863 26.2173 158.518 27.3769C158.487 27.3333 158.441 27.2751 158.427 27.2202C158.441 27.276 158.484 27.338 158.506 27.3953C158.139 28.6502 157.772 29.9053 157.405 31.16C157.268 31.6261 157.129 32.0914 156.961 32.5632C156.875 32.532 156.833 32.5169 156.813 32.5382C156.832 32.5218 156.87 32.5412 156.946 32.5796C156.964 32.6005 156.965 32.611 156.958 32.6344C156.898 32.6687 156.847 32.69 156.797 32.711C156.847 32.69 156.898 32.6687 156.949 32.6474C156.907 32.796 156.866 32.9446 156.812 33.1087C156.705 33.1223 156.601 33.1443 156.511 33.127C156.6 33.1445 156.703 33.1242 156.799 33.1242C156.716 33.1799 156.637 33.2775 156.55 33.2838C156.269 33.3043 155.986 33.2918 155.673 33.2588C155.59 33.2056 155.527 33.1569 155.467 33.1378C155.526 33.1567 155.584 33.2042 155.647 33.2518C154.89 33.2848 154.13 33.2915 153.336 33.2721C153.321 33.2706 153.306 33.2706 153.291 33.2698C153.219 33.2902 153.14 33.2955 153.041 33.2945C153.076 33.2844 153.117 33.2756 153.162 33.2702C153.111 33.2739 153.064 33.2809 153.016 33.2879C152.989 33.2925 152.963 33.2971 152.916 33.2759C152.956 33.1883 153.016 33.1267 153.076 33.065C153.102 33.065 153.129 33.0651 153.175 33.065C153.937 33.0849 154.68 33.1021 155.422 33.1289C154.68 33.1021 153.938 33.0848 153.195 33.0409C153.06 32.6438 152.923 32.2707 152.789 31.8971C152.923 32.2707 153.06 32.6437 153.175 33.0409C153.129 33.0648 153.102 33.0649 153.061 33.0485C152.886 33.0213 152.726 33.0104 152.566 32.9995C152 30.9634 151.436 28.9266 150.867 26.8913C150.432 25.3342 149.985 23.7804 149.554 22.2221C149.3 21.3 149.075 20.3695 148.821 19.4474C148.685 18.9561 148.508 18.4764 148.363 17.9875C148.291 17.746 148.25 17.4951 148.196 17.2239C148.342 17.3418 148.538 17.455 148.653 17.6051C148.538 17.4542 148.342 17.3371 148.196 17.1992C148.124 16.9898 148.052 16.7804 147.956 16.5672C147.975 16.5427 148.039 16.4989 148.059 16.4941C148.038 16.4988 147.972 16.5421 147.932 16.5634C147.933 16.5639 147.938 16.5816 147.909 16.5894C147.906 16.5906 147.902 16.5917 147.899 16.5929C147.829 16.8736 147.74 17.1601 147.624 17.4582C147.559 17.4774 147.52 17.4846 147.481 17.492C147.52 17.5322 147.559 17.5725 147.598 17.6127C147.543 17.8191 147.489 18.0257 147.401 18.2411C147.323 18.2605 147.276 18.2711 147.23 18.2816C147.266 18.3549 147.303 18.4281 147.339 18.5014C147.293 18.6712 147.248 18.8411 147.166 19.0282C147.106 19.0737 147.059 19.1183 147.025 19.1618C147.057 19.1231 147.099 19.0838 147.152 19.0446C147.137 19.1892 147.1 19.3346 147.05 19.4983C146.978 19.4369 146.948 19.3679 146.96 19.2948C146.945 19.3724 146.971 19.4463 147.037 19.5167C147.033 19.5507 147.029 19.5847 146.989 19.631C146.984 19.635 146.98 19.6396 146.976 19.6437C146.88 20.0662 146.763 20.4898 146.633 20.9313C146.593 20.9305 146.54 20.9102 146.529 20.8983C146.54 20.9105 146.591 20.9329 146.619 20.9493C146.614 20.9829 146.608 21.0166 146.566 21.0608C146.522 21.0816 146.481 21.0971 146.45 21.1127C146.479 21.0987 146.516 21.0864 146.553 21.0718C146.492 21.3763 146.409 21.6803 146.313 22.0042C146.256 22.0312 146.21 22.0381 146.142 22.0482C146.21 22.0381 146.256 22.0313 146.302 22.0245C146.28 22.1139 146.258 22.2033 146.199 22.3082C146.137 22.3331 146.084 22.3402 146.067 22.3563C146.084 22.3404 146.136 22.335 146.187 22.3234C146.114 22.6681 146.017 23.0132 145.909 23.3773C145.875 23.348 145.826 23.3024 145.809 23.2618C145.826 23.3033 145.872 23.3527 145.897 23.3963C145.828 23.6426 145.759 23.8889 145.664 24.1435C145.596 24.1665 145.554 24.1811 145.512 24.1957C145.554 24.1811 145.596 24.1665 145.652 24.1612C145.633 24.2994 145.599 24.4282 145.555 24.5734C145.405 24.5168 145.435 24.4393 145.474 24.3588C145.434 24.4413 145.4 24.5232 145.545 24.5899C145.519 24.7001 145.493 24.8105 145.438 24.9274C145.395 24.9491 145.355 24.9661 145.324 24.9841C145.353 24.9682 145.39 24.9557 145.424 24.9429C145.401 25.097 145.362 25.2424 145.313 25.4067C145.19 25.3566 145.17 25.2921 145.188 25.2234C145.168 25.2952 145.183 25.365 145.301 25.4257C145.292 25.4749 145.282 25.5241 145.243 25.5809C145.168 25.6033 145.123 25.6183 145.078 25.6331C145.111 25.7032 145.144 25.7732 145.177 25.8433C145.133 26.012 145.089 26.1807 145.01 26.3673C144.942 26.398 144.888 26.4272 144.858 26.4572C144.886 26.4315 144.936 26.4073 144.996 26.3838C145.002 26.4497 144.986 26.5172 144.959 26.6019C144.859 26.561 144.826 26.5242 144.836 26.4898C144.823 26.5284 144.852 26.5699 144.947 26.6193C144.575 27.8945 144.205 29.1703 143.83 30.4445C143.575 31.3104 143.305 32.172 143.057 33.04C143 33.2401 142.909 33.307 142.706 33.304C142.08 33.2949 141.453 33.304 140.799 33.2762C140.749 33.2207 140.661 33.1797 140.556 33.1543C140.653 33.1789 140.731 33.2179 140.772 33.2698C140.745 33.2983 140.718 33.3032 140.671 33.3012C140.652 33.2989 140.633 33.297 140.615 33.2948C140.264 33.3025 139.914 33.31 139.559 33.3028C139.579 33.2506 139.603 33.2139 139.633 33.1685C139.603 33.2139 139.579 33.2507 139.536 33.2955C139.417 33.3105 139.315 33.3172 139.188 33.3176C139.195 33.2732 139.213 33.2107 139.24 33.1793L139.254 33.1663C139.219 33.189 139.193 33.265 139.163 33.3113C138.976 33.3678 138.889 33.314 138.832 33.1087C138.148 30.6618 137.452 28.218 136.758 25.7737C136.349 24.3301 135.938 22.887 135.527 21.4059C135.524 21.3931 135.521 21.3823 135.518 21.3729C135.508 21.3625 135.499 21.345 135.488 21.321C135.492 21.324 135.495 21.329 135.5 21.3353C135.494 21.3252 135.489 21.317 135.484 21.3093C135.397 21.0245 135.31 20.7395 135.244 20.4355C135.317 20.4286 135.369 20.4411 135.421 20.4535C135.369 20.4411 135.317 20.4288 135.245 20.4143C135.206 20.3653 135.185 20.3183 135.166 20.2522C135.264 20.2785 135.361 20.3242 135.458 20.3699C135.361 20.3242 135.264 20.2785 135.168 20.2328C135.163 20.1699 135.159 20.107 135.178 20.016C135.294 19.9096 135.379 19.8651 135.433 19.9622L135.42 19.9419C135.366 19.8707 135.286 19.9114 135.182 19.991C134.984 19.4473 134.787 18.9057 134.63 18.3529C133.996 16.1246 133.374 13.8928 132.748 11.6621C132.695 11.472 132.647 11.2802 132.584 11.0419C132.71 11.0359 132.822 11.0262 132.934 11.0261C134.017 11.0247 135.1 11.0349 136.182 11.0172ZM143.167 32.175C143.176 32.1295 143.185 32.0841 143.206 32.0367C143.203 32.0311 143.2 32.0256 143.197 32.0202C143.187 32.0718 143.177 32.1234 143.167 32.175ZM157.044 31.8268C157.058 31.8128 157.073 31.7993 157.094 31.7919C157.095 31.7875 157.096 31.7828 157.095 31.7777C157.078 31.794 157.061 31.8104 157.044 31.8268ZM143.425 31.3196C143.43 31.3263 143.435 31.3331 143.436 31.3424C143.438 31.3436 143.441 31.3448 143.445 31.3452C143.438 31.3366 143.432 31.3282 143.425 31.3196ZM157.293 31.1128C157.287 31.1052 157.282 31.0975 157.28 31.0869C157.29 31.0916 157.292 31.1021 157.293 31.1128ZM158.239 27.7357C158.262 27.7485 158.285 27.7616 158.304 27.7885C158.306 27.7846 158.31 27.7805 158.313 27.7762C158.288 27.7626 158.263 27.7492 158.239 27.7357ZM137.312 26.4132C137.354 26.6081 137.392 26.8102 137.607 26.9176C137.691 27.1237 137.791 27.3251 137.862 27.5349C137.791 27.3247 137.691 27.1205 137.607 26.8929C137.392 26.8039 137.354 26.6069 137.312 26.4132ZM158.679 26.1672C158.662 26.2223 158.641 26.2715 158.607 26.3208C158.525 26.3652 158.429 26.3988 158.391 26.4515C158.429 26.3991 158.525 26.3683 158.607 26.3451C158.559 26.6348 158.479 26.8984 158.424 27.167C158.479 26.8984 158.559 26.6349 158.63 26.3451C158.648 26.2784 158.664 26.2238 158.679 26.1672ZM158.804 25.7237C158.768 25.8415 158.729 25.9543 158.69 26.0599C158.69 26.0819 158.69 26.082 158.69 26.082C158.625 26.0341 158.56 25.9859 158.495 25.938C158.56 25.9859 158.625 26.0341 158.696 26.0982C158.69 26.0821 158.69 26.082 158.69 26.082C158.729 25.9646 158.768 25.8467 158.804 25.7237ZM158.654 25.6762L158.724 25.6771L158.689 25.6749C158.681 25.6735 158.672 25.6704 158.664 25.6664C158.661 25.6693 158.657 25.6722 158.654 25.6762ZM158.993 25.1294C158.97 25.1682 158.947 25.2015 158.92 25.2288C158.91 25.2934 158.891 25.3404 158.871 25.4064C158.817 25.3731 158.765 25.3208 158.712 25.2684C158.764 25.32 158.816 25.3716 158.882 25.4359C158.883 25.4305 158.884 25.4251 158.886 25.4197C158.891 25.3405 158.91 25.2935 158.929 25.2465C158.95 25.2098 158.971 25.1728 158.993 25.1294ZM145.274 25.0319C145.254 25.0826 145.22 25.136 145.199 25.1889C145.219 25.1367 145.254 25.083 145.274 25.0319ZM158.898 24.9537C158.946 24.9709 158.993 24.9885 159.04 25.023C159.042 25.0179 159.044 25.0128 159.046 25.0075C159.047 25.0004 159.047 24.9938 159.047 24.9876C158.997 24.9891 158.948 24.9715 158.898 24.9537ZM159.147 24.2945C159.14 24.4218 159.111 24.5523 159.066 24.696C158.948 24.6194 158.93 24.5584 158.954 24.5032C158.923 24.5649 158.935 24.6363 159.049 24.7317C159.049 24.7989 159.048 24.8437 159.028 24.8888C159.045 24.9107 159.047 24.9327 159.047 24.9663C159.048 24.9287 159.049 24.9086 159.049 24.8885C159.049 24.8437 159.048 24.7989 159.066 24.7184C159.111 24.5536 159.139 24.4239 159.167 24.2945C159.161 24.2944 159.154 24.2948 159.147 24.2945ZM159.319 23.9956C159.357 24.1168 159.465 24.2545 159.284 24.2876C159.474 24.261 159.358 24.1198 159.319 23.9956ZM145.644 23.9184C145.629 23.9324 145.614 23.9456 145.593 23.9529C145.593 23.9574 145.592 23.9622 145.592 23.9675C145.609 23.9512 145.627 23.9347 145.644 23.9184ZM159.71 22.74C159.686 22.781 159.66 22.8177 159.628 22.8515C159.618 22.913 159.589 22.9672 159.543 23.0297C159.511 22.977 159.496 22.916 159.482 22.8549C159.496 22.916 159.512 22.977 159.526 23.0604C159.526 23.1275 159.526 23.1724 159.506 23.2174C159.526 23.2436 159.526 23.2702 159.526 23.3165C159.476 23.3184 159.426 23.3006 159.376 23.2827C159.424 23.2999 159.472 23.3175 159.519 23.3545C159.521 23.3494 159.524 23.3444 159.526 23.339C159.526 23.2702 159.526 23.2436 159.526 23.2171C159.526 23.1724 159.526 23.1277 159.543 23.0522C159.589 22.9673 159.617 22.9132 159.646 22.8591C159.667 22.8218 159.688 22.7843 159.71 22.74ZM159.672 22.5785C159.701 22.5915 159.729 22.6047 159.757 22.6339C159.759 22.6293 159.761 22.6248 159.763 22.62C159.763 22.6131 159.763 22.6065 159.763 22.6004C159.733 22.6056 159.702 22.5922 159.672 22.5785ZM160.191 21.0943C160.177 21.1238 160.163 21.1515 160.148 21.177L160.111 21.2317L160.067 21.341C160.021 21.4479 159.967 21.5495 159.903 21.6563C159.871 21.496 159.872 21.3919 159.915 21.3261C159.868 21.3949 159.863 21.5069 159.885 21.6854V21.9241C159.885 21.9705 159.885 21.9971 159.862 22.0242C159.857 22.1163 159.83 22.2089 159.784 22.3116C159.724 22.2403 159.679 22.1669 159.71 22.1087C159.676 22.17 159.717 22.2517 159.765 22.3443C159.765 22.4114 159.765 22.4562 159.747 22.5032C159.761 22.5225 159.763 22.5435 159.763 22.5747C159.764 22.5398 159.765 22.5204 159.765 22.501C159.765 22.4562 159.765 22.4114 159.784 22.3341C159.83 22.209 159.857 22.1163 159.885 22.0235C159.885 21.9971 159.885 21.9706 159.902 21.9219C159.939 21.8754 159.958 21.8509 159.977 21.8266C159.947 21.8127 159.916 21.7985 159.885 21.7845C159.885 21.7581 159.885 21.7317 159.903 21.6762C159.989 21.514 160.056 21.3808 160.124 21.2476C160.146 21.1992 160.168 21.1506 160.191 21.0943ZM159.76 22.0609C159.755 22.0641 159.75 22.0677 159.745 22.071C159.757 22.0626 159.771 22.0545 159.788 22.0473L159.76 22.0609ZM159.885 21.8045C159.916 21.7985 159.947 21.8127 159.977 21.8266C159.958 21.8509 159.939 21.8753 159.902 21.902C159.885 21.8777 159.885 21.851 159.885 21.8045ZM146.422 21.1291C146.415 21.1338 146.41 21.1385 146.406 21.1437L146.418 21.1317C146.419 21.1308 146.42 21.13 146.422 21.1291ZM160.546 19.8973C160.448 20.2347 160.344 20.5707 160.242 20.9281C160.198 20.8972 160.112 20.8392 160.099 20.7989C160.111 20.8384 160.191 20.8987 160.237 20.9645C160.239 20.9598 160.241 20.9551 160.242 20.9503C160.344 20.5707 160.448 20.2348 160.546 19.8973ZM152.102 19.247C152.123 19.2655 152.144 19.2842 152.162 19.316C152.165 19.3134 152.169 19.3114 152.172 19.3084L152.102 19.247ZM152.014 18.8256C152.014 18.8458 152.013 18.8658 152.003 18.886C152.006 18.8893 152.009 18.8932 152.013 18.8965C152.013 18.8729 152.014 18.8492 152.014 18.8256ZM151.985 18.8433C151.985 18.8448 151.986 18.8462 151.986 18.8477V18.8256L151.985 18.8433ZM151.845 18.3947L151.916 18.3956L151.881 18.3934C151.872 18.392 151.864 18.3889 151.855 18.3848C151.852 18.3878 151.848 18.3907 151.845 18.3947ZM145.932 11.8116C145.96 11.826 145.988 11.8407 146.016 11.8702C146.018 11.8664 146.022 11.863 146.024 11.8588L145.932 11.8116ZM136.509 11.647C136.51 11.6788 136.511 11.71 136.514 11.7407C136.511 11.7097 136.51 11.6784 136.509 11.647ZM160.006 11.2702C160.044 11.2792 160.084 11.2772 160.124 11.2803C160.037 11.3841 159.934 11.4788 159.861 11.59C159.934 11.4788 160.04 11.3841 160.151 11.2803C160.084 11.2772 160.044 11.2792 160.006 11.2702ZM133.394 11.236C133.407 11.2212 133.422 11.2075 133.443 11.2002C133.444 11.1959 133.444 11.1913 133.444 11.1863C133.427 11.2026 133.41 11.2187 133.394 11.236ZM133.153 11.2075C133.173 11.2077 133.193 11.2084 133.213 11.218C133.217 11.215 133.221 11.2122 133.224 11.2081C133.2 11.2079 133.176 11.2078 133.153 11.2075Z" fill="white"/>
<path d="M152.565 33.0178C152.726 33.0104 152.886 33.0213 153.061 33.0485C153.016 33.1266 152.956 33.1884 152.896 33.2692C152.679 33.3448 152.599 33.2201 152.565 33.0178Z" fill="white"/>
<path d="M155.258 27.6973C155.286 27.7572 155.286 27.821 155.286 27.9085C155.243 27.9327 155.199 27.9331 155.135 27.9338C155.126 27.8694 155.14 27.8045 155.163 27.7274C155.192 27.7105 155.211 27.7058 155.258 27.6973Z" fill="white"/>
<path d="M141.596 27.2335C141.764 27.4043 141.716 27.6532 141.482 27.7486C141.498 27.5816 141.54 27.4162 141.596 27.2335Z" fill="white"/>
<path d="M155.38 27.3944C155.376 27.4859 155.347 27.5767 155.274 27.6844C155.211 27.7058 155.192 27.7104 155.174 27.7151C155.193 27.6155 155.213 27.516 155.244 27.401C155.288 27.3884 155.322 27.391 155.38 27.3944Z" fill="white"/>
<path d="M145.232 25.5961C145.233 25.6715 145.216 25.7393 145.188 25.8253C145.144 25.7734 145.111 25.7032 145.078 25.6331C145.123 25.6183 145.168 25.6032 145.232 25.5961Z" fill="white"/>
<path d="M153.837 25.3684C153.868 25.3895 153.881 25.4134 153.89 25.4574C153.847 25.4617 153.805 25.4458 153.764 25.4299C153.782 25.4103 153.799 25.3906 153.837 25.3684Z" fill="white"/>
<path d="M156.057 24.248C156.118 24.2427 156.168 24.2538 156.299 24.2831C156.175 24.3198 156.129 24.3336 156.062 24.3452C156.042 24.317 156.044 24.2907 156.057 24.248Z" fill="white"/>
<path d="M142.735 23.1136C142.777 23.1165 142.807 23.1353 142.836 23.1541C142.808 23.1727 142.779 23.1913 142.731 23.2083C142.716 23.1809 142.719 23.1551 142.735 23.1136Z" fill="white"/>
<path d="M152.707 21.0088C152.741 21.0366 152.756 21.067 152.767 21.1146C152.719 21.1182 152.674 21.1043 152.629 21.0905C152.648 21.0641 152.668 21.0377 152.707 21.0088Z" fill="white"/>
<path d="M147.388 18.2579C147.393 18.3335 147.38 18.4013 147.353 18.4852C147.303 18.428 147.266 18.3549 147.23 18.2816C147.276 18.2711 147.323 18.2606 147.388 18.2579Z" fill="white"/>
<path d="M161.187 17.7121C161.171 17.7642 161.144 17.8025 161.098 17.8431C161.111 17.7965 161.143 17.7473 161.187 17.7121Z" fill="white"/>
<path d="M147.614 17.4778C147.628 17.52 147.626 17.5543 147.611 17.6006C147.559 17.5724 147.52 17.5322 147.481 17.492C147.52 17.4846 147.559 17.4774 147.614 17.4778Z" fill="white"/>
<path d="M161.318 17.4426C161.324 17.4442 161.331 17.4601 161.328 17.4806C161.318 17.4854 161.318 17.4569 161.318 17.4426Z" fill="white"/>
<path d="M151.745 17.2514C151.777 17.2725 151.789 17.2963 151.799 17.3404C151.756 17.3449 151.714 17.329 151.673 17.3132C151.69 17.2935 151.708 17.2738 151.745 17.2514Z" fill="white"/>
<path d="M158.139 16.1902C158.191 16.2185 158.23 16.2629 158.268 16.3073C158.221 16.3362 158.174 16.365 158.113 16.3804C158.108 16.3134 158.117 16.2598 158.139 16.1902Z" fill="white"/>
<path d="M161.881 15.953C161.901 15.965 161.896 15.9669 161.898 15.9682C161.845 15.9782 161.788 15.9866 161.705 15.9774C161.698 15.9316 161.717 15.9035 161.736 15.8755C161.777 15.8973 161.819 15.9192 161.881 15.953Z" fill="white"/>
<path d="M162.01 15.5145C162.022 15.5671 162.013 15.6175 161.991 15.6823C161.919 15.6459 161.861 15.5949 161.803 15.544C161.865 15.5334 161.927 15.5231 162.01 15.5145Z" fill="white"/>
<path d="M162.122 15.159C162.133 15.2091 162.123 15.2591 162.1 15.324C162.032 15.3126 161.976 15.286 161.918 15.2394C161.977 15.1991 162.039 15.1789 162.122 15.159Z" fill="white"/>
<path d="M162.423 14.1484C162.396 14.3136 162.35 14.4827 162.288 14.667C162.234 14.6167 162.194 14.5509 162.154 14.4644C162.237 14.3465 162.32 14.2492 162.423 14.1484Z" fill="white"/>
<path d="M145.369 13.5646C145.432 13.5857 145.484 13.6235 145.536 13.6612C145.487 13.6655 145.438 13.6698 145.37 13.6662C145.353 13.6327 145.356 13.6069 145.369 13.5646Z" fill="white"/>
<path d="M145.435 13.3097C145.489 13.3237 145.534 13.3469 145.579 13.3699C145.54 13.374 145.502 13.3781 145.446 13.375C145.418 13.3517 145.417 13.3353 145.435 13.3097Z" fill="white"/>
<path d="M162.723 13.0979C162.729 13.1844 162.712 13.2618 162.684 13.3544C162.623 13.3382 162.572 13.3067 162.521 13.2752C162.581 13.2131 162.641 13.151 162.723 13.0979Z" fill="white"/>
<path d="M163 12.2384C162.935 12.4789 162.871 12.7197 162.795 12.9726C162.596 12.7259 162.75 12.5053 162.888 12.2583C162.943 12.2371 162.972 12.2376 163 12.2384Z" fill="white"/>
<path d="M145.612 12.6664C145.669 12.674 145.717 12.695 145.764 12.7161C145.724 12.7193 145.683 12.7227 145.626 12.719C145.607 12.7014 145.605 12.6906 145.612 12.6664Z" fill="white"/>
<path d="M163.022 12.1136C163.037 12.1479 163.033 12.1827 163.015 12.2279C162.972 12.2378 162.943 12.237 162.893 12.2365C162.879 12.1974 162.887 12.158 162.913 12.1165C162.955 12.1141 162.98 12.1141 163.022 12.1136Z" fill="white"/>
<path d="M171.008 32.5715C168.712 31.3014 167.317 29.379 166.747 26.8591C166.311 24.9281 166.35 22.9968 167.011 21.1226C167.873 18.6776 169.486 16.9144 171.947 15.9904C174.161 15.1592 176.417 15.1009 178.645 15.8466C181.183 16.6962 182.973 18.4085 183.883 20.9417C184.81 23.5215 184.759 26.1088 183.591 28.6057C182.619 30.685 181.012 32.1447 178.85 32.9398C176.201 33.9142 173.584 33.8031 171.008 32.5715ZM180.419 26.6273C180.74 25.5939 180.777 24.5386 180.674 23.4697C180.559 22.2663 180.145 21.1832 179.345 20.2736C178.185 18.9535 176.685 18.4163 174.96 18.56C173.161 18.71 171.777 19.5662 170.922 21.1858C170.244 22.4698 170.116 23.8556 170.246 25.2759C170.347 26.3879 170.617 27.453 171.268 28.3821C172.13 29.6119 173.366 30.2207 174.823 30.3642C177.355 30.6135 179.632 29.088 180.419 26.6273Z" fill="white"/>
<path fill-rule="evenodd" clip-rule="evenodd" d="M198.087 15.3462C198.069 15.356 198.046 15.3646 198.02 15.3703C198.052 15.3657 198.081 15.3585 198.109 15.3513C198.136 15.3474 198.162 15.3437 198.209 15.3601C198.257 15.4069 198.284 15.4334 198.311 15.4599C198.317 15.5044 198.322 15.549 198.3 15.6245C198.297 15.6482 198.295 15.672 198.292 15.6957C198.312 16.8198 198.312 17.953 198.312 19.0795C197.658 19.1281 197.023 19.1537 196.394 19.2268C195.47 19.334 194.627 19.6546 194.001 20.3735C193.46 20.9953 193.257 21.7714 193.151 22.5666C193.084 23.0773 193.045 23.5956 193.043 24.1107C193.03 26.9455 193.033 29.7806 193.03 32.6155C193.03 32.7141 193.022 32.8128 193.006 32.9201C192.949 32.8682 192.871 32.814 192.833 32.7551L192.818 32.7254C192.845 32.7959 192.938 32.8606 192.994 32.9286C192.993 32.9454 192.984 32.9561 192.966 32.9622C192.965 32.9629 192.964 32.9634 192.963 32.9641C192.991 33.0511 193.019 33.138 193.059 33.2652H189.415V15.659H193.048V18.0098C193.075 18.0239 193.102 18.038 193.128 18.0522C194.204 16.3756 195.762 15.5369 197.726 15.3915C197.688 15.4604 197.639 15.5292 197.577 15.558L197.603 15.5434C197.654 15.5099 197.7 15.452 197.75 15.3978C197.795 15.3684 197.84 15.3598 197.91 15.3731C197.92 15.374 197.93 15.3738 197.94 15.3741C197.979 15.3531 198.023 15.3471 198.087 15.3462ZM192.89 33.0109C192.706 33.1173 192.514 33.1414 192.318 33.1385C192.514 33.1416 192.707 33.1178 192.89 33.0109ZM192.178 33.1331C192.184 33.1336 192.191 33.1334 192.198 33.1338C192.137 33.1301 192.076 33.1255 192.015 33.1205L192.178 33.1331Z" fill="white"/>
<path d="M198.229 15.3649C198.26 15.3747 198.292 15.4 198.318 15.4424C198.284 15.4332 198.257 15.4067 198.229 15.3649Z" fill="white"/>
<path d="M204.845 15.627C204.929 15.6275 205.045 15.7006 205.093 15.7745C205.947 17.0929 206.793 18.4161 207.639 19.7396C207.96 20.2418 208.273 20.7493 208.595 21.2505C208.669 21.3648 208.768 21.4629 208.856 21.569C210.026 19.6217 211.183 17.6969 212.384 15.765C212.504 15.7756 212.581 15.81 212.657 15.8087C212.647 15.8089 212.638 15.8083 212.628 15.8075C212.561 15.8015 212.491 15.773 212.402 15.7555C212.486 15.7105 212.596 15.632 212.706 15.6308C213.636 15.6211 214.565 15.6255 215.522 15.633C215.513 15.6724 215.483 15.7306 215.45 15.7451C215.484 15.7307 215.516 15.6732 215.549 15.6403C215.613 15.6369 215.677 15.6339 215.768 15.6577C215.884 15.757 215.973 15.8291 216.062 15.9012C216.061 15.9016 216.054 15.9035 216.034 15.8986C215.977 15.9657 215.942 16.0381 215.907 16.1104C214.24 18.6626 212.574 21.2151 210.908 23.7671C210.523 24.3567 210.53 24.3511 210.919 24.9563C212.641 27.6412 214.36 30.329 216.078 33.0169C216.129 33.0969 216.162 33.1885 216.216 33.3006C215.522 33.3006 214.867 33.2999 214.212 33.3006C213.834 33.301 213.447 33.2529 213.079 33.3155C212.329 33.4431 211.93 33.1027 211.561 32.4841C210.578 30.838 209.528 29.232 208.502 27.6122C208.446 27.5241 208.358 27.456 208.256 27.3472C208.052 27.688 207.868 27.9988 207.682 28.3088C206.742 29.8765 205.799 31.4424 204.865 33.0141C204.757 33.1967 204.633 33.2956 204.42 33.2962C203.276 33.2992 202.131 33.3067 200.986 33.3114C200.97 33.3114 200.954 33.2948 200.897 33.2642C201.177 32.8305 201.451 32.3979 201.732 31.9696C203.241 29.6682 204.74 27.3598 206.275 25.0753C206.517 24.7151 206.522 24.4919 206.292 24.136C204.616 21.5397 202.963 18.9282 201.304 16.321C201.172 16.1134 201.047 15.9014 200.9 15.6602C200.998 15.6484 201.07 15.6324 201.142 15.6321C202.376 15.627 203.61 15.6211 204.845 15.627Z" fill="white"/>
<path d="M216.035 15.9021C216.019 15.9765 215.982 16.0424 215.926 16.1095C215.942 16.0383 215.977 15.966 216.035 15.9021Z" fill="white"/>
<path d="M216.244 15.6416C216.181 15.7405 216.138 15.8076 216.078 15.8879C215.973 15.829 215.885 15.7568 215.792 15.6631C215.921 15.6415 216.055 15.6416 216.244 15.6416Z" fill="white"/>
</svg>
