<svg width="168" height="27" viewBox="0 0 168 27" fill="none" xmlns="http://www.w3.org/2000/svg">
<g clip-path="url(#clip0_524_475)">
<path d="M0.394531 25.95V3.08154L6.07032 3.08154C11.1874 3.08154 14.8306 5.67284 14.8306 10.0031C14.8306 14.1053 11.4183 16.9275 6.82576 16.9275C5.80805 16.9275 4.85876 16.7964 3.87241 16.5341V25.95H0.394531ZM3.87241 15.9126C4.52808 16.1749 5.15239 16.2405 5.83941 16.2405C8.72719 16.2405 11.0562 13.7461 11.0562 9.84345C11.0562 5.94081 8.56184 3.6745 4.98704 3.6745H3.87241V15.9126Z" fill="white"/>
<path d="M17.8594 0.655762L20.9097 0.655762V12.4663H21.0408C22.1896 10.4993 24.0911 9.4474 26.1265 9.4474C29.5388 9.4474 31.0155 11.4486 31.0155 14.5644V25.9502H27.931V14.5986C27.931 12.9908 27.7685 10.5962 25.0118 10.5962C22.4519 10.5962 21.0094 12.9253 21.0094 15.4539V25.9531H17.8594V0.658615V0.655762Z" fill="white"/>
<path d="M41.9397 9.44678C46.8601 9.44678 48.8955 13.1527 48.8955 17.8792C48.8955 21.5224 47.5842 26.1805 41.6433 26.1805C36.3609 26.1805 34.6875 22.3092 34.6875 18.0103C34.6875 13.7115 36.6231 9.44678 41.9397 9.44678ZM41.8086 25.656C45.0242 25.656 45.5488 21.6849 45.5488 17.979C45.5488 13.8768 44.7933 9.93995 41.8086 9.93995C38.8239 9.93995 38.0685 14.2388 38.0685 18.2412C38.0685 22.2437 38.9864 25.656 41.8086 25.656Z" fill="white"/>
<path d="M52.0392 20.2426C52.005 20.4393 52.005 20.6674 52.005 20.8014C52.005 23.9514 53.8095 25.6248 56.9253 25.6248C59.4853 25.6248 60.9591 24.1139 60.9591 22.2467C60.9591 17.62 51.871 19.0966 51.871 13.914C51.871 11.9784 53.1823 9.45264 57.2845 9.45264C61.9768 9.45264 63.0915 12.5029 63.0915 14.3416C63.0915 14.6039 63.0915 14.8662 63.0259 15.0629H60.3035C60.3035 11.0918 58.6643 9.97718 57.0565 9.97718C55.4487 9.97718 54.4652 11.1916 54.4652 12.8963C54.4652 16.799 63.6502 15.3251 63.6502 21.3601C63.6502 22.8368 62.5356 26.1835 57.122 26.1835C53.4475 26.1835 51.4805 24.2479 51.4805 20.9981C51.4805 20.8356 51.4805 20.5049 51.5118 20.2426H52.0364H52.0392Z" fill="white"/>
<path d="M88.7563 24.311C87.2141 25.4912 85.247 26.2466 82.8496 26.3122C79.1094 26.3122 75.4662 25.0008 75.2695 20.6677C75.2695 20.4368 75.2695 20.2088 75.3037 19.9779C75.3693 18.3701 76.1247 15.22 79.7993 13.3813L79.5371 13.0877C78.2884 11.5454 77.5358 10.0374 77.5358 8.49516C77.5358 5.54181 79.309 2.98472 83.3428 2.81938C83.5395 2.78517 83.7048 2.78516 83.9015 2.78516C84.0982 2.78516 84.2949 2.78517 84.4916 2.81938C87.7386 3.01608 89.6429 5.31375 89.6429 7.97062C89.6429 8.20153 89.6429 8.4638 89.6087 8.69186L86.6895 8.69186C86.6895 5.31376 85.4095 3.27834 83.4739 3.27834C81.3416 3.27834 80.3239 5.18263 80.3239 7.14963C80.3239 8.52653 80.8484 10.0374 81.8005 11.1834L82.2595 11.6766L90.5266 21.5201C91.4445 20.1432 92.0346 18.4014 92.1657 16.3346C92.2313 15.5136 92.2 14.6613 92.1002 13.8089H92.6247C92.7217 14.6299 92.7216 15.4481 92.6589 16.2377C92.5278 18.3045 91.9035 20.2715 90.8858 21.9135L94.2639 25.9501L90.0961 25.9501L88.7506 24.311H88.7563ZM80.2269 13.9429C79.8649 14.4332 79.5371 15.0575 79.2748 15.6818C78.8158 16.862 78.6191 18.1734 78.7503 19.4875C79.1437 22.8029 81.3416 24.8355 84.3947 24.8355H84.8537C86.0994 24.7699 87.2483 24.3765 88.266 23.7209L80.2269 13.9429Z" fill="white"/>
<path d="M122.451 15.9748H125.763V26.2431H125.404L122.778 21.9129C121.564 24.7009 118.907 26.1776 116.019 26.1776C108.998 26.1776 105.258 22.0754 105.258 14.9571C105.258 7.11477 109.95 2.8501 115.985 2.8501C122.775 2.8501 125.107 6.85251 125.107 9.90278C125.107 10.1993 125.107 10.5584 125.073 10.7894H121.792C121.792 5.11356 119.035 3.37462 116.016 3.37462C112.342 3.37462 109.029 6.52468 109.029 14.4297C109.029 22.3348 112.211 25.5846 116.148 25.5846C120.905 25.5846 122.448 22.0069 122.448 18.988V15.9691L122.451 15.9748Z" fill="white"/>
<path d="M130.405 10.0372C131.095 9.74362 132.21 9.54408 133.259 9.47852C133.849 9.47852 134.408 9.51272 134.998 9.54408C137.72 9.93748 139.1 11.7106 139.527 14.2677C140.217 17.8767 140.708 20.5992 141.167 22.8627C141.56 24.6672 142.019 25.3228 142.906 25.3884H143.33L143.396 25.9129C142.906 26.0783 142.281 26.1438 141.888 26.1752C139.855 26.1752 138.607 25.7476 138.082 23.6152C136.574 25.32 134.901 26.1068 133.028 26.1752C132.797 26.1752 132.603 26.1752 132.406 26.141C130.143 26.0099 128.566 24.4362 128.566 21.8421C128.566 17.7741 132.831 15.9696 136.671 15.904C136.146 12.754 135.163 10.2938 132.406 10.2938C131.882 10.2938 131.226 10.328 130.536 10.5247L130.405 10.0316V10.0372ZM134.276 24.8354C135.522 24.8354 137.033 24.1455 137.951 23.0964C137.558 21.423 137.196 18.9287 136.737 16.4029C132.438 16.6652 131.751 19.7497 131.751 21.2919C131.751 23.6523 132.669 24.8354 134.276 24.8354Z" fill="white"/>
<path d="M147.705 2.19824C148.789 2.19824 149.706 3.11618 149.706 4.19945C149.706 5.28273 148.789 6.16646 147.705 6.16646C146.622 6.16646 145.738 5.27988 145.738 4.19945C145.738 3.11903 146.625 2.19824 147.705 2.19824ZM149.213 9.64434V25.9505H146.032C146.032 21.5546 146.063 14.0744 146.063 9.64434H149.213Z" fill="white"/>
<path d="M154.17 10.0372C154.86 9.74362 155.974 9.54408 157.023 9.47852C157.613 9.47852 158.172 9.51272 158.762 9.54408C161.485 9.93748 162.864 11.7106 163.289 14.2677C163.979 17.8767 164.469 20.5992 164.928 22.8627C165.322 24.6672 165.781 25.3228 166.667 25.3884H167.092L167.158 25.9129C166.664 26.0783 166.04 26.1438 165.65 26.1752C163.614 26.1752 162.368 25.7476 161.844 23.6152C160.336 25.32 158.662 26.1068 156.792 26.1752C156.561 26.1752 156.365 26.1752 156.168 26.141C153.905 26.0099 152.328 24.4362 152.328 21.8421C152.328 17.7741 156.593 15.9696 160.433 15.904C159.908 12.754 158.922 10.2938 156.168 10.2938C155.644 10.2938 154.988 10.328 154.298 10.5247L154.167 10.0316L154.17 10.0372ZM158.041 24.8354C159.287 24.8354 160.798 24.1455 161.716 23.0964C161.322 21.423 160.96 18.9287 160.501 16.4029C156.202 16.6652 155.515 19.7497 155.515 21.2919C155.515 23.6523 156.433 24.8354 158.041 24.8354Z" fill="white"/>
</g>
<defs>
<clipPath id="clip0_524_475">
<rect width="166.763" height="25.6564" fill="white" transform="translate(0.394531 0.655762)"/>
</clipPath>
</defs>
</svg>
