<svg width="213" height="27" viewBox="0 0 213 27" fill="none" xmlns="http://www.w3.org/2000/svg">
<g clip-path="url(#clip0_524_435)">
<path d="M177.582 2.53569C178.795 3.535 179.683 4.88238 180.051 6.41017C180.081 6.53687 180.112 6.66358 180.143 6.79412C180.37 9.04065 179.735 11.0628 178.324 12.8409C177.571 13.7403 176.722 14.4437 175.738 15.0908C175.619 15.1692 175.501 15.2475 175.379 15.3282C174.675 15.7701 173.981 16.0735 173.177 16.2928C173.233 16.388 173.288 16.4832 173.345 16.5813C174.078 17.8735 174.532 19.0496 174.163 20.5397C173.471 22.5591 172.235 23.9891 170.331 24.9883C168.351 25.9164 166.009 26.2476 163.887 25.6589C163.223 25.4155 162.606 25.0956 161.983 24.7632C161.6 24.5436 161.6 24.5436 161.183 24.5728C160.974 24.6696 160.764 24.7674 160.559 24.8714C157.013 26.6622 152.737 26.8195 148.983 25.6235C146.703 24.8128 144.817 23.6667 143.663 21.5012C142.867 19.7883 142.694 17.9812 143.267 16.1676C144.472 13.0307 147.003 11.3904 149.862 9.88244C149.807 9.80618 149.752 9.72991 149.695 9.65134C148.969 8.56939 148.649 7.436 148.852 6.13473C149.326 4.30971 150.521 2.70819 152.154 1.73596C154.298 0.597716 156.575 0.179825 158.986 0.626357C159.808 0.880701 160.53 1.2822 161.254 1.73909C161.583 1.9057 161.583 1.9057 161.921 1.78135C162.033 1.7223 162.145 1.66325 162.261 1.60241C167.008 -0.813381 173.225 -0.667689 177.582 2.53569ZM162.261 2.27016C162.647 2.66427 163.041 3.02787 163.466 3.38028C164.15 3.96706 164.892 4.68636 164.984 5.62035C164.997 6.25974 164.989 6.70168 164.552 7.21146C164.144 7.5264 163.708 7.52697 163.2 7.51195C162.801 7.46161 162.566 7.33538 162.261 7.07791C161.876 6.37765 161.94 5.60062 161.927 4.82428C161.903 4.09978 161.783 3.58637 161.453 2.9379C160.23 3.66102 159.294 4.88328 158.884 6.23489C158.583 7.62842 158.716 8.84615 159.498 10.0577C160.085 10.7786 160.888 10.9997 161.786 11.1345C163.328 11.2141 164.888 10.4474 166.28 9.87654C166.532 9.7737 166.785 9.67351 167.038 9.57335C168.458 8.99462 169.846 8.32542 170.617 6.94437C170.994 5.99916 171.092 4.96398 170.735 3.99742C170.574 3.67855 170.405 3.37296 170.212 3.07145C171.098 3.36341 171.682 4.01835 172.119 4.82584C172.625 6.16404 172.649 7.65806 172.113 8.9789C170.684 11.8917 166.706 12.8473 163.878 13.8889C163.629 13.9821 163.379 14.0755 163.129 14.169C162.661 14.3444 162.192 14.5182 161.722 14.6902C161.997 14.8271 162.272 14.9624 162.551 15.0919C163.515 15.5712 164.078 16.2045 164.535 17.1692C164.934 18.3697 164.809 19.7535 164.317 20.9028C163.755 22.0034 162.975 22.8767 162.126 23.7715C162.82 24.7101 163.796 25.1307 164.937 25.3365C166.155 25.4948 167.244 25.2969 168.267 24.5979C169.491 23.5784 170.234 22.08 170.617 20.5663C170.643 20.4679 170.669 20.3694 170.696 20.2679C170.779 19.7139 170.771 19.1643 170.768 18.6048C170.769 18.4891 170.769 18.3733 170.77 18.254C170.77 18.1434 170.77 18.0328 170.769 17.9188C170.769 17.7679 170.769 17.7679 170.769 17.6138C170.767 17.3493 170.767 17.3493 170.617 17.0941C170.454 17.1068 170.291 17.1196 170.123 17.1327C166.608 17.3804 166.608 17.3804 165.274 16.4555C164.981 16.1942 164.957 16.034 164.931 15.6417C164.957 15.2221 165.006 15.0402 165.226 14.6902C166.216 13.9326 167.423 13.9745 168.604 14.1143C169.615 14.2763 170.398 14.6088 171.265 15.1326C171.652 15.3834 171.652 15.3834 171.951 15.3402C173.243 14.8111 174.117 13.2235 174.66 12.0192C175.695 9.48043 175.988 6.62965 175.06 4.01568C174.505 2.82216 173.591 1.74959 172.369 1.20176C168.964 -0.0195793 165.358 0.457814 162.261 2.27016ZM154.984 1.73596C154.845 1.82686 154.706 1.91775 154.563 2.0114C153.184 3.26165 152.487 5.14178 152.288 6.94437C152.277 7.23911 152.271 7.53415 152.271 7.82913C152.271 7.97408 152.271 8.11903 152.27 8.26838C152.287 8.64408 152.337 8.98286 152.423 9.34825C152.652 9.31519 152.652 9.31519 152.886 9.28147C154.518 9.10774 156.427 8.94712 157.839 9.90748C158.117 10.3341 158.191 10.5924 158.158 11.0938C158.018 11.5767 157.687 11.7618 157.275 12.0192C155.94 12.5462 154.417 12.395 153.097 11.8857C152.669 11.6828 152.25 11.4712 151.834 11.2456C151.463 11.0472 151.463 11.0472 150.941 11.0844C149.111 12.2987 148.178 14.654 147.706 16.6934C147.3 18.9113 147.328 21.4624 148.65 23.3709C149.674 24.7809 151.131 25.4744 152.827 25.7748C155.568 25.9541 158.414 25.6786 160.779 24.1722C160.62 23.7015 160.495 23.6349 160.096 23.3542C159.255 22.724 158.244 21.9221 158.083 20.8334C158.067 20.1939 158.126 19.7646 158.496 19.2309C158.991 18.897 159.374 18.7886 159.97 18.8302C160.517 19.0309 160.723 19.1483 161.048 19.6315C161.079 20.0152 161.098 20.3909 161.107 20.775C161.142 21.6922 161.24 22.5102 161.587 23.3709C162.1 23.1339 162.412 22.8486 162.8 22.436C162.867 22.367 162.935 22.298 163.004 22.2268C164.093 21.0555 164.338 19.8101 164.312 18.2569C164.255 17.281 163.928 16.5777 163.205 15.8921C162.318 15.3474 161.325 15.1095 160.291 15.2839C159.261 15.5347 158.291 15.888 157.316 16.2959C157.064 16.4011 156.812 16.5042 156.559 16.6071C154.866 17.3024 153.397 17.911 152.44 19.523C151.969 20.6892 152.109 21.6369 152.548 22.7809C152.692 23.1282 152.692 23.1282 152.962 23.5044C151.754 22.6667 151.001 21.8912 150.671 20.4328C150.531 19.0224 150.603 17.8055 151.454 16.6204C152.218 15.7023 153.123 15.1099 154.175 14.5567C154.401 14.4366 154.401 14.4366 154.631 14.3141C156.718 13.2595 158.984 12.5417 161.183 11.7521C160.999 11.3866 160.791 11.3555 160.416 11.1929C159.411 10.7011 158.959 10.1464 158.572 9.10619C158.157 7.7154 158.311 6.5399 158.892 5.20823C159.457 4.19634 160.189 3.31638 161.048 2.53725C160.205 1.59702 159.13 1.14735 157.866 1.01866C156.73 0.998443 155.932 1.10025 154.984 1.73596ZM152.693 10.016C152.957 10.7789 153.303 11.2846 154.032 11.6603C154.96 12.0343 156.094 12.0797 157.03 11.702C157.413 11.5047 157.413 11.5047 157.679 11.2179C157.746 10.7561 157.746 10.7561 157.679 10.2831C157.113 9.65762 156.176 9.55456 155.37 9.48545C154.469 9.47692 153.485 9.56652 152.693 10.016ZM165.361 15.2244C165.306 15.6942 165.306 15.6942 165.496 16.1592C166.482 16.9033 167.679 16.9045 168.865 16.827C169.414 16.7231 169.947 16.5868 170.482 16.4263C170.088 15.5282 169.701 14.9919 168.772 14.59C167.669 14.2152 166.147 14.2513 165.361 15.2244Z" fill="white"/>
<path d="M0 1.20235C1.83593 1.1899 3.67184 1.18044 5.5078 1.17467C6.36057 1.1719 7.2133 1.16814 8.06604 1.16205C8.89094 1.15619 9.71581 1.15304 10.5407 1.15166C10.8535 1.15069 11.1662 1.14878 11.4789 1.14587C14.5391 1.11854 17.7895 1.37588 20.2084 3.45859C20.6521 3.91004 20.9867 4.39133 21.2933 4.94172C21.374 5.08495 21.4546 5.22818 21.5376 5.37575C21.9905 6.79296 21.8924 8.09399 21.2633 9.4323C20.2949 11.1859 18.6023 12.1205 16.715 12.6749C16.3559 12.7744 15.9953 12.8668 15.6331 12.9546C15.846 12.9864 15.846 12.9864 16.0632 13.0188C18.3785 13.382 20.8639 13.9502 22.3715 15.8927C23.2116 17.247 23.543 18.6298 23.227 20.2033C22.7845 21.8159 21.8746 22.8499 20.4847 23.7721C18.4578 24.8943 16.1735 25.2874 13.8767 25.2715C13.6496 25.2715 13.6496 25.2715 13.4179 25.2716C12.9242 25.2714 12.4306 25.2693 11.937 25.2672C11.592 25.2667 11.247 25.2663 10.9021 25.2661C10.0912 25.2652 9.28033 25.2631 8.46946 25.2604C7.54513 25.2574 6.6208 25.2559 5.69646 25.2546C3.79764 25.2518 1.89882 25.2471 0 25.2411C0 25.1089 0 24.9767 0 24.8405C0.0991966 24.829 0.198393 24.8174 0.300596 24.8055C1.16103 24.6829 1.16103 24.6829 1.9036 24.2562C2.30932 23.6933 2.30813 23.2256 2.30998 22.5429C2.31075 22.3727 2.31152 22.2025 2.31232 22.0272C2.31248 21.8388 2.31263 21.6505 2.31277 21.4622C2.3134 21.2637 2.31407 21.0651 2.3148 20.8666C2.31657 20.3274 2.31744 19.7882 2.31804 19.249C2.31843 18.912 2.31898 18.575 2.31959 18.238C2.32143 17.1832 2.32273 16.1284 2.32325 15.0735C2.32386 13.8566 2.32622 12.6398 2.33012 11.4229C2.33304 10.4818 2.3344 9.54064 2.33458 8.59948C2.33472 8.03762 2.33551 7.47577 2.33792 6.91392C2.34015 6.38523 2.34043 5.85657 2.33925 5.32789C2.33915 5.13424 2.33973 4.9406 2.34107 4.74696C2.37093 3.38169 2.37093 3.38169 1.88675 2.13719C1.28691 1.72248 0.710952 1.66373 0 1.60299C0 1.47078 0 1.33857 0 1.20235ZM7.00794 1.73654C7.00794 5.39445 7.00794 9.05235 7.00794 12.8211C7.98357 12.8266 8.95921 12.8321 9.96441 12.8378C10.4228 12.8414 10.4228 12.8414 10.8904 12.8452C11.1361 12.8459 11.3817 12.8466 11.6274 12.8472C11.8145 12.8492 11.8145 12.8492 12.0054 12.8513C13.3125 12.8517 14.5945 12.6637 15.6215 11.8038C16.899 10.5055 17.0152 8.67635 17.0143 6.95336C16.9926 5.43202 16.7686 3.98891 15.6873 2.84406C14.866 2.08212 13.8198 1.7184 12.6994 1.72138C12.5708 1.7214 12.4423 1.72141 12.3099 1.72143C12.1759 1.72211 12.0419 1.7228 11.9038 1.7235C11.7178 1.7237 11.7178 1.7237 11.5281 1.72391C11.0658 1.72461 10.6036 1.72647 10.1413 1.7282C9.10729 1.73095 8.07328 1.7337 7.00794 1.73654ZM7.00794 13.3553C7.00794 17.1454 7.00794 20.9355 7.00794 24.8405C8.19482 24.8295 9.38171 24.8185 10.6046 24.8071C10.9756 24.805 11.3466 24.8029 11.7289 24.8007C12.0285 24.7968 12.3281 24.7927 12.6277 24.7883C12.8543 24.7881 12.8543 24.7881 13.0855 24.7879C14.5797 24.7616 16.0333 24.4959 17.1324 23.4268C18.1457 22.1339 18.2199 20.6491 18.2274 19.0812C18.2302 18.939 18.2329 18.7968 18.2358 18.6503C18.2431 17.1546 18.0229 15.7012 16.9808 14.5572C15.7057 13.3933 13.9674 13.2923 12.3118 13.3162C12.1078 13.3168 12.1078 13.3168 11.8997 13.3174C11.4006 13.3195 10.9015 13.3251 10.4024 13.3303C8.72214 13.3426 8.72214 13.3426 7.00794 13.3553Z" fill="white"/>
<path d="M185.035 1.20292C186.001 1.14831 186.966 1.11116 187.933 1.08554C188.261 1.07486 188.589 1.06032 188.917 1.04172C191.557 0.895762 191.557 0.895762 192.357 1.40125C192.895 1.88987 193.28 2.45989 193.644 3.08336C193.832 3.40188 194.053 3.68378 194.288 3.96989C194.416 4.13801 194.544 4.30633 194.671 4.47487C195.241 5.22124 195.824 5.95477 196.423 6.67842C197.099 7.49481 197.75 8.32674 198.394 9.16838C198.893 9.81799 199.405 10.4546 199.927 11.0855C200.603 11.9019 201.254 12.7339 201.898 13.5755C202.397 14.2251 202.909 14.8617 203.431 15.4926C204.1 16.3008 204.749 17.1217 205.383 17.9568C205.877 18.604 206.385 19.2386 206.898 19.8716C206.973 19.9643 207.047 20.0571 207.125 20.1526C207.309 20.38 207.492 20.6073 207.676 20.8346C207.689 18.7902 207.698 16.7458 207.704 14.7013C207.707 13.7519 207.711 12.8025 207.717 11.8531C207.722 11.025 207.726 10.1968 207.727 9.36863C207.728 8.9307 207.73 8.49283 207.733 8.05492C207.737 7.56428 207.738 7.07374 207.737 6.58309C207.74 6.36882 207.74 6.36882 207.743 6.15023C207.736 4.81011 207.445 3.47908 206.48 2.48781C205.751 1.93667 204.804 1.70012 203.903 1.60357C203.903 1.47135 203.903 1.33914 203.903 1.20292C206.705 1.20292 209.506 1.20292 212.393 1.20292C212.393 1.33513 212.393 1.46735 212.393 1.60357C212.299 1.6151 212.204 1.62664 212.107 1.63852C210.947 1.80869 210.142 2.12215 209.386 3.03087C208.636 4.13755 208.557 5.32193 208.544 6.62283C208.539 6.86711 208.539 6.86711 208.534 7.11631C208.525 7.65183 208.519 8.1873 208.514 8.72287C208.512 8.90893 208.51 9.09499 208.508 9.28105C208.5 10.0563 208.493 10.8316 208.489 11.6069C208.483 12.7093 208.471 13.8112 208.449 14.9134C208.435 15.6934 208.427 16.4731 208.426 17.2532C208.424 17.7168 208.42 18.1798 208.408 18.6433C208.356 20.89 208.517 22.3877 210.061 24.1053C210.137 24.1837 210.212 24.2621 210.29 24.3429C210.911 25.0065 210.911 25.0065 210.911 25.3753C205.685 25.6112 205.685 25.6112 204.685 24.8322C204.296 24.4051 204.031 23.9232 203.785 23.4043C203.53 22.9011 203.174 22.478 202.825 22.0365C202.691 21.8587 202.557 21.6807 202.424 21.5023C202.011 20.956 201.578 20.4272 201.14 19.8998C200.56 19.2003 199.999 18.4908 199.455 17.763C198.835 16.9333 198.19 16.1286 197.53 15.3303C196.915 14.5863 196.323 13.8278 195.734 13.0633C195.362 12.583 194.987 12.1057 194.612 11.6281C194.531 11.525 194.45 11.4219 194.367 11.3157C193.886 10.7035 193.403 10.0926 192.919 9.48295C192.35 8.76646 191.783 8.04855 191.218 7.32947C191.144 7.23548 191.069 7.14148 190.993 7.04464C190.541 6.46902 190.096 5.88838 189.655 5.3044C189.599 5.23074 189.543 5.15709 189.486 5.0812C189.35 4.90138 189.214 4.72151 189.078 4.54164C189.069 6.6534 189.062 8.76516 189.057 10.8769C189.055 11.8576 189.052 12.8383 189.048 13.819C189.044 14.6745 189.041 15.53 189.04 16.3855C189.04 16.8379 189.038 17.2901 189.035 17.7425C189.033 18.2494 189.032 18.7562 189.032 19.2632C189.031 19.4105 189.029 19.5579 189.028 19.7097C189.034 21.1955 189.212 22.7879 190.291 23.9062C191.061 24.5009 191.899 24.709 192.852 24.8411C192.852 24.9733 192.852 25.1055 192.852 25.2417C190.094 25.2417 187.337 25.2417 184.496 25.2417C184.496 25.1095 184.496 24.9773 184.496 24.8411C184.636 24.8261 184.636 24.8261 184.778 24.8108C185.852 24.6618 186.667 24.3545 187.402 23.539C188.265 22.3169 188.33 20.7829 188.328 19.343C188.33 19.1751 188.331 19.0073 188.332 18.8344C188.336 18.3791 188.337 17.9239 188.337 17.4686C188.338 17.1834 188.338 16.8982 188.339 16.613C188.343 15.616 188.345 14.619 188.345 13.6219C188.344 12.6955 188.349 11.7691 188.355 10.8427C188.36 10.0439 188.362 9.24522 188.362 8.44647C188.362 7.9708 188.363 7.49522 188.367 7.01958C188.372 6.48966 188.37 5.95986 188.368 5.42992C188.37 5.27394 188.372 5.11796 188.375 4.95725C188.363 3.9532 188.171 3.39175 187.461 2.67196C187.349 2.55221 187.349 2.55221 187.234 2.43004C186.612 1.78917 185.902 1.69367 185.035 1.60357C185.035 1.47135 185.035 1.33914 185.035 1.20292Z" fill="white"/>
<path d="M104.444 0.000488281C104.577 0.000488281 104.711 0.000488281 104.848 0.000488281C104.883 0.0899862 104.918 0.179484 104.954 0.271694C105.126 0.710107 105.299 1.14828 105.471 1.58638C105.503 1.66773 105.535 1.74908 105.568 1.8329C105.985 2.88799 106.411 3.93876 106.849 4.98509C106.892 5.08811 106.935 5.19112 106.98 5.29726C107.192 5.80529 107.406 6.3129 107.621 6.82002C107.7 7.00654 107.778 7.19306 107.857 7.37958C107.893 7.46498 107.93 7.55037 107.967 7.63836C108.123 8.01089 108.217 8.27301 108.217 8.68116C107.707 8.60757 107.51 8.41378 107.181 8.03011C107.087 7.92148 106.994 7.81286 106.897 7.70094C106.494 7.21838 106.094 6.73252 105.696 6.24598C105.297 5.76934 104.881 5.31079 104.459 4.85363C104.201 4.57047 103.951 4.28176 103.702 3.99026C103.368 3.61419 103.023 3.2528 102.658 2.90518C102.571 2.82185 102.484 2.73853 102.395 2.65269C101.229 1.88488 100.017 1.79004 98.6513 1.78879C98.4965 1.7867 98.3417 1.78462 98.1822 1.78247C97.6105 1.7755 97.0388 1.77301 96.4671 1.77001C95.1857 1.75899 93.9043 1.74798 92.5841 1.73662C92.5841 5.39453 92.5841 9.05243 92.5841 12.8212C96.5586 13.0768 96.5586 13.0768 99.9458 11.5525C100.711 10.5842 100.896 9.19739 101.074 8.01342C101.208 7.96935 101.341 7.92528 101.479 7.87987C101.706 8.10491 101.63 8.38236 101.63 8.68263C101.63 8.82614 101.63 8.82614 101.629 8.97255C101.629 9.07287 101.629 9.17319 101.629 9.27655C101.629 9.60968 101.628 9.9428 101.627 10.2759C101.626 10.5063 101.626 10.7366 101.626 10.967C101.626 11.5745 101.624 12.182 101.623 12.7895C101.621 13.409 101.621 14.0284 101.62 14.6478C101.619 15.8641 101.616 17.0804 101.614 18.2967C101.436 18.2967 101.258 18.2967 101.074 18.2967C101.052 18.1579 101.029 18.0192 101.005 17.8762C100.691 15.8421 100.691 15.8421 99.592 14.1567C97.4322 12.8566 95.3085 13.4229 92.5841 13.3554C92.6286 17.1014 92.6731 20.8475 92.7189 24.707C94.7118 24.6905 94.7118 24.6905 96.7451 24.6736C97.162 24.6715 97.5789 24.6694 98.0085 24.6672C98.3422 24.6633 98.676 24.6592 99.0098 24.6549C99.2657 24.6546 99.2657 24.6546 99.5268 24.6544C100.866 24.6331 101.988 24.4217 102.978 23.4717C103.089 23.366 103.201 23.2603 103.316 23.1514C103.421 23.0478 103.526 22.9441 103.635 22.8373C103.728 22.7502 103.821 22.6631 103.917 22.5734C104.587 21.934 105.173 21.2371 105.752 20.5165C105.944 20.278 106.137 20.0403 106.329 19.8028C106.47 19.6291 106.611 19.4553 106.752 19.2816C106.821 19.1964 106.89 19.1111 106.961 19.0233C107.42 18.4545 107.867 17.8776 108.298 17.2872C108.36 17.2237 108.422 17.1602 108.487 17.0947C108.62 17.0947 108.754 17.0947 108.891 17.0947C108.797 17.7154 108.565 18.2694 108.324 18.845C108.28 18.9504 108.236 19.0558 108.191 19.1644C108.049 19.507 107.906 19.8492 107.762 20.1914C107.664 20.4264 107.567 20.6614 107.469 20.8965C106.697 22.7502 105.913 24.5992 105.118 26.4432C104.984 26.4432 104.851 26.4432 104.713 26.4432C104.691 26.3165 104.669 26.1898 104.646 26.0592C104.483 25.5978 104.483 25.5978 104.001 25.4849C103.215 25.3185 102.423 25.3336 101.623 25.3322C101.45 25.3308 101.278 25.3295 101.1 25.3281C100.631 25.3245 100.161 25.3225 99.6912 25.3207C99.1993 25.3186 98.7074 25.3151 98.2155 25.3116C97.2853 25.3054 96.3551 25.3005 95.4248 25.2961C94.3653 25.2909 93.3057 25.2843 92.2461 25.2776C90.0677 25.2639 87.8893 25.2519 85.7109 25.2412C85.7109 25.109 85.7109 24.9768 85.7109 24.8406C85.8004 24.829 85.8899 24.8175 85.9821 24.8056C86.7639 24.6823 87.2397 24.5672 87.7325 23.9057C87.8898 23.4534 87.8849 23.0185 87.8862 22.5429C87.8869 22.3728 87.8877 22.2026 87.8885 22.0272C87.8887 21.8389 87.8888 21.6506 87.8889 21.4623C87.8896 21.2638 87.8902 21.0652 87.891 20.8666C87.8927 20.3275 87.8936 19.7883 87.8942 19.2491C87.8946 18.9121 87.8952 18.5751 87.8958 18.2381C87.8976 17.1833 87.8989 16.1284 87.8994 15.0736C87.9 13.8567 87.9024 12.6399 87.9063 11.423C87.9092 10.4819 87.9106 9.54072 87.9107 8.59956C87.9109 8.0377 87.9117 7.47585 87.9141 6.914C87.9163 6.38531 87.9166 5.85666 87.9154 5.32797C87.9153 5.13432 87.9159 4.94068 87.9172 4.74704C87.9475 3.38162 87.9475 3.38162 87.4629 2.13727C86.9046 1.76007 86.377 1.66908 85.7109 1.60307C85.7109 1.47086 85.7109 1.33865 85.7109 1.20243C85.7997 1.20199 85.8884 1.20154 85.9798 1.20109C88.1406 1.19023 90.3014 1.17793 92.4623 1.16403C93.5072 1.15734 94.5522 1.15114 95.5971 1.14609C96.5081 1.14168 97.4191 1.13636 98.3301 1.12994C98.8123 1.12657 99.2944 1.12366 99.7766 1.12185C100.315 1.11981 100.854 1.11572 101.393 1.11146C101.552 1.11117 101.711 1.11088 101.875 1.11059C102.641 1.10286 103.327 1.09489 104.039 0.801781C104.308 0.403225 104.308 0.403225 104.444 0.000488281Z" fill="white"/>
<path d="M116.033 0.000488281C116.167 0.0445594 116.3 0.0886305 116.438 0.134037C116.483 0.295172 116.483 0.295172 116.53 0.459562C116.682 0.849931 116.682 0.849931 117.152 0.954559C117.921 1.12243 118.692 1.10616 119.476 1.10344C119.727 1.10414 119.727 1.10414 119.982 1.10486C120.437 1.10583 120.892 1.10561 121.347 1.10476C121.824 1.10408 122.302 1.10471 122.78 1.10513C123.581 1.10561 124.383 1.10498 125.185 1.1037C126.11 1.10225 127.035 1.10272 127.961 1.10419C128.757 1.1054 129.553 1.10557 130.35 1.10487C130.825 1.10446 131.299 1.1044 131.774 1.10528C132.303 1.1062 132.833 1.10493 133.362 1.10344C133.596 1.10425 133.596 1.10425 133.835 1.10508C134.596 1.10113 135.271 1.09251 135.979 0.801781C136.248 0.403225 136.248 0.403225 136.383 0.000488281C136.517 0.000488281 136.65 0.000488281 136.788 0.000488281C137.082 0.985956 137.377 1.97143 137.672 2.95692C137.772 3.29119 137.872 3.62545 137.972 3.95971C138.21 4.75633 138.448 5.55299 138.686 6.34973C138.845 6.88122 139.004 7.41252 139.164 7.94358C139.196 8.05031 139.228 8.15704 139.261 8.267C139.319 8.45894 139.377 8.6508 139.435 8.84256C139.618 9.45227 139.618 9.45227 139.618 9.74955C139.44 9.74955 139.262 9.74955 139.079 9.74955C138.897 9.55689 138.897 9.55689 138.734 9.2837C138.64 9.1315 138.64 9.1315 138.545 8.97624C138.479 8.86509 138.414 8.75394 138.346 8.63943C138.202 8.40564 138.058 8.17211 137.914 7.93882C137.802 7.75809 137.802 7.75809 137.688 7.57371C135.768 4.19548 135.768 4.19548 132.879 1.87017C132.562 1.8499 132.244 1.83692 131.926 1.82792C131.834 1.82514 131.742 1.82237 131.647 1.81951C131.353 1.81079 131.059 1.80291 130.765 1.79505C130.566 1.78928 130.366 1.78346 130.167 1.77757C129.678 1.76329 129.19 1.74976 128.701 1.73662C128.713 4.58077 128.726 7.4249 128.74 10.269C128.747 11.5896 128.753 12.9101 128.758 14.2307C128.763 15.3816 128.768 16.5325 128.775 17.6834C128.778 18.2929 128.781 18.9024 128.783 19.5119C128.784 20.0855 128.787 20.6591 128.791 21.2327C128.793 21.4433 128.793 21.6538 128.794 21.8644C128.794 22.1519 128.796 22.4393 128.799 22.7269C128.799 22.8877 128.8 23.0486 128.801 23.2144C128.836 23.6404 128.901 23.9313 129.106 24.3064C129.73 24.6458 130.28 24.7685 130.993 24.8406C130.993 24.9728 130.993 25.105 130.993 25.2412C127.924 25.2412 124.855 25.2412 121.694 25.2412C121.694 25.109 121.694 24.9768 121.694 24.8406C121.794 24.8259 121.895 24.8113 121.999 24.7962C122.132 24.7751 122.264 24.7539 122.401 24.7321C122.532 24.7119 122.664 24.6918 122.799 24.671C123.208 24.5653 123.404 24.4513 123.715 24.1728C124.158 23.1358 124.026 21.856 124.028 20.7488C124.029 20.5407 124.03 20.3326 124.032 20.1245C124.035 19.5634 124.037 19.0022 124.039 18.4411C124.041 17.8533 124.045 17.2654 124.048 16.6776C124.055 15.5662 124.06 14.4547 124.064 13.3433C124.069 12.0772 124.076 10.8112 124.083 9.5451C124.096 6.94228 124.109 4.33946 124.119 1.73662C123.527 1.73591 122.935 1.74047 122.343 1.74967C122.143 1.75207 121.942 1.7531 121.741 1.75266C120.519 1.75104 119.523 1.78536 118.594 2.67147C118.278 3.00919 117.998 3.35768 117.726 3.73151C117.652 3.8313 117.577 3.9311 117.5 4.03392C116.629 5.20944 115.824 6.42504 115.04 7.6592C114.962 7.78146 114.884 7.90372 114.803 8.02969C114.649 8.27104 114.495 8.51327 114.344 8.75645C114.274 8.86623 114.203 8.97601 114.131 9.08911C114.069 9.18756 114.007 9.28601 113.943 9.38745C113.703 9.66037 113.552 9.67826 113.203 9.74955C113.397 8.6461 113.702 7.58324 114.025 6.511C114.079 6.33091 114.132 6.15081 114.186 5.9707C114.298 5.59617 114.41 5.22176 114.522 4.84744C114.666 4.36741 114.809 3.88716 114.953 3.40684C115.063 3.03627 115.174 2.66578 115.284 2.29532C115.337 2.11813 115.39 1.94093 115.443 1.7637C115.517 1.51724 115.591 1.27088 115.665 1.02454C115.707 0.884437 115.749 0.744337 115.792 0.599991C115.898 0.267586 115.898 0.267586 116.033 0.000488281Z" fill="white"/>
<path d="M37.3303 1.20264C38.9758 1.20264 40.6213 1.20264 42.3167 1.20264C43.6002 3.87928 44.8794 6.55723 46.1277 9.25019C46.6212 10.3136 47.1182 11.3754 47.6148 12.4374C47.6698 12.5552 47.7249 12.673 47.7816 12.7944C48.592 14.5275 49.4063 16.2586 50.2267 17.987C50.6338 18.845 51.0381 19.7041 51.4372 20.5657C51.5177 20.739 51.5982 20.9123 51.6787 21.0856C51.8287 21.4087 51.9778 21.7322 52.1265 22.056C52.7933 23.5565 52.7933 23.5565 54.0415 24.5737C54.4422 24.6881 54.8434 24.772 55.2544 24.8408C55.2544 24.973 55.2544 25.1052 55.2544 25.2414C52.0523 25.2414 48.8502 25.2414 45.5511 25.2414C45.5511 25.1092 45.5511 24.977 45.5511 24.8408C45.6324 24.8246 45.7137 24.8084 45.7975 24.7917C45.9052 24.7694 46.0129 24.747 46.1239 24.7239C46.2302 24.7022 46.3365 24.6805 46.4461 24.6582C46.7635 24.5738 47.0212 24.4735 47.3031 24.3066C47.5192 23.8783 47.4864 23.4368 47.4379 22.9711C47.314 22.6243 47.1901 22.3246 47.0251 21.9997C46.9833 21.913 46.9414 21.8262 46.8982 21.7368C46.7656 21.4628 46.6302 21.1903 46.4945 20.9178C46.3594 20.6422 46.2248 20.3663 46.0907 20.0902C46.0075 19.9192 45.9235 19.7486 45.8388 19.5783C45.5511 18.9939 45.5511 18.9939 45.5511 18.6975C41.4151 18.6975 37.2791 18.6975 33.0177 18.6975C32.9732 18.9179 32.9287 19.1382 32.8829 19.3653C32.7787 19.6262 32.6688 19.8849 32.5544 20.1415C32.0304 21.3744 31.7312 22.4516 32.2175 23.7557C32.9565 24.5589 33.9976 24.6966 35.0392 24.8408C35.0392 24.973 35.0392 25.1052 35.0392 25.2414C32.1929 25.2414 29.3466 25.2414 26.4141 25.2414C26.4141 25.1092 26.4141 24.977 26.4141 24.8408C26.5183 24.8196 26.6225 24.7984 26.7299 24.7766C28.0151 24.4913 28.893 24.0797 29.7833 23.1046C29.8429 23.0424 29.9025 22.9802 29.9639 22.9161C30.5707 22.2568 30.9692 21.5349 31.3752 20.7425C31.4385 20.6226 31.5019 20.5027 31.5671 20.3792C32.1815 19.1978 32.7225 17.9841 33.2678 16.7703C33.5076 16.2369 33.7491 15.7042 33.9906 15.1715C34.0372 15.0684 34.0839 14.9653 34.1321 14.8591C34.2772 14.5388 34.4223 14.2184 34.5675 13.8981C34.6185 13.7857 34.6694 13.6734 34.7219 13.5576C35.6436 11.5253 36.5792 9.49948 37.525 7.47807C37.6534 7.2018 37.7792 6.92451 37.9048 6.64703C38.0518 6.32418 38.2071 6.01871 38.3774 5.70606C38.6661 5.14488 38.8606 4.76453 38.7253 4.13419C38.5487 3.70895 38.3445 3.32083 38.1136 2.92208C37.9683 2.65198 37.8231 2.38175 37.6782 2.11139C37.6118 1.99431 37.5455 1.87722 37.477 1.75659C37.3303 1.46973 37.3303 1.46973 37.3303 1.20264ZM39.0823 5.34265C38.9796 5.56867 38.877 5.79468 38.7743 6.0207C38.6808 6.22676 38.5872 6.43282 38.4936 6.63888C38.2266 7.22693 37.9596 7.81499 37.6926 8.40306C37.1795 9.53297 36.6664 10.6628 36.1527 11.7924C35.937 12.2666 35.7215 12.7407 35.5059 13.2149C35.4041 13.4389 35.3022 13.6628 35.2003 13.8867C35.0561 14.2035 34.9121 14.5203 34.7681 14.8371C34.7276 14.926 34.6871 15.0149 34.6454 15.1065C34.1842 16.1219 33.7377 17.143 33.2872 18.1633C37.2454 18.1633 41.2035 18.1633 45.2816 18.1633C44.2691 15.9329 44.2691 15.9329 43.2286 13.716C42.2097 11.5797 41.2206 9.43026 40.2382 7.27722C39.9436 6.63197 39.6478 5.98726 39.3518 5.34265C39.2628 5.34265 39.1739 5.34265 39.0823 5.34265Z" fill="white"/>
<path d="M59.0273 1.20215C62.096 1.20215 65.1647 1.20215 68.3263 1.20215C68.3263 1.33436 68.3263 1.46658 68.3263 1.6028C68.1921 1.6201 68.1921 1.6201 68.0552 1.63775C67.2704 1.76149 66.8061 1.8806 66.3048 2.53764C66.1522 2.99122 66.1535 3.33452 66.1538 3.81288C66.1537 3.94673 66.1537 3.94673 66.1535 4.08329C66.1533 4.38288 66.154 4.68246 66.1547 4.98204C66.1548 5.19657 66.1548 5.41109 66.1547 5.62562C66.1547 6.20861 66.1554 6.7916 66.1564 7.37459C66.1572 7.98363 66.1573 8.59267 66.1575 9.20171C66.1579 10.3553 66.159 11.5089 66.1603 12.6624C66.1618 13.9756 66.1626 15.2888 66.1633 16.602C66.1647 19.3036 66.167 22.0052 66.17 24.7067C67.1267 24.7012 68.0833 24.6915 69.04 24.679C69.365 24.6753 69.6901 24.6724 70.0152 24.6706C70.4839 24.6677 70.9525 24.6614 71.4213 24.6546C71.6374 24.6543 71.6374 24.6543 71.8579 24.6541C73.425 24.6241 74.5577 24.0085 75.6538 22.9205C76.442 22.0823 77.1544 21.191 77.8466 20.2746C78.0438 20.0138 78.2422 19.7539 78.4408 19.4942C79.1766 18.5292 79.9019 17.5594 80.5902 16.5603C80.7681 16.6043 80.946 16.6484 81.1293 16.6938C80.2493 19.0154 79.3153 21.3124 78.3594 23.6042C78.3139 23.7134 78.2684 23.8227 78.2216 23.9352C78.1364 24.1396 78.051 24.3439 77.9655 24.5481C77.7039 25.1751 77.4585 25.8065 77.221 26.4429C76.9583 26.3965 76.9583 26.3965 76.682 26.3093C76.6458 26.2019 76.6097 26.0945 76.5725 25.9838C76.4425 25.6036 76.4425 25.6036 76.0318 25.4893C75.3156 25.3107 74.5866 25.3333 73.8526 25.3319C73.6921 25.3306 73.5316 25.3292 73.3663 25.3278C72.9286 25.3244 72.491 25.3222 72.0533 25.3204C71.595 25.3183 71.1367 25.3148 70.6785 25.3114C69.8117 25.3051 68.945 25.3002 68.0783 25.2958C67.091 25.2907 66.1038 25.2841 65.1166 25.2773C63.0869 25.2636 61.0571 25.2516 59.0273 25.2409C59.0718 25.1087 59.1163 24.9765 59.1621 24.8403C59.2516 24.8288 59.341 24.8172 59.4332 24.8053C60.2151 24.6821 60.6909 24.567 61.1836 23.9055C61.341 23.4531 61.336 23.0182 61.3373 22.5427C61.3381 22.3725 61.3389 22.2023 61.3397 22.027C61.3398 21.8386 61.34 21.6503 61.3401 21.462C61.3407 21.2635 61.3414 21.0649 61.3421 20.8664C61.3439 20.3272 61.3448 19.788 61.3454 19.2488C61.3458 18.9118 61.3463 18.5748 61.3469 18.2378C61.3488 17.183 61.3501 16.1282 61.3506 15.0733C61.3512 13.8564 61.3536 12.6396 61.3575 11.4227C61.3604 10.4816 61.3617 9.54044 61.3619 8.59928C61.3621 8.03742 61.3629 7.47557 61.3653 6.91372C61.3675 6.38503 61.3678 5.85638 61.3666 5.32769C61.3665 5.13404 61.3671 4.9404 61.3684 4.74676C61.3986 3.38134 61.3986 3.38134 60.9141 2.13699C60.3558 1.75979 59.8282 1.6688 59.1621 1.6028C59.1176 1.47058 59.0732 1.33837 59.0273 1.20215Z" fill="white"/>
</g>
<defs>
<clipPath id="clip0_524_435">
<rect width="212.394" height="26.4427" fill="white"/>
</clipPath>
</defs>
</svg>
