<svg width="126" height="35" viewBox="0 0 126 35" fill="none" xmlns="http://www.w3.org/2000/svg">
<path d="M58.8125 0.422363V34.9726H66.0838V17.0725L87.4734 34.9726V0.422363L80.2001 0.422363V17.6964L58.8125 0.422363Z" fill="white"/>
<path d="M109.52 0L93.2578 34.9726H101.529L103.463 30.4123H109.522L115.581 30.4123L117.515 34.9726H125.786L109.52 0ZM109.52 24.0211H106.526L109.52 17.0553L112.514 24.0211L109.52 24.0211Z" fill="white"/>
<path d="M13.282 -0.000488281C8.43098 -0.000488281 0.394531 -0.000488281 0.394531 -0.000488281V34.9721H7.74482V23.3925H12.889C12.889 23.3925 24.1109 23.2402 24.1109 11.8729C24.1109 4.74842 18.1329 -0.000488281 13.282 -0.000488281ZM13.7394 16.238H7.79888V11.7292V7.22043L13.7394 7.22043C13.7394 7.22043 17.8751 7.26974 17.8751 11.7292C17.8751 16.1887 13.7394 16.238 13.7394 16.238Z" fill="white"/>
<path d="M37.133 9.05859L32.9453 13.3787V30.6549L37.133 34.9729H45.5105L49.7002 30.6549V13.3787L45.5105 9.05859L41.3228 13.3787L37.133 9.05859Z" fill="#FFD700"/>
<path d="M37.133 0.422363L32.9453 4.74033L41.3228 13.3784L49.7002 4.74033L45.5105 0.422363L41.3228 4.74033L37.133 0.422363Z" fill="#76ABAC"/>
<path d="M41.3226 30.6553L45.5103 34.9732H37.1328L41.3226 30.6553Z" fill="#F7B313"/>
<path d="M45.5117 0.422852L49.7015 4.74082L45.5117 9.05879V0.422852Z" fill="#5F98A4"/>
<path d="M41.3242 4.74072L45.5119 9.05869L41.3242 13.3788V4.74072Z" fill="#5F98A4"/>
<path d="M45.5117 9.05908L49.7015 13.3792L45.5117 17.6972V9.05908Z" fill="#F7B313"/>
<path d="M45.5117 17.6973L49.7015 22.0174L45.5117 26.3354V17.6973Z" fill="#F7B313"/>
<path d="M45.5117 26.3354L49.7015 30.6556L45.5117 34.9735V26.3354Z" fill="#F7B313"/>
<path d="M41.3242 13.3789L45.5119 17.6969L41.3242 22.017V13.3789Z" fill="#F7B313"/>
<path d="M41.3242 22.0161L45.5119 26.3341L41.3242 30.6542V22.0161Z" fill="#F7B313"/>
</svg>
