<svg width="160" height="23" viewBox="0 0 160 23" fill="none" xmlns="http://www.w3.org/2000/svg">
<path d="M62.4096 22.6381H65.6263V1.30702H62.4096V22.6381Z" fill="white"/>
<path d="M96.5594 1.3071H93.3427V22.6382H96.5594L108.648 22.6375V19.7127H96.5594V13.2372H108.22V10.3124H96.5594V4.23254H108.648V1.30779L96.5594 1.3071Z" fill="white"/>
<path d="M10.9856 10.8438L8.25428 10.2344C5.46232 9.62523 4.06633 8.74169 4.06633 6.94405C4.06633 4.87228 5.73561 3.86695 8.37582 3.86695C10.9249 3.86695 12.594 4.81139 12.8975 6.51757H15.9929C15.5983 3.13577 12.8975 1.0031 8.37582 1.0031C3.70218 1.0031 0.849557 3.22722 0.849557 6.97462C0.849557 10.2041 2.9132 12.1235 7.01005 13.007L9.74136 13.6162C12.3816 14.195 13.4436 15.2309 13.4436 16.7848C13.4436 18.8871 11.5622 20.0751 8.73998 20.0751C5.70517 20.0751 3.79327 19.0394 3.52021 17.0286H0.394531C0.75869 20.8065 3.94502 22.9422 8.73998 22.9422C13.3527 22.9422 16.6606 20.8065 16.6606 16.6324C16.6606 13.5859 15.0218 11.7273 10.9856 10.8438Z" fill="white"/>
<path d="M18.9062 4.263H25.8254V22.6374H29.0118V4.263H35.931V1.30769H18.9062V4.263Z" fill="white"/>
<path d="M56.9918 8.10181C56.9918 4.01938 54.2605 1.30764 49.2836 1.30764H39.8457V4.23262H48.8892C52.0756 4.23262 53.7144 5.60354 53.7144 8.1627C53.7144 10.7219 52.0454 12.1233 48.8892 12.1233H39.8457V22.6376H43.0323V15.0178H47.5841L53.502 22.6376H57.1436L51.1044 14.8351C54.8371 14.1648 56.9918 11.6054 56.9918 8.10181Z" fill="white"/>
<path d="M89.3065 1.30773H85.3007L74.5275 12.6414V1.30773H71.3409V22.6374H74.5275V16.7849L78.1084 13.0373L85.8773 22.6374H89.792L80.2023 10.8437L89.3065 1.30773Z" fill="white"/>
<path d="M123.599 19.9229C119.047 19.9229 115.769 16.602 115.769 11.971C115.769 7.3401 119.047 4.01919 123.599 4.01919C127.331 4.01919 129.759 6.03008 130.427 8.65013H133.765C132.946 4.11065 128.788 0.972656 123.568 0.972656C117.226 0.972656 112.461 5.81683 112.461 11.971C112.461 18.1252 117.226 22.9727 123.568 22.9727C128.818 22.9727 132.976 19.8314 133.795 15.2614H130.457C129.759 17.912 127.331 19.9229 123.599 19.9229Z" fill="white"/>
<path d="M159.215 9.98549L156.23 10.5365C156.316 11.0068 156.36 11.49 156.36 11.9728C156.36 16.3161 152.84 19.8496 148.514 19.8496C144.187 19.8496 140.668 16.3161 140.668 11.9728C140.668 7.62915 144.187 4.0957 148.514 4.0957C149.147 4.0957 149.776 4.17118 150.384 4.32052L151.104 1.36103C150.261 1.15381 149.389 1.04893 148.514 1.04893C142.514 1.04893 137.633 5.94937 137.633 11.9728C137.633 17.9959 142.514 22.8963 148.514 22.8963C154.513 22.8963 159.395 17.9959 159.395 11.9728C159.395 11.3057 159.334 10.6373 159.215 9.98549Z" fill="white"/>
<path d="M155.311 7.83992C156.645 7.83992 157.727 6.75379 157.727 5.4139C157.727 4.07424 156.645 2.9881 155.311 2.9881C153.976 2.9881 152.894 4.07424 152.894 5.4139C152.894 6.75379 153.976 7.83992 155.311 7.83992Z" fill="#CCFF00"/>
</svg>
