<svg width="216" height="50" viewBox="0 0 216 50" fill="none" xmlns="http://www.w3.org/2000/svg">
<rect x="6.45404" y="6.45264" width="18.072" height="18.072" rx="2.18453" stroke="white" stroke-width="4.08772"/>
<rect x="15.4907" y="24.5251" width="18.072" height="18.072" rx="2.18453" stroke="white" stroke-width="4.08772"/>
<rect x="24.5243" y="6.45337" width="18.072" height="18.072" rx="2.18453" stroke="white" stroke-width="4.08772"/>
<path d="M21.0532 32.1689L24.5286 35.6443L28.004 32.1689" stroke="white" stroke-width="4.08772" stroke-linecap="round" stroke-linejoin="round"/>
<path d="M12.0167 16.8792L15.4921 13.4038L18.9675 16.8792" stroke="white" stroke-width="4.08772" stroke-linecap="round" stroke-linejoin="round"/>
<path d="M30.0839 16.8792L33.5593 13.4038L37.0346 16.8792" stroke="white" stroke-width="4.08772" stroke-linecap="round" stroke-linejoin="round"/>
<path d="M58.6588 35.0264V14.4243H68.4448C69.9709 14.4243 71.2776 14.6913 72.3649 15.2255C73.4713 15.7596 74.3202 16.5036 74.9116 17.4574C75.522 18.4112 75.8272 19.5271 75.8272 20.8052C75.8272 22.0833 75.522 23.2088 74.9116 24.1816C74.3011 25.1545 73.4427 25.9176 72.3363 26.4708C71.249 27.0049 69.9518 27.272 68.4448 27.272H62.1497V23.8955H68.2159C69.2269 23.8955 70.009 23.6189 70.5622 23.0657C71.1345 22.4934 71.4206 21.7495 71.4206 20.8338C71.4206 19.9182 71.1345 19.1837 70.5622 18.6305C70.009 18.0773 69.2269 17.8007 68.2159 17.8007H63.0654V35.0264H58.6588ZM78.0316 35.0264V20.4332H82.3237V35.0264H78.0316ZM77.8885 18.4875V13.852H82.4668V18.4875H77.8885ZM92.5023 35.3411C90.6328 35.3411 89.2403 34.8928 88.3246 33.9963C87.428 33.0806 86.9798 31.6976 86.9798 29.8472V17.1712L91.2719 15.5688V29.9903C91.2719 30.6389 91.4531 31.1253 91.8155 31.4496C92.178 31.7739 92.7407 31.9361 93.5037 31.9361C93.7899 31.9361 94.057 31.9074 94.3049 31.8502C94.5529 31.793 94.8009 31.7262 95.0489 31.6499V34.9119C94.8009 35.0454 94.448 35.1504 93.9902 35.2267C93.5514 35.303 93.0555 35.3411 92.5023 35.3411ZM84.2614 23.6952V20.4332H95.0489V23.6952H84.2614ZM103.757 35.3125C102.231 35.3125 100.886 34.9882 99.7228 34.3396C98.5592 33.691 97.6435 32.7945 96.9759 31.6499C96.3273 30.5054 96.003 29.1986 96.003 27.7298C96.003 26.2609 96.3273 24.9542 96.9759 23.8097C97.6435 22.6651 98.5592 21.7685 99.7228 21.1199C100.886 20.4714 102.231 20.1471 103.757 20.1471C105.036 20.1471 106.18 20.3855 107.191 20.8624C108.221 21.3202 109.061 21.9593 109.709 22.7796C110.377 23.5998 110.806 24.5632 110.997 25.6696H106.848C106.638 24.9638 106.256 24.4296 105.703 24.0672C105.169 23.7047 104.54 23.5235 103.815 23.5235C103.128 23.5235 102.527 23.6952 102.012 24.0386C101.516 24.3819 101.134 24.8684 100.867 25.4979C100.6 26.1274 100.467 26.8714 100.467 27.7298C100.467 28.5882 100.6 29.3322 100.867 29.9617C101.134 30.5912 101.516 31.0776 102.012 31.421C102.527 31.7644 103.128 31.9361 103.815 31.9361C104.54 31.9361 105.169 31.7548 105.703 31.3924C106.256 31.0299 106.638 30.4958 106.848 29.79H110.997C110.806 30.8964 110.377 31.8597 109.709 32.68C109.061 33.5003 108.221 34.1489 107.191 34.6258C106.18 35.0836 105.036 35.3125 103.757 35.3125ZM113.272 35.0264V14.4243H117.564V35.0264H113.272ZM123.43 35.0264V25.9843C123.43 25.1831 123.22 24.5822 122.801 24.1816C122.4 23.7811 121.809 23.5808 121.027 23.5808C120.359 23.5808 119.758 23.7334 119.224 24.0386C118.709 24.3438 118.299 24.7635 117.994 25.2976C117.707 25.8317 117.564 26.4612 117.564 27.1861L117.192 23.6666C117.669 22.5983 118.366 21.7495 119.281 21.1199C120.216 20.4714 121.36 20.1471 122.715 20.1471C124.336 20.1471 125.576 20.6049 126.435 21.5205C127.293 22.4171 127.722 23.6284 127.722 25.1545V35.0264H123.43ZM137.913 35.3125C136.291 35.3125 134.88 34.9978 133.678 34.3682C132.476 33.7197 131.542 32.8231 130.874 31.6785C130.225 30.534 129.901 29.2177 129.901 27.7298C129.901 26.2228 130.225 24.9065 130.874 23.7811C131.542 22.6365 132.467 21.7495 133.649 21.1199C134.832 20.4714 136.206 20.1471 137.77 20.1471C139.277 20.1471 140.584 20.4523 141.69 21.0627C142.796 21.6732 143.655 22.522 144.265 23.6094C144.876 24.6967 145.181 25.9748 145.181 27.4436C145.181 27.7489 145.171 28.035 145.152 28.3021C145.133 28.5501 145.105 28.7885 145.066 29.0174H132.419V26.1846H141.604L140.86 26.6997C140.86 25.517 140.574 24.649 140.002 24.0958C139.449 23.5235 138.686 23.2374 137.713 23.2374C136.587 23.2374 135.71 23.6189 135.08 24.3819C134.47 25.145 134.165 26.2895 134.165 27.8156C134.165 29.3036 134.47 30.41 135.08 31.1349C135.71 31.8597 136.644 32.2222 137.884 32.2222C138.571 32.2222 139.162 32.1077 139.658 31.8788C140.154 31.6499 140.526 31.2779 140.774 30.7629H144.809C144.332 32.1745 143.512 33.2904 142.348 34.1107C141.204 34.9119 139.725 35.3125 137.913 35.3125ZM147.534 35.0264V20.4332H151.74V23.8669H151.826V35.0264H147.534ZM151.826 27.415L151.454 23.9527C151.797 22.7128 152.36 21.7685 153.142 21.1199C153.924 20.4714 154.897 20.1471 156.061 20.1471C156.423 20.1471 156.69 20.1852 156.862 20.2615V24.2675C156.766 24.2293 156.633 24.2103 156.461 24.2103C156.289 24.1912 156.08 24.1816 155.832 24.1816C154.458 24.1816 153.447 24.4296 152.799 24.9256C152.15 25.4025 151.826 26.2323 151.826 27.415ZM164.718 35.3125C162.582 35.3125 160.884 34.8833 159.625 34.0249C158.366 33.1665 157.679 31.9837 157.565 30.4767H161.399C161.495 31.1253 161.819 31.6213 162.372 31.9647C162.944 32.289 163.727 32.4511 164.718 32.4511C165.615 32.4511 166.264 32.3271 166.664 32.0791C167.084 31.8121 167.294 31.4401 167.294 30.9632C167.294 30.6007 167.17 30.3241 166.922 30.1334C166.693 29.9235 166.264 29.7518 165.634 29.6183L163.288 29.1319C161.552 28.7694 160.274 28.2258 159.454 27.5009C158.633 26.7569 158.223 25.8031 158.223 24.6395C158.223 23.2278 158.767 22.131 159.854 21.3489C160.941 20.5477 162.458 20.1471 164.404 20.1471C166.33 20.1471 167.866 20.5381 169.011 21.3202C170.155 22.0833 170.785 23.1515 170.899 24.525H167.065C166.989 24.029 166.721 23.6571 166.264 23.4091C165.806 23.142 165.157 23.0085 164.318 23.0085C163.555 23.0085 162.983 23.1229 162.601 23.3518C162.239 23.5617 162.057 23.8669 162.057 24.2675C162.057 24.6109 162.21 24.8875 162.515 25.0973C162.82 25.2881 163.326 25.4597 164.032 25.6124L166.664 26.156C168.133 26.4612 169.24 27.0335 169.983 27.8729C170.747 28.6931 171.128 29.666 171.128 30.7915C171.128 32.2222 170.565 33.3381 169.44 34.1393C168.333 34.9214 166.76 35.3125 164.718 35.3125ZM173.014 35.0264V14.4243H177.42V35.0264H173.014ZM186.348 35.0264V14.4243H190.755V35.0264H186.348ZM175.074 22.6079H188.351V25.9843H175.074V22.6079ZM203.652 35.3125C201.611 35.3125 199.789 34.8642 198.186 33.9676C196.603 33.0711 195.354 31.8216 194.438 30.2192C193.541 28.6168 193.093 26.7569 193.093 24.6395C193.093 22.5411 193.541 20.7098 194.438 19.1456C195.335 17.5623 196.574 16.3319 198.158 15.4544C199.76 14.5769 201.582 14.1381 203.623 14.1381C205.702 14.1381 207.534 14.5769 209.117 15.4544C210.7 16.3319 211.94 17.5623 212.837 19.1456C213.752 20.7289 214.21 22.5697 214.21 24.6681C214.21 26.0034 213.991 27.2624 213.552 28.4451C213.132 29.6279 212.446 30.6484 211.492 31.5068C210.557 32.3653 209.317 33.0043 207.772 33.424L203.652 35.3125ZM203.623 31.9933C204.825 31.9933 205.884 31.6976 206.799 31.1062C207.715 30.5149 208.43 29.666 208.945 28.5596C209.479 27.4532 209.746 26.1369 209.746 24.6109C209.746 23.1992 209.489 21.9688 208.974 20.9196C208.459 19.8705 207.743 19.0597 206.828 18.4875C205.912 17.9152 204.844 17.629 203.623 17.629C202.421 17.629 201.363 17.9152 200.447 18.4875C199.531 19.0597 198.816 19.8705 198.301 20.9196C197.805 21.9498 197.557 23.1802 197.557 24.6109C197.557 26.156 197.814 27.4818 198.329 28.5882C198.845 29.6755 199.56 30.5149 200.476 31.1062C201.391 31.6976 202.44 31.9933 203.623 31.9933ZM203.652 35.3125V32.2222L215.269 31.6499V35.0264C214.048 35.0264 212.951 35.0359 211.978 35.055C211.025 35.0931 210.118 35.1313 209.26 35.1694C208.402 35.2076 207.524 35.2362 206.628 35.2553C205.731 35.2934 204.739 35.3125 203.652 35.3125Z" fill="white"/>
</svg>
