<svg width="176" height="32" viewBox="0 0 176 32" fill="none" xmlns="http://www.w3.org/2000/svg">
<g clip-path="url(#clip0_524_443)">
<path d="M29.5238 21.0313C27.9103 22.6353 25.4901 23.5054 23.3451 23.5054C17.2701 23.5054 14.9197 19.2855 14.8857 15.2397C14.8499 11.1598 17.4134 6.764 23.3451 6.764C25.4901 6.764 27.6653 7.49789 29.2788 9.06781L32.3681 6.10388C29.8423 3.62605 26.6833 2.37012 23.3451 2.37012C14.4635 2.37012 10.2866 8.85596 10.3205 15.2416C10.3563 21.5912 14.2185 27.8349 23.3451 27.8349C26.8925 27.8349 30.1571 26.683 32.6848 24.2071L29.5238 21.0313Z" fill="white"/>
<path d="M44.6816 2.85596L33.6211 27.2729H38.6575L40.7705 22.6691H53.6594L55.7384 27.2729H60.8107L49.752 2.85596H44.6816ZM42.6365 18.3773L47.2149 7.98373L51.7971 18.3773H42.6365Z" fill="white"/>
<path d="M75.0247 2.82178C71.1154 2.82178 67.2043 2.85582 63.2969 2.85582V27.2747H67.9865V20.089H75.0228C87.2181 20.0871 87.1823 2.82178 75.0247 2.82178ZM75.0247 15.8672H67.9884V7.21566H75.0247C80.9979 7.21566 81.0356 15.8672 75.0247 15.8672Z" fill="white"/>
<path d="M97.1695 12.3455C94.165 11.9956 91.5884 11.4017 91.5884 9.27569C91.5884 7.46177 93.2697 6.03182 96.7737 6.03182C99.4955 6.03182 101.859 7.35585 102.713 8.75175L106.471 6.86974C104.575 3.10194 100.532 2.02002 96.6342 2.02002C92.0181 2.05785 86.9346 4.11387 86.9346 9.13572C86.9346 14.6115 91.66 15.9393 96.7737 16.5314C100.101 16.8794 102.572 17.8213 102.572 20.1233C102.572 22.7751 99.782 23.787 96.8114 23.787C93.7692 23.787 90.8721 22.6011 89.7638 19.9171L85.8281 21.905C87.6904 26.3689 91.6242 27.9048 96.7398 27.9048C102.323 27.9048 107.259 25.5669 107.259 20.1233C107.257 14.2975 102.391 12.9716 97.1695 12.3455Z" fill="white"/>
<path d="M126.104 16.8796C126.104 21.0635 123.974 23.6113 120.229 23.6113C116.48 23.6113 114.007 21.2734 114.007 16.8796V2.89404H109.504V16.8796C109.504 24.2374 114.42 27.7952 120.193 27.7952C126.244 27.7952 130.609 24.0993 130.609 16.8796V2.89404H126.104V16.8796V16.8796Z" fill="white"/>
<path d="M137.779 2.85596H133.074V27.2729H150.611V23.0171H137.779V2.85596Z" fill="white"/>
<path d="M171.475 6.65107L171.329 6.79675C170.993 7.10767 170.552 7.28163 170.094 7.28448C169.87 7.30267 169.645 7.27246 169.433 7.19589C169.222 7.11933 169.03 6.99821 168.87 6.84076C168.71 6.68331 168.585 6.49323 168.505 6.28344C168.425 6.07365 168.391 5.84906 168.405 5.62493C168.392 5.16314 168.562 4.71488 168.877 4.37711C169.039 4.2239 169.23 4.10507 169.439 4.02778C169.649 3.95049 169.871 3.91633 170.094 3.92738C170.534 3.91884 170.96 4.0851 171.279 4.38978L171.421 4.52913L172.406 3.579L172.257 3.43332C171.975 3.14709 171.638 2.9201 171.266 2.76566C170.895 2.61122 170.496 2.53242 170.094 2.53387C169.681 2.51851 169.269 2.58629 168.882 2.73318C168.496 2.88008 168.143 3.10309 167.844 3.38898C167.27 3.99356 166.957 4.80046 166.973 5.63444C166.973 7.03745 167.8 8.67483 170.091 8.67483C170.5 8.68255 170.908 8.60899 171.289 8.45841C171.67 8.30783 172.018 8.08322 172.311 7.79755L172.457 7.65503L171.475 6.65107Z" fill="white"/>
<path d="M169.994 8.95573e-07C168.885 -0.000625569 167.802 0.327426 166.88 0.942662C165.958 1.5579 165.239 2.43268 164.814 3.45636C164.39 4.48003 164.278 5.60662 164.494 6.69362C164.71 7.78062 165.243 8.77919 166.027 9.56304C166.811 10.3469 167.809 10.8808 168.896 11.0972C169.984 11.3137 171.111 11.2029 172.135 10.7789C173.159 10.355 174.034 9.6369 174.65 8.7155C175.266 7.79409 175.595 6.71077 175.595 5.60256C175.593 4.11773 175.003 2.69415 173.953 1.64392C172.903 0.593691 171.479 0.00251519 169.994 8.95573e-07V8.95573e-07ZM174.131 5.60256C174.131 6.42138 173.888 7.22181 173.433 7.90259C172.978 8.58338 172.331 9.11393 171.575 9.42713C170.818 9.74034 169.985 9.82213 169.182 9.66215C168.379 9.50218 167.641 9.10763 167.062 8.52841C166.483 7.94919 166.089 7.21133 165.929 6.40816C165.77 5.605 165.853 4.77261 166.166 4.01629C166.48 3.25998 167.011 2.61372 167.693 2.15926C168.374 1.7048 169.175 1.46256 169.994 1.46319C171.091 1.4657 172.142 1.90272 172.918 2.67855C173.693 3.45438 174.13 4.50579 174.131 5.60256" fill="white"/>
<path d="M152.773 0.119141V3.88694H156.639V28.162H152.773V31.9998H160.95V0.119141H152.773Z" fill="white"/>
<path d="M0 31.9995H8.17477V28.1617H4.30698V3.81474H8.17477V0.0488281H0V31.9995Z" fill="white"/>
</g>
<defs>
<clipPath id="clip0_524_443">
<rect width="175.595" height="31.9998" fill="white"/>
</clipPath>
</defs>
</svg>
