<svg width="72" height="72" viewBox="0 0 72 72" fill="none" xmlns="http://www.w3.org/2000/svg">
<path fill-rule="evenodd" clip-rule="evenodd" d="M3.21094 18.1838C3.21094 9.99489 9.84938 3.35645 18.0383 3.35645H53.624C61.813 3.35645 68.4514 9.99489 68.4514 18.1838V53.7695C68.4514 61.9585 61.813 68.5969 53.624 68.5969H18.0383C9.84938 68.5969 3.21094 61.9585 3.21094 53.7695V18.1838ZM18.0383 9.2874C13.125 9.2874 9.14189 13.2705 9.14189 18.1838V53.7695C9.14189 58.6829 13.125 62.666 18.0383 62.666H53.624C58.5374 62.666 62.5204 58.6829 62.5204 53.7695V18.1838C62.5204 13.2705 58.5374 9.2874 53.624 9.2874H18.0383Z" fill="#0062FF"/>
<path fill-rule="evenodd" clip-rule="evenodd" d="M12.1094 34.4935C12.1094 31.2179 14.7648 28.5625 18.0403 28.5625H21.0058C24.2814 28.5625 26.9368 31.2179 26.9368 34.4935V37.4589C26.9368 40.7345 24.2814 43.3899 21.0058 43.3899H18.0403C14.7648 43.3899 12.1094 40.7345 12.1094 37.4589V34.4935ZM21.0058 34.4935H18.0403V37.4589H21.0058V34.4935Z" fill="#0062FF"/>
<path fill-rule="evenodd" clip-rule="evenodd" d="M12.1094 50.804C12.1094 47.5284 14.7648 44.873 18.0403 44.873H21.0058C24.2814 44.873 26.9368 47.5284 26.9368 50.804V53.7695C26.9368 57.045 24.2814 59.7004 21.0058 59.7004H18.0403C14.7648 59.7004 12.1094 57.045 12.1094 53.7695V50.804ZM21.0058 50.804H18.0403V53.7695H21.0058V50.804Z" fill="#0062FF"/>
<path fill-rule="evenodd" clip-rule="evenodd" d="M28.418 34.4935C28.418 31.2179 31.0733 28.5625 34.3489 28.5625H37.3144C40.59 28.5625 43.2453 31.2179 43.2453 34.4935V37.4589C43.2453 40.7345 40.59 43.3899 37.3144 43.3899H34.3489C31.0733 43.3899 28.418 40.7345 28.418 37.4589V34.4935ZM37.3144 34.4935H34.3489V37.4589H37.3144V34.4935Z" fill="#0062FF"/>
<path fill-rule="evenodd" clip-rule="evenodd" d="M12.1094 18.1839C12.1094 14.9083 14.7648 12.2529 18.0403 12.2529H53.626C56.9016 12.2529 59.557 14.9083 59.557 18.1839V21.1494C59.557 24.4249 56.9016 27.0803 53.626 27.0803H18.0403C14.7648 27.0803 12.1094 24.4249 12.1094 21.1494V18.1839ZM53.626 18.1839H18.0403V21.1494H53.626V18.1839Z" fill="#0062FF"/>
<path fill-rule="evenodd" clip-rule="evenodd" d="M28.418 50.804C28.418 47.5284 31.0733 44.873 34.3489 44.873H37.3144C40.59 44.873 43.2453 47.5284 43.2453 50.804V53.7695C43.2453 57.045 40.59 59.7004 37.3144 59.7004H34.3489C31.0733 59.7004 28.418 57.045 28.418 53.7695V50.804ZM37.3144 50.804H34.3489V53.7695H37.3144V50.804Z" fill="#0062FF"/>
<path fill-rule="evenodd" clip-rule="evenodd" d="M44.7266 34.4935C44.7266 31.2179 47.3819 28.5625 50.6575 28.5625H53.623C56.8986 28.5625 59.5539 31.2179 59.5539 34.4935V37.4589C59.5539 40.7345 56.8986 43.3899 53.623 43.3899H50.6575C47.3819 43.3899 44.7266 40.7345 44.7266 37.4589V34.4935ZM53.623 34.4935H50.6575V37.4589H53.623V34.4935Z" fill="#0062FF"/>
<path fill-rule="evenodd" clip-rule="evenodd" d="M44.7266 50.804C44.7266 47.5284 47.3819 44.873 50.6575 44.873H53.623C56.8986 44.873 59.5539 47.5284 59.5539 50.804V53.7695C59.5539 57.045 56.8986 59.7004 53.623 59.7004H50.6575C47.3819 59.7004 44.7266 57.045 44.7266 53.7695V50.804ZM53.623 50.804H50.6575V53.7695H53.623V50.804Z" fill="#0062FF"/>
</svg>
