<svg width="72" height="72" viewBox="0 0 72 72" fill="none" xmlns="http://www.w3.org/2000/svg">
<path fill-rule="evenodd" clip-rule="evenodd" d="M24.5182 15.6077C21.2426 15.6077 18.5872 18.2631 18.5872 21.5387L18.5872 57.1244C18.5872 60.3999 21.2426 63.0553 24.5182 63.0553L48.242 63.0553C51.5175 63.0553 54.1729 60.3999 54.1729 57.1244L54.1729 21.5387C54.1729 18.2631 51.5175 15.6077 48.242 15.6077H45.2765C43.6387 15.6077 42.311 14.28 42.311 12.6422C42.311 11.0044 43.6387 9.67676 45.2765 9.67676H48.242C54.7931 9.67676 60.1039 14.9875 60.1039 21.5387L60.1039 57.1244C60.1039 63.6755 54.7931 68.9863 48.242 68.9863H24.5182C17.967 68.9863 12.6563 63.6755 12.6563 57.1244L12.6563 21.5387C12.6562 14.9875 17.967 9.67676 24.5182 9.67676H27.4836C29.1214 9.67676 30.4491 11.0044 30.4491 12.6422C30.4491 14.28 29.1214 15.6077 27.4836 15.6077L24.5182 15.6077Z" fill="#2A2B3C"/>
<path fill-rule="evenodd" clip-rule="evenodd" d="M24.5156 13.3836C24.5156 8.87966 28.1668 5.22852 32.6707 5.22852L40.0844 5.22852C44.5883 5.22852 48.2394 8.87966 48.2394 13.3836C48.2394 17.8875 44.5883 21.5386 40.0844 21.5386H32.6707C28.1668 21.5386 24.5156 17.8875 24.5156 13.3836ZM32.6707 11.1595C31.4423 11.1595 30.4466 12.1552 30.4466 13.3836C30.4466 14.6119 31.4423 15.6077 32.6707 15.6077H40.0844C41.3127 15.6077 42.3085 14.6119 42.3085 13.3836C42.3085 12.1552 41.3127 11.1595 40.0844 11.1595L32.6707 11.1595Z" fill="#2A2B3C"/>
<path fill-rule="evenodd" clip-rule="evenodd" d="M30.4453 33.3991C30.4453 31.7613 31.773 30.4336 33.4108 30.4336L48.2382 30.4336C49.876 30.4336 51.2036 31.7613 51.2036 33.3991C51.2036 35.0369 49.876 36.3645 48.2382 36.3645H33.4108C31.773 36.3645 30.4453 35.0369 30.4453 33.3991Z" fill="#2A2B3C"/>
<path fill-rule="evenodd" clip-rule="evenodd" d="M30.4453 45.2604C30.4453 43.6226 31.773 42.2949 33.4108 42.2949H48.2382C49.876 42.2949 51.2036 43.6226 51.2036 45.2604C51.2036 46.8982 49.876 48.2259 48.2382 48.2259H33.4108C31.773 48.2259 30.4453 46.8982 30.4453 45.2604Z" fill="#2A2B3C"/>
<path fill-rule="evenodd" clip-rule="evenodd" d="M24.515 30.4336C22.8772 30.4336 21.5495 31.7613 21.5495 33.3991L21.5495 33.4287C21.5495 35.0665 22.8772 36.3942 24.515 36.3942C26.1528 36.3942 27.4805 35.0665 27.4805 33.4287L27.4805 33.3991C27.4805 31.7613 26.1528 30.4336 24.515 30.4336Z" fill="#2A2B3C"/>
<path fill-rule="evenodd" clip-rule="evenodd" d="M24.515 42.2949C22.8772 42.2949 21.5495 43.6226 21.5495 45.2604L21.5495 45.2901C21.5495 46.9278 22.8772 48.2555 24.515 48.2555C26.1528 48.2555 27.4805 46.9278 27.4805 45.2901L27.4805 45.2604C27.4805 43.6226 26.1528 42.2949 24.515 42.2949Z" fill="#2A2B3C"/>
</svg>
