<svg width="72" height="72" viewBox="0 0 72 72" fill="none" xmlns="http://www.w3.org/2000/svg">
<path fill-rule="evenodd" clip-rule="evenodd" d="M6.39453 14.9433C6.39453 10.0299 10.3776 6.04688 15.291 6.04688H24.1874C29.1007 6.04688 33.0838 10.0299 33.0838 14.9433C33.0838 19.8567 29.1007 23.8397 24.1874 23.8397H15.291C10.3776 23.8397 6.39453 19.8567 6.39453 14.9433ZM15.291 11.9778C13.6532 11.9778 12.3255 13.3055 12.3255 14.9433C12.3255 16.5811 13.6532 17.9088 15.291 17.9088H24.1874C25.8252 17.9088 27.1529 16.5811 27.1529 14.9433C27.1529 13.3055 25.8252 11.9778 24.1874 11.9778H15.291Z" fill="#2A2B3C"/>
<path fill-rule="evenodd" clip-rule="evenodd" d="M6.39453 38.6669C6.39453 33.7536 10.3776 29.7705 15.291 29.7705H24.1874C29.1007 29.7705 33.0838 33.7536 33.0838 38.6669V56.4598C33.0838 61.3731 29.1007 65.3562 24.1874 65.3562H15.291C10.3776 65.3562 6.39453 61.3731 6.39453 56.4598V38.6669ZM15.291 35.7015C13.6532 35.7015 12.3255 37.0291 12.3255 38.6669V56.4598C12.3255 58.0976 13.6532 59.4253 15.291 59.4253H24.1874C25.8252 59.4253 27.1529 58.0976 27.1529 56.4598V38.6669C27.1529 37.0291 25.8252 35.7015 24.1874 35.7015H15.291Z" fill="#2A2B3C"/>
<path fill-rule="evenodd" clip-rule="evenodd" d="M39.0156 14.9433C39.0156 10.0299 42.9987 6.04688 47.9121 6.04688H56.8085C61.7218 6.04688 65.7049 10.0299 65.7049 14.9433V32.7362C65.7049 37.6495 61.7218 41.6326 56.8085 41.6326H47.9121C42.9987 41.6326 39.0156 37.6495 39.0156 32.7362V14.9433ZM47.9121 11.9778C46.2743 11.9778 44.9466 13.3055 44.9466 14.9433V32.7362C44.9466 34.3739 46.2743 35.7016 47.9121 35.7016H56.8085C58.4463 35.7016 59.774 34.3739 59.774 32.7362V14.9433C59.774 13.3055 58.4463 11.9778 56.8085 11.9778H47.9121Z" fill="#2A2B3C"/>
<path fill-rule="evenodd" clip-rule="evenodd" d="M39.0156 56.4609C39.0156 51.5475 42.9987 47.5645 47.9121 47.5645H56.8085C61.7218 47.5645 65.7049 51.5475 65.7049 56.4609C65.7049 61.3742 61.7218 65.3573 56.8085 65.3573H47.9121C42.9987 65.3573 39.0156 61.3742 39.0156 56.4609ZM47.9121 53.4954C46.2743 53.4954 44.9466 54.8231 44.9466 56.4609C44.9466 58.0987 46.2743 59.4264 47.9121 59.4264H56.8085C58.4463 59.4264 59.774 58.0987 59.774 56.4609C59.774 54.8231 58.4463 53.4954 56.8085 53.4954H47.9121Z" fill="#2A2B3C"/>
</svg>
