<svg width="73" height="72" viewBox="0 0 73 72" fill="none" xmlns="http://www.w3.org/2000/svg">
<path fill-rule="evenodd" clip-rule="evenodd" d="M9.10038 19.1572C4.53302 13.317 8.69417 4.78027 16.1083 4.78027L57.0135 4.78027C64.4276 4.78027 68.5888 13.317 64.0214 19.1572L46.9341 41.0065C46.5262 41.5281 46.3046 42.1712 46.3046 42.8334V57.2454C46.3046 60.7799 44.2122 63.9792 40.974 65.3959L35.1254 67.9547C31.2069 69.669 26.8172 66.7981 26.8172 62.521V42.8334C26.8172 42.1712 26.5956 41.5281 26.1877 41.0065L9.10038 19.1572ZM16.1083 10.7112C13.6369 10.7112 12.2499 13.5568 13.7723 15.5035L30.8596 37.3529C32.0833 38.9176 32.7481 40.8469 32.7481 42.8334V62.521L38.5968 59.9622C39.6762 59.49 40.3737 58.4236 40.3737 57.2454V42.8334C40.3737 40.8469 41.0385 38.9176 42.2622 37.3529L59.3495 15.5035C60.8719 13.5568 59.4849 10.7112 57.0135 10.7112L16.1083 10.7112Z" fill="#0062FF"/>
</svg>
