<svg width="73" height="72" viewBox="0 0 73 72" fill="none" xmlns="http://www.w3.org/2000/svg">
<path fill-rule="evenodd" clip-rule="evenodd" d="M12.9309 33.0965H21.7322C22.0835 27.1035 23.4251 21.4641 24.7394 17.175C24.9669 16.4325 25.1945 15.7277 25.4172 15.0654C18.7135 18.602 13.9087 25.255 12.9309 33.0965ZM32.6422 12.6456C32.5581 12.8497 32.4666 13.075 32.3689 13.3206C31.8372 14.6569 31.124 16.5827 30.4101 18.9126C29.2013 22.8576 28.0187 27.8708 27.6745 33.0965H45.2678C44.9237 27.8708 43.7411 22.8576 42.5322 18.9126C41.8183 16.5827 41.1051 14.6569 40.5734 13.3206C40.4757 13.075 40.3843 12.8497 40.3002 12.6456C39.0537 12.4433 37.7747 12.3382 36.4712 12.3382C35.1676 12.3382 33.8886 12.4433 32.6422 12.6456ZM47.5252 15.0654C47.7479 15.7277 47.9754 16.4325 48.2029 17.175C49.5172 21.4641 50.8588 27.1035 51.2101 33.0965H60.0114C59.0336 25.255 54.2289 18.602 47.5252 15.0654ZM60.0114 39.0275H51.2101C50.8588 45.0205 49.5172 50.6599 48.2029 54.949C47.9754 55.6915 47.7479 56.3963 47.5251 57.0585C54.2289 53.522 59.0336 46.8689 60.0114 39.0275ZM40.3002 59.4784C40.3843 59.2743 40.4757 59.0489 40.5734 58.8034C41.1051 57.4671 41.8183 55.5413 42.5322 53.2114C43.7411 49.2664 44.9237 44.2531 45.2678 39.0275H27.6745C28.0187 44.2531 29.2013 49.2664 30.4101 53.2114C31.124 55.5413 31.8372 57.4671 32.3689 58.8034C32.4666 59.0489 32.5581 59.2743 32.6422 59.4784C33.8886 59.6806 35.1676 59.7858 36.4712 59.7858C37.7747 59.7858 39.0537 59.6806 40.3002 59.4784ZM25.4172 57.0585C25.1945 56.3963 24.9669 55.6915 24.7394 54.949C23.4251 50.6599 22.0835 45.0205 21.7322 39.0275H12.9309C13.9087 46.8689 18.7135 53.522 25.4172 57.0585ZM6.81641 36.062C6.81641 19.6841 20.0933 6.40723 36.4712 6.40723C52.849 6.40723 66.1259 19.6841 66.1259 36.062C66.1259 52.4399 52.849 65.7167 36.4712 65.7167C20.0933 65.7167 6.81641 52.4399 6.81641 36.062Z" fill="#0062FF"/>
</svg>
