<svg width="72" height="72" viewBox="0 0 72 72" fill="none" xmlns="http://www.w3.org/2000/svg">
<path fill-rule="evenodd" clip-rule="evenodd" d="M36.3321 15.2698C31.8282 15.2698 28.177 18.921 28.177 23.4249C28.177 27.9288 31.8282 31.5799 36.3321 31.5799C40.836 31.5799 44.4872 27.9288 44.4872 23.4249C44.4872 18.921 40.836 15.2698 36.3321 15.2698ZM22.2461 23.4249C22.2461 15.6454 28.5526 9.33887 36.3321 9.33887C44.1116 9.33887 50.4181 15.6454 50.4181 23.4249C50.4181 31.2044 44.1116 37.5109 36.3321 37.5109C28.5526 37.5109 22.2461 31.2044 22.2461 23.4249Z" fill="#2A2B3C"/>
<path fill-rule="evenodd" clip-rule="evenodd" d="M17.0572 22.6839C13.7816 22.6839 11.1263 25.3393 11.1263 28.6148C11.1263 31.8904 13.7816 34.5458 17.0572 34.5458C18.2741 34.5458 19.3971 34.1825 20.3347 33.5591C21.6986 32.6523 23.5393 33.0228 24.4461 34.3866C25.3529 35.7505 24.9824 37.5912 23.6185 38.498C21.7381 39.7483 19.4782 40.4767 17.0572 40.4767C10.5061 40.4767 5.19531 35.166 5.19531 28.6148C5.19531 22.0637 10.5061 16.7529 17.0572 16.7529C18.695 16.7529 20.0227 18.0806 20.0227 19.7184C20.0227 21.3562 18.695 22.6839 17.0572 22.6839Z" fill="#2A2B3C"/>
<path fill-rule="evenodd" clip-rule="evenodd" d="M55.6068 22.6839C58.8824 22.6839 61.5378 25.3393 61.5378 28.6148C61.5378 31.8904 58.8824 34.5458 55.6068 34.5458C54.39 34.5458 53.267 34.1825 52.3293 33.5591C50.9655 32.6523 49.1248 33.0228 48.218 34.3866C47.3112 35.7505 47.6817 37.5912 49.0455 38.498C50.926 39.7483 53.1858 40.4767 55.6068 40.4767C62.158 40.4767 67.4687 35.166 67.4687 28.6148C67.4687 22.0637 62.158 16.7529 55.6068 16.7529C53.9691 16.7529 52.6414 18.0806 52.6414 19.7184C52.6414 21.3562 53.9691 22.6839 55.6068 22.6839Z" fill="#2A2B3C"/>
<path fill-rule="evenodd" clip-rule="evenodd" d="M36.3301 44.9241C44.9303 44.9241 50.245 47.9826 52.8573 50.3949C53.0179 50.5432 53.1215 50.7381 53.1395 51.0519C53.1596 51.4 53.0628 51.8708 52.7836 52.3493L51.0538 55.3148C50.5223 56.2258 49.547 56.786 48.4923 56.786H24.1679C23.1132 56.786 22.1378 56.2258 21.6064 55.3148L19.8765 52.3493C19.5974 51.8708 19.5006 51.4 19.5206 51.0519C19.5387 50.7381 19.6423 50.5432 19.8029 50.3949C22.4151 47.9826 27.7298 44.9241 36.3301 44.9241ZM56.881 46.0376C53.1698 42.6105 46.4173 38.9932 36.3301 38.9932C26.2429 38.9932 19.4904 42.6105 15.7792 46.0376C12.8672 48.7267 13.2206 52.7099 14.7535 55.3377L16.4834 58.3032C18.0777 61.0363 21.0037 62.717 24.1679 62.717H48.4923C51.6564 62.717 54.5825 61.0363 56.1768 58.3032L57.9067 55.3377C59.4396 52.7099 59.793 48.7267 56.881 46.0376Z" fill="#2A2B3C"/>
<path fill-rule="evenodd" clip-rule="evenodd" d="M14.4138 42.7697C13.6468 41.3227 11.852 40.7713 10.4049 41.5383C8.55932 42.5165 6.9876 43.5703 5.67467 44.6247C1.09554 48.3021 2.20438 54.2878 5.10751 57.7859L8.14819 61.4497C9.19414 62.71 11.0637 62.8838 12.324 61.8378C13.5843 60.7919 13.7581 58.9223 12.7121 57.662L9.67144 53.9982C8.89799 53.0662 8.53004 52.0241 8.51531 51.1702C8.50172 50.3825 8.77211 49.7439 9.38838 49.249C10.4048 48.4327 11.6625 47.5843 13.1824 46.7787C14.6295 46.0117 15.1808 44.2168 14.4138 42.7697Z" fill="#2A2B3C"/>
<path fill-rule="evenodd" clip-rule="evenodd" d="M58.2541 43.1125C59.0211 41.6654 60.816 41.1141 62.2631 41.8811C64.1086 42.8593 65.6804 43.9131 66.9933 44.9675C71.5724 48.6449 70.4636 54.6306 67.5605 58.1287L64.5198 61.7925C63.4738 63.0528 61.6043 63.2265 60.344 62.1806C59.0837 61.1346 58.9099 59.2651 59.9558 58.0048L62.9965 54.341C63.77 53.409 64.1379 52.3669 64.1527 51.513C64.1663 50.7252 63.8959 50.0867 63.2796 49.5918C62.2631 48.7755 61.0055 47.9271 59.4856 47.1215C58.0385 46.3545 57.4871 44.5596 58.2541 43.1125Z" fill="#2A2B3C"/>
</svg>
