<svg width="72" height="72" viewBox="0 0 72 72" fill="none" xmlns="http://www.w3.org/2000/svg">
<path fill-rule="evenodd" clip-rule="evenodd" d="M33.9476 7.03125C34.9437 6.36719 36.2414 6.36719 37.2375 7.03125L63.9268 24.8241C65.2895 25.7326 65.6578 27.5738 64.7493 28.9365C63.8408 30.2992 61.9996 30.6674 60.6369 29.759L35.5926 13.0627L10.5482 29.759C9.18552 30.6674 7.34435 30.2992 6.43587 28.9365C5.52739 27.5738 5.89562 25.7326 7.25834 24.8241L33.9476 7.03125Z" fill="#2A2B3C"/>
<path fill-rule="evenodd" clip-rule="evenodd" d="M14.8366 21.3604C16.4744 21.3604 17.802 22.688 17.802 24.3258V51.0151C17.802 55.9285 21.7851 59.9115 26.6985 59.9115H32.6294V42.1187C32.6294 40.4809 33.9571 39.1532 35.5949 39.1532C37.2327 39.1532 38.5604 40.4809 38.5604 42.1187V59.9115H44.4913C49.4047 59.9115 53.3878 55.9285 53.3878 51.0151V24.3258C53.3878 22.688 54.7154 21.3604 56.3532 21.3604C57.991 21.3604 59.3187 22.688 59.3187 24.3258V51.0151C59.3187 59.204 52.6803 65.8425 44.4913 65.8425H26.6985C18.5095 65.8425 11.8711 59.204 11.8711 51.0151V24.3258C11.8711 22.688 13.1988 21.3604 14.8366 21.3604Z" fill="#2A2B3C"/>
</svg>
