<svg width="72" height="72" viewBox="0 0 72 72" fill="none" xmlns="http://www.w3.org/2000/svg">
<path fill-rule="evenodd" clip-rule="evenodd" d="M3.66797 21.1444C3.66797 11.3177 11.6341 3.35156 21.4608 3.35156H51.1156C60.9423 3.35156 68.9084 11.3177 68.9084 21.1444V50.7992C68.9084 60.6259 60.9423 68.592 51.1156 68.592H21.4608C11.6341 68.592 3.66797 60.6259 3.66797 50.7992V21.1444ZM21.4608 9.28251C14.9097 9.28251 9.59892 14.5933 9.59892 21.1444V50.7992C9.59892 57.3503 14.9097 62.6611 21.4608 62.6611H51.1156C57.6667 62.6611 62.9775 57.3503 62.9775 50.7992V21.1444C62.9775 14.5933 57.6667 9.28251 51.1156 9.28251H21.4608Z" fill="#2A2B3C"/>
<path fill-rule="evenodd" clip-rule="evenodd" d="M36.2883 27.0755C31.375 27.0755 27.3919 31.0585 27.3919 35.9719C27.3919 40.8853 31.375 44.8683 36.2883 44.8683C41.2017 44.8683 45.1847 40.8853 45.1847 35.9719C45.1847 31.0585 41.2017 27.0755 36.2883 27.0755ZM21.4609 35.9719C21.4609 27.783 28.0994 21.1445 36.2883 21.1445C44.4772 21.1445 51.1157 27.783 51.1157 35.9719C51.1157 44.1608 44.4772 50.7993 36.2883 50.7993C28.0994 50.7993 21.4609 44.1608 21.4609 35.9719Z" fill="#2A2B3C"/>
<path fill-rule="evenodd" clip-rule="evenodd" d="M52.5967 21.1438C53.4155 21.1438 54.0794 20.48 54.0794 19.6611C54.0794 18.8422 53.4155 18.1784 52.5967 18.1784C51.7778 18.1784 51.1139 18.8422 51.1139 19.6611C51.1139 20.48 51.7778 21.1438 52.5967 21.1438ZM48.1484 19.6611C48.1484 17.2044 50.14 15.2129 52.5967 15.2129C55.0533 15.2129 57.0449 17.2044 57.0449 19.6611C57.0449 22.1178 55.0533 24.1093 52.5967 24.1093C50.14 24.1093 48.1484 22.1178 48.1484 19.6611Z" fill="#2A2B3C"/>
</svg>
