<svg width="72" height="72" viewBox="0 0 72 72" fill="none" xmlns="http://www.w3.org/2000/svg">
<path fill-rule="evenodd" clip-rule="evenodd" d="M42.1241 7.3025C45.9694 4.24387 51.5661 4.88156 54.6247 8.7268L59.0308 14.266C62.0894 18.1113 61.4517 23.708 57.6065 26.7666L52.3666 30.9345L33.3734 46.0449C30.7504 48.1293 27.4976 49.2649 24.1473 49.2649L13.6608 49.2649C12.7767 49.2649 11.9387 48.8705 11.3754 48.1891C10.812 47.5078 10.582 46.6106 10.7482 45.7423L12.7576 35.2377C13.4238 31.7552 15.3159 28.6267 18.0907 26.4195L36.7117 11.6077C36.7142 11.6058 36.7166 11.6038 36.7191 11.6019L42.1241 7.3025ZM38.1125 18.0719L21.7828 31.0611C20.1179 32.3854 18.9827 34.2625 18.583 36.352L17.2473 43.334L24.1473 43.334C26.1575 43.334 28.1084 42.6532 29.6822 41.4026L46.327 28.1605L38.1125 18.0719ZM50.9688 24.468L53.9144 22.125C55.1961 21.1054 55.4087 19.2399 54.3891 17.9581L49.9831 12.4189C48.9635 11.1371 47.098 10.9246 45.8162 11.9441L42.7544 14.3796L50.9688 24.468Z" fill="#2A2B3C"/>
<path fill-rule="evenodd" clip-rule="evenodd" d="M6.42969 59.3092C6.42969 57.6714 7.75738 56.3438 9.39516 56.3438H62.7737C64.4115 56.3438 65.7392 57.6714 65.7392 59.3092C65.7392 60.947 64.4115 62.2747 62.7737 62.2747H9.39516C7.75738 62.2747 6.42969 60.947 6.42969 59.3092Z" fill="#2A2B3C"/>
</svg>
