<svg width="72" height="72" viewBox="0 0 72 72" fill="none" xmlns="http://www.w3.org/2000/svg">
<path fill-rule="evenodd" clip-rule="evenodd" d="M6.4375 24.2623C6.4375 17.7111 11.7483 12.4004 18.2994 12.4004H53.8851C60.4363 12.4004 65.747 17.7111 65.747 24.2623V42.0551C65.747 48.6063 60.4363 53.917 53.8851 53.917H40.1957L31.1634 62.0461C27.3467 65.4811 21.2649 62.7725 21.2649 57.6376V53.917H18.2994C11.7483 53.917 6.4375 48.6063 6.4375 42.0551V24.2623ZM18.2994 18.3313C15.0238 18.3313 12.3685 20.9867 12.3685 24.2623V42.0551C12.3685 45.3307 15.0238 47.9861 18.2994 47.9861H21.2649C24.5405 47.9861 27.1958 50.6415 27.1958 53.917V57.6376L36.2281 49.5086C37.3172 48.5284 38.7305 47.9861 40.1957 47.9861H53.8851C57.1607 47.9861 59.8161 45.3307 59.8161 42.0551V24.2623C59.8161 20.9867 57.1607 18.3313 53.8851 18.3313H18.2994Z" fill="#2A2B3C"/>
<path fill-rule="evenodd" clip-rule="evenodd" d="M34.6096 27.2278C32.153 27.2278 30.1614 29.2194 30.1614 31.676C30.1614 34.1327 32.153 36.1243 34.6096 36.1243C37.0663 36.1243 39.0578 34.1327 39.0578 31.676C39.0578 29.2194 37.0663 27.2278 34.6096 27.2278ZM24.2305 31.676C24.2305 25.9438 28.8774 21.2969 34.6096 21.2969C40.3419 21.2969 44.9888 25.9438 44.9888 31.676C44.9888 33.4635 44.537 35.1454 43.7413 36.6138L47.0857 39.9583C48.2438 41.1164 48.2438 42.994 47.0857 44.1521C45.9276 45.3102 44.05 45.3102 42.8919 44.1521L39.5474 40.8077C38.079 41.6034 36.3971 42.0552 34.6096 42.0552C28.8774 42.0552 24.2305 37.4083 24.2305 31.676Z" fill="#2A2B3C"/>
</svg>
