<svg width="72" height="73" viewBox="0 0 72 73" fill="none" xmlns="http://www.w3.org/2000/svg">
<path fill-rule="evenodd" clip-rule="evenodd" d="M27.8462 14.2708C31.0259 7.37719 40.8235 7.37719 44.0032 14.2708L46.4304 19.5329C46.8623 20.4695 47.7499 21.1143 48.774 21.2357L54.5287 21.918C62.0675 22.8119 65.0951 32.1299 59.5215 37.2842L55.2669 41.2187C54.5097 41.9189 54.1707 42.9623 54.3717 43.9738L55.5011 49.6577C56.9806 57.1037 49.0542 62.8625 42.4298 59.1545L37.3732 56.324C36.4732 55.8202 35.3762 55.8202 34.4762 56.324L29.4196 59.1545C22.7952 62.8625 14.8688 57.1037 16.3483 49.6577L17.4777 43.9738C17.6787 42.9623 17.3397 41.9189 16.5825 41.2187L12.3279 37.2842C6.75434 32.1299 9.78193 22.8119 17.3207 21.918L23.0754 21.2357C24.0995 21.1143 24.9871 20.4695 25.419 19.5329L27.8462 14.2708ZM38.6175 16.7549C37.5576 14.4571 34.2918 14.4571 33.2319 16.7549L30.8047 22.0171C29.5088 24.8267 26.8462 26.7611 23.7737 27.1254L18.019 27.8077C15.5061 28.1057 14.4969 31.2117 16.3548 32.9298L20.6093 36.8643C22.8809 38.965 23.8979 42.095 23.2949 45.1297L22.1656 50.8136C21.6724 53.2956 24.3145 55.2152 26.5226 53.9792L31.5793 51.1487C34.2792 49.6374 37.5703 49.6374 40.2701 51.1487L45.3268 53.9792C47.5349 55.2152 50.177 53.2956 49.6838 50.8136L48.5545 45.1297C47.9515 42.095 48.9685 38.965 51.2401 36.8643L55.4946 32.9298C57.3525 31.2117 56.3433 28.1057 53.8304 27.8077L48.0757 27.1254C45.0032 26.7611 42.3407 24.8266 41.0447 22.0171L38.6175 16.7549Z" fill="#0062FF"/>
</svg>
