<svg width="72" height="72" viewBox="0 0 72 72" fill="none" xmlns="http://www.w3.org/2000/svg">
<path fill-rule="evenodd" clip-rule="evenodd" d="M10.8711 56.4112C10.8711 61.3246 14.8542 65.3076 19.7675 65.3076L25.6985 65.3076C30.6118 65.3076 34.5949 61.3245 34.5949 56.4112L34.5949 23.791C34.5949 18.8776 30.6118 14.8945 25.6985 14.8945L19.7675 14.8945C14.8542 14.8945 10.8711 18.8776 10.8711 23.791L10.8711 56.4112ZM19.7675 59.3767C18.1297 59.3767 16.802 58.049 16.802 56.4112L16.802 23.791C16.802 22.1532 18.1297 20.8255 19.7675 20.8255L25.6985 20.8255C27.3363 20.8255 28.6639 22.1532 28.6639 23.791L28.6639 56.4112C28.6639 58.049 27.3363 59.3767 25.6985 59.3767L19.7675 59.3767Z" fill="#2A2B3C"/>
<path fill-rule="evenodd" clip-rule="evenodd" d="M37.5625 38.6182C37.5625 43.5316 41.5456 47.5146 46.4589 47.5146L52.3899 47.5146C57.3032 47.5146 61.2863 43.5316 61.2863 38.6182L61.2863 23.7908C61.2863 18.8775 57.3032 14.8944 52.3899 14.8944L46.4589 14.8944C41.5456 14.8944 37.5625 18.8775 37.5625 23.7908L37.5625 38.6182ZM46.4589 41.5837C44.8211 41.5837 43.4935 40.256 43.4935 38.6182L43.4934 23.7908C43.4934 22.1531 44.8211 20.8254 46.4589 20.8254L52.3899 20.8254C54.0277 20.8254 55.3554 22.1531 55.3554 23.7908L55.3554 38.6182C55.3554 40.256 54.0277 41.5837 52.3899 41.5837L46.4589 41.5837Z" fill="#2A2B3C"/>
<path fill-rule="evenodd" clip-rule="evenodd" d="M4.94141 8.96421C4.94141 10.602 6.26909 11.9297 7.90688 11.9297L64.2509 11.9297C65.8887 11.9297 67.2164 10.602 67.2164 8.96421C67.2164 7.32642 65.8887 5.99873 64.2509 5.99873L7.90688 5.99874C6.26909 5.99874 4.94141 7.32642 4.94141 8.96421Z" fill="#2A2B3C"/>
</svg>
