<svg width="152" height="20" viewBox="0 0 152 20" fill="none" xmlns="http://www.w3.org/2000/svg">
<g clip-path="url(#clip0_523_1343)">
<path d="M127.166 2.52175C128.031 3.22104 128.665 4.1639 128.927 5.233C128.949 5.32167 128.971 5.41033 128.993 5.50168C129.155 7.07374 128.702 8.48877 127.696 9.73301C127.159 10.3624 126.553 10.8546 125.851 11.3075C125.767 11.3623 125.682 11.4171 125.595 11.4736C125.093 11.7828 124.598 11.9952 124.025 12.1486C124.064 12.2152 124.104 12.2818 124.144 12.3504C124.667 13.2547 124.991 14.0777 124.728 15.1205C124.234 16.5336 123.352 17.5343 121.994 18.2335C120.582 18.8829 118.912 19.1146 117.398 18.7027C116.924 18.5324 116.484 18.3086 116.04 18.0759C115.767 17.9223 115.767 17.9223 115.469 17.9427C115.32 18.0104 115.171 18.0789 115.024 18.1516C112.495 19.4048 109.445 19.5149 106.767 18.6779C105.14 18.1107 103.796 17.3087 102.972 15.7933C102.404 14.5946 102.281 13.3301 102.69 12.061C103.549 9.86583 105.355 8.71799 107.394 7.6628C107.355 7.60943 107.316 7.55606 107.275 7.50108C106.757 6.74396 106.529 5.95085 106.673 5.04025C107.012 3.76316 107.864 2.64246 109.029 1.96212C110.558 1.16561 112.183 0.873186 113.902 1.18566C114.488 1.36364 115.003 1.64459 115.52 1.96432C115.755 2.0809 115.755 2.0809 115.995 1.99388C116.075 1.95256 116.156 1.91124 116.238 1.86867C119.624 0.17817 124.059 0.280121 127.166 2.52175ZM116.238 2.33594C116.513 2.61173 116.794 2.86617 117.097 3.11277C117.585 3.52338 118.115 4.02673 118.18 4.68031C118.19 5.12773 118.184 5.43699 117.872 5.79372C117.581 6.01411 117.271 6.0145 116.908 6.00399C116.623 5.96877 116.456 5.88044 116.238 5.70027C115.963 5.21024 116.009 4.6665 116 4.12324C115.983 3.61626 115.897 3.25699 115.661 2.80321C114.789 3.30923 114.122 4.16453 113.829 5.11034C113.615 6.0855 113.71 6.93763 114.268 7.78545C114.686 8.28988 115.259 8.44464 115.9 8.53892C116.999 8.59463 118.112 8.05811 119.105 7.65867C119.285 7.5867 119.465 7.51659 119.646 7.4465C120.659 7.04152 121.648 6.57324 122.198 5.60682C122.467 4.94539 122.537 4.221 122.283 3.54463C122.168 3.32149 122.047 3.10765 121.91 2.89666C122.541 3.10097 122.958 3.55928 123.27 4.12433C123.631 5.06077 123.648 6.10624 123.265 7.03052C122.246 9.0688 119.409 9.73753 117.392 10.4664C117.214 10.5316 117.036 10.597 116.857 10.6624C116.523 10.7852 116.189 10.9068 115.854 11.0271C116.05 11.1229 116.246 11.2176 116.445 11.3082C117.132 11.6437 117.534 12.0868 117.86 12.7619C118.145 13.6019 118.055 14.5703 117.705 15.3745C117.304 16.1447 116.747 16.7558 116.142 17.382C116.637 18.0387 117.333 18.3331 118.147 18.4771C119.016 18.5879 119.793 18.4494 120.522 17.9602C121.395 17.2468 121.925 16.1983 122.198 15.1391C122.217 15.0702 122.235 15.0013 122.255 14.9303C122.314 14.5425 122.308 14.1579 122.306 13.7665C122.307 13.6855 122.307 13.6045 122.308 13.521C122.307 13.4436 122.307 13.3662 122.307 13.2864C122.307 13.1808 122.307 13.1808 122.307 13.073C122.306 12.8879 122.306 12.8879 122.198 12.7093C122.082 12.7182 121.966 12.7271 121.846 12.7363C119.339 12.9097 119.339 12.9097 118.387 12.2625C118.178 12.0796 118.161 11.9675 118.143 11.693C118.161 11.3993 118.196 11.2721 118.353 11.0271C119.059 10.497 119.92 10.5263 120.762 10.6241C121.484 10.7375 122.043 10.9702 122.661 11.3367C122.937 11.5122 122.937 11.5122 123.15 11.482C124.072 11.1117 124.695 10.0007 125.082 9.15805C125.82 7.38148 126.03 5.38659 125.368 3.55741C124.971 2.72221 124.32 1.97166 123.448 1.58831C121.019 0.733649 118.447 1.06772 116.238 2.33594ZM111.047 1.96212C110.948 2.02573 110.849 2.08934 110.747 2.15487C109.763 3.02976 109.267 4.34542 109.125 5.60682C109.116 5.81307 109.112 6.01953 109.113 6.22595C109.112 6.32738 109.112 6.42881 109.112 6.53332C109.124 6.79623 109.159 7.0333 109.221 7.28898C109.384 7.26585 109.384 7.26585 109.551 7.24226C110.715 7.12068 112.077 7.00828 113.084 7.68032C113.282 7.97887 113.335 8.15962 113.311 8.51045C113.212 8.84836 112.976 8.97793 112.681 9.15805C111.73 9.52685 110.643 9.42103 109.701 9.0646C109.396 8.92263 109.097 8.77454 108.801 8.61668C108.536 8.47788 108.536 8.47788 108.163 8.50388C106.858 9.35359 106.193 11.0018 105.856 12.4289C105.567 13.9809 105.587 15.7661 106.529 17.1016C107.26 18.0883 108.299 18.5736 109.509 18.7838C111.464 18.9093 113.494 18.7165 115.181 17.6623C115.068 17.333 114.979 17.2863 114.694 17.0899C114.094 16.649 113.373 16.0878 113.258 15.326C113.247 14.8785 113.289 14.578 113.553 14.2045C113.906 13.9709 114.179 13.895 114.604 13.9242C114.994 14.0646 115.141 14.1468 115.373 14.4849C115.395 14.7534 115.408 15.0163 115.415 15.2851C115.44 15.9269 115.51 16.4994 115.758 17.1016C116.123 16.9358 116.346 16.7361 116.623 16.4474C116.671 16.3991 116.719 16.3508 116.768 16.3011C117.545 15.4814 117.72 14.6099 117.701 13.523C117.66 12.8401 117.427 12.3479 116.911 11.8682C116.279 11.487 115.571 11.3206 114.833 11.4426C114.099 11.6181 113.407 11.8653 112.711 12.1508C112.532 12.2244 112.351 12.2965 112.171 12.3685C110.964 12.8551 109.915 13.2809 109.233 14.409C108.897 15.225 108.997 15.8882 109.31 16.6887C109.413 16.9318 109.413 16.9318 109.605 17.1951C108.744 16.6089 108.206 16.0662 107.971 15.0456C107.871 14.0587 107.923 13.2071 108.53 12.3778C109.075 11.7354 109.72 11.3208 110.47 10.9337C110.631 10.8496 110.631 10.8496 110.796 10.7639C112.285 10.0259 113.901 9.52365 115.469 8.97115C115.338 8.71535 115.19 8.69357 114.922 8.57981C114.205 8.23566 113.883 7.84752 113.607 7.1196C113.311 6.14636 113.421 5.32378 113.835 4.39192C114.238 3.68383 114.76 3.06806 115.373 2.52285C114.772 1.8649 114.005 1.55023 113.103 1.46018C112.293 1.44603 111.723 1.51727 111.047 1.96212ZM109.413 7.75625C109.601 8.29014 109.848 8.64397 110.368 8.9069C111.03 9.16859 111.839 9.2004 112.507 8.9361C112.78 8.79797 112.78 8.79797 112.97 8.59733C113.018 8.27418 113.018 8.27418 112.97 7.94316C112.566 7.50548 111.898 7.43336 111.323 7.38499C110.68 7.37903 109.978 7.44173 109.413 7.75625ZM118.449 11.4009C118.41 11.7297 118.41 11.7297 118.545 12.0551C119.249 12.5758 120.103 12.5767 120.949 12.5224C121.34 12.4497 121.721 12.3543 122.102 12.242C121.821 11.6135 121.545 11.2383 120.883 10.957C120.095 10.6948 119.01 10.72 118.449 11.4009Z" fill="#325B51"/>
<path d="M0.5 1.58963C1.80956 1.58092 3.11911 1.5743 4.42869 1.57026C5.03696 1.56832 5.64522 1.56569 6.25347 1.56143C6.84187 1.55733 7.43025 1.55512 8.01866 1.55416C8.24172 1.55348 8.46479 1.55214 8.68784 1.5501C10.8707 1.53098 13.1892 1.71106 14.9145 3.16848C15.2311 3.48439 15.4697 3.82118 15.6885 4.20633C15.746 4.30656 15.8034 4.40679 15.8627 4.51005C16.1857 5.50178 16.1157 6.4122 15.6671 7.34871C14.9763 8.57581 13.7689 9.22985 12.4228 9.61779C12.1666 9.68743 11.9094 9.75209 11.651 9.81355C11.8029 9.83577 11.8029 9.83577 11.9578 9.85845C13.6093 10.1126 15.3821 10.5102 16.4575 11.8695C17.0568 12.8172 17.2931 13.7849 17.0677 14.886C16.7521 16.0144 16.1031 16.7379 15.1117 17.3833C13.6659 18.1686 12.0365 18.4436 10.3982 18.4325C10.2362 18.4325 10.2362 18.4325 10.0709 18.4326C9.7188 18.4325 9.3667 18.431 9.01459 18.4295C8.76852 18.4292 8.52246 18.4289 8.27639 18.4287C7.698 18.4281 7.11962 18.4266 6.54123 18.4247C5.88191 18.4226 5.22259 18.4216 4.56326 18.4207C3.20884 18.4187 1.85442 18.4155 0.5 18.4113C0.5 18.3188 0.5 18.2262 0.5 18.1309C0.570757 18.1228 0.641513 18.1148 0.714414 18.1065C1.32816 18.0206 1.32816 18.0206 1.85783 17.7221C2.14723 17.3282 2.14638 17.0008 2.1477 16.5231C2.14825 16.404 2.1488 16.2849 2.14936 16.1622C2.14948 16.0304 2.14959 15.8987 2.14969 15.7669C2.15014 15.628 2.15062 15.489 2.15114 15.3501C2.1524 14.9728 2.15302 14.5955 2.15344 14.2182C2.15373 13.9824 2.15412 13.7465 2.15455 13.5107C2.15586 12.7726 2.15679 12.0344 2.15717 11.2963C2.1576 10.4447 2.15928 9.59323 2.16207 8.7417C2.16415 8.08311 2.16512 7.42452 2.16524 6.76593C2.16534 6.37275 2.16591 5.97959 2.16763 5.58642C2.16922 5.21646 2.16942 4.84652 2.16858 4.47656C2.1685 4.34105 2.16892 4.20555 2.16987 4.07004C2.19117 3.11467 2.19117 3.11467 1.84581 2.2438C1.41795 1.9536 1.00712 1.91249 0.5 1.86999C0.5 1.77747 0.5 1.68495 0.5 1.58963ZM5.49873 1.96344C5.49873 4.52314 5.49873 7.08283 5.49873 9.72009C6.19465 9.72395 6.89057 9.7278 7.60757 9.73177C7.93451 9.73433 7.93451 9.73433 8.26806 9.73693C8.44331 9.73748 8.61855 9.73795 8.79379 9.73835C8.92726 9.73978 8.92726 9.73978 9.06342 9.74124C9.99579 9.74148 10.9102 9.60996 11.6428 9.00824C12.554 8.09974 12.6369 6.81972 12.6362 5.61402C12.6208 4.54943 12.461 3.53958 11.6897 2.73845C11.1039 2.20527 10.3576 1.95074 9.55842 1.95283C9.46673 1.95284 9.37505 1.95286 9.28059 1.95287C9.185 1.95335 9.08942 1.95382 8.99093 1.95432C8.85829 1.95446 8.85829 1.95446 8.72296 1.9546C8.39322 1.95509 8.06348 1.95639 7.73374 1.9576C6.99619 1.95953 6.25864 1.96146 5.49873 1.96344ZM5.49873 10.0939C5.49873 12.7461 5.49873 15.3983 5.49873 18.1309C6.34533 18.1232 7.19193 18.1155 8.06419 18.1076C8.32883 18.1061 8.59348 18.1046 8.86615 18.1031C9.07985 18.1003 9.29356 18.0975 9.50725 18.0944C9.6689 18.0943 9.6689 18.0943 9.83382 18.0941C10.8997 18.0757 11.9365 17.8898 12.7205 17.1416C13.4433 16.2369 13.4962 15.1979 13.5015 14.1007C13.5035 14.0012 13.5055 13.9017 13.5075 13.7992C13.5127 12.7526 13.3557 11.7355 12.6123 10.935C11.7028 10.1205 10.4629 10.0498 9.28195 10.0665C9.13644 10.067 9.13644 10.067 8.98799 10.0674C8.63198 10.0688 8.27598 10.0727 7.91999 10.0764C6.72147 10.0851 6.72147 10.0851 5.49873 10.0939Z" fill="#325B51"/>
<path d="M132.482 1.58969C133.171 1.55148 133.86 1.52548 134.549 1.50756C134.783 1.50008 135.017 1.48991 135.251 1.47689C137.134 1.37475 137.134 1.37475 137.705 1.72848C138.089 2.0704 138.364 2.46929 138.623 2.90557C138.757 3.12846 138.915 3.32573 139.082 3.52594C139.173 3.64358 139.265 3.76137 139.355 3.87931C139.762 4.4016 140.178 4.9149 140.605 5.42129C141.087 5.99258 141.552 6.57474 142.011 7.16369C142.367 7.61827 142.732 8.06378 143.104 8.50526C143.587 9.07655 144.051 9.65871 144.51 10.2477C144.866 10.7022 145.231 11.1477 145.604 11.5892C146.081 12.1547 146.544 12.7292 146.996 13.3136C147.348 13.7665 147.711 14.2105 148.077 14.6535C148.13 14.7184 148.183 14.7833 148.239 14.8502C148.37 15.0093 148.501 15.1683 148.632 15.3274C148.641 13.8968 148.648 12.4661 148.652 11.0355C148.654 10.3711 148.657 9.70676 148.661 9.04239C148.665 8.46287 148.667 7.88335 148.668 7.30382C148.669 6.99737 148.67 6.69096 148.673 6.38452C148.675 6.04119 148.676 5.69792 148.676 5.35458C148.678 5.20464 148.678 5.20464 148.68 5.05168C148.675 4.1139 148.467 3.18249 147.779 2.48882C147.259 2.10315 146.583 1.93762 145.94 1.87005C145.94 1.77753 145.94 1.68502 145.94 1.58969C147.939 1.58969 149.937 1.58969 151.996 1.58969C151.996 1.68221 151.996 1.77473 151.996 1.87005C151.929 1.87813 151.862 1.8862 151.792 1.89451C150.965 2.0136 150.391 2.23294 149.852 2.86884C149.316 3.64326 149.26 4.47205 149.251 5.38239C149.247 5.55333 149.247 5.55333 149.244 5.72771C149.237 6.10245 149.233 6.47716 149.229 6.85193C149.228 6.98214 149.226 7.11234 149.225 7.24254C149.219 7.78506 149.214 8.32758 149.211 8.87013C149.207 9.64155 149.199 10.4126 149.183 11.1839C149.173 11.7297 149.168 12.2754 149.166 12.8212C149.166 13.1456 149.163 13.4697 149.154 13.794C149.117 15.3661 149.232 16.4142 150.333 17.6161C150.387 17.671 150.441 17.7259 150.497 17.7824C150.939 18.2468 150.939 18.2468 150.939 18.5048C147.212 18.6699 147.212 18.6699 146.498 18.1248C146.221 17.8259 146.032 17.4887 145.856 17.1256C145.674 16.7734 145.421 16.4773 145.171 16.1685C145.076 16.044 144.981 15.9194 144.886 15.7946C144.591 15.4123 144.282 15.0423 143.97 14.6732C143.556 14.1838 143.156 13.6872 142.768 13.1779C142.326 12.5974 141.866 12.0343 141.395 11.4757C140.956 10.955 140.534 10.4242 140.114 9.88922C139.849 9.55314 139.581 9.21912 139.313 8.88492C139.256 8.81277 139.198 8.74063 139.138 8.66629C138.795 8.23794 138.451 7.81044 138.106 7.38382C137.7 6.88244 137.296 6.38007 136.892 5.87688C136.839 5.8111 136.786 5.74533 136.732 5.67756C136.409 5.27476 136.092 4.86844 135.777 4.45979C135.738 4.40825 135.698 4.35671 135.657 4.3036C135.56 4.17776 135.463 4.0519 135.366 3.92603C135.359 5.40378 135.354 6.88153 135.351 8.35929C135.35 9.04556 135.348 9.73181 135.344 10.4181C135.341 11.0167 135.34 11.6154 135.339 12.214C135.339 12.5306 135.338 12.8471 135.336 13.1636C135.333 13.5183 135.333 13.873 135.333 14.2277C135.332 14.3308 135.331 14.434 135.33 14.5402C135.334 15.5799 135.462 16.6942 136.231 17.4768C136.78 17.8929 137.378 18.0386 138.058 18.131C138.058 18.2235 138.058 18.316 138.058 18.4113C136.091 18.4113 134.124 18.4113 132.098 18.4113C132.098 18.3188 132.098 18.2263 132.098 18.131C132.197 18.1205 132.197 18.1205 132.299 18.1098C133.065 18.0055 133.646 17.7905 134.17 17.2198C134.786 16.3646 134.832 15.2912 134.831 14.2836C134.832 14.1661 134.833 14.0487 134.834 13.9277C134.836 13.6091 134.837 13.2905 134.838 12.972C134.838 12.7724 134.838 12.5728 134.839 12.3732C134.842 11.6755 134.843 10.9779 134.843 10.2801C134.843 9.63184 134.846 8.98359 134.85 8.3353C134.854 7.77637 134.855 7.21746 134.855 6.65852C134.855 6.32566 134.856 5.99286 134.859 5.66002C134.862 5.2892 134.861 4.91846 134.859 4.54763C134.861 4.43848 134.863 4.32932 134.864 4.21686C134.856 3.51426 134.719 3.12137 134.213 2.61768C134.132 2.53389 134.132 2.53389 134.051 2.4484C133.607 1.99993 133.101 1.93311 132.482 1.87005C132.482 1.77753 132.482 1.68502 132.482 1.58969Z" fill="#325B51"/>
<path d="M74.9987 0.748047C75.0939 0.748047 75.189 0.748047 75.2871 0.748047C75.3121 0.810675 75.3371 0.873303 75.3628 0.937829C75.4854 1.24462 75.6085 1.55124 75.7317 1.85781C75.7546 1.91474 75.7774 1.97166 75.801 2.03032C76.098 2.76863 76.4017 3.50393 76.7144 4.23613C76.7451 4.30822 76.7759 4.3803 76.8076 4.45457C76.9594 4.81008 77.1119 5.16529 77.2653 5.52016C77.3213 5.65068 77.3772 5.7812 77.4331 5.91172C77.4592 5.97148 77.4853 6.03124 77.5122 6.09281C77.6234 6.3535 77.6903 6.53692 77.6903 6.82253C77.3268 6.77104 77.1857 6.63542 76.9513 6.36695C76.8844 6.29093 76.8175 6.21492 76.7486 6.1366C76.4609 5.79892 76.1762 5.45893 75.892 5.11846C75.6076 4.78492 75.3105 4.46405 75.01 4.14414C74.8255 3.94599 74.6475 3.74396 74.47 3.53997C74.2311 3.27681 73.9854 3.02392 73.725 2.78066C73.663 2.72236 73.6011 2.66405 73.5372 2.60398C72.7059 2.06669 71.8415 2.00033 70.867 1.99945C70.7566 1.99799 70.6462 1.99653 70.5324 1.99502C70.1246 1.99015 69.7168 1.98841 69.309 1.98631C68.395 1.9786 67.481 1.97089 66.5393 1.96294C66.5393 4.52264 66.5393 7.08233 66.5393 9.71959C69.3743 9.89849 69.3743 9.89849 71.7904 8.83178C72.3364 8.15423 72.468 7.18377 72.5955 6.35526C72.6906 6.32442 72.7858 6.29358 72.8839 6.26181C73.0458 6.41928 72.9915 6.61344 72.992 6.82355C72.9914 6.92398 72.9914 6.92398 72.9909 7.02644C72.9909 7.09664 72.9909 7.16684 72.9909 7.23916C72.9909 7.47228 72.9901 7.70539 72.9894 7.9385C72.9892 8.0997 72.9891 8.2609 72.989 8.4221C72.9886 8.84722 72.9877 9.27233 72.9866 9.69744C72.9856 10.1309 72.9852 10.5644 72.9847 10.9978C72.9837 11.849 72.982 12.7001 72.98 13.5512C72.8531 13.5512 72.7262 13.5512 72.5955 13.5512C72.5791 13.4541 72.5628 13.357 72.5459 13.257C72.3218 11.8336 72.3218 11.8336 71.5381 10.6541C69.9975 9.74438 68.4826 10.1406 66.5393 10.0934C66.571 12.7148 66.6028 15.3362 66.6354 18.037C68.057 18.0254 68.057 18.0254 69.5073 18.0136C69.8047 18.0121 70.1021 18.0107 70.4085 18.0091C70.6466 18.0064 70.8847 18.0035 71.1227 18.0005C71.3053 18.0003 71.3053 18.0003 71.4915 18.0001C72.4468 17.9853 73.2473 17.8373 73.9533 17.1725C74.0327 17.0986 74.1122 17.0246 74.194 16.9484C74.2692 16.8759 74.3444 16.8033 74.4219 16.7286C74.4882 16.6677 74.5545 16.6067 74.6228 16.5439C75.101 16.0965 75.5189 15.6088 75.9319 15.1045C76.0687 14.9377 76.2062 14.7714 76.3438 14.6051C76.4442 14.4836 76.5446 14.362 76.6449 14.2404C76.6942 14.1808 76.7435 14.1211 76.7943 14.0597C77.122 13.6616 77.4402 13.2579 77.7478 12.8448C77.7923 12.8004 77.8368 12.7559 77.8826 12.7101C77.9778 12.7101 78.0729 12.7101 78.171 12.7101C78.1039 13.1444 77.9386 13.5321 77.7662 13.9349C77.735 14.0086 77.7038 14.0824 77.6717 14.1584C77.5702 14.3981 77.4681 14.6376 77.3659 14.8771C77.2961 15.0415 77.2263 15.206 77.1566 15.3705C76.6057 16.6676 76.0469 17.9615 75.4794 19.2519C75.3842 19.2519 75.289 19.2519 75.191 19.2519C75.1751 19.1632 75.1592 19.0745 75.1429 18.9832C75.0268 18.6603 75.0268 18.6603 74.6829 18.5813C74.1225 18.4649 73.557 18.4754 72.9864 18.4744C72.8634 18.4735 72.7405 18.4726 72.6138 18.4716C72.2788 18.4691 71.9438 18.4676 71.6088 18.4664C71.2579 18.4649 70.907 18.4624 70.5562 18.4601C69.8926 18.4557 69.2291 18.4523 68.5656 18.4492C67.8098 18.4456 67.054 18.441 66.2982 18.4363C64.7444 18.4266 63.1906 18.4183 61.6367 18.4108C61.6367 18.3183 61.6367 18.2257 61.6367 18.1304C61.7005 18.1223 61.7644 18.1143 61.8301 18.106C62.3878 18.0197 62.7272 17.9391 63.0787 17.4762C63.1909 17.1597 63.1874 16.8554 63.1883 16.5226C63.1888 16.4035 63.1894 16.2844 63.19 16.1617C63.1901 16.0299 63.1902 15.8982 63.1903 15.7664C63.1907 15.6275 63.1912 15.4885 63.1917 15.3496C63.193 14.9723 63.1936 14.595 63.194 14.2177C63.1943 13.9819 63.1947 13.746 63.1951 13.5102C63.1965 12.7721 63.1974 12.0339 63.1978 11.2958C63.1982 10.4442 63.1999 9.59273 63.2027 8.7412C63.2047 8.08261 63.2057 7.42402 63.2058 6.76543C63.2059 6.37225 63.2065 5.97909 63.2082 5.58592C63.2098 5.21596 63.21 4.84602 63.2092 4.47606C63.2091 4.34056 63.2095 4.20505 63.2105 4.06954C63.232 3.11406 63.232 3.11406 62.8864 2.2433C62.4882 1.97935 62.1118 1.91568 61.6367 1.86949C61.6367 1.77697 61.6367 1.68445 61.6367 1.58913C61.7 1.58882 61.7633 1.58851 61.8285 1.58819C63.3698 1.5806 64.9111 1.57199 66.4524 1.56226C67.1978 1.55758 67.9431 1.55324 68.6885 1.5497C69.3383 1.54662 69.9881 1.5429 70.6379 1.5384C70.9818 1.53605 71.3258 1.53401 71.6697 1.53274C72.054 1.53132 72.4384 1.52845 72.8227 1.52547C72.9362 1.52527 73.0498 1.52507 73.1667 1.52486C73.7126 1.51945 74.2021 1.51388 74.7103 1.30877C74.902 1.02987 74.902 1.02987 74.9987 0.748047Z" fill="#325B51"/>
<path d="M83.2648 0.748047C83.36 0.778887 83.4551 0.809726 83.5532 0.8415C83.5859 0.954258 83.5859 0.954258 83.6193 1.06929C83.7274 1.34246 83.7274 1.34246 84.0625 1.41568C84.6112 1.53315 85.1613 1.52176 85.7206 1.51986C85.8992 1.52035 85.8992 1.52035 86.0814 1.52085C86.4059 1.52153 86.7304 1.52138 87.055 1.52078C87.3957 1.52031 87.7363 1.52075 88.077 1.52104C88.6489 1.52138 89.2208 1.52094 89.7926 1.52004C90.4526 1.51903 91.1125 1.51936 91.7725 1.52038C92.3406 1.52123 92.9086 1.52135 93.4767 1.52086C93.8154 1.52057 94.154 1.52053 94.4927 1.52115C94.8702 1.52179 95.2478 1.5209 95.6254 1.51986C95.7925 1.52043 95.7925 1.52043 95.963 1.52101C96.5053 1.51824 96.987 1.51222 97.492 1.30877C97.6837 1.02987 97.6837 1.02987 97.7804 0.748047C97.8755 0.748047 97.9707 0.748047 98.0687 0.748047C98.279 1.43765 98.4893 2.12726 98.6995 2.81687C98.7708 3.05078 98.8421 3.28469 98.9134 3.5186C99.0834 4.07605 99.2533 4.63353 99.423 5.19106C99.5362 5.56298 99.6498 5.93477 99.764 6.30639C99.7869 6.38108 99.8097 6.45577 99.8333 6.53272C99.8744 6.66703 99.9157 6.80128 99.9573 6.93547C100.087 7.36213 100.087 7.36213 100.087 7.57016C99.9606 7.57016 99.8337 7.57016 99.7029 7.57016C99.5732 7.43534 99.5732 7.43534 99.457 7.24417C99.3904 7.13767 99.3904 7.13767 99.3225 7.02902C99.2756 6.95124 99.2286 6.87346 99.1802 6.79333C99.0778 6.62973 98.975 6.46631 98.872 6.30306C98.7925 6.17659 98.7925 6.17659 98.7114 6.04757C97.3416 3.68358 97.3416 3.68358 95.281 2.0564C95.0546 2.04221 94.8278 2.03313 94.601 2.02683C94.5352 2.02489 94.4695 2.02294 94.4017 2.02094C94.1922 2.01484 93.9826 2.00933 93.773 2.00383C93.6307 1.99979 93.4885 1.99572 93.3462 1.9916C92.9978 1.9816 92.6494 1.97214 92.301 1.96294C92.309 3.95319 92.3182 5.94344 92.3286 7.93367C92.3334 8.85776 92.3379 9.78185 92.3415 10.7059C92.3447 11.5113 92.3485 12.3167 92.3532 13.1221C92.3556 13.5486 92.3577 13.975 92.359 14.4015C92.3602 14.803 92.3623 15.2043 92.3651 15.6057C92.366 15.7531 92.3666 15.9004 92.3668 16.0478C92.3671 16.2489 92.3686 16.4501 92.3703 16.6513C92.3709 16.7639 92.3714 16.8765 92.372 16.9925C92.3972 17.2906 92.4432 17.4941 92.5894 17.7566C93.0343 17.9941 93.427 18.08 93.9352 18.1304C93.9352 18.2229 93.9352 18.3155 93.9352 18.4108C91.7463 18.4108 89.5574 18.4108 87.3022 18.4108C87.3022 18.3183 87.3022 18.2257 87.3022 18.1304C87.3741 18.1202 87.446 18.1099 87.52 18.0994C87.6147 18.0846 87.7094 18.0698 87.8069 18.0545C87.9006 18.0404 87.9943 18.0263 88.0908 18.0118C88.3822 17.9378 88.5222 17.858 88.7442 17.6632C89.06 16.9375 88.966 16.0419 88.9671 15.2671C88.968 15.1215 88.969 14.9759 88.97 14.8302C88.9726 14.4376 88.9741 14.0449 88.9754 13.6522C88.9769 13.2409 88.9794 12.8296 88.9819 12.4182C88.9864 11.6405 88.9899 10.8627 88.9931 10.0849C88.9968 9.19899 89.0015 8.31304 89.0064 7.42709C89.0163 5.60571 89.0249 3.78433 89.0326 1.96294C88.6102 1.96244 88.1881 1.96563 87.7658 1.97207C87.6226 1.97376 87.4793 1.97448 87.336 1.97417C86.4646 1.97303 85.7542 1.99705 85.0913 2.61712C84.8657 2.85345 84.6662 3.09731 84.4724 3.35891C84.4192 3.42874 84.366 3.49857 84.3112 3.57052C83.6898 4.39312 83.1154 5.24376 82.5566 6.10739C82.5007 6.19295 82.4448 6.2785 82.3873 6.36665C82.2771 6.53554 82.1679 6.70505 82.0598 6.87521C82.0096 6.95203 81.9594 7.02886 81.9077 7.108C81.8635 7.1769 81.8193 7.24579 81.7737 7.31677C81.6028 7.50775 81.4951 7.52027 81.2461 7.57016C81.3843 6.79799 81.6022 6.05424 81.8323 5.30391C81.8706 5.17789 81.9089 5.05187 81.9471 4.92583C82.0268 4.66375 82.1067 4.40174 82.1869 4.1398C82.2896 3.80389 82.3919 3.46783 82.4939 3.13171C82.5727 2.8724 82.6517 2.61314 82.7307 2.3539C82.7685 2.22991 82.8062 2.10591 82.8439 1.98189C82.8964 1.80942 82.9492 1.63703 83.002 1.46465C83.0319 1.36661 83.0619 1.26857 83.0927 1.16756C83.1687 0.934954 83.1687 0.934954 83.2648 0.748047Z" fill="#325B51"/>
<path d="M27.1263 1.58984C28.3001 1.58984 29.4738 1.58984 30.6831 1.58984C31.5986 3.46288 32.5111 5.33684 33.4015 7.22129C33.7535 7.96543 34.108 8.70846 34.4622 9.45163C34.5015 9.53407 34.5408 9.61651 34.5812 9.70144C35.1593 10.9142 35.7401 12.1256 36.3253 13.3351C36.6157 13.9354 36.9041 14.5366 37.1888 15.1395C37.2462 15.2608 37.3036 15.3821 37.361 15.5034C37.468 15.7295 37.5744 15.9559 37.6804 16.1824C38.156 17.2324 38.156 17.2324 39.0464 17.9442C39.3322 18.0243 39.6184 18.083 39.9115 18.1311C39.9115 18.2237 39.9115 18.3162 39.9115 18.4115C37.6275 18.4115 35.3435 18.4115 32.9902 18.4115C32.9902 18.319 32.9902 18.2265 32.9902 18.1311C33.0482 18.1198 33.1062 18.1085 33.166 18.0968C33.2428 18.0812 33.3196 18.0655 33.3988 18.0494C33.4746 18.0342 33.5504 18.019 33.6286 18.0034C33.855 17.9443 34.0388 17.8741 34.2399 17.7573C34.394 17.4577 34.3706 17.1487 34.336 16.8228C34.2477 16.5801 34.1593 16.3704 34.0416 16.1431C34.0118 16.0823 33.9819 16.0216 33.9511 15.959C33.8565 15.7673 33.7599 15.5766 33.6631 15.3859C33.5667 15.1931 33.4708 15 33.3751 14.8068C33.3158 14.6872 33.2559 14.5678 33.1954 14.4486C32.9902 14.0397 32.9902 14.0397 32.9902 13.8323C30.04 13.8323 27.0898 13.8323 24.0502 13.8323C24.0185 13.9865 23.9867 14.1407 23.9541 14.2995C23.8797 14.4821 23.8013 14.6631 23.7197 14.8427C23.3459 15.7054 23.1325 16.4593 23.4794 17.3718C24.0066 17.9339 24.7491 18.0302 25.4921 18.1311C25.4921 18.2237 25.4921 18.3162 25.4921 18.4115C23.4619 18.4115 21.4316 18.4115 19.3398 18.4115C19.3398 18.319 19.3398 18.2265 19.3398 18.1311C19.4142 18.1163 19.4885 18.1015 19.5651 18.0862C20.4819 17.8866 21.1081 17.5985 21.7431 16.9162C21.7856 16.8727 21.8281 16.8292 21.8719 16.7843C22.3048 16.323 22.589 15.8178 22.8786 15.2633C22.9238 15.1794 22.9689 15.0955 23.0155 15.009C23.4538 14.1823 23.8396 13.333 24.2286 12.4836C24.3996 12.1104 24.5719 11.7376 24.7441 11.3649C24.7774 11.2927 24.8107 11.2206 24.8451 11.1462C24.9486 10.9221 25.0521 10.6979 25.1557 10.4738C25.192 10.3951 25.2283 10.3165 25.2658 10.2355C25.9232 8.81332 26.5906 7.39573 27.2653 5.98121C27.3568 5.78788 27.4465 5.59385 27.5362 5.39968C27.641 5.17375 27.7518 4.95999 27.8732 4.74121C28.0792 4.34851 28.2179 4.08235 28.1214 3.64126C27.9954 3.34369 27.8498 3.07209 27.6851 2.79306C27.5814 2.60405 27.4779 2.41496 27.3745 2.22577C27.3272 2.14383 27.2798 2.0619 27.231 1.97748C27.1263 1.77675 27.1263 1.77675 27.1263 1.58984ZM28.376 4.48691C28.3028 4.64507 28.2296 4.80322 28.1564 4.96138C28.0896 5.10558 28.0229 5.24978 27.9561 5.39397C27.7657 5.80547 27.5752 6.21698 27.3847 6.62849C27.0188 7.41917 26.6528 8.20983 26.2863 9.00028C26.1325 9.33206 25.9788 9.66386 25.825 9.99567C25.7524 10.1524 25.6797 10.3091 25.607 10.4658C25.5042 10.6875 25.4015 10.9092 25.2987 11.1309C25.2699 11.1931 25.241 11.2553 25.2112 11.3193C24.8823 12.0299 24.5638 12.7444 24.2424 13.4585C27.0658 13.4585 29.8891 13.4585 32.798 13.4585C32.0757 11.8977 32.0757 11.8977 31.3336 10.3463C30.6068 8.85138 29.9013 7.3473 29.2005 5.84066C28.9904 5.38914 28.7794 4.93798 28.5683 4.48691C28.5048 4.48691 28.4414 4.48691 28.376 4.48691Z" fill="#325B51"/>
<path d="M42.6055 1.58984C44.7943 1.58984 46.9832 1.58984 49.2384 1.58984C49.2384 1.68236 49.2384 1.77488 49.2384 1.8702C49.1427 1.88231 49.1427 1.88231 49.045 1.89466C48.4852 1.98126 48.154 2.0646 47.7965 2.52438C47.6876 2.84178 47.6885 3.08202 47.6888 3.41676C47.6886 3.51042 47.6886 3.51042 47.6885 3.60598C47.6884 3.81563 47.6889 4.02526 47.6894 4.23491C47.6894 4.38502 47.6894 4.53514 47.6894 4.68526C47.6893 5.09322 47.6899 5.50118 47.6906 5.90914C47.6912 6.33533 47.6912 6.76152 47.6914 7.1877C47.6917 7.99494 47.6924 8.80218 47.6934 9.60942C47.6945 10.5283 47.695 11.4473 47.6955 12.3662C47.6965 14.2567 47.6982 16.1472 47.7003 18.0377C48.3827 18.0338 49.0651 18.027 49.7474 18.0183C49.9793 18.0157 50.2112 18.0137 50.443 18.0124C50.7774 18.0103 51.1117 18.006 51.446 18.0012C51.6002 18.001 51.6002 18.001 51.7574 18.0008C52.8753 17.9798 53.6832 17.5491 54.4651 16.7877C55.0272 16.2011 55.5354 15.5775 56.0292 14.9362C56.1698 14.7537 56.3114 14.5719 56.453 14.3901C56.9779 13.7148 57.4952 13.0362 57.9862 12.337C58.1131 12.3679 58.24 12.3987 58.3707 12.4305C57.743 14.0551 57.0768 15.6624 56.395 17.2662C56.3625 17.3426 56.3301 17.419 56.2966 17.4978C56.2359 17.6408 56.175 17.7837 56.1139 17.9266C55.9274 18.3654 55.7523 18.8072 55.5829 19.2526C55.3956 19.2201 55.3956 19.2201 55.1984 19.1591C55.1727 19.084 55.1469 19.0088 55.1203 18.9313C55.0276 18.6653 55.0276 18.6653 54.7346 18.5853C54.2238 18.4603 53.7039 18.4761 53.1803 18.4752C53.0658 18.4742 52.9513 18.4733 52.8334 18.4723C52.5212 18.4699 52.209 18.4683 51.8969 18.4671C51.5699 18.4657 51.2431 18.4632 50.9162 18.4608C50.2979 18.4564 49.6797 18.453 49.0614 18.4499C48.3573 18.4463 47.6531 18.4417 46.9489 18.437C45.5011 18.4273 44.0533 18.419 42.6055 18.4115C42.6372 18.319 42.6689 18.2265 42.7016 18.1311C42.7654 18.1231 42.8292 18.115 42.895 18.1067C43.4527 18.0204 43.7921 17.9399 44.1435 17.477C44.2558 17.1604 44.2523 16.8561 44.2532 16.5233C44.2537 16.4042 44.2543 16.2851 44.2548 16.1624C44.255 16.0307 44.2551 15.8989 44.2552 15.7671C44.2556 15.6282 44.2561 15.4892 44.2566 15.3503C44.2579 14.973 44.2585 14.5957 44.2589 14.2184C44.2592 13.9826 44.2596 13.7467 44.26 13.5109C44.2613 12.7728 44.2623 12.0346 44.2626 11.2965C44.2631 10.445 44.2648 9.59344 44.2675 8.74192C44.2696 8.08333 44.2706 7.42474 44.2707 6.76614C44.2708 6.37297 44.2714 5.97981 44.2731 5.58663C44.2747 5.21667 44.2749 4.84674 44.274 4.47678C44.274 4.34127 44.2744 4.20576 44.2753 4.07026C44.2969 3.11478 44.2969 3.11478 43.9513 2.24402C43.5531 1.98006 43.1767 1.91639 42.7016 1.8702C42.6699 1.77769 42.6382 1.68517 42.6055 1.58984Z" fill="#325B51"/>
</g>
<defs>
<clipPath id="clip0_523_1343">
<rect width="151.5" height="18.5038" fill="white" transform="translate(0.5 0.748047)"/>
</clipPath>
</defs>
</svg>
