<svg width="109" height="28" viewBox="0 0 109 28" fill="none" xmlns="http://www.w3.org/2000/svg">
<path d="M56.0027 5.94089C56.8395 5.94089 57.6258 5.97017 58.4085 5.92971C58.8644 5.90614 58.9449 6.06766 58.9418 6.48665C58.9223 9.06692 58.932 11.6474 58.932 14.2213C59.0527 14.2867 59.1023 14.195 59.1575 14.1396C60.3729 12.9194 61.5936 11.7051 62.8581 10.5348C63.0779 10.3314 63.278 10.2225 63.5833 10.226C64.9434 10.2413 66.3038 10.2307 67.6641 10.2354C67.812 10.2359 67.9725 10.1848 68.185 10.3405C66.4877 12.0009 64.9485 13.784 63.2337 15.3881C65.0257 17.6652 66.7964 19.9153 68.6498 22.2704C68.2374 22.2704 67.9348 22.2704 67.6322 22.2704C66.4114 22.2704 65.1899 22.2457 63.9703 22.2832C63.5188 22.2971 63.2666 22.0919 63.0211 21.7804C62.0752 20.5801 61.1229 19.3849 60.1762 18.192C60.1244 18.2244 60.1091 18.2328 60.0951 18.2429C59.1802 18.9001 58.717 19.7391 58.9184 20.9079C58.9904 21.326 59.0701 21.9125 58.8505 22.167C58.5921 22.4664 58.0002 22.2561 57.5539 22.2658C56.7869 22.2825 56.0182 22.2459 55.2524 22.2802C54.8365 22.2988 54.7337 22.1702 54.7356 21.761C54.7518 18.186 54.745 14.6108 54.745 11.0357C54.745 9.51844 54.7608 8.00092 54.7348 6.48411C54.7275 6.06063 54.82 5.87024 55.2714 5.93534C55.4935 5.96737 55.724 5.94089 56.0027 5.94089Z" fill="#2A2B2C"/>
<path d="M79.1063 15.7564C78.3977 16.3948 77.7146 17.0059 77.0346 17.6203C76.6661 17.9532 76.3711 18.3631 75.9547 18.7119C76.2578 18.7119 76.5609 18.7119 76.864 18.7119C78.3119 18.7119 79.76 18.7208 81.2078 18.7052C81.5362 18.7016 81.6653 18.7744 81.6553 19.1327C81.63 20.0391 81.6364 20.9469 81.6528 21.8538C81.6582 22.1553 81.5993 22.2798 81.2566 22.2786C77.5059 22.2662 73.7551 22.2664 70.0044 22.2784C69.6688 22.2795 69.5765 22.1684 69.6048 21.8584C69.6269 21.6162 69.6497 21.3622 69.6025 21.1275C69.3116 19.679 70.0945 18.8105 71.1586 18.0231C71.8241 17.5307 72.3534 16.8677 72.9793 16.3136C74.0068 15.4038 74.9782 14.4292 75.9511 13.4596C76.3962 13.016 76.6705 12.4755 76.7342 11.8231C76.8403 10.7358 76.1762 10.2734 75.3093 10.1492C74.117 9.9784 73.087 10.3935 72.3498 11.3677C72.1554 11.6246 72.0208 11.6107 71.8011 11.4872C70.9337 10.9995 70.0704 10.504 69.1957 10.0296C68.8709 9.85341 68.8431 9.66597 69.0493 9.37853C70.1058 7.9061 71.5489 7.02543 73.3053 6.68925C74.9094 6.38224 76.5067 6.41916 78.0757 6.97464C80.7104 7.90742 81.6478 10.0177 81.0952 12.5815C80.884 13.561 80.3779 14.3911 79.6658 15.0987C79.4712 15.2921 79.3098 15.5189 79.1063 15.7564Z" fill="#2A2B2C"/>
<path d="M90.232 9.81402C90.232 13.8229 90.2248 17.7795 90.2422 21.736C90.2441 22.1699 90.1345 22.2933 89.698 22.2812C88.5485 22.2494 87.3974 22.2609 86.2473 22.2768C85.9386 22.2811 85.8274 22.2107 85.8281 21.8755C85.839 16.9777 85.8386 12.08 85.8288 7.18221C85.8282 6.86111 85.9152 6.76609 86.2385 6.77114C87.4235 6.78961 88.6092 6.79531 89.7939 6.76891C90.1865 6.76017 90.2478 6.91049 90.239 7.25195C90.2174 8.08803 90.232 8.92505 90.232 9.81402Z" fill="#2A2B2C"/>
<path fill-rule="evenodd" clip-rule="evenodd" d="M95.6413 6.77448C95.1335 6.77649 94.6222 6.77853 94.1059 6.77853C93.9185 6.77853 93.7357 6.77974 93.5562 6.78092C93.1342 6.78371 92.7302 6.78637 92.3268 6.77302C92.0277 6.76312 91.8992 6.82173 91.9 7.16696C91.9114 12.0689 91.9127 16.9708 91.8984 21.8727C91.8973 22.2676 92.0761 22.2756 92.3695 22.2745C94.3058 22.267 96.2422 22.2636 98.1785 22.2732C99.4073 22.2793 100.626 22.2384 101.834 21.9645C104.14 21.4421 105.952 20.2437 107.057 18.1285C107.891 16.5295 107.987 14.7956 107.712 13.0387C107.363 10.8085 106.185 9.15232 104.229 8.0223C102.612 7.08796 100.846 6.8146 99.0252 6.78421C97.9033 6.76549 96.781 6.76995 95.6413 6.77448ZM100.039 18.6037C100.985 18.4244 101.832 18.0555 102.453 17.2227C103.245 16.3321 103.343 15.2902 103.323 14.1986C103.289 12.3201 102.052 10.9892 100.44 10.5595C99.4795 10.3036 98.4932 10.3169 97.5079 10.3302C97.2271 10.334 96.9464 10.3378 96.6663 10.3353C96.4075 10.3331 96.4078 10.4839 96.4082 10.659L96.4082 10.6776C96.4084 11.0657 96.4087 11.4537 96.4089 11.8417C96.4102 14.0164 96.4115 16.1911 96.4035 18.3658C96.4024 18.6472 96.4982 18.7259 96.7654 18.7153C97.1414 18.7005 97.5182 18.707 97.895 18.7136C98.6118 18.726 99.3286 18.7384 100.039 18.6037Z" fill="#2A2B2C"/>
<path fill-rule="evenodd" clip-rule="evenodd" d="M5.35457 6.52664C5.36528 6.04375 5.22744 5.85723 4.70303 5.94141C4.39199 5.94142 4.08489 5.94226 3.78064 5.9431C2.99433 5.94527 2.22705 5.94739 1.46002 5.93476C1.14654 5.9296 1.04277 6.0081 1.04344 6.33949C1.05387 11.5205 1.0542 16.7015 1.04297 21.8825C1.04222 22.2278 1.17108 22.2815 1.46968 22.2766C2.14838 22.2654 2.82729 22.2674 3.50621 22.2694C3.76934 22.2701 4.03248 22.2709 4.2956 22.2709C5.11458 22.2709 5.11458 22.2709 5.14073 21.4672L5.14077 21.466C5.14127 21.4507 5.15516 21.4359 5.17292 21.4169C5.18255 21.4067 5.19332 21.3952 5.2037 21.3818C5.41735 21.4617 5.59972 21.5924 5.784 21.7243C5.98347 21.8672 6.18516 22.0116 6.43116 22.0952C7.6411 22.5061 8.84905 22.5933 10.0755 22.2659C12.0184 21.7472 13.3715 20.5605 14.0304 18.6383C14.3971 17.5688 14.5051 16.4853 14.3646 15.3425C14.1568 13.6519 13.5172 12.2238 12.127 11.2229C10.2914 9.90124 8.29169 9.74451 6.20947 10.5879C6.01581 10.6664 5.83673 10.7808 5.6422 10.9052C5.54713 10.9659 5.44838 11.029 5.34242 11.0915C5.34242 10.6488 5.34074 10.2118 5.33908 9.77877C5.33485 8.67714 5.33072 7.60158 5.35457 6.52664ZM9.39019 18.3033C10.179 17.4322 10.4387 15.4713 9.45506 14.2933C8.32447 13.0464 6.35895 13.2901 5.60426 14.6612C5.04244 15.6818 5.0527 16.8038 5.59637 17.8347C6.33335 19.2322 8.37377 19.4257 9.39019 18.3033Z" fill="#2A2B2C"/>
<path fill-rule="evenodd" clip-rule="evenodd" d="M41.3496 16.0477C41.2778 14.0063 40.5652 12.2997 38.8294 11.0691C36.5144 9.69148 34.2647 9.71578 32.0288 11.1745C32.0288 11.139 32.0273 11.1013 32.0257 11.0622C32.022 10.9721 32.0179 10.8747 32.032 10.78C32.0938 10.3639 31.9685 10.2032 31.5076 10.2206C30.48 10.2593 29.4498 10.2451 28.4211 10.2257C28.0808 10.2192 27.9365 10.2771 27.9375 10.67C27.9511 15.7976 27.9493 20.9254 27.9398 26.0531C27.9392 26.3738 28.0251 26.4705 28.3493 26.4648C29.4478 26.4455 30.5475 26.4344 31.6453 26.4683C32.1124 26.4828 32.2626 26.3679 32.251 25.8764C32.2257 24.81 32.2301 23.743 32.2346 22.6317C32.2364 22.1893 32.2382 21.7399 32.2382 21.2808C32.5061 21.5567 32.7104 21.7305 32.9564 21.8523C34.0506 22.3942 35.1777 22.5746 36.403 22.3907C37.9147 22.1637 39.1521 21.4951 40.0722 20.3043C41.0314 19.0627 41.4049 17.6178 41.3496 16.0477ZM32.2166 15.6547C31.8389 17.5053 33.1277 19.2586 34.9174 19.0249C35.4937 18.9096 35.9986 18.7023 36.351 18.2959C37.1857 17.3336 37.2994 15.7325 36.6302 14.6315C36.1441 13.8317 35.0659 13.3141 34.1621 13.5503C33.0262 13.8472 32.4486 14.5181 32.2166 15.6547Z" fill="#2A2B2C"/>
<path fill-rule="evenodd" clip-rule="evenodd" d="M16.4487 21.6458C17.4921 22.3535 18.678 22.4904 19.9423 22.4533C21.1244 22.3578 22.1122 21.9569 22.9244 20.9276C22.9244 21.0604 22.9269 21.174 22.9291 21.2748C22.9332 21.4654 22.9364 21.6101 22.9198 21.7526C22.8742 22.1453 22.9879 22.2986 23.422 22.2832C24.4151 22.2478 25.4112 22.2478 26.4043 22.2832C26.8388 22.2987 26.9211 22.1451 26.9091 21.7526C26.8805 20.8192 26.8886 19.8855 26.8968 18.9516C26.9091 17.5366 26.9214 16.1214 26.806 14.7065C26.6406 12.6799 25.6546 11.2437 23.8003 10.5507C22.1112 9.91945 20.3572 10.0328 18.6282 10.2669C17.6896 10.3939 16.7603 10.6953 15.914 11.1745C15.6106 11.3464 15.4218 11.4765 15.629 11.9158C15.7794 12.2348 15.9372 12.5501 16.0949 12.8653C16.3062 13.2876 16.5174 13.7097 16.7108 14.1402C16.8371 14.4213 16.9673 14.398 17.1677 14.2595C18.2202 13.5327 19.4056 13.2904 20.6535 13.3848C21.5567 13.4531 22.3992 13.9539 22.5451 14.8918C22.5841 15.1422 22.5334 15.1542 22.3457 15.1539C22.1468 15.1536 21.9479 15.1546 21.749 15.1555C21.3722 15.1574 20.9954 15.1592 20.6187 15.1521C19.4758 15.1305 18.3434 15.1779 17.2517 15.5683C16.0069 16.0134 15.1498 16.8239 14.9808 18.1748C14.8034 19.5926 15.2139 20.8083 16.4487 21.6458ZM19.9405 19.6247C20.6278 19.8018 21.2945 19.7678 21.9093 19.27C22.4973 18.8641 22.6408 18.3088 22.6112 17.6735C22.6019 17.4737 22.4871 17.4566 22.3352 17.457C22.1088 17.4575 21.8822 17.4552 21.6556 17.4529C21.1671 17.4478 20.6785 17.4428 20.1914 17.4669C19.6196 17.4951 19.1298 17.9746 19.0613 18.4844C19.0063 18.894 19.4457 19.4972 19.9405 19.6247Z" fill="#2A2B2C"/>
<path fill-rule="evenodd" clip-rule="evenodd" d="M44.1267 14.1288C45.2073 13.4627 46.4028 13.1909 47.7241 13.4679C48.4689 13.6161 48.9844 13.9451 49.2267 14.6788C49.362 15.0885 49.2665 15.1515 48.8875 15.1585C48.5102 15.1653 48.1327 15.1596 47.7552 15.1539C46.9176 15.1412 46.0799 15.1285 45.2443 15.2535C43.7328 15.4794 41.98 16.2265 41.7238 18.1426C41.5029 19.7959 42.1957 21.3068 43.7042 21.945C45.3308 22.6331 46.9744 22.7497 48.6075 21.8684C48.9608 21.6777 49.2142 21.4069 49.5281 21.0715C49.5564 21.0413 49.5852 21.0106 49.6145 20.9793C49.6145 21.099 49.6163 21.207 49.6179 21.3072C49.6212 21.511 49.624 21.6821 49.6103 21.8518C49.5863 22.1517 49.6574 22.2859 50.003 22.2787C50.9963 22.2579 51.9902 22.2648 52.9839 22.2717C53.0715 22.2723 53.1592 22.2729 53.2468 22.2735C53.4729 22.2751 53.6034 22.2404 53.5958 21.9656C53.5696 21.0143 53.5849 20.062 53.6002 19.1098C53.626 17.5032 53.6518 15.8968 53.4782 14.2958C53.2758 12.4297 52.2189 11.1995 50.4612 10.534C49.403 10.1333 48.3141 10.1291 47.2158 10.1249C47.1576 10.1246 47.0994 10.1244 47.0412 10.1241C45.4052 10.1162 43.8876 10.5412 42.4444 11.289C42.1793 11.4263 42.1465 11.5526 42.283 11.8097C42.315 11.87 42.347 11.9302 42.3791 11.9904C42.711 12.6143 43.0437 13.2399 43.3189 13.8889C43.5202 14.3636 43.6591 14.417 44.1267 14.1288ZM46.6793 19.6402C47.1811 19.7478 47.6877 19.7603 48.2168 19.547C48.9611 19.1554 49.3948 18.6177 49.307 17.7571C49.2851 17.5426 49.2386 17.4479 49.0073 17.4518C48.7357 17.4565 48.4639 17.4542 48.1921 17.4519C47.8029 17.4487 47.4138 17.4454 47.0255 17.4624C46.3918 17.4901 45.8952 17.919 45.8468 18.4167C45.7968 18.9311 46.1902 19.5353 46.6793 19.6402Z" fill="#2A2B2C"/>
</svg>
