<svg width="151" height="22" viewBox="0 0 151 22" fill="none" xmlns="http://www.w3.org/2000/svg">
<g clip-path="url(#clip0_523_1223)">
<path d="M10.9648 18.9372H11.2691V5.56641H10.9648V18.9372Z" fill="#2A2B2C"/>
<path d="M22.4399 6.23237C21.4202 7.08037 21.2941 7.22241 20.5341 8.35449C19.7698 7.22241 19.6437 7.08037 18.625 6.23237C19.6437 5.38543 19.7698 5.24445 20.5341 4.11237C21.2962 5.24445 21.4202 5.38543 22.4399 6.23237Z" fill="#2A2B2C"/>
<path d="M22.5597 19.2585C22.3678 19.1313 22.2427 18.9713 22.1579 18.8133C22.0901 18.7126 22.0541 18.5738 22.0286 18.4434C21.9841 18.2229 22.0064 18.0544 22.0064 18.0544V8.59493L18.6875 11.3796C19.0119 11.7209 19.0585 12.1396 19.0617 12.3018C19.0649 12.3442 19.0617 12.3717 19.0617 12.3717V18.3342C19.0617 20.1606 20.3528 21.1104 20.3528 21.1104L22.5597 19.2585Z" fill="#2A2B2C"/>
<path d="M47.1832 6.23237C46.1677 7.08037 46.0394 7.22241 45.2752 8.35449C44.5152 7.22241 44.3869 7.08037 43.3672 6.23237C44.3869 5.38543 44.5152 5.24445 45.2752 4.11237C46.0394 5.24445 46.1677 5.38543 47.1832 6.23237Z" fill="#2A2B2C"/>
<path d="M47.298 19.2585C47.1093 19.1313 46.981 18.9713 46.8973 18.8133C46.8284 18.7126 46.7892 18.5738 46.769 18.4434C46.7277 18.2229 46.7425 18.0544 46.7425 18.0544V8.59493L43.4258 11.3796C43.7491 11.7209 43.7968 12.1396 43.8031 12.3018C43.8042 12.3442 43.8031 12.3717 43.8031 12.3717V18.3342C43.8031 20.1606 45.0932 21.1104 45.0932 21.1104L47.298 19.2585Z" fill="#2A2B2C"/>
<path d="M26.8735 10.8499C26.8735 10.8499 27.0993 11.8188 28.3797 11.8188C28.3797 11.8188 29.126 11.8474 29.9379 11.028L31.388 9.57368C30.7139 9.92454 30.0577 9.9415 29.6189 9.89062C29.4927 9.88108 29.3104 9.85458 29.0974 9.77932C29.0857 9.77614 29.0762 9.77296 29.0762 9.77296H29.0783C28.7179 9.64258 28.2875 9.37546 27.9494 8.81578L25.0821 11.2273C25.0821 11.2273 24.3772 11.8665 24.3772 12.9477C24.3772 12.9477 24.2648 14.8111 26.6583 15.9655C26.6583 15.9655 27.9854 16.6004 28.7878 17.1569C28.7878 17.1569 29.3125 17.5035 29.3125 18.0897C29.3125 18.0897 29.3507 18.9833 28.332 18.9833C28.332 18.9833 26.6763 19.0776 26.6307 16.6184L23.9648 18.8275C23.9648 18.8275 24.5839 21.0916 26.7134 21.0916C26.7134 21.0916 28.8843 21.1521 30.5474 18.8911C30.5474 18.8911 31.3764 17.8109 31.3764 16.7414C31.3764 16.7414 31.5184 14.9034 29.0846 13.8349C29.0846 13.8349 28.0236 13.4045 27.059 12.7134C27.059 12.7134 26.4505 12.3509 26.4505 11.6704C26.4505 11.6704 26.3869 11.2686 26.8735 10.8499Z" fill="#2A2B2C"/>
<path d="M51.6661 10.8489C51.6661 10.8489 51.8919 11.8178 53.1724 11.8178C53.1724 11.8178 53.9197 11.8464 54.7348 11.027L56.1817 9.57271C55.5065 9.92357 54.8514 9.94053 54.4136 9.88965C54.2854 9.88011 54.1041 9.85361 53.8911 9.77835C53.8794 9.77517 53.8709 9.77199 53.8709 9.77199C53.5116 9.64161 53.0791 9.37449 52.7441 8.81481L49.8747 11.2263C49.8747 11.2263 49.1698 11.8655 49.1698 12.9467C49.1698 12.9467 49.0575 14.8102 51.4541 15.9645C51.4541 15.9645 52.7791 16.5994 53.5837 17.1559C53.5837 17.1559 54.1073 17.5026 54.1073 18.0887C54.1073 18.0887 54.1433 18.9823 53.1247 18.9823C53.1247 18.9823 51.47 19.0767 51.4234 16.6175L48.7617 18.8265C48.7617 18.8265 49.3765 21.0907 51.5071 21.0907C51.5071 21.0907 53.6759 21.1511 55.3401 18.8901C55.3401 18.8901 56.1711 17.81 56.1711 16.7404C56.1711 16.7404 56.311 14.9024 53.8752 13.8339C53.8752 13.8339 52.8162 13.4035 51.8548 12.7124C51.8548 12.7124 51.2474 12.3499 51.2474 11.6694C51.2474 11.6694 51.1806 11.2676 51.6661 10.8489Z" fill="#2A2B2C"/>
<path d="M4.0469 9.52426C4.0469 9.52426 3.95362 9.51048 3.80946 9.51048C3.3208 9.51048 1.72656 9.69068 1.72656 12.0089C1.72868 12.0513 1.77108 13.07 2.12194 13.99L2.25762 14.3398L2.3191 13.971C2.32758 13.9211 2.53958 12.7414 3.66954 12.7414C3.766 12.7414 3.86988 12.7498 3.97588 12.7679L4.09354 12.788L4.137 9.53698L4.0469 9.52426Z" fill="#2A2B2C"/>
<path d="M11.7794 5.41082L11.1381 6.05001L10.5 5.41082L11.1381 4.76953L11.7794 5.41082Z" fill="#2A2B2C"/>
<path d="M40.2556 9.78854L39.0779 8.60558L36.217 10.981C36.217 9.1748 35.1973 8.59604 35.1973 8.59604L32.7656 10.5899C33.0327 10.8931 33.1112 11.2164 33.1345 11.4114C33.1515 11.5153 33.1419 11.6001 33.1419 11.6001V18.1721C33.1419 20.2719 34.4118 21.0966 34.4118 21.0966L36.712 19.2215C36.4544 19.0455 36.3293 18.8473 36.2679 18.6894C36.2265 18.6024 36.2117 18.506 36.2085 18.4487C36.2064 18.4159 36.2064 18.3947 36.2064 18.3947V11.7612C36.7915 11.3149 37.2908 11.3393 37.2908 11.3393C38.3508 11.3393 38.3253 12.1969 38.3253 12.1969V18.0968V21.4199C38.3253 21.4199 41.2817 20.3631 41.2817 18.0968V12.2477C41.2817 10.7849 40.2556 9.78854 40.2556 9.78854Z" fill="#2A2B2C"/>
<path d="M6.43165 6.83098C6.43165 6.83098 6.43165 6.77162 6.43695 6.67304C6.43695 6.6635 6.43907 6.6529 6.43907 6.64442C6.45179 6.32324 6.51645 5.65756 6.75071 5.14452C5.46493 5.97344 4.44733 7.02284 4.43673 7.0345C3.69897 7.7977 3.72865 8.63404 3.73289 8.66478V16.4632C3.73289 17.6292 3.28981 18.0998 3.28027 18.1073L2.94531 18.4443L3.39157 18.2758C6.54083 17.0791 6.43377 14.4439 6.43165 14.4238V6.83098Z" fill="#2A2B2C"/>
<path d="M12.1864 9.6246H12.1133C15.5085 7.39648 15.4756 4.33838 15.4756 4.3087C15.4756 0.865819 12.8023 0.826599 12.7747 0.826599C11.5748 0.826599 10.8593 1.55588 10.836 1.58026L7.99308 4.08504C7.06452 5.14716 7.1949 6.30786 7.19914 6.3439V14.3066C7.19914 15.9486 6.57374 16.5655 6.5695 16.5697L6.2303 16.8898L6.67126 16.7414C10.0209 15.62 9.92016 12.7696 9.92016 12.7463V4.39986C9.92016 3.59108 10.1385 2.99748 10.5519 2.68054C10.8678 2.4378 11.1869 2.43568 11.2017 2.43568C11.5176 2.43568 11.7932 2.55228 12.0211 2.7823C12.8182 3.5826 12.8161 5.49166 12.8161 5.5118C12.8161 9.08612 11.1095 9.65958 11.0936 9.66594L11.0204 9.68714V10.1101L11.1169 10.1175C14.0637 10.3412 14.0637 13.6197 14.0637 13.7597C14.0637 17.316 12.0137 18.3378 11.6808 18.4809C10.4215 17.6446 9.16438 17.2227 7.93796 17.2227C4.9954 17.2227 2.97822 19.6776 2.25 20.7281C3.10436 20.3264 3.90042 20.1324 4.47388 20.037C4.67846 19.9967 4.8841 19.9744 5.09186 19.9638C5.25616 19.9501 5.3505 19.949 5.3505 19.949C6.04586 19.949 6.76348 20.1112 7.49064 20.426L7.51502 20.4377C7.92842 20.6348 8.43616 20.7334 9.02764 20.7334C10.7586 20.7334 12.6316 19.9045 12.7058 19.8695C15.8286 18.6007 16.7529 15.8987 16.7614 15.868C16.7837 15.797 16.7964 15.7535 16.7964 15.7493C17.0836 14.7349 17.0868 13.7607 17.0868 13.7215C17.0868 9.92034 13.3387 9.6246 12.1864 9.6246Z" fill="#2A2B2C"/>
<path d="M7.95252 1.92467C7.85924 1.94375 7.76066 1.95435 7.65996 1.95965C7.61438 1.96389 7.58364 1.96389 7.58364 1.96389C7.58364 1.96389 7.56562 1.96601 7.54654 1.96601C7.43736 1.96601 7.02714 1.92785 6.33708 1.43707C6.2915 1.40209 5.18804 0.55939 4.31142 0.55939C4.31142 0.55939 4.29128 0.55727 4.25418 0.55727C3.95738 0.55727 2.93236 0.63465 2.04302 1.62893C2.01228 1.66391 1.34448 2.49389 0.954401 3.50937L0.925781 3.57933C1.83102 2.91153 2.55076 2.96665 2.55076 2.96665C2.55076 2.96665 3.1645 2.97195 3.79202 3.46909C3.82912 3.50089 4.7439 4.25243 5.59614 4.25243C5.59614 4.25243 5.63854 4.25879 5.71592 4.25879C6.17808 4.25879 7.79776 4.04891 9.33264 1.39361C8.82808 1.73175 8.29596 1.87061 7.95252 1.92467Z" fill="#2A2B2C"/>
<path d="M139.842 6.23237C138.826 7.08037 138.699 7.22241 137.935 8.35449C137.171 7.22241 137.043 7.08037 136.027 6.23237C137.043 5.38543 137.171 5.24445 137.935 4.11237C138.699 5.24445 138.826 5.38543 139.842 6.23237Z" fill="#2A2B2C"/>
<path d="M139.963 19.2576C139.771 19.1304 139.644 18.9703 139.56 18.8124C139.494 18.7117 139.453 18.5728 139.433 18.4424C139.39 18.2219 139.409 18.0534 139.409 18.0534V8.59396L136.09 11.3786C136.412 11.7199 136.461 12.1386 136.467 12.3008C136.469 12.3432 136.467 12.3707 136.467 12.3707V18.3332C136.467 20.1596 137.756 21.1094 137.756 21.1094L139.963 19.2576Z" fill="#2A2B2C"/>
<path d="M130.107 10.8509C130.107 10.8509 130.332 11.8197 131.611 11.8197C131.611 11.8197 132.359 11.8484 133.172 11.029L134.622 9.57466C133.948 9.92552 133.292 9.94248 132.852 9.8916C132.727 9.88206 132.543 9.85556 132.329 9.7803C132.32 9.77712 132.311 9.77394 132.311 9.77394C131.952 9.64356 131.52 9.37644 131.183 8.81676L128.316 11.2283C128.316 11.2283 127.612 11.8674 127.612 12.9486C127.612 12.9486 127.499 14.8121 129.893 15.9665C129.893 15.9665 131.22 16.6014 132.022 17.1579C132.022 17.1579 132.548 17.5045 132.548 18.0907C132.548 18.0907 132.586 18.9843 131.567 18.9843C131.567 18.9843 129.911 19.0786 129.864 16.6194L127.199 18.8285C127.199 18.8285 127.815 21.0926 129.948 21.0926C129.948 21.0926 132.117 21.153 133.782 18.8921C133.782 18.8921 134.61 17.8119 134.61 16.7424C134.61 16.7424 134.753 14.9043 132.318 13.8359C132.318 13.8359 131.258 13.4055 130.294 12.7144C130.294 12.7144 129.686 12.3519 129.686 11.6713C129.686 11.6713 129.621 11.2696 130.107 10.8509Z" fill="#2A2B2C"/>
<path d="M95.9794 18.8746C95.919 18.7485 95.9243 18.6128 95.9243 18.6128V5.94159C95.9243 4.19047 95.0381 3.63821 95.0381 3.63821L92.5217 5.65009C93.0528 6.07197 93.0019 6.53095 93.0019 6.53095V10.0215C92.5291 9.37705 91.3939 8.66897 91.3939 8.66897L87.1719 12.1829C87.5143 12.4871 87.4729 12.7616 87.4729 12.7616V17.1044C87.4729 19.8986 90.0636 21.2225 90.0636 21.2225L92.9902 18.8185C92.9902 20.2473 94.259 21.2363 94.259 21.2363L96.396 19.4863C96.1522 19.2668 96.0356 19.0421 95.9794 18.8746ZM91.6673 18.5937C90.3911 18.5937 90.4218 17.4129 90.4218 17.4129V11.3264L90.583 11.1653C91.6673 11.8861 92.4019 12.9175 92.4019 12.9175C92.9754 13.6754 92.9902 14.5944 92.9902 14.5944V17.9567C92.297 18.6361 91.6673 18.5937 91.6673 18.5937Z" fill="#2A2B2C"/>
<path d="M104.804 9.97344L102.525 8.55092L98.1367 12.191C98.3127 12.35 98.3572 12.5704 98.3678 12.6839V12.6849C98.3742 12.7263 98.3742 12.7559 98.3742 12.7559V16.9557C98.3742 16.9557 98.2003 18.782 99.9324 19.7498C99.9324 19.7498 101.167 20.4833 102.299 21.2285L105.791 18.3082C105.791 18.3082 106.437 17.7623 106.437 16.5083V12.6945C106.437 12.6945 106.526 11.0048 104.804 9.97344ZM103.243 19.0969C103.243 19.0969 102.432 18.8096 101.747 18.0538C101.747 18.0538 101.288 17.6436 101.288 16.6281V11.5687C101.288 11.5687 101.253 11.114 101.6 10.778L102.824 11.644C102.824 11.644 103.469 12.1199 103.469 12.9022V18.1651C103.469 18.1651 103.514 18.763 103.243 19.0969Z" fill="#2A2B2C"/>
<path d="M150.167 18.6859C150.118 18.6117 150.077 18.4994 150.054 18.334C150.034 18.2036 150.041 18.1156 150.041 18.1156V11.7154C150.041 11.7154 150.088 9.55295 148.108 8.45479C148.108 8.45479 145.201 8.50355 142.523 11.0507V12.1182C142.523 12.1182 143.768 10.5663 145.476 9.95787C145.476 9.95787 147.146 10.2557 147.146 12.3789V12.9312L144.18 13.8756C144.18 13.8756 141.469 14.6219 141.469 17.1744C141.469 17.1744 141.451 19.8021 144.331 20.9766L147.146 18.6933C147.211 19.3887 147.479 20.3607 148.366 21.0137L150.572 19.1576C150.369 19.0135 150.244 18.8439 150.167 18.6859ZM147.146 17.8411C146.849 18.1241 146.255 18.6085 145.621 18.6085C145.621 18.6085 144.626 18.722 144.626 17.4362V15.5833C144.626 15.5833 144.615 14.6897 145.625 14.2307L147.146 13.5396V17.8411Z" fill="#2A2B2C"/>
<path d="M68.95 9.12999L68.8536 9.12469C68.8536 9.12469 68.826 9.12257 68.7688 9.12257C68.3776 9.12257 66.4294 9.24023 66.4336 11.569C66.4336 11.6146 66.4898 12.6407 66.8587 13.4293L66.9996 13.7314L67.0495 13.4007C67.0579 13.3551 67.2445 12.2676 68.3882 12.2676C68.5271 12.2676 68.6734 12.2835 68.8281 12.3163L68.95 12.3397V9.12999Z" fill="#2A2B2C"/>
<path d="M84.0787 9.78952L82.9021 8.60656L80.0412 10.982C80.0412 9.17578 79.0225 8.59702 79.0225 8.59702L76.5898 10.5909C76.858 10.894 76.9386 11.2173 76.9608 11.4124C76.9725 11.5163 76.9672 11.6011 76.9672 11.6011V18.1731C76.9672 20.2729 78.2381 21.0976 78.2381 21.0976L80.5373 19.2225C80.2808 19.0465 80.1557 18.8483 80.0921 18.6903C80.0529 18.6034 80.0401 18.507 80.0338 18.4497C80.0327 18.4169 80.0327 18.3957 80.0327 18.3957V11.7622C80.62 11.3159 81.1182 11.3403 81.1182 11.3403C82.176 11.3403 82.1506 12.1978 82.1506 12.1978V18.0978V21.4209C82.1506 21.4209 85.108 20.3641 85.108 18.0978V12.2487C85.108 10.7859 84.0787 9.78952 84.0787 9.78952Z" fill="#2A2B2C"/>
<path d="M115.767 9.78854L114.591 8.60558L111.729 10.981C111.729 9.1748 110.711 8.59604 110.711 8.59604L108.277 10.5899C108.544 10.8931 108.625 11.2164 108.648 11.4114C108.662 11.5153 108.656 11.6001 108.656 11.6001V18.1721C108.656 20.2719 109.927 21.0966 109.927 21.0966L112.225 19.2215C111.969 19.0455 111.842 18.8473 111.781 18.6894C111.739 18.6024 111.724 18.506 111.722 18.4487C111.719 18.4159 111.719 18.3947 111.719 18.3947V11.7612C112.303 11.3149 112.802 11.3393 112.802 11.3393C113.862 11.3393 113.839 12.1969 113.839 12.1969V18.0968V21.4199C113.839 21.4199 116.794 20.3631 116.794 18.0968V12.2477C116.794 10.7849 115.767 9.78854 115.767 9.78854Z" fill="#2A2B2C"/>
<path d="M123.593 18.6442C122.316 18.6442 122.036 17.7675 121.98 17.246C123.69 16.1479 125.005 14.7752 125.005 14.7752C125.791 13.9632 125.789 12.9413 125.789 12.9413C125.789 12.016 125.002 11.1531 125.002 11.1531C123.855 9.83555 122.49 8.69923 122.49 8.69923L118.848 11.5792C118.974 11.7478 119.014 11.9269 119.026 12.0329C119.037 12.087 119.033 12.1283 119.033 12.1283V16.9662C119.033 18.5148 119.831 19.3904 119.831 19.3904C120.764 20.4939 121.968 21.2295 121.968 21.2295L125.739 18.165C124.982 18.5085 124.169 18.606 123.799 18.6325C123.671 18.6505 123.593 18.6442 123.593 18.6442ZM121.978 11.9979C123.481 13.0961 123.415 14.3374 123.415 14.3374C123.415 15.4461 122.41 16.2189 121.978 16.5008V11.9979Z" fill="#2A2B2C"/>
<path d="M72.5275 1.92467C72.4363 1.94375 72.3388 1.95435 72.237 1.95965C72.1883 1.96389 72.1575 1.96389 72.1575 1.96389C72.1575 1.96389 72.1448 1.96601 72.1225 1.96601C72.0123 1.96601 71.6 1.92785 70.912 1.43707C70.8654 1.40209 69.763 0.55939 68.8864 0.55939C68.8864 0.55939 68.8662 0.55727 68.8312 0.55727C68.5344 0.55727 67.5084 0.63465 66.6148 1.62893C66.5904 1.66391 65.9205 2.49389 65.5293 3.50937L65.5039 3.57933C66.406 2.91153 67.1257 2.96665 67.1257 2.96665C67.1299 2.96665 67.7405 2.97195 68.367 3.46909C68.4051 3.50089 69.3199 4.25243 70.1711 4.25243C70.1711 4.25243 70.2135 4.25879 70.2909 4.25879C70.7551 4.25879 72.3727 4.04891 73.9065 1.39361C73.403 1.73175 72.8709 1.87061 72.5275 1.92467Z" fill="#2A2B2C"/>
<path d="M71.2101 6.85762C71.2101 6.61276 71.2271 6.39228 71.2536 6.19724C71.2938 5.8008 71.368 5.29518 71.5058 4.868L71.4984 4.87012C70.0144 5.73084 69.0318 7.06962 69.0201 7.0887C68.5145 7.86038 68.5347 8.82074 68.5347 8.86102V14.6698C68.5347 15.68 68.1234 16.1846 68.1181 16.1888L67.8711 16.4824L68.2304 16.351C71.2536 15.2454 71.2112 12.7904 71.2101 12.7661V6.85762Z" fill="#2A2B2C"/>
<path d="M74.7191 16.2416V5.32362C74.7191 5.32362 74.6184 2.85382 76.1194 1.10588C74.4615 2.29202 72.8599 3.82372 72.845 3.83962C71.8815 4.77878 71.9896 5.92252 71.9939 5.95962V17.4225C71.9939 18.5927 71.184 18.9372 71.1459 18.9531C70.9561 19.04 70.7643 19.0824 70.5703 19.0824C69.8887 19.0824 69.3969 18.5482 69.3937 18.5429L68.4482 17.4744C67.4889 16.3815 66.3748 16.3466 66.2465 16.3466C65.5639 16.3466 64.9883 16.5861 64.5315 17.0536C63.4789 18.1411 63.3792 20.1308 63.375 20.7275C63.9622 19.9696 64.5813 19.7163 64.9512 19.6326C65.0763 19.605 65.1781 19.5933 65.2459 19.5923C65.2745 19.5923 65.2894 19.5923 65.2894 19.5923C65.3095 19.5923 65.3201 19.5923 65.3296 19.5933C66.0208 19.5933 66.467 19.9749 66.4808 19.9845L66.9461 20.3184C68.7206 21.6116 71.0028 20.6926 71.5412 20.4466C72.3235 20.0544 72.9203 19.6135 73.321 19.2647C73.48 19.1386 73.6305 18.9955 73.7747 18.8291L74.0874 18.4899C74.8665 17.3885 74.7223 16.2914 74.7191 16.2416Z" fill="#2A2B2C"/>
</g>
<defs>
<clipPath id="clip0_523_1223">
<rect width="150.497" height="21.7142" fill="white" transform="translate(0.5 0.142578)"/>
</clipPath>
</defs>
</svg>
