<svg width="128" height="22" viewBox="0 0 128 22" fill="none" xmlns="http://www.w3.org/2000/svg">
<g clip-path="url(#clip0_523_1156)">
<path d="M27.7396 14.4787C26.6321 15.5797 24.9709 16.1769 23.4986 16.1769C19.3288 16.1769 17.7155 13.2804 17.6922 10.5034C17.6676 7.70301 19.4272 4.68582 23.4986 4.68582C24.9709 4.68582 26.4639 5.18955 27.5714 6.26712L29.6919 4.23272C27.9582 2.53198 25.7899 1.66992 23.4986 1.66992C17.4024 1.66992 14.5354 6.12171 14.5587 10.5047C14.5833 14.863 17.2342 19.1486 23.4986 19.1486C25.9335 19.1486 28.1743 18.358 29.9092 16.6585L27.7396 14.4787Z" fill="#2A2B2C"/>
<path d="M38.1348 2.00293L30.543 18.7624H33.9999L35.4502 15.6024H44.297L45.724 18.7624H49.2055L41.615 2.00293H38.1348ZM36.731 12.6566L39.8736 5.52256L43.0187 12.6566H36.731Z" fill="#2A2B2C"/>
<path d="M58.9678 1.98047C56.2845 1.98047 53.5999 2.00384 50.918 2.00384V18.7646H54.1369V13.8324H58.9665C67.3371 13.8311 67.3126 1.98047 58.9678 1.98047ZM58.9678 10.9347H54.1382V4.99637H58.9678C63.0677 4.99637 63.0936 10.9347 58.9678 10.9347Z" fill="#2A2B2C"/>
<path d="M74.1713 8.516C72.109 8.27582 70.3405 7.86816 70.3405 6.4089C70.3405 5.16385 71.4945 4.18236 73.8996 4.18236C75.7678 4.18236 77.3902 5.09115 77.9763 6.04928L80.556 4.75749C79.2545 2.17132 76.4794 1.42871 73.8039 1.42871C70.6354 1.45468 67.1462 2.8659 67.1462 6.31283C67.1462 10.0713 70.3896 10.9827 73.8996 11.3891C76.1831 11.628 77.8792 12.2745 77.8792 13.8545C77.8792 15.6747 75.9644 16.3693 73.9255 16.3693C71.8373 16.3693 69.8488 15.5553 69.0881 13.713L66.3867 15.0775C67.665 18.1414 70.365 19.1956 73.8763 19.1956C77.7084 19.1956 81.0968 17.591 81.0968 13.8545C81.0955 9.85582 77.755 8.94573 74.1713 8.516Z" fill="#2A2B2C"/>
<path d="M94.027 11.6288C94.027 14.5005 92.565 16.2493 89.9943 16.2493C87.421 16.2493 85.7236 14.6447 85.7236 11.6288V2.0293H82.6328V11.6288C82.6328 16.6791 86.0069 19.1211 89.9697 19.1211C94.1227 19.1211 97.119 16.5843 97.119 11.6288V2.0293H94.027V11.6288V11.6288Z" fill="#2A2B2C"/>
<path d="M102.042 2.00293H98.8125V18.7624H110.85V15.8413H102.042V2.00293Z" fill="#2A2B2C"/>
<path d="M125.172 4.61163L125.072 4.71163C124.841 4.92504 124.539 5.04444 124.224 5.0464C124.071 5.05888 123.916 5.03814 123.771 4.98559C123.626 4.93304 123.494 4.8499 123.384 4.74183C123.274 4.63376 123.189 4.5033 123.134 4.3593C123.079 4.2153 123.055 4.06114 123.065 3.90731C123.057 3.59034 123.173 3.28265 123.389 3.05081C123.5 2.94566 123.632 2.86409 123.775 2.81104C123.919 2.75799 124.071 2.73455 124.224 2.74213C124.527 2.73627 124.819 2.85038 125.038 3.05951L125.135 3.15516L125.812 2.50301L125.709 2.40301C125.515 2.20655 125.284 2.05075 125.029 1.94474C124.774 1.83873 124.5 1.78465 124.224 1.78564C123.941 1.7751 123.658 1.82162 123.393 1.92245C123.128 2.02327 122.885 2.17635 122.68 2.37258C122.286 2.78756 122.071 3.3414 122.082 3.91383C122.082 4.87684 122.65 6.00071 124.222 6.00071C124.503 6.00601 124.783 5.95552 125.045 5.85217C125.306 5.74881 125.545 5.59464 125.746 5.39856L125.846 5.30073L125.172 4.61163Z" fill="#2A2B2C"/>
<path d="M124.153 0.0458991C123.393 0.0454691 122.649 0.270639 122.016 0.692928C121.383 1.11522 120.89 1.71565 120.598 2.41829C120.307 3.12093 120.23 3.8942 120.378 4.6403C120.527 5.3864 120.893 6.07181 121.431 6.60983C121.968 7.14786 122.654 7.51432 123.4 7.66288C124.146 7.81144 124.92 7.73541 125.623 7.44441C126.326 7.15342 126.927 6.66053 127.349 6.02809C127.772 5.39565 127.998 4.65208 127.998 3.89141C127.997 2.87225 127.591 1.89512 126.871 1.17426C126.15 0.4534 125.173 0.0476248 124.153 0.0458991V0.0458991ZM126.993 3.89141C126.993 4.45344 126.827 5.00285 126.514 5.47013C126.202 5.93741 125.758 6.30157 125.238 6.51655C124.719 6.73153 124.147 6.78767 123.596 6.67786C123.045 6.56806 122.538 6.29725 122.141 5.89968C121.744 5.50211 121.473 4.99565 121.364 4.44437C121.254 3.89309 121.311 3.32175 121.526 2.80263C121.742 2.2835 122.106 1.83992 122.574 1.52798C123.042 1.21605 123.591 1.04978 124.153 1.05021C124.906 1.05194 125.628 1.3519 126.16 1.88442C126.693 2.41693 126.992 3.13861 126.993 3.89141" fill="#2A2B2C"/>
<path d="M112.336 0.125V2.71117H114.989V19.3732H112.336V22.0075H117.948V0.125H112.336Z" fill="#2A2B2C"/>
<path d="M7.47266 22.0067H13.0837V19.3725H10.4289V2.66104H13.0837V0.0761719H7.47266V22.0067Z" fill="#2A2B2C"/>
</g>
<defs>
<clipPath id="clip0_523_1156">
<rect width="127.499" height="21.914" fill="white" transform="translate(0.5 0.0429688)"/>
</clipPath>
</defs>
</svg>
