<svg width="114" height="24" viewBox="0 0 114 24" fill="none" xmlns="http://www.w3.org/2000/svg">
<g clip-path="url(#clip0_523_1360)">
<path d="M109.253 4.67046H113.5C112.569 9.73417 112.763 17.2908 112.976 20.4361L108.672 20.3189C107.566 11.1174 105.705 9.06612 104.716 9.12472C103.924 9.17161 103.688 10.082 103.668 10.5313V20.4361H98.6652C98.607 17.6815 98.5256 11.7504 98.6652 10.0625C98.8397 7.95256 99.596 4.67046 103.377 4.43603C106.865 4.21978 108.423 8.74085 108.552 9.39771C108.473 6.86303 108.984 5.19256 109.253 4.67046Z" fill="#251F21"/>
<path fill-rule="evenodd" clip-rule="evenodd" d="M67.5416 4.31881C71.9629 3.61553 75.3364 7.48366 74.6964 10.8243C74.0565 14.1649 68.7044 13.6375 65.272 13.3445C65.1945 14.2627 65.6677 16.1459 68.1808 16.3335C70.694 16.521 72.6799 15.7474 73.3586 15.3371V19.6155C72.2533 20.2407 69.17 21.3034 65.6795 20.5533C61.3164 19.6155 59.5133 15.1027 60.2695 11.2346C61.0258 7.36643 63.1202 5.02211 67.5416 4.31881ZM69.8097 10.3554C70.0424 9.71076 69.4607 8.18695 67.3663 8.71442C65.6909 9.13641 65.272 10.5313 65.272 11.176C68.1226 11.3518 69.577 11.0001 69.8097 10.3554Z" fill="#251F21"/>
<path fill-rule="evenodd" clip-rule="evenodd" d="M11.286 1.09541C17.7435 -0.487009 24.578 0.363846 26.877 6.0771C28.6222 10.4141 26.9352 15.3958 25.9462 16.8024C24.9572 18.209 23.0374 20.2017 19.1397 20.5533C16.0215 20.8346 12.7404 20.397 11.286 20.0844C12.1703 12.6295 11.6545 4.31887 11.286 1.09541ZM20.9431 6.48736C19.2211 4.56504 17.5689 4.90501 16.2891 5.19809C16.6575 6.58518 17.2083 10.6956 16.4636 16.0406C17.3363 16.2946 19.4538 16.4274 20.9431 14.927C22.8047 13.0516 23.0956 8.89029 20.9431 6.48736Z" fill="#251F21"/>
<path fill-rule="evenodd" clip-rule="evenodd" d="M30.1931 5.66683C31.3567 5.08074 35.3706 3.20529 39.0938 5.31518C42.0724 7.00309 42.7007 10.0038 42.6425 11.2932V20.3775H37.8139L37.4649 18.6778H37.174C36.6698 19.557 35.068 21.1862 32.6945 20.6705C29.7276 20.0258 28.7387 18.7364 28.3315 16.6852C27.9243 14.6339 28.8551 12.0551 31.9965 11.176C34.5097 10.4727 36.7669 11.469 37.5814 12.0551C37.6395 9.76941 36.6505 8.89028 34.2654 8.65584C32.3572 8.4683 30.7555 9.39821 30.1931 9.88661V5.66683ZM35.4869 13.6961C34.2018 13.6961 33.1599 14.4046 33.1599 15.2786C33.1599 16.1525 34.2018 16.861 35.4869 16.861C36.7721 16.861 37.8139 16.1525 37.8139 15.2786C37.8139 14.4046 36.7721 13.6961 35.4869 13.6961Z" fill="#251F21"/>
<path fill-rule="evenodd" clip-rule="evenodd" d="M84.328 5.66683C85.4916 5.08074 89.5055 3.20529 93.2287 5.31518C96.2072 7.00309 96.8355 10.0038 96.7774 11.2932V20.3775H91.9488L91.5998 18.6778H91.3089C90.8047 19.557 89.2029 21.1862 86.8294 20.6705C83.8625 20.0258 82.8736 18.7364 82.4664 16.6852C82.0591 14.6339 82.9899 12.0551 86.1314 11.176C88.6446 10.4727 90.9018 11.469 91.7162 12.0551C91.7744 9.76941 90.7854 8.89028 88.4002 8.65584C86.4921 8.4683 84.8903 9.39821 84.328 9.88661V5.66683ZM89.6218 13.6961C88.3366 13.6961 87.2948 14.4046 87.2948 15.2786C87.2948 16.1525 88.3366 16.861 89.6218 16.861C90.907 16.861 91.9488 16.1525 91.9488 15.2786C91.9488 14.4046 90.907 13.6961 89.6218 13.6961Z" fill="#251F21"/>
<path fill-rule="evenodd" clip-rule="evenodd" d="M48.7508 4.37749C51.9155 4.04929 53.0945 5.99897 53.2885 7.01485H53.5794L53.9284 4.84635H58.4661V15.7475C58.5049 16.9782 57.9658 19.9555 55.4991 22.0185C52.4159 24.5973 48.0527 23.5423 45.3185 22.3116V17.9746C45.8033 18.4044 47.3546 19.2405 49.6816 19.1467C52.5904 19.0295 53.5794 17.1541 53.5794 14.6925C53.0752 15.5521 51.3803 17.1423 48.6345 16.6266C45.2021 15.9819 43.8059 13.3445 43.7477 10.8244C43.6896 8.30424 44.7949 4.78774 48.7508 4.37749ZM51.0198 8.30423C49.831 8.30423 48.8673 9.56375 48.8673 11.1174C48.8673 12.6711 49.831 13.9306 51.0198 13.9306C52.2085 13.9306 53.1722 12.6711 53.1722 11.1174C53.1722 9.56375 52.2085 8.30424 51.0198 8.30423Z" fill="#251F21"/>
<path d="M76.2097 0.450722H81.2128V20.4947H76.2097V0.450722Z" fill="#251F21"/>
<path d="M9.1917 6.72179C9.1917 8.43731 7.13407 9.82802 4.59585 9.82802C2.05763 9.82802 0 8.43731 0 6.72179C0 5.00627 2.05763 3.61556 4.59585 3.61556C7.13407 3.61556 9.1917 5.00627 9.1917 6.72179Z" fill="#251F21"/>
<path d="M8.0282 15.1614C8.0282 16.4885 6.49148 17.5643 4.59585 17.5643C2.70022 17.5643 1.16351 16.4885 1.16351 15.1614C1.16351 13.8343 2.70022 12.7584 4.59585 12.7584C6.49148 12.7584 8.0282 13.8343 8.0282 15.1614Z" fill="#251F21"/>
</g>
<defs>
<clipPath id="clip0_523_1360">
<rect width="113.5" height="23.2159" fill="white" transform="translate(0 0.391602)"/>
</clipPath>
</defs>
</svg>
