<svg width="118" height="40" viewBox="0 0 118 40" fill="none" xmlns="http://www.w3.org/2000/svg">
<g clip-path="url(#clip0_523_1149)">
<path d="M50.0007 20.5101C50.0007 26.0266 45.6852 30.0916 40.389 30.0916C35.0929 30.0916 30.7773 26.0266 30.7773 20.5101C30.7773 14.9548 35.0929 10.9287 40.389 10.9287C45.6852 10.9287 50.0007 14.9548 50.0007 20.5101ZM45.7932 20.5101C45.7932 17.0629 43.292 14.7043 40.389 14.7043C37.4861 14.7043 34.9849 17.0629 34.9849 20.5101C34.9849 23.9228 37.4861 26.316 40.389 26.316C43.292 26.316 45.7932 23.9185 45.7932 20.5101Z" fill="#EA4335"/>
<path d="M70.739 20.5101C70.739 26.0266 66.4234 30.0916 61.1273 30.0916C55.8312 30.0916 51.5156 26.0266 51.5156 20.5101C51.5156 14.9591 55.8312 10.9287 61.1273 10.9287C66.4234 10.9287 70.739 14.9548 70.739 20.5101ZM66.5314 20.5101C66.5314 17.0629 64.0302 14.7043 61.1273 14.7043C58.2244 14.7043 55.7232 17.0629 55.7232 20.5101C55.7232 23.9228 58.2244 26.316 61.1273 26.316C64.0302 26.316 66.5314 23.9185 66.5314 20.5101Z" fill="#FBBC05"/>
<path d="M90.6102 11.5076V28.7092C90.6102 35.7851 86.4372 38.6751 81.504 38.6751C76.8601 38.6751 74.0652 35.5692 73.0111 33.0291L76.6744 31.5042C77.3267 33.0636 78.925 34.9039 81.4996 34.9039C84.6574 34.9039 86.6143 32.9556 86.6143 29.2881V27.9101H86.4675C85.5257 29.0721 83.7114 30.0873 81.4219 30.0873C76.6312 30.0873 72.2422 25.9143 72.2422 20.5447C72.2422 15.1362 76.6312 10.9287 81.4219 10.9287C83.7071 10.9287 85.5214 11.9439 86.4675 13.0714H86.6143V11.5119H90.6102V11.5076ZM86.9124 20.5447C86.9124 17.1709 84.6618 14.7043 81.7977 14.7043C78.8948 14.7043 76.4627 17.1709 76.4627 20.5447C76.4627 23.8839 78.8948 26.316 81.7977 26.316C84.6618 26.316 86.9124 23.8839 86.9124 20.5447Z" fill="#4285F4"/>
<path d="M97.1976 1.4248V29.5038H93.0938V1.4248H97.1976Z" fill="#34A853"/>
<path d="M113.19 23.6631L116.456 25.8403C115.402 27.3997 112.862 30.0867 108.473 30.0867C103.03 30.0867 98.9648 25.8792 98.9648 20.5053C98.9648 14.8074 103.064 10.9238 108.002 10.9238C112.974 10.9238 115.406 14.8808 116.201 17.0191L116.637 18.1077L103.829 23.4125C104.81 25.3349 106.335 26.3155 108.473 26.3155C110.615 26.3155 112.102 25.2614 113.19 23.6631ZM103.138 20.2158L111.7 16.6606C111.229 15.464 109.812 14.6303 108.145 14.6303C106.006 14.6303 103.03 16.518 103.138 20.2158Z" fill="#EA4335"/>
<path d="M15.2455 18.0165V13.9516H28.9437C29.0777 14.66 29.1468 15.4981 29.1468 16.4052C29.1468 19.455 28.3131 23.2263 25.6261 25.9132C23.0126 28.6347 19.6733 30.0862 15.2498 30.0862C7.05073 30.0862 0.15625 23.4077 0.15625 15.2086C0.15625 7.00955 7.05073 0.331055 15.2498 0.331055C19.7857 0.331055 23.0169 2.11083 25.4447 4.43059L22.5763 7.29898C20.8354 5.66607 18.4767 4.39604 15.2455 4.39604C9.25818 4.39604 4.57546 9.22131 4.57546 15.2086C4.57546 21.1959 9.25818 26.0212 15.2455 26.0212C19.129 26.0212 21.3408 24.4618 22.7577 23.0448C23.9068 21.8958 24.6628 20.2542 24.9608 18.0122L15.2455 18.0165Z" fill="#4285F4"/>
</g>
<defs>
<clipPath id="clip0_523_1149">
<rect width="117.5" height="39.7426" fill="white" transform="translate(0 0.128906)"/>
</clipPath>
</defs>
</svg>
