<svg width="153" height="18" viewBox="0 0 153 18" fill="none" xmlns="http://www.w3.org/2000/svg">
<g clip-path="url(#clip0_523_1322)">
<path d="M5.57927 6.25612L8.71149 1.68272C9.29878 0.833376 10.0818 0.408703 11.028 0.408703C11.8111 0.408703 12.4636 0.67004 13.0183 1.22538C13.573 1.78072 13.8666 2.43407 13.8666 3.18541C13.8666 3.74075 13.7035 4.23076 13.4098 4.6881L10.5712 8.80416L14.0297 13.2142C14.3886 13.6389 14.5518 14.1616 14.5518 14.7496C14.5518 15.5336 14.2908 16.1869 13.7361 16.7423C13.1814 17.2976 12.5289 17.5916 11.7458 17.5916C10.8975 17.5916 10.245 17.3303 9.78819 16.7749L5.54664 11.4829V14.4229C5.54664 15.2723 5.41613 15.8929 5.12249 16.3829C4.60045 17.2323 3.81739 17.657 2.80595 17.657C1.89238 17.657 1.17458 17.3629 0.685173 16.7423C0.228391 16.0889 0 15.3376 0 14.3902V3.54475C0 2.66274 0.228391 1.91139 0.717801 1.32338C1.20721 0.735374 1.92501 0.408703 2.80595 0.408703C3.65426 0.408703 4.33943 0.735374 4.89409 1.32338C5.22037 1.65005 5.41613 2.00939 5.48139 2.33606C5.54664 2.56473 5.54664 2.95674 5.54664 3.54475V6.25612H5.57927ZM21.1751 3.87142V14.3576C21.1751 15.2723 20.9467 16.0236 20.4573 16.6116C19.9679 17.2649 19.2501 17.5916 18.3692 17.5916C17.5535 17.5916 16.8683 17.2976 16.3136 16.6769C15.8569 16.1869 15.5958 15.4029 15.5958 14.3576V3.87142C15.5958 2.6954 15.8242 1.84606 16.3136 1.32338C16.8683 0.702707 17.5535 0.408703 18.4018 0.408703C19.2501 0.408703 19.9353 0.702707 20.4573 1.29072C20.9467 1.84606 21.1751 2.6954 21.1751 3.87142ZM31.2243 0.0820312C33.2798 0.0820312 35.1722 0.768041 36.9015 2.14006C38.2392 3.21808 38.9244 4.36143 38.9244 5.53744C38.9244 6.51746 38.5002 7.30147 37.6845 7.85681C37.2277 8.18348 36.7057 8.31415 36.151 8.31415C35.6943 8.31415 35.2701 8.21615 34.846 7.98748C34.6828 7.88948 34.2587 7.4648 33.5735 6.74613C32.9536 6.06012 32.1379 5.70078 31.1917 5.70078C30.2781 5.70078 29.4951 6.02745 28.8752 6.64813C28.2552 7.30147 27.929 8.08548 27.929 9.00016C27.929 9.91484 28.2552 10.6989 28.8752 11.3522C29.4951 12.0055 30.2781 12.2995 31.1917 12.2995C31.9421 12.2995 32.6599 12.0382 33.3125 11.5155C33.704 11.1235 34.1282 10.7315 34.5197 10.3395C34.9438 9.98017 35.4985 9.78417 36.151 9.78417C36.9015 9.78417 37.554 10.0455 38.1413 10.5682C38.696 11.0909 38.9896 11.7442 38.9896 12.4955C38.9896 13.5409 38.3697 14.5862 37.1625 15.6316C35.4659 17.1343 33.5082 17.853 31.257 17.853C29.8866 17.853 28.5815 17.559 27.3417 16.9709C25.8082 16.2196 24.5684 15.1416 23.6548 13.7042C22.7412 12.2669 22.2844 10.6989 22.2844 8.96749C22.2844 6.41946 23.2306 4.23076 25.123 2.43407C26.787 0.89871 28.8099 0.114698 31.2243 0.0820312ZM45.5151 6.25612L48.6473 1.68272C49.2346 0.833376 50.0176 0.408703 50.9638 0.408703C51.7469 0.408703 52.3994 0.67004 52.9541 1.22538C53.5088 1.78072 53.8024 2.43407 53.8024 3.18541C53.8024 3.74075 53.6393 4.23076 53.3456 4.6881L50.5071 8.80416L53.9656 13.2142C54.3245 13.6389 54.4876 14.1616 54.4876 14.7496C54.4876 15.5336 54.2266 16.1869 53.6719 16.7423C53.1172 17.2976 52.4647 17.5916 51.6816 17.5916C50.8333 17.5916 50.1808 17.3303 49.724 16.7749L45.4825 11.4829V14.4229C45.4825 15.2723 45.3519 15.8929 45.0583 16.3829C44.5363 17.2323 43.7532 17.657 42.7418 17.657C41.8282 17.657 41.1104 17.3629 40.621 16.7423C40.1642 16.1869 39.9032 15.4029 39.9032 14.4882V3.54475C39.9032 2.66274 40.1316 1.91139 40.621 1.32338C41.1757 0.735374 41.8608 0.408703 42.7418 0.408703C43.5901 0.408703 44.2752 0.702707 44.8625 1.32338C45.1888 1.65005 45.3846 2.00939 45.4498 2.33606C45.5151 2.56473 45.5151 2.95674 45.5151 3.54475V6.25612Z" fill="#0F2105"/>
<path d="M57.9785 11.0582C58.5984 11.0582 59.251 11.3195 59.9688 11.8749C60.8497 12.5609 61.437 12.8876 61.7633 12.8876C62.2527 12.8876 62.4811 12.6262 62.4811 12.1362C62.4811 11.8749 62.3506 11.6462 62.0569 11.4502C61.8938 11.3522 61.0781 11.0255 59.5446 10.5028C57.065 9.62084 55.8251 8.02015 55.8251 5.63544C55.8251 3.83875 56.4777 2.43407 57.7828 1.42138C58.9573 0.539371 60.3603 0.0820312 62.0569 0.0820312C63.5252 0.0820312 64.7976 0.44137 65.8743 1.12738C66.951 1.81339 67.5057 2.72807 67.5057 3.83875C67.5057 4.4921 67.3099 5.04744 66.8858 5.50478C66.4616 5.96212 65.9396 6.15812 65.287 6.15812C64.6019 6.15812 63.8514 5.83145 63.0031 5.17811C62.4811 4.7861 62.0896 4.55743 61.8285 4.55743C61.3718 4.55743 61.1434 4.7861 61.1434 5.21077C61.1434 5.63544 61.698 6.02745 62.84 6.35412C64.4061 6.84413 65.5807 7.43214 66.429 8.15081C67.571 9.09816 68.1256 10.4048 68.1256 12.1035C68.1256 13.9656 67.5057 15.4029 66.2332 16.4483C65.0586 17.4283 63.5252 17.8856 61.6328 17.8856C59.7404 17.8856 58.1743 17.3956 56.9345 16.3829C55.9556 15.5663 55.4336 14.6516 55.4336 13.5736C55.4336 12.8549 55.662 12.2669 56.1514 11.7769C56.6734 11.3195 57.2607 11.0582 57.9785 11.0582ZM72.8892 5.73345H71.421C70.6053 5.73345 69.9201 5.50478 69.3981 5.0801C68.8434 4.5901 68.5498 3.96942 68.5498 3.15274C68.5498 2.66274 68.6803 2.2054 68.9413 1.78072C69.2023 1.32338 69.5612 1.02938 69.9854 0.833375C70.4095 0.637373 71.421 0.539371 73.0197 0.539371H78.6316C80.002 0.539371 80.9155 0.637373 81.307 0.800708C81.7638 0.996711 82.1227 1.29072 82.3837 1.74806C82.6448 2.2054 82.8079 2.66274 82.8079 3.15274C82.8079 3.93675 82.5143 4.5901 81.8943 5.14544C81.4702 5.53744 80.7524 5.76611 79.7409 5.76611H78.4685V14.1942C78.4685 15.1089 78.3053 15.8276 78.0117 16.3176C77.4897 17.1669 76.7066 17.5916 75.7278 17.5916C74.7163 17.5916 73.9659 17.1996 73.4112 16.4483C73.085 15.9583 72.8892 15.2396 72.8892 14.2596V5.73345ZM86.4295 15.2723C86.1685 15.8929 85.9075 16.3829 85.6138 16.6769C85.0592 17.2976 84.374 17.5916 83.5583 17.5916C82.5795 17.5916 81.7965 17.1996 81.2744 16.4156C80.9481 15.9583 80.785 15.4029 80.785 14.8149C80.785 14.3249 80.9155 13.8349 81.1439 13.3449L86.4295 2.07473C86.9516 0.964044 87.7999 0.44137 89.0071 0.44137C90.2143 0.44137 91.0952 0.996711 91.6173 2.14006L96.9682 13.4756C97.1965 13.9329 97.2944 14.3902 97.2944 14.8149C97.2944 15.4683 97.066 16.0563 96.6419 16.5789C96.0872 17.2649 95.3694 17.5916 94.4885 17.5916C93.7707 17.5916 93.1834 17.3629 92.694 16.9383C92.3351 16.6116 91.9762 16.0563 91.6173 15.3049H86.4295V15.2723ZM109.595 10.9275L110.9 13.0509C111.259 13.6389 111.455 14.2269 111.455 14.8476C111.455 15.6316 111.194 16.2849 110.639 16.8076C110.084 17.3303 109.432 17.5916 108.649 17.5916C107.637 17.5916 106.887 17.1669 106.365 16.3176L104.048 12.4955V14.7822C104.048 15.5663 103.787 16.2196 103.265 16.7749C102.743 17.3303 102.091 17.5916 101.308 17.5916C100.361 17.5916 99.611 17.2649 99.1215 16.5463C98.6648 15.9583 98.469 15.1416 98.469 14.1616V3.74075C98.469 1.58472 99.611 0.539371 101.927 0.539371H105.484C106.658 0.539371 107.735 0.866043 108.714 1.55205C109.725 2.23806 110.443 3.08741 110.9 4.16542C111.259 4.9821 111.422 5.79878 111.422 6.61546C111.422 8.15081 110.802 9.58817 109.595 10.9275ZM116.218 5.73345H114.75C113.934 5.73345 113.249 5.50478 112.727 5.0801C112.172 4.5901 111.879 3.96942 111.879 3.15274C111.879 2.66274 112.009 2.2054 112.27 1.78072C112.531 1.32338 112.89 1.02938 113.314 0.833375C113.739 0.637373 114.75 0.539371 116.349 0.539371H121.961C123.331 0.539371 124.245 0.637373 124.636 0.800708C125.093 0.996711 125.452 1.29072 125.713 1.74806C125.974 2.2054 126.137 2.66274 126.137 3.15274C126.137 3.93675 125.843 4.5901 125.223 5.14544C124.799 5.53744 124.081 5.76611 123.07 5.76611H121.798V14.1942C121.798 15.1089 121.634 15.8276 121.341 16.3176C120.819 17.1669 120.036 17.5916 119.057 17.5916C118.045 17.5916 117.295 17.1996 116.74 16.4483C116.414 15.9583 116.218 15.2396 116.218 14.2596V5.73345ZM132.728 12.2342H135.273C136.317 12.2342 137.1 12.4629 137.622 12.8876C138.209 13.4102 138.535 14.0636 138.535 14.8802C138.535 15.6969 138.242 16.3829 137.622 16.8729C137.165 17.2649 136.382 17.4609 135.305 17.4609H130.966C129.954 17.4609 129.237 17.3956 128.845 17.2323C128.095 16.9383 127.605 16.4156 127.377 15.7296C127.214 15.2723 127.148 14.5536 127.148 13.5409V4.32876C127.148 3.54475 127.181 3.05474 127.214 2.7934C127.312 2.27073 127.507 1.81339 127.866 1.42138C128.258 0.996711 128.78 0.735374 129.367 0.604705C129.661 0.539371 130.248 0.539371 131.129 0.539371H134.457C135.37 0.539371 135.893 0.539371 136.056 0.572038C136.643 0.637373 137.132 0.800708 137.524 1.09471C138.209 1.61739 138.535 2.27073 138.535 3.08741C138.535 3.96942 138.242 4.65543 137.654 5.14544C137.132 5.57011 136.415 5.76611 135.501 5.76611H132.76V6.90946H134.946C135.599 6.90946 136.121 7.0728 136.545 7.43214C137.002 7.79148 137.198 8.28148 137.198 8.93483C137.198 10.2742 136.382 10.9602 134.751 10.9602H132.76V12.2342H132.728ZM150.64 10.9275L151.945 13.0509C152.304 13.6389 152.5 14.2269 152.5 14.8476C152.5 15.6316 152.239 16.2849 151.684 16.8076C151.129 17.3303 150.477 17.5916 149.694 17.5916C148.682 17.5916 147.932 17.1669 147.41 16.3176L145.093 12.4955V14.7822C145.093 15.5663 144.832 16.2196 144.31 16.7749C143.788 17.3303 143.136 17.5916 142.353 17.5916C141.407 17.5916 140.656 17.2649 140.167 16.5463C139.71 15.9583 139.514 15.1416 139.514 14.1616V3.74075C139.514 1.58472 140.656 0.539371 142.973 0.539371H146.529C147.704 0.539371 148.78 0.866043 149.759 1.55205C150.771 2.23806 151.488 3.08741 151.945 4.16542C152.304 4.9821 152.467 5.79878 152.467 6.61546C152.467 8.15081 151.847 9.58817 150.64 10.9275Z" fill="#2BDE73"/>
</g>
<defs>
<clipPath id="clip0_523_1322">
<rect width="152.5" height="17.8363" fill="white" transform="translate(0 0.0820312)"/>
</clipPath>
</defs>
</svg>
