<svg width="141" height="40" viewBox="0 0 141 40" fill="none" xmlns="http://www.w3.org/2000/svg">
<path d="M88.7968 20.893C90.5396 20.8966 92.2468 20.8859 94.0397 20.902C93.4444 22.77 92.876 24.5504 92.2968 26.3648C92.1002 26.3523 91.9357 26.3702 91.7874 26.3273C90.9275 26.0788 90.0731 26.1127 89.2079 26.3165C88.6144 26.456 88.0084 26.5632 87.4007 26.6311C85.967 26.792 84.6424 26.4291 83.4358 25.6623C82.4437 25.0313 81.9575 24.0588 81.7502 22.9309C81.4409 21.2577 81.9915 19.808 82.9746 18.5031C84.2349 16.8335 85.9545 15.8718 87.9798 15.4374C89.1864 15.1782 90.3913 15.1889 91.5621 15.6072C93.0065 16.122 94.0325 17.0623 94.4276 18.596C94.5063 18.8981 94.5063 19.084 94.4348 19.3486C94.138 19.4451 91.1134 19.4755 90.5361 19.3861C90.5182 19.3682 90.4932 19.3504 90.4842 19.3289C90.1446 18.5692 89.3169 18.2635 88.4518 18.4101C87.3828 18.5889 86.5051 19.0876 85.8741 19.9778C85.4969 20.5087 85.361 21.1183 85.4236 21.76C85.4915 22.4661 85.8651 22.9881 86.4926 23.2991C87.2183 23.6584 87.9834 23.7228 88.7485 23.4242C89.1346 23.2741 89.4814 23.0614 89.5797 22.5716C89.1364 22.4232 88.6609 22.6163 88.1783 22.4232C88.3427 21.8977 88.5733 21.4275 88.7968 20.893Z" fill="#2A2B2C"/>
<path d="M127.019 26.2836C126.665 27.3937 126.311 28.502 125.95 29.6389C124.631 29.6496 123.36 29.655 122.012 29.655C122.074 29.4297 122.108 29.2778 122.157 29.1294C122.947 26.6697 123.737 24.2118 124.527 21.7539C124.813 20.8619 125.095 19.9663 125.387 19.0743C125.555 18.5595 125.667 18.4844 126.191 18.5702C127.096 18.7222 127.977 18.5649 128.865 18.4237C129.957 18.2503 131.062 18.1716 132.154 18.379C133.264 18.5881 134.146 19.1637 134.661 20.2112C135.038 20.9781 135.082 21.7861 134.882 22.5994C134.485 24.2208 133.549 25.4345 132.058 26.205C131.404 26.5428 130.687 26.6411 129.966 26.684C129.008 26.743 128.063 26.6697 127.165 26.2872C127.142 26.2747 127.112 26.2836 127.019 26.2836ZM127.769 23.9902C127.864 24.0331 127.925 24.0813 127.986 24.0849C128.554 24.1153 129.126 24.1814 129.691 24.151C130.29 24.1189 130.844 23.899 131.193 23.3699C131.55 22.8229 131.736 22.2151 131.674 21.5537C131.636 21.1586 131.47 20.8226 131.125 20.5991C130.465 20.1701 129.425 20.1219 128.824 21.0174C128.719 21.1729 128.626 21.3446 128.565 21.5215C128.315 22.2383 128.075 22.9605 127.836 23.6827C127.807 23.7685 127.796 23.8632 127.769 23.9902Z" fill="#2A2B2C"/>
<path d="M37.3129 25.8054C36.7444 25.9305 33.6251 25.8966 33.2891 25.7518C34.0738 23.1062 34.905 20.4695 35.7631 17.7917C36.2546 17.7828 36.7534 17.7202 37.2467 17.8471C37.8402 18.0009 38.414 17.9883 39.0129 17.8203C40.0514 17.5272 41.1168 17.3841 42.2001 17.4574C42.7185 17.4932 43.2208 17.6076 43.6963 17.8293C45.0495 18.4567 45.5536 19.7795 45.23 21.1255C44.9833 22.1552 44.6384 23.1598 44.3345 24.1751C44.2147 24.5791 44.0931 24.9831 43.9626 25.3835C43.9144 25.5337 43.8393 25.6767 43.7875 25.7982C43.2762 25.9234 40.0711 25.9001 39.7368 25.7643C39.7726 25.632 39.8048 25.4908 39.8477 25.3513C40.2356 24.0911 40.6253 22.8327 41.0149 21.5724C41.0882 21.3365 41.1669 21.0987 40.9363 20.7966C40.8505 20.768 40.6896 20.6697 40.5269 20.6679C40.148 20.6643 39.7672 20.709 39.3865 20.7305C39.0236 20.7501 38.8216 20.9539 38.7251 21.29C38.65 21.551 38.566 21.8102 38.4873 22.0694C38.1441 23.1866 37.8027 24.3038 37.4577 25.4211C37.4166 25.5498 37.3629 25.6731 37.3129 25.8054Z" fill="#2A2B2C"/>
<path d="M113.9 18.5527H117.851C117.813 18.7404 117.797 18.8959 117.752 19.0425C117.418 20.1347 117.077 21.2251 116.739 22.3156C116.671 22.5372 116.592 22.7553 116.548 22.9823C116.469 23.3684 116.655 23.6509 117.048 23.658C117.495 23.667 117.944 23.6151 118.389 23.5597C118.666 23.524 118.779 23.2916 118.854 23.0449C119.093 22.2655 119.334 21.4861 119.574 20.7068C119.749 20.1347 119.921 19.5609 120.098 18.9907C120.142 18.8495 120.203 18.7136 120.266 18.5545H124.095C124.256 18.7154 124.145 18.8727 124.1 19.0193C123.818 19.9578 123.533 20.8927 123.242 21.8276C122.81 23.2165 122.372 24.6054 121.935 25.9926C121.891 26.1338 121.837 26.2732 121.775 26.4484C121.396 26.5485 120.992 26.5718 120.618 26.4735C119.787 26.2589 118.995 26.3072 118.173 26.5485C117.592 26.7184 116.97 26.7666 116.36 26.8238C115.593 26.8953 114.835 26.8077 114.117 26.5092C112.719 25.9282 112.147 24.7306 112.443 23.2612C112.619 22.3978 112.926 21.5612 113.178 20.7157C113.348 20.1419 113.523 19.5699 113.704 18.9996C113.754 18.8495 113.832 18.7083 113.9 18.5527Z" fill="#2A2B2C"/>
<path d="M8.67639 14.6934C8.89089 14.6755 9.0768 14.6469 9.2645 14.6469C10.2977 14.638 11.3327 14.6309 12.3659 14.638C12.5804 14.6398 12.8432 14.5772 12.9934 14.8793C12.9397 15.0509 12.8825 15.2458 12.8182 15.4353C12.189 17.2872 11.5579 19.1391 10.9269 20.991C10.8965 21.0804 10.8715 21.1734 10.8411 21.2627C10.7124 21.6292 10.8233 21.9241 11.1343 22.203H11.6402C12.8379 22.203 14.0355 22.2012 15.2332 22.2084C15.428 22.2102 15.6247 22.2566 15.7963 22.2799C15.9572 22.8966 15.0401 25.4617 14.5271 25.9015C14.4628 25.9086 14.3823 25.9229 14.3019 25.9229C12.3159 25.9247 10.3281 25.9247 8.34211 25.9229C7.82908 25.9229 7.34107 25.8103 6.90848 25.5243C6.02184 24.9398 5.77516 24.0585 5.85918 23.0718C5.8985 22.6195 6.03972 22.1673 6.18809 21.7329C6.93172 19.561 7.69144 17.3944 8.44937 15.2279C8.51014 15.0545 8.59416 14.8865 8.67639 14.6934Z" fill="#2A2B2C"/>
<path d="M26.4698 26.0319C25.7547 26.0498 24.9217 25.8889 24.1584 25.4474C22.6444 24.5697 22.1099 23.002 22.7713 21.3825C23.2021 20.3278 23.9475 19.5341 24.8645 18.8852C25.9639 18.1094 27.1812 17.6179 28.5165 17.4766C29.5658 17.3658 30.6134 17.4248 31.5912 17.8931C32.308 18.2364 32.9015 18.719 33.2572 19.4501C33.7166 20.3922 33.604 21.3289 33.1839 22.2423C32.6959 23.3005 31.879 24.0728 30.928 24.7109C29.7607 25.4921 28.1823 26.0588 26.4698 26.0319ZM27.5691 23.1933C27.8605 23.1289 28.1608 23.095 28.4397 22.9949C28.9456 22.8125 29.4014 22.539 29.682 22.0546C30.0771 21.3735 29.8304 20.7336 29.1047 20.4369C28.1322 20.04 26.8487 20.7086 26.4876 21.2895C26.2982 21.597 26.1748 21.9223 26.2821 22.2941C26.4394 22.8411 26.897 23.154 27.5691 23.1933Z" fill="#2A2B2C"/>
<path d="M105.073 26.6986C104.238 26.7147 103.443 26.5663 102.708 26.1641C101.06 25.2596 100.526 23.5739 101.341 21.8793C101.913 20.6906 102.85 19.8594 103.972 19.2248C105.218 18.5205 106.557 18.1558 107.996 18.2202C108.779 18.2559 109.528 18.4329 110.218 18.8262C111.677 19.6574 112.202 21.0839 111.623 22.6587C111.355 23.3898 110.901 24.0012 110.339 24.5267C108.861 25.9174 107.102 26.6396 105.073 26.6986ZM106.006 23.8492C106.802 23.7992 107.501 23.5346 107.978 22.8661C108.496 22.1403 108.194 21.3538 107.327 21.1303C106.484 20.9122 105.769 21.209 105.143 21.7417C104.696 22.1224 104.553 22.6837 104.744 23.1396C104.971 23.6794 105.427 23.8385 105.967 23.8474C105.98 23.8492 105.994 23.8492 106.006 23.8492Z" fill="#2A2B2C"/>
<path d="M93.3984 26.5239C94.244 23.8086 95.0609 21.1916 95.8796 18.5639C96.305 18.5639 96.7144 18.5245 97.1112 18.5728C97.7279 18.6461 98.3303 18.5674 98.9381 18.5013C99.5173 18.4387 100.102 18.3797 100.683 18.3851C101.026 18.3887 101.382 18.4888 101.707 18.6086C102.111 18.7569 102.274 18.975 102.41 19.404C101.791 20.0475 101.155 20.7125 100.517 21.3757C100.391 21.3686 100.284 21.365 100.177 21.3578C99.4744 21.3114 98.8559 21.7332 98.6575 22.3982C98.2982 23.6084 97.9407 24.8204 97.5814 26.0323C97.4312 26.54 97.3508 26.6008 96.8413 26.6008C95.8617 26.6008 94.8821 26.6026 93.9025 26.5954C93.7542 26.5954 93.6022 26.5543 93.3984 26.5239Z" fill="#2A2B2C"/>
<path d="M18.7655 17.8096H22.8054C22.7858 17.9562 22.7858 18.0741 22.7536 18.1832C22.0028 20.625 21.2467 23.0668 20.4905 25.5068C20.4583 25.6087 20.4101 25.7053 20.3761 25.7929C20.0007 25.9126 16.6794 25.9108 16.2969 25.7786C17.112 23.1151 17.9325 20.4534 18.7655 17.8096Z" fill="#2A2B2C"/>
<path d="M21.8883 13.699C22.3495 13.6812 22.7767 13.7991 23.17 14.0297C23.7563 14.373 23.9136 14.8627 23.6419 15.4812C23.3541 16.1355 22.7982 16.4984 22.1707 16.7522C21.5433 17.006 20.8801 17.0722 20.2133 16.9274C20.0042 16.8827 19.7915 16.8058 19.6109 16.6932C18.9138 16.2642 18.8154 15.3615 19.3875 14.7734C20.1311 14.0119 20.8443 13.7044 21.8883 13.699Z" fill="#2A2B2C"/>
<path d="M61.3182 34.8125C63.2665 33.9443 64.1265 32.2685 64.7868 30.4366C64.8438 30.2779 64.8218 30.1798 64.6506 30.1192C64.5234 30.074 64.4054 30.0031 64.2549 29.9296C64.0474 30.3282 63.858 30.7139 63.6492 31.088C63.0032 32.2401 62.234 33.2928 61.1223 34.0488C60.4672 34.4938 59.7564 34.7531 58.9431 34.5725C58.3879 34.4487 58.0014 34.1158 57.6978 33.5959C60.3764 33.2141 62.1483 31.5783 63.6647 29.5296C63.4792 29.3593 63.3067 29.2032 63.0797 28.9968C62.9007 29.1981 62.7373 29.3929 62.5621 29.5761C61.5374 30.6404 60.4166 31.5821 59.043 32.1794C57.965 32.649 56.8612 32.8413 55.6976 32.502C54.8635 32.2594 54.3654 31.7331 54.215 30.8829C54.1994 30.7991 54.2007 30.7113 54.1929 30.6223C57.3606 31.2287 60.0898 30.2095 62.6763 28.5092C62.5258 28.255 62.3974 28.0383 62.256 27.7996C61.789 27.9932 61.3389 28.1905 60.8823 28.3673C59.7318 28.8111 58.5734 29.2497 57.3411 29.4045C55.9337 29.5812 54.5237 29.6638 53.1682 29.0936C52.4911 28.8085 51.9022 28.4073 51.4948 27.7816C51.059 27.1107 51.0045 26.3948 51.2562 25.6323C54.6236 27.6023 58.2024 27.788 61.9317 26.9908C61.8941 26.7882 61.8746 26.5921 61.8163 26.4077C61.7955 26.3431 61.6814 26.2722 61.6074 26.2683C61.4219 26.258 61.2339 26.2903 61.0458 26.2954C58.6188 26.3702 56.2307 26.1574 53.9387 25.2892C52.8076 24.8609 51.7958 24.239 50.9526 23.3682C50.02 22.4045 49.7644 21.1403 50.2859 20.0618C50.4065 19.8141 50.5972 19.5999 50.7646 19.3548C50.8411 19.4219 50.8761 19.4425 50.8969 19.4735C51.8126 20.7932 53.0436 21.7634 54.3875 22.6135C56.581 24.0017 58.9703 24.8892 61.4985 25.4414C61.5555 25.4543 61.6152 25.4594 61.6749 25.4633C61.6917 25.4646 61.7099 25.4478 61.7488 25.4298C61.7683 25.2492 61.8059 25.0557 61.7981 24.8647C61.7955 24.8015 61.6905 24.7125 61.6139 24.6841C59.9484 24.0791 58.3464 23.3321 56.8391 22.411C54.6352 21.0642 52.7077 19.4064 51.4014 17.1385C50.736 15.9826 50.4299 14.7544 50.8748 13.4359C51.1848 12.5187 51.7711 11.9059 52.7855 11.7808C53.9374 17.2868 57.3346 21.1003 61.9914 24.03C62.0861 23.8159 62.1899 23.6533 62.2236 23.4766C62.2404 23.3902 62.147 23.2534 62.0666 23.1838C61.3208 22.5413 60.5334 21.9427 59.82 21.2654C57.0285 18.6182 55.1801 15.4201 54.3421 11.675C53.9828 10.0727 54.0022 8.45239 54.5483 6.87721C54.835 6.05027 55.3059 5.36266 56.1879 5.0582C56.843 4.83244 57.4877 4.92016 58.1285 5.12141C56.3397 12.6993 59.4697 19.8154 62.9007 22.4807C63.0953 22.2717 63.2743 22.033 63.4987 21.8472C64.9489 20.6449 66.5976 20.3043 68.3786 20.9081C70.2101 21.5286 71.3257 22.847 71.698 24.7306C72.2583 27.5752 70.1012 30.3463 67.1995 30.5617C67.0477 30.5733 66.9037 30.5798 66.966 30.7887C67.0204 30.9694 66.8635 31.2661 67.2786 31.2441C69.6005 31.1255 71.6552 29.4858 72.318 27.1998C73.3064 23.7927 71.1117 20.3907 67.5834 19.9044C65.8582 19.667 64.3185 20.1405 62.9837 21.259C62.924 21.3093 62.8631 21.3609 62.7684 21.4409C60.737 19.1239 59.5333 16.4483 59.1221 13.3818C59.4464 13.2992 59.7759 13.2153 60.1378 13.1225C59.9769 12.9148 59.8329 12.747 59.7097 12.5651C59.423 12.1446 59.292 11.6814 59.3543 11.1693C59.3789 10.9616 59.4607 10.8751 59.6967 10.8764C60.0496 10.879 60.4024 10.8235 60.7552 10.7861C61.204 10.7397 61.6515 10.6868 62.0679 10.6404C62.0498 10.3024 61.9979 9.95532 62.0199 9.61216C62.0498 9.15419 62.1081 9.16838 62.5712 9.18128C63.0901 9.19547 63.6115 9.13742 64.1304 9.09485C64.7141 9.04711 65.2991 8.84973 65.7895 9.13355C65.9412 8.80587 66.0606 8.49625 66.2253 8.21501C66.3278 8.03956 66.4886 8.03569 66.7078 8.126C67.3253 8.38272 67.9609 8.60075 68.5978 8.80587C69.0284 8.9452 69.4306 9.11291 69.7406 9.50767C69.8015 9.40188 69.8482 9.3219 69.8923 9.24191C70.0454 8.96068 70.2841 8.79168 70.6019 8.78523C70.716 8.78265 70.8976 8.85618 70.9378 8.94391C71.2894 9.71795 71.9548 10.154 72.6514 10.5565C73.0522 10.7887 73.4699 10.9913 73.8707 11.2235C74.2871 11.4634 74.3506 11.6053 74.1976 12.0414C74.1262 12.2439 74.2041 12.3175 74.3519 12.4129C74.9862 12.8219 75.6906 12.9135 76.4235 12.8928C76.8931 12.8786 77.0837 13.1779 76.8879 13.5972C76.849 13.6798 76.8152 13.792 76.8399 13.8707C77.0409 14.499 76.5325 15.531 75.915 15.9103C75.8917 15.8445 75.8657 15.7852 75.8489 15.7233C75.6984 15.1556 75.3105 14.9118 74.7255 15.0176C73.981 15.1517 73.4504 15.7155 73.3246 16.5037C73.3103 16.5915 73.2961 16.6792 73.2909 16.7669C73.2675 17.1707 73.2896 17.5513 73.7021 17.7912C74.1081 18.0273 74.5154 18.1396 74.9616 17.9151C75.0732 17.8583 75.1899 17.8119 75.3041 17.7616C75.3365 17.777 75.3689 17.7938 75.4013 17.8093C75.2885 18.2183 75.212 18.6427 75.0511 19.0323C74.9058 19.3845 74.3027 19.5767 73.885 19.4709C73.7124 19.4271 73.5412 19.3819 73.37 19.3368C73.1689 19.2826 73.0742 19.3858 73.0327 19.5651C72.8122 20.5262 73.3739 21.6898 74.0134 22.0214C74.1794 22.1065 74.3312 22.2214 74.4791 22.3349C74.793 22.5748 74.8034 22.82 74.5219 23.0973C74.4804 23.1386 74.4337 23.176 74.3844 23.2096C73.9382 23.5114 73.8422 23.8675 74.112 24.3384C74.2222 24.5319 74.361 24.7228 74.5271 24.8699C74.7489 25.0686 74.7956 25.3072 74.7359 25.5614C74.6762 25.8155 74.4427 25.8297 74.2183 25.8684C74.1236 25.8852 74.0225 26.0297 73.9797 26.138C73.7267 26.7753 73.5451 27.4475 73.239 28.0577C72.3271 29.8715 70.7705 30.8674 68.8326 31.3241C68.3358 31.4415 67.8234 31.5022 67.3162 31.5692C67.1216 31.595 67.0568 31.6363 67.0762 31.8582C67.1255 32.4142 67.1865 32.978 67.1385 33.5302C67.0477 34.5738 65.901 35.215 64.9904 34.7996C65.2213 34.4164 65.5365 34.0578 65.6636 33.6411C65.8582 32.9999 65.9334 32.3214 66.0385 31.6557C66.0813 31.3861 66.0554 31.1061 66.0839 30.8326C66.1073 30.6094 66.0476 30.4972 65.805 30.4972C65.6805 30.4972 65.556 30.4585 65.4211 30.434C65.3043 31.0622 65.2057 31.6699 65.0747 32.271C64.9113 33.0154 64.6493 33.7288 64.1875 34.3429C63.679 35.0176 63.0343 35.4395 62.1289 35.2834C61.8124 35.2266 61.5309 35.1118 61.3182 34.8125ZM69.3735 11.3047C69.3722 10.8519 68.7314 10.4378 68.2955 10.5281C67.7806 10.6352 67.4083 11.1461 67.5186 11.6079C67.6106 11.9885 67.9388 12.2594 68.2398 12.1755C68.1477 11.8414 67.992 11.4725 68.3643 11.2144C68.708 10.9758 69.0362 11.2738 69.3735 11.3047ZM72.724 12.4684C72.9757 12.778 73.1845 13.036 73.4258 13.334C73.6268 12.9496 73.8032 12.6155 73.99 12.2594C73.5555 12.3316 73.1845 12.3923 72.724 12.4684Z" fill="#E63131"/>
</svg>
