<svg width="117" height="42" viewBox="0 0 117 42" fill="none" xmlns="http://www.w3.org/2000/svg">
<g clip-path="url(#clip0_523_1169)">
<path d="M22.355 41.9998C10.4151 41.9931 0.743044 32.5866 0.750004 20.9886C0.752892 16.8652 2.00536 12.834 4.35121 9.39751C6.69705 5.96104 10.0325 3.27143 13.9415 1.66409C24.9314 -2.85208 37.6055 2.1396 42.2594 12.8193C43.3881 15.4111 43.9684 18.197 43.9658 21.0111C43.9658 21.4618 43.9519 21.9227 43.9217 22.3734L40.603 22.1672C40.6296 21.7818 40.6412 21.3965 40.6412 21.0111C40.638 16.6912 39.013 12.5208 36.071 9.28135C33.1289 6.04191 29.0717 3.95582 24.6596 3.41403C20.2475 2.87224 15.7835 3.91194 12.1041 6.33828C8.42465 8.76463 5.78241 12.4111 4.67253 16.5942C3.56264 20.7774 4.06129 25.2102 6.07502 29.0618C8.08876 32.9134 11.4794 35.9195 15.6114 37.5167C19.7434 39.1139 24.3333 39.1926 28.5208 37.738C32.7083 36.2835 36.206 33.3955 38.3584 29.6153L41.2676 31.1815C39.3981 34.4613 36.6584 37.1948 33.3333 39.0981C30.0082 41.0013 26.2191 42.0048 22.3596 42.0043L22.355 41.9998Z" fill="#443C91"/>
<path d="M32.8304 15.4922C33.7468 16.4432 34.205 17.7326 34.205 19.3604V27.9443H30.7401V20.3385C30.7401 19.3619 30.4625 18.5954 29.9072 18.0387C29.352 17.4821 28.598 17.2038 27.6452 17.2038C26.551 17.2391 25.6821 17.6244 25.0387 18.3599C24.3953 19.0953 24.0736 20.0286 24.0736 21.1599V27.9443H20.6087V20.3385C20.6087 19.3619 20.3349 18.5954 19.7874 18.0387C19.2399 17.4821 18.4905 17.2038 17.5393 17.2038C16.4288 17.2391 15.5515 17.6244 14.9073 18.3599C14.2631 19.0953 13.9414 20.0286 13.9421 21.1599V27.9443H10.5039V14.1975H13.9421V16.744C14.8763 14.9968 16.5344 14.1058 18.9162 14.0713C20.1536 14.0713 21.1894 14.3582 22.0239 14.9322C22.8583 15.5061 23.4445 16.3155 23.7824 17.3604C24.6826 15.2022 26.4373 14.1058 29.0465 14.0713C30.6519 14.0705 31.9133 14.5442 32.8304 15.4922Z" fill="#333333"/>
<path d="M41.4748 27.9442C42.3928 27.9442 43.1371 27.2213 43.1371 26.3295C43.1371 25.4378 42.3928 24.7148 41.4748 24.7148C40.5567 24.7148 39.8125 25.4378 39.8125 26.3295C39.8125 27.2213 40.5567 27.9442 41.4748 27.9442Z" fill="#333333"/>
<path d="M67.5498 12.7492C68.1268 13.3464 68.4148 14.1554 68.414 15.1763V20.5657H66.239V15.7904C66.239 15.1774 66.0647 14.6959 65.7159 14.3458C65.3671 13.9958 64.8938 13.8211 64.296 13.8219C63.6093 13.8444 63.0641 14.0863 62.6605 14.5475C62.2568 15.0088 62.0545 15.5951 62.0538 16.3064V20.5657H59.8788V15.7904C59.8788 15.1774 59.7071 14.6959 59.3637 14.3458C59.0204 13.9958 58.5498 13.8211 57.952 13.8219C57.256 13.8444 56.705 14.0863 56.299 14.5475C55.893 15.0088 55.6908 15.5951 55.6923 16.3064V20.5657H53.5312V11.9356H55.69V13.5323C56.2762 12.4348 57.3167 11.8755 58.8116 11.8545C59.5849 11.8545 60.2353 12.0348 60.7627 12.3954C61.2968 12.768 61.6859 13.3047 61.867 13.9188C62.4308 12.5666 63.5328 11.8785 65.173 11.8545C66.1822 11.8545 66.9745 12.1527 67.5498 12.7492Z" fill="#333333"/>
<path d="M77.7224 13.0506C78.437 13.8356 78.7943 14.938 78.7943 16.3577C78.7943 16.6372 78.7943 16.8467 78.778 16.9865H72.2182C72.3258 17.5576 72.6426 18.0715 73.11 18.4334C73.5774 18.7952 74.1638 18.9805 74.7609 18.955C75.2076 18.9558 75.65 18.8704 76.0625 18.7037C76.4725 18.5405 76.8431 18.296 77.1505 17.9859L78.3105 19.1634C77.8599 19.6417 77.3051 20.0163 76.6865 20.2598C76.0147 20.5239 75.2954 20.6549 74.5707 20.6452C73.7362 20.6623 72.9108 20.4735 72.1718 20.0964C71.4943 19.7456 70.9374 19.2097 70.5699 18.555C70.1825 17.8543 69.9879 17.0683 70.0049 16.2732C69.9922 15.4746 70.192 14.6863 70.5849 13.9847C70.9562 13.3283 71.5123 12.7881 72.1881 12.4275C72.9057 12.0486 73.7122 11.8568 74.5289 11.8708C75.9457 11.8701 77.0102 12.2633 77.7224 13.0506ZM76.8188 15.5825C76.7956 14.9477 76.5794 14.4425 76.1703 14.067C75.7612 13.6914 75.2199 13.5036 74.5463 13.5036C73.9638 13.4866 73.3964 13.6856 72.9595 14.0602C72.5326 14.4313 72.2696 14.9395 72.1707 15.5847L76.8188 15.5825Z" fill="#333333"/>
<path d="M84.0314 12.3143C84.5801 12.0103 85.2013 11.8517 85.8329 11.8545V13.8828C84.9142 13.8302 84.1795 14.0375 83.6289 14.5047C83.0783 14.972 82.8045 15.6037 82.8076 16.4V20.5624H80.6523V11.9357H82.8111V13.5965C83.0836 13.0648 83.507 12.6198 84.0314 12.3143Z" fill="#333333"/>
<path d="M91.2725 13.693C90.8604 13.5611 90.4302 13.4904 89.9965 13.4835C89.6939 13.4691 89.3928 13.5333 89.1242 13.6694C89.0206 13.726 88.9353 13.8096 88.8779 13.9107C88.8206 14.0118 88.7933 14.1265 88.7994 14.2418C88.7983 14.3725 88.8363 14.5008 88.9088 14.611C88.9813 14.7212 89.0851 14.8086 89.2077 14.8627C89.6205 15.0601 90.0536 15.2146 90.4999 15.3235C91.0208 15.4709 91.5312 15.6516 92.0276 15.8644C92.4317 16.0455 92.7868 16.3155 93.0647 16.6531C93.3593 17.0032 93.5062 17.4629 93.5055 18.0323C93.5055 18.8721 93.1733 19.5174 92.509 19.9681C91.8447 20.4189 91.0092 20.6442 90.0023 20.6442C89.3191 20.6445 88.6403 20.538 87.992 20.3287C87.3824 20.1419 86.8178 19.8376 86.332 19.434L87.0791 17.9692C87.5001 18.3151 87.9846 18.5808 88.507 18.7523C89.0128 18.9317 89.5462 19.027 90.0846 19.034C90.4159 19.0489 90.7454 18.9793 91.0405 18.8323C91.1523 18.7741 91.245 18.6865 91.308 18.5795C91.3709 18.4725 91.4016 18.3504 91.3966 18.2272C91.4014 18.0877 91.3648 17.9498 91.2912 17.83C91.2175 17.7101 91.11 17.6133 90.9813 17.5512C90.551 17.3414 90.1002 17.1738 89.6357 17.0509C89.1376 16.9137 88.6497 16.7439 88.1753 16.5427C87.7908 16.3702 87.4547 16.1105 87.1951 15.7855C86.9174 15.446 86.779 15.002 86.7798 14.4536C86.7798 13.604 87.098 12.9565 87.7345 12.511C88.3709 12.0656 89.1709 11.8402 90.1345 11.835C90.7235 11.8343 91.3094 11.9159 91.8745 12.0772C92.4145 12.2245 92.9276 12.4526 93.3953 12.7533L92.6146 14.27C92.1917 14.0279 91.7413 13.8343 91.2725 13.693Z" fill="#333333"/>
<path d="M95.3477 11.9355H97.5053V20.5656H95.3477V11.9355Z" fill="#333333"/>
<path d="M98.8164 11.9513L101.075 11.9355L103.395 18.5002L105.673 11.9355H107.853L104.462 20.5656H102.24L98.8164 11.9513Z" fill="#333333"/>
<path d="M115.681 13.0506C116.394 13.8356 116.751 14.938 116.751 16.3577C116.751 16.6372 116.751 16.8468 116.735 16.9865H110.175C110.283 17.5574 110.6 18.0712 111.067 18.433C111.534 18.7948 112.12 18.9803 112.717 18.955C113.164 18.956 113.607 18.8706 114.02 18.7037C114.43 18.5405 114.8 18.296 115.108 17.9859L116.268 19.1634C115.817 19.6417 115.262 20.0163 114.644 20.2598C113.972 20.5239 113.253 20.655 112.528 20.6452C111.697 20.6608 110.876 20.4724 110.139 20.0976C109.462 19.7461 108.906 19.2104 108.538 18.5561C108.15 17.8554 107.956 17.0694 107.974 16.2744C107.958 15.4759 108.156 14.6871 108.547 13.9847C108.914 13.3291 109.467 12.7889 110.139 12.4275C110.857 12.0484 111.664 11.8566 112.48 11.8709C113.899 11.8701 114.966 12.2634 115.681 13.0506ZM114.779 15.5825C114.756 14.9477 114.54 14.4426 114.131 14.067C113.722 13.6914 113.181 13.5036 112.507 13.5036C111.925 13.487 111.357 13.6859 110.92 14.0602C110.493 14.4313 110.23 14.9395 110.131 15.5848L114.779 15.5825Z" fill="#333333"/>
<path d="M56.096 27.4516C55.8236 27.638 55.501 27.7429 55.168 27.7536C55.0285 27.7603 54.8891 27.7382 54.7589 27.6889C54.6288 27.6396 54.5108 27.5641 54.4129 27.4673C54.2273 27.2758 54.1345 26.9907 54.1345 26.6099V24.1997H53.5394L53.5312 23.7974H54.1356V22.7607H54.6692V23.8041L56.0206 23.7963V24.2053H54.6727V26.5242C54.6727 27.0245 54.8637 27.2747 55.2457 27.2747C55.4936 27.265 55.7341 27.1902 55.9417 27.0583L56.096 27.4516Z" fill="#333333"/>
<path d="M60.0978 24.2651C60.4366 24.6655 60.5912 25.2026 60.5618 25.8764H57.0818C57.1027 26.2736 57.2791 26.6481 57.5748 26.9232C57.868 27.1892 58.2573 27.3321 58.6583 27.321C58.9113 27.3232 59.1621 27.276 59.396 27.1824C59.619 27.0929 59.8199 26.9585 59.9853 26.788L60.2869 27.081C60.085 27.2931 59.8386 27.4606 59.5642 27.5722C59.268 27.6898 58.9505 27.7488 58.6304 27.7458C58.2554 27.7529 57.885 27.6643 57.5563 27.4889C57.2468 27.3192 56.9921 27.0691 56.8208 26.7666C56.646 26.4404 56.5547 26.078 56.5547 25.7102C56.5547 25.3424 56.646 24.9801 56.8208 24.6538C56.9909 24.3493 57.2458 24.0975 57.5563 23.9271C57.8798 23.7533 58.2445 23.6647 58.6142 23.6702C59.2646 23.6649 59.7591 23.8632 60.0978 24.2651ZM60.0897 25.4742C60.0828 25.0969 59.9275 24.7365 59.6559 24.4668C59.5189 24.3403 59.3571 24.2419 59.1801 24.1774C59.0032 24.113 58.8146 24.0838 58.6258 24.0916C58.2385 24.0801 57.8618 24.2159 57.576 24.4702C57.29 24.7336 57.1168 25.0921 57.0911 25.4742H60.0897Z" fill="#333333"/>
<path d="M63.3324 24.1226C63.051 24.1186 62.7735 24.1874 62.5285 24.3221C62.2919 24.455 62.0988 24.6503 61.9717 24.8854C61.8413 25.1417 61.7734 25.4238 61.7734 25.7097C61.7734 25.9956 61.8413 26.2777 61.9717 26.5339C62.0983 26.7694 62.2915 26.9649 62.5285 27.0973C62.773 27.2322 63.0501 27.3015 63.3313 27.2979C63.5866 27.2998 63.8396 27.2511 64.0748 27.1548C64.2944 27.0668 64.4892 26.9293 64.6432 26.7537L64.946 27.0624C64.7582 27.2814 64.5197 27.454 64.25 27.5661C63.953 27.687 63.6335 27.7472 63.3115 27.743C62.9395 27.7497 62.5722 27.6611 62.2467 27.4861C61.9362 27.3159 61.6817 27.064 61.5124 26.7593C61.3374 26.4337 61.2461 26.0719 61.2461 25.7046C61.2461 25.3374 61.3374 24.9755 61.5124 24.6499C61.6818 24.3456 61.9363 24.094 62.2467 23.9243C62.5721 23.7489 62.9395 23.6603 63.3115 23.6674C63.6147 23.6637 63.9159 23.716 64.1989 23.8218C64.456 23.9192 64.6901 24.0664 64.8868 24.2544L64.5841 24.6026C64.4192 24.4453 64.2234 24.3217 64.0084 24.2393C63.7934 24.1568 63.5635 24.1171 63.3324 24.1226Z" fill="#333333"/>
<path d="M69.5398 24.0879C69.8228 24.3688 69.9647 24.7542 69.9655 25.244V27.7308H69.4238V25.3645C69.4335 25.2008 69.4098 25.0368 69.3538 24.8821C69.2979 24.7273 69.2108 24.5849 69.0978 24.4631C68.8797 24.2445 68.5781 24.1374 68.1907 24.142C67.7267 24.1472 67.3648 24.2956 67.1049 24.587C66.8451 24.8785 66.714 25.2639 66.7117 25.7431V27.7285H66.1758V21.9932H66.7082V24.6355C66.9897 23.9962 67.5407 23.6717 68.3612 23.6619C68.8631 23.6619 69.256 23.8039 69.5398 24.0879Z" fill="#333333"/>
<path d="M74.7391 24.0874C75.0222 24.368 75.1648 24.7534 75.1637 25.2435V27.7303H74.6231V25.3641C74.6329 25.2003 74.6091 25.0364 74.5531 24.8816C74.4972 24.7269 74.4102 24.5845 74.2972 24.4626C74.0799 24.244 73.7775 24.137 73.39 24.1415C73.2007 24.1355 73.0121 24.1665 72.8353 24.2327C72.6586 24.2989 72.4973 24.399 72.3611 24.5269C72.0928 24.8044 71.9359 25.1662 71.9192 25.5466V27.7258H71.3867V23.684H71.9192V24.626C72.047 24.3297 72.2684 24.0803 72.5514 23.9139C72.8617 23.7471 73.2117 23.6624 73.5664 23.6683C74.0617 23.6615 74.4549 23.8068 74.7391 24.0874Z" fill="#333333"/>
<path d="M79.3401 23.926C79.6542 24.0937 79.9131 24.344 80.0871 24.6483C80.2712 24.9691 80.3648 25.3313 80.3586 25.6985C80.3644 26.0695 80.2709 26.4357 80.0871 26.7611C79.9136 27.0666 79.6546 27.3181 79.3401 27.4867C79.0066 27.6566 78.6356 27.7453 78.259 27.7453C77.8824 27.7453 77.5114 27.6566 77.1778 27.4867C76.8638 27.3175 76.605 27.0661 76.4308 26.7611C76.2466 26.4359 76.1535 26.0695 76.1605 25.6985C76.154 25.3314 76.2472 24.9692 76.4308 24.6483C76.6061 24.3442 76.8657 24.0939 77.1802 23.926C77.5132 23.7559 77.8838 23.667 78.2601 23.667C78.6364 23.667 79.0071 23.7559 79.3401 23.926ZM77.4481 24.3159C77.211 24.4483 77.0178 24.6438 76.8913 24.8793C76.7603 25.1376 76.6921 25.4218 76.6921 25.7098C76.6921 25.9977 76.7603 26.2819 76.8913 26.5402C77.0179 26.7757 77.2111 26.9711 77.4481 27.1036C77.6973 27.2353 77.9765 27.3042 78.2601 27.3042C78.5438 27.3042 78.8229 27.2353 79.0721 27.1036C79.3086 26.9708 79.5013 26.7754 79.6278 26.5402C79.7589 26.2817 79.827 25.9974 79.827 25.7092C79.827 25.421 79.7589 25.1367 79.6278 24.8782C79.5014 24.6429 79.3087 24.4475 79.0721 24.3148C78.823 24.1828 78.5437 24.1137 78.26 24.1139C77.9762 24.1141 77.6971 24.1836 77.4481 24.3159Z" fill="#333333"/>
<path d="M81.5273 21.998H82.0598V27.73H81.5273V21.998Z" fill="#333333"/>
<path d="M86.4104 23.9256C86.7243 24.0938 86.9835 24.344 87.1586 24.6479C87.3417 24.969 87.4349 25.3311 87.4289 25.6981C87.436 26.0691 87.3428 26.4355 87.1586 26.7606C86.9846 27.0662 86.7252 27.3177 86.4104 27.4863C86.0769 27.6562 85.7059 27.7449 85.3293 27.7449C84.9527 27.7449 84.5817 27.6562 84.2482 27.4863C83.9342 27.3171 83.6753 27.0656 83.5011 26.7606C83.317 26.4355 83.2238 26.0691 83.2309 25.6981C83.2237 25.3309 83.3169 24.9685 83.5011 24.6479C83.6755 24.3439 83.9344 24.0936 84.2482 23.9256C84.5817 23.7557 84.9527 23.667 85.3293 23.667C85.7059 23.667 86.0769 23.7557 86.4104 23.9256ZM84.5196 24.3155C84.2825 24.4479 84.0893 24.6433 83.9628 24.8789C83.8323 25.1374 83.7645 25.4214 83.7645 25.7093C83.7645 25.9972 83.8323 26.2813 83.9628 26.5398C84.0897 26.775 84.2828 26.9704 84.5196 27.1032C84.7687 27.235 85.0479 27.3041 85.3316 27.3041C85.6153 27.3041 85.8945 27.235 86.1436 27.1032C86.3809 26.971 86.5742 26.7755 86.7004 26.5398C86.8315 26.2815 86.8997 25.9973 86.8997 25.7093C86.8997 25.4213 86.8315 25.1372 86.7004 24.8789C86.5743 24.6431 86.381 24.4475 86.1436 24.3155C85.8947 24.1831 85.6154 24.1138 85.3316 24.1138C85.0478 24.1138 84.7686 24.1831 84.5196 24.3155Z" fill="#333333"/>
<path d="M92.1584 23.6825V27.304C92.1665 27.6623 92.0786 28.0164 91.9032 28.3316C91.7362 28.6229 91.4827 28.8585 91.1758 29.0077C90.8359 29.1702 90.4607 29.251 90.082 29.2432C89.4547 29.2396 88.849 29.0204 88.3721 28.6246L88.6273 28.2539C88.8252 28.4255 89.051 28.5641 89.2955 28.664C89.5383 28.7577 89.7975 28.8048 90.0588 28.8026C90.5359 28.8026 90.916 28.6674 91.199 28.397C91.3432 28.2544 91.4554 28.0844 91.5287 27.8977C91.602 27.7109 91.6347 27.5115 91.6248 27.3119V26.655C91.4831 26.9314 91.2624 27.1622 90.9891 27.3198C90.6992 27.4825 90.3691 27.5651 90.0344 27.5587C89.6863 27.5654 89.343 27.4784 89.0426 27.3074C88.7551 27.1415 88.5212 26.9006 88.3675 26.6122C88.208 26.2993 88.125 25.955 88.125 25.6059C88.125 25.2569 88.208 24.9125 88.3675 24.5997C88.523 24.3131 88.7586 24.0748 89.0472 23.9124C89.3491 23.7453 89.6916 23.6601 90.039 23.6656C90.3705 23.6574 90.6979 23.739 90.9844 23.9011C91.2577 24.0601 91.4786 24.2915 91.6213 24.5682V23.6814L92.1584 23.6825ZM90.9021 26.9502C91.1284 26.8207 91.3129 26.6321 91.4345 26.406C91.5598 26.1626 91.625 25.8943 91.625 25.6223C91.625 25.3502 91.5598 25.0819 91.4345 24.8386C91.3129 24.6121 91.1285 24.4232 90.9021 24.2932C90.6667 24.1642 90.401 24.0964 90.1307 24.0964C89.8604 24.0964 89.5947 24.1642 89.3593 24.2932C89.1318 24.4233 88.9459 24.6121 88.8222 24.8386C88.6895 25.0812 88.6224 25.3526 88.6273 25.6273C88.6204 25.9023 88.6876 26.1742 88.8222 26.4161C88.946 26.6398 89.1301 26.8268 89.3546 26.957C89.5908 27.0861 89.8573 27.1539 90.1284 27.1539C90.3994 27.1539 90.6659 27.0861 90.9021 26.957V26.9502Z" fill="#333333"/>
<path d="M94.1385 22.2564C94.2068 22.3253 94.2443 22.4176 94.2429 22.5133C94.2437 22.5618 94.2345 22.61 94.216 22.6551C94.1975 22.7001 94.17 22.7412 94.135 22.7758C94.1025 22.8112 94.0626 22.8395 94.018 22.8589C93.9735 22.8783 93.9252 22.8884 93.8763 22.8885C93.8265 22.8892 93.7771 22.8795 93.7315 22.8601C93.6859 22.8407 93.6451 22.8119 93.6119 22.7758C93.5767 22.7413 93.5491 22.7003 93.5305 22.6552C93.512 22.6101 93.503 22.5619 93.504 22.5133C93.5031 22.4665 93.5116 22.4201 93.5292 22.3765C93.5468 22.333 93.573 22.2932 93.6064 22.2595C93.6398 22.2258 93.6797 22.1989 93.7238 22.1802C93.768 22.1614 93.8154 22.1514 93.8636 22.1505H93.8775C93.9262 22.1494 93.9746 22.1583 94.0196 22.1765C94.0645 22.1948 94.1051 22.222 94.1385 22.2564ZM93.6095 23.6818H94.1385V27.7281H93.6095V23.6818Z" fill="#333333"/>
<path d="M98.7913 24.2651C99.1315 24.6655 99.2881 25.2026 99.2611 25.8764H95.7811C95.8015 26.2737 95.9779 26.6484 96.2741 26.9232C96.5666 27.1886 96.955 27.3315 97.3552 27.3209C97.6089 27.3232 97.8606 27.276 98.0953 27.1824C98.3177 27.0926 98.5182 26.9582 98.6834 26.788L98.985 27.0809C98.7817 27.2936 98.5337 27.4612 98.2577 27.5722C97.9632 27.6891 97.6478 27.7481 97.3297 27.7457C96.9547 27.7527 96.5843 27.6641 96.2555 27.4888C95.9465 27.3185 95.692 27.0685 95.5201 26.7666C95.3452 26.4404 95.2539 26.078 95.2539 25.7102C95.2539 25.3424 95.3452 24.9801 95.5201 24.6538C95.6905 24.3496 95.9453 24.0978 96.2555 23.9271C96.5791 23.7534 96.9438 23.6648 97.3134 23.6701C97.9599 23.6649 98.4525 23.8632 98.7913 24.2651ZM98.7831 25.4741C98.7765 25.097 98.6217 24.7367 98.3505 24.4668C98.2135 24.3402 98.0517 24.2418 97.8747 24.1773C97.6978 24.1129 97.5092 24.0837 97.3204 24.0916C96.935 24.0814 96.5606 24.2172 96.2764 24.4702C95.9899 24.7332 95.8166 25.092 95.7915 25.4741H98.7831Z" fill="#333333"/>
<path d="M101.995 24.1723C101.807 24.1195 101.612 24.0922 101.415 24.0912C101.192 24.0812 100.97 24.1336 100.776 24.2422C100.698 24.2891 100.634 24.3557 100.591 24.435C100.548 24.5143 100.528 24.6034 100.533 24.6929C100.531 24.7549 100.541 24.8167 100.564 24.8748C100.587 24.9328 100.621 24.9859 100.665 25.0309C100.758 25.1218 100.869 25.1942 100.991 25.2439C101.169 25.3137 101.351 25.3743 101.536 25.4253C101.774 25.4909 102.006 25.5722 102.232 25.6687C102.412 25.7478 102.571 25.8667 102.696 26.0157C102.83 26.1874 102.897 26.3991 102.886 26.614C102.895 26.7778 102.86 26.941 102.785 27.0878C102.71 27.2346 102.597 27.3602 102.457 27.4524C102.138 27.6542 101.763 27.7554 101.383 27.742C101.085 27.7431 100.789 27.6936 100.508 27.5955C100.244 27.5079 100.003 27.3656 99.8008 27.1786L100.015 26.8079C100.4 27.1383 100.894 27.322 101.407 27.3251C101.649 27.3355 101.888 27.2763 102.095 27.1549C102.181 27.1027 102.25 27.0293 102.296 26.9424C102.343 26.8554 102.365 26.7581 102.36 26.6602C102.366 26.5262 102.319 26.395 102.227 26.294C102.134 26.1954 102.018 26.1184 101.89 26.0687C101.755 26.0146 101.567 25.956 101.328 25.8794C101.096 25.8137 100.868 25.734 100.645 25.6405C100.471 25.5634 100.319 25.4476 100.2 25.3025C100.071 25.1364 100.007 24.9318 100.018 24.7244C100.008 24.5676 100.041 24.4112 100.113 24.2703C100.184 24.1295 100.292 24.0091 100.426 23.921C100.731 23.732 101.088 23.6376 101.449 23.6506C101.684 23.6493 101.919 23.6804 102.145 23.743C102.355 23.8005 102.556 23.887 102.74 23.9999L102.533 24.3943C102.366 24.2953 102.185 24.2205 101.995 24.1723Z" fill="#333333"/>
<path d="M106.666 22.2564C106.7 22.2904 106.726 22.3307 106.744 22.3748C106.762 22.4189 106.77 22.466 106.769 22.5133C106.77 22.5619 106.761 22.6101 106.743 22.6552C106.724 22.7003 106.696 22.7413 106.661 22.7758C106.629 22.8111 106.589 22.8393 106.545 22.8587C106.5 22.8781 106.452 22.8883 106.404 22.8885C106.354 22.8887 106.305 22.8788 106.259 22.8594C106.214 22.84 106.173 22.8115 106.139 22.7758C106.104 22.7413 106.076 22.7003 106.058 22.6552C106.039 22.6101 106.03 22.5619 106.031 22.5133C106.03 22.4665 106.039 22.42 106.056 22.3764C106.074 22.3327 106.1 22.2929 106.133 22.2592C106.167 22.2255 106.207 22.1985 106.251 22.1799C106.295 22.1612 106.343 22.1512 106.391 22.1505H106.405C106.454 22.1494 106.502 22.1583 106.547 22.1765C106.592 22.1948 106.632 22.222 106.666 22.2564ZM106.133 23.6818H106.666V27.7281H106.133V23.6818Z" fill="#333333"/>
<path d="M111.568 24.0874C111.853 24.3684 111.996 24.7522 111.996 25.239V27.7258H111.455V25.3596C111.465 25.1958 111.441 25.0318 111.385 24.8771C111.329 24.7224 111.242 24.58 111.129 24.4581C110.912 24.2395 110.61 24.1325 110.222 24.137C110.033 24.131 109.844 24.1621 109.667 24.2283C109.49 24.2945 109.328 24.3945 109.192 24.5224C108.924 24.8 108.768 25.1619 108.751 25.5421V27.7213H108.219V23.684H108.748V24.626C108.875 24.3295 109.097 24.08 109.38 23.9139C109.69 23.7471 110.039 23.6624 110.394 23.6683C110.894 23.6615 111.285 23.8068 111.568 24.0874Z" fill="#333333"/>
<path d="M115.069 24.1229C114.787 24.1188 114.51 24.1877 114.265 24.3223C114.029 24.4559 113.836 24.651 113.708 24.8857C113.578 25.1422 113.51 25.4244 113.51 25.7105C113.51 25.9966 113.578 26.2789 113.708 26.5353C113.835 26.7708 114.028 26.9663 114.265 27.0987C114.509 27.2342 114.787 27.3035 115.069 27.2993C115.323 27.3027 115.576 27.2551 115.811 27.1596C116.031 27.0718 116.226 26.9343 116.381 26.7584L116.682 27.0672C116.495 27.2863 116.256 27.4586 115.986 27.5697C115.689 27.6913 115.37 27.7516 115.048 27.7466C114.675 27.7543 114.307 27.6656 113.982 27.4897C113.671 27.32 113.417 27.0684 113.247 26.7641C113.072 26.4388 112.98 26.0771 112.98 25.71C112.98 25.3428 113.072 24.9811 113.247 24.6559C113.417 24.3514 113.672 24.0996 113.982 23.9291C114.308 23.7547 114.676 23.6662 115.048 23.6722C115.351 23.6695 115.652 23.7222 115.935 23.8277C116.192 23.9245 116.426 24.0714 116.622 24.2592L116.32 24.6074C116.156 24.4491 115.96 24.3247 115.745 24.2414C115.53 24.1582 115.3 24.1179 115.069 24.1229Z" fill="#333333"/>
</g>
<defs>
<clipPath id="clip0_523_1169">
<rect width="116" height="42" fill="white" transform="translate(0.75)"/>
</clipPath>
</defs>
</svg>
