<svg width="86" height="24" viewBox="0 0 86 24" fill="none" xmlns="http://www.w3.org/2000/svg">
<path d="M39.8359 0.364258V23.9229H44.794V11.7174L59.3789 23.9229V0.364258L54.4194 0.364258V12.1428L39.8359 0.364258Z" fill="#2A2B3C"/>
<path d="M74.4089 0.0771484L63.3203 23.9238H68.9603L70.2789 20.8143H74.4103H78.5418L79.8603 23.9238L85.5003 23.9238L74.4089 0.0771484ZM74.4089 16.4563H72.3673L74.4089 11.7066L76.4505 16.4563H74.4089Z" fill="#2A2B3C"/>
<path d="M8.78751 0.0771484C5.47979 0.0771484 0 0.0771484 0 0.0771484V23.9238H5.01191V16.028H8.51954C8.51954 16.028 16.1714 15.9242 16.1714 8.17318C16.1714 3.31527 12.0952 0.0771484 8.78751 0.0771484ZM9.09942 11.1496L5.04878 11.1496V8.07524V5.00085H9.09942C9.09942 5.00085 11.9194 5.03447 11.9194 8.07524C11.9194 11.116 9.09942 11.1496 9.09942 11.1496Z" fill="#2A2B3C"/>
<path d="M25.0508 6.25293L22.1953 9.19867V20.9787L25.0508 23.923L30.7631 23.923L33.6199 20.9787V9.19867L30.7631 6.25293L27.9076 9.19867L25.0508 6.25293Z" fill="#FFD700"/>
<path d="M25.0508 0.364258L22.1953 3.30854L27.9076 9.19855L33.6199 3.30854L30.7631 0.364258L27.9076 3.30854L25.0508 0.364258Z" fill="#76ABAC"/>
<path d="M27.9076 20.9795L30.7631 23.9238L25.0508 23.9238L27.9076 20.9795Z" fill="#F7B313"/>
<path d="M30.7656 0.365234L33.6225 3.30951L30.7656 6.25379V0.365234Z" fill="#5F98A4"/>
<path d="M27.9062 3.30957L30.7617 6.25385L27.9062 9.19959V3.30957Z" fill="#5F98A4"/>
<path d="M30.7656 6.25391L33.6225 9.19965L30.7656 12.1439V6.25391Z" fill="#F7B313"/>
<path d="M30.7656 12.1436L33.6225 15.0893L30.7656 18.0336V12.1436Z" fill="#F7B313"/>
<path d="M30.7656 18.0342L33.6225 20.9799L30.7656 23.9242V18.0342Z" fill="#F7B313"/>
<path d="M27.9062 9.19922L30.7617 12.1435L27.9062 15.0892V9.19922Z" fill="#F7B313"/>
<path d="M27.9062 15.0889L30.7617 18.0331L27.9062 20.9789V15.0889Z" fill="#F7B313"/>
</svg>
