<svg width="118" height="34" viewBox="0 0 118 34" fill="none" xmlns="http://www.w3.org/2000/svg">
<g clip-path="url(#clip0_523_1294)">
<path d="M117.496 19.836C101.857 23.6827 74.0611 22.6247 59.0088 19.2718C39.7131 14.9743 15.0441 15.9568 0 19.8621C10.1568 19.079 28.4224 18.4049 49.1365 25.344C66.3971 31.3068 95.5853 35.9851 117.496 31.8609V19.836Z" fill="#127BCA"/>
<path d="M57.2528 14.191H54.4297V4.04492H57.2528V14.191Z" fill="#127BCA"/>
<path d="M4.56215 8.53122H3.13608L3.13565 5.85094H4.71165C5.68301 5.85094 6.02514 6.47667 6.02514 7.13934C6.02514 7.83159 5.57333 8.53122 4.56215 8.53122ZM4.56221 4.06738H0.371094V14.2159H3.13622V10.3502H5.27359C7.53387 10.3502 8.68022 9.27814 8.68022 7.163C8.68022 5.02224 7.56673 4.06738 4.56221 4.06738Z" fill="#127BCA"/>
<path d="M15.1866 12.5302C13.7069 12.5302 12.8246 11.2729 12.8246 9.16559C12.8246 5.87388 14.6168 5.61572 15.1664 5.61572C15.9795 5.61572 17.3431 6.07541 17.3431 9.14785C17.3431 11.2645 16.537 12.5302 15.1866 12.5302ZM15.2623 3.87305C12.1103 3.87305 10.1523 5.88621 10.1523 9.12767C10.1523 12.442 11.9599 14.3443 15.1104 14.3443C18.228 14.3443 20.0891 12.3578 20.0891 9.03503C20.0891 5.70639 18.375 3.87305 15.2623 3.87305Z" fill="#127BCA"/>
<path d="M21.8555 9.28052C21.8555 5.88683 23.75 3.85938 26.9246 3.85938C29.4184 3.85938 30.985 5.09998 31.0819 7.10082H28.3772C28.184 6.22629 27.6172 5.74738 26.7019 5.74738C25.6377 5.74738 24.5641 6.76529 24.5641 9.03613C24.5641 12.0771 25.8805 12.5313 26.6646 12.5313C27.7195 12.5313 28.3133 12.011 28.4898 10.9537H31.2308C31.1335 13.0817 29.4616 14.4006 26.7968 14.4006C24.5424 14.4006 21.8555 13.5123 21.8555 9.28052Z" fill="#127BCA"/>
<path d="M35.8877 10.3372L37.4543 5.93152L38.9881 10.3372H35.8877ZM39.0633 4.03613H36.0366C35.9442 4.26375 32.1556 13.692 31.957 14.1842H34.5029C34.5821 13.961 35.2373 12.1203 35.2373 12.1203H39.5745C39.5745 12.1203 40.2145 13.959 40.2937 14.1842H43.2092C43.0077 13.69 39.1547 4.26227 39.0633 4.03613Z" fill="#127BCA"/>
<path d="M48.7204 8.34474H47.052V5.8522L48.7769 5.85665C49.8751 5.85665 50.1853 6.41143 50.1853 7.00907C50.1853 7.7427 49.9523 8.34474 48.7204 8.34474ZM52.5768 11.8104C52.5768 9.273 50.8234 9.04932 50.8234 9.04932C50.8234 9.04932 52.8457 8.99318 52.8034 6.49766C52.7725 4.80721 52.1167 4.00264 48.3665 4.04452H44.3242V14.1906H47.052V10.2298H48.7007C49.7414 10.2298 49.8854 11.1891 49.8854 12.2223C49.8854 12.9534 50.146 13.8718 50.434 14.1906H53.1667C52.8708 13.5437 52.5768 12.7327 52.5768 11.8104Z" fill="#127BCA"/>
<path d="M69.358 11.3557C69.358 10.3698 68.1316 10.0806 66.9449 9.80122C65.2804 9.41051 63.7403 8.77938 63.7403 6.83518C63.7403 5.11322 65.4053 3.81445 67.6125 3.81445C69.2504 3.81445 70.4223 4.15739 71.0943 4.83582C71.7471 5.49555 71.7899 6.33115 71.7899 6.83962V6.84936H69.1305C69.1113 6.35372 68.9574 5.49692 67.7442 5.49692C66.9936 5.49692 66.4494 5.94133 66.4494 6.55227C66.4494 7.46377 67.2865 7.68253 69.1196 8.16291C70.7123 8.57725 72.1423 9.11528 72.1423 11.1137C72.1423 13.0933 70.5123 14.3743 67.988 14.3743C65.0494 14.3743 63.5909 13.2382 63.5117 10.9269H66.1461C66.2149 11.9833 66.8456 12.6346 67.8381 12.6346C68.7337 12.6346 69.358 12.108 69.358 11.3557Z" fill="#127BCA"/>
<path d="M78.9633 3.96582L77.112 11.5158L75.2714 3.97953H72.4609L75.4738 14.1277H78.4225L80.5928 6.2241H80.5937L82.7655 14.1277H85.7121L88.7249 3.97953H85.9159L84.0746 11.5158L82.224 3.96582H78.9633Z" fill="#127BCA"/>
<path d="M97.0091 3.99219V5.75113H92.6852V7.93228H96.6729V9.74837H92.6852V12.1764H97.1399V14.1388H89.9727V3.99219H97.0091Z" fill="#127BCA"/>
<path d="M102.41 10.3867L103.975 5.98347L105.509 10.3867H102.41ZM105.601 4.01465H102.575C102.484 4.24276 98.6942 13.6695 98.4961 14.1627H101.042C101.121 13.9395 101.775 12.0988 101.775 12.0988H106.114C106.114 12.0988 106.754 13.9365 106.833 14.1627H109.749C109.546 13.669 105.694 4.24128 105.601 4.01465Z" fill="#127BCA"/>
<path d="M117.495 3.99219V5.91863H114.348V14.1388H111.675V5.91863H108.473V3.99219H117.495Z" fill="#127BCA"/>
</g>
<defs>
<clipPath id="clip0_523_1294">
<rect width="117.496" height="32.8592" fill="white" transform="translate(0 0.570312)"/>
</clipPath>
</defs>
</svg>
