<svg width="1315" height="1316" viewBox="0 0 1315 1316" fill="none" xmlns="http://www.w3.org/2000/svg">
<path d="M658.522 1279C658.182 1279 657.841 1279 657.5 1279C657.159 1279 656.819 1279 656.479 1279L656.511 1259C656.84 1259 657.17 1259 657.5 1259C657.83 1259 658.16 1259 658.49 1259L658.522 1279ZM642.689 1258.82L642.206 1278.82C641.528 1278.8 640.851 1278.78 640.174 1278.76L640.721 1258.77C641.377 1258.79 642.033 1258.81 642.689 1258.82ZM674.827 1278.76C674.15 1278.78 673.473 1278.8 672.795 1278.82L672.312 1258.82C672.968 1258.81 673.624 1258.79 674.28 1258.77L674.827 1278.76ZM626.988 1258.24L625.99 1278.21C625.311 1278.18 624.633 1278.15 623.954 1278.11L625.017 1258.14C625.673 1258.17 626.331 1258.21 626.988 1258.24ZM691.047 1278.11C690.368 1278.15 689.69 1278.18 689.011 1278.21L688.013 1258.24C688.67 1258.21 689.328 1258.17 689.984 1258.14L691.047 1278.11ZM611.231 1257.25L609.715 1277.19C609.039 1277.14 608.363 1277.09 607.688 1277.03L609.27 1257.09C609.923 1257.15 610.577 1257.2 611.231 1257.25ZM707.313 1277.03C706.638 1277.09 705.962 1277.14 705.286 1277.19L703.77 1257.25C704.424 1257.2 705.078 1257.15 705.731 1257.09L707.313 1277.03ZM595.58 1255.85L593.546 1275.75C592.868 1275.68 592.191 1275.61 591.514 1275.54L593.613 1255.65C594.268 1255.72 594.924 1255.79 595.58 1255.85ZM723.486 1275.54C722.81 1275.61 722.132 1275.68 721.455 1275.75L719.421 1255.85C720.077 1255.79 720.733 1255.72 721.388 1255.65L723.486 1275.54ZM579.902 1254.04L577.348 1273.88C576.675 1273.79 576.004 1273.7 575.332 1273.62L577.951 1253.79C578.601 1253.87 579.252 1253.96 579.902 1254.04ZM739.669 1273.62C738.998 1273.7 738.325 1273.79 737.653 1273.88L735.099 1254.04C735.749 1253.96 736.4 1253.87 737.05 1253.79L739.669 1273.62ZM564.338 1251.83L561.266 1271.59C560.593 1271.49 559.921 1271.38 559.249 1271.28L562.387 1251.52C563.037 1251.63 563.687 1251.73 564.338 1251.83ZM755.752 1271.28C755.08 1271.38 754.408 1271.49 753.735 1271.59L750.663 1251.83C751.314 1251.73 751.964 1251.63 752.614 1251.52L755.752 1271.28ZM548.787 1249.2L545.195 1268.88C544.529 1268.76 543.862 1268.63 543.196 1268.51L546.853 1248.85C547.497 1248.97 548.142 1249.09 548.787 1249.2ZM771.804 1268.51C771.138 1268.63 770.471 1268.76 769.805 1268.88L766.214 1249.2C766.859 1249.09 767.504 1248.97 768.148 1248.85L771.804 1268.51ZM533.353 1246.18L529.246 1265.75C528.581 1265.61 527.915 1265.47 527.25 1265.33L531.422 1245.77C532.065 1245.9 532.709 1246.04 533.353 1246.18ZM787.751 1265.33C787.086 1265.47 786.42 1265.61 785.755 1265.75L781.648 1246.18C782.292 1246.04 782.936 1245.9 783.579 1245.77L787.751 1265.33ZM517.971 1242.74L513.349 1262.19C512.689 1262.04 512.03 1261.88 511.372 1261.72L516.058 1242.28C516.695 1242.43 517.333 1242.58 517.971 1242.74ZM803.628 1261.72C802.97 1261.88 802.311 1262.04 801.652 1262.19L797.03 1242.74C797.668 1242.58 798.305 1242.43 798.942 1242.28L803.628 1261.72ZM502.711 1238.9L497.578 1258.23C496.921 1258.05 496.264 1257.88 495.608 1257.7L500.806 1238.39C501.44 1238.56 502.076 1238.73 502.711 1238.9ZM819.392 1257.7C818.736 1257.88 818.08 1258.05 817.423 1258.23L812.29 1238.9C812.926 1238.73 813.561 1238.56 814.195 1238.39L819.392 1257.7ZM487.539 1234.65L481.897 1253.84C481.248 1253.65 480.598 1253.46 479.949 1253.27L485.653 1234.1C486.281 1234.28 486.91 1234.47 487.539 1234.65ZM835.052 1253.27C834.403 1253.46 833.753 1253.65 833.104 1253.84L827.462 1234.65C828.091 1234.47 828.719 1234.28 829.347 1234.1L835.052 1253.27ZM472.497 1230.02L466.352 1249.05C465.705 1248.84 465.059 1248.63 464.414 1248.42L470.622 1229.41C471.246 1229.61 471.872 1229.81 472.497 1230.02ZM850.587 1248.42C849.942 1248.63 849.296 1248.84 848.649 1249.05L842.504 1230.02C843.129 1229.81 843.754 1229.61 844.379 1229.41L850.587 1248.42ZM457.576 1224.98L450.93 1243.84C450.291 1243.62 449.653 1243.39 449.016 1243.17L455.723 1224.32C456.34 1224.54 456.958 1224.76 457.576 1224.98ZM865.985 1243.17C865.348 1243.39 864.709 1243.62 864.07 1243.84L857.425 1224.98C858.043 1224.76 858.66 1224.54 859.277 1224.32L865.985 1243.17ZM442.794 1219.55L435.653 1238.23C435.019 1237.99 434.386 1237.75 433.753 1237.5L440.955 1218.85C441.567 1219.08 442.181 1219.32 442.794 1219.55ZM881.247 1237.5C880.614 1237.75 879.981 1237.99 879.347 1238.23L872.206 1219.55C872.819 1219.32 873.432 1219.08 874.045 1218.85L881.247 1237.5ZM428.164 1213.74L420.533 1232.22C419.907 1231.97 419.282 1231.71 418.657 1231.45L426.349 1212.98C426.953 1213.24 427.559 1213.49 428.164 1213.74ZM896.343 1231.45C895.718 1231.71 895.093 1231.97 894.467 1232.22L886.836 1213.74C887.442 1213.49 888.047 1213.24 888.651 1212.98L896.343 1231.45ZM413.686 1207.54L405.57 1225.82C404.95 1225.54 404.331 1225.26 403.712 1224.99L411.887 1206.74C412.486 1207 413.086 1207.27 413.686 1207.54ZM911.289 1224.99C910.67 1225.26 910.05 1225.54 909.43 1225.82L901.315 1207.54C901.915 1207.27 902.514 1207 903.113 1206.73L911.289 1224.99ZM399.385 1200.96L390.792 1219.02C390.181 1218.73 389.569 1218.44 388.959 1218.15L397.611 1200.11C398.202 1200.4 398.793 1200.68 399.385 1200.96ZM926.041 1218.15C925.431 1218.44 924.82 1218.73 924.209 1219.02L915.615 1200.96C916.207 1200.68 916.798 1200.4 917.389 1200.11L926.041 1218.15ZM385.249 1194.01L376.184 1211.83C375.579 1211.53 374.975 1211.22 374.372 1210.91L383.495 1193.11C384.079 1193.41 384.664 1193.71 385.249 1194.01ZM940.628 1210.91C940.025 1211.22 939.421 1211.53 938.816 1211.83L929.751 1194.01C930.336 1193.71 930.921 1193.41 931.505 1193.11L940.628 1210.91ZM371.315 1186.69L361.786 1204.27C361.19 1203.95 360.593 1203.63 359.998 1203.3L369.585 1185.75C370.161 1186.06 370.738 1186.38 371.315 1186.69ZM955.002 1203.3C954.407 1203.63 953.811 1203.95 953.215 1204.27L943.685 1186.69C944.262 1186.38 944.839 1186.06 945.415 1185.75L955.002 1203.3ZM357.562 1179L347.574 1196.33C346.987 1195.99 346.4 1195.65 345.813 1195.31L355.858 1178.01C356.426 1178.34 356.993 1178.67 357.562 1179ZM969.187 1195.31C968.6 1195.65 968.013 1195.99 967.426 1196.33L957.438 1179C958.007 1178.67 958.575 1178.34 959.143 1178.01L969.187 1195.31ZM344.028 1170.96L333.59 1188.02C333.011 1187.67 332.433 1187.31 331.855 1186.96L342.349 1169.93C342.908 1170.28 343.468 1170.62 344.028 1170.96ZM983.146 1186.96C982.568 1187.31 981.989 1187.67 981.41 1188.02L970.973 1170.96C971.533 1170.62 972.092 1170.28 972.651 1169.93L983.146 1186.96ZM330.698 1162.56L319.817 1179.35C319.249 1178.98 318.681 1178.61 318.113 1178.24L329.049 1161.49C329.598 1161.85 330.148 1162.21 330.698 1162.56ZM996.888 1178.24C996.32 1178.61 995.751 1178.98 995.183 1179.35L984.302 1162.56C984.852 1162.21 985.402 1161.85 985.951 1161.49L996.888 1178.24ZM317.6 1153.83L306.284 1170.32C305.725 1169.93 305.166 1169.55 304.608 1169.16L315.978 1152.71C316.518 1153.08 317.058 1153.45 317.6 1153.83ZM1010.39 1169.16C1009.83 1169.55 1009.28 1169.93 1008.72 1170.32L997.4 1153.83C997.942 1153.45 998.482 1153.08 999.022 1152.71L1010.39 1169.16ZM304.729 1144.75L292.987 1160.94C292.439 1160.54 291.89 1160.14 291.343 1159.74L303.139 1143.59C303.668 1143.97 304.199 1144.36 304.729 1144.75ZM1023.66 1159.74C1023.11 1160.14 1022.56 1160.54 1022.01 1160.94L1010.27 1144.75C1010.8 1144.36 1011.33 1143.97 1011.86 1143.59L1023.66 1159.74ZM292.104 1135.33L279.942 1151.21C279.404 1150.8 278.866 1150.39 278.329 1149.97L290.542 1134.13C291.062 1134.53 291.582 1134.93 292.104 1135.33ZM1036.67 1149.97C1036.13 1150.39 1035.6 1150.8 1035.06 1151.21L1022.9 1135.33C1023.42 1134.93 1023.94 1134.53 1024.46 1134.13L1036.67 1149.97ZM279.725 1125.6L267.154 1141.15C266.627 1140.73 266.101 1140.3 265.575 1139.87L278.196 1124.36C278.705 1124.77 279.214 1125.18 279.725 1125.6ZM1049.42 1139.87C1048.9 1140.3 1048.37 1140.73 1047.85 1141.15L1035.28 1125.6C1035.79 1125.18 1036.29 1124.77 1036.8 1124.36L1049.42 1139.87ZM267.604 1115.54L254.634 1130.76C254.118 1130.32 253.602 1129.88 253.088 1129.44L266.108 1114.26C266.607 1114.69 267.105 1115.11 267.604 1115.54ZM1061.91 1129.44C1061.4 1129.88 1060.88 1130.32 1060.37 1130.76L1047.4 1115.54C1047.9 1115.11 1048.39 1114.69 1048.89 1114.26L1061.91 1129.44ZM255.751 1105.17L242.388 1120.05C241.883 1119.6 241.38 1119.14 240.877 1118.69L254.289 1103.85C254.776 1104.29 255.263 1104.73 255.751 1105.17ZM1074.12 1118.69C1073.62 1119.14 1073.12 1119.6 1072.61 1120.05L1059.25 1105.17C1059.74 1104.73 1060.22 1104.29 1060.71 1103.85L1074.12 1118.69ZM244.171 1094.49L230.425 1109.02C229.932 1108.55 229.44 1108.09 228.949 1107.62L242.742 1093.14C243.217 1093.59 243.694 1094.04 244.171 1094.49ZM1086.05 1107.62C1085.56 1108.09 1085.07 1108.55 1084.58 1109.02L1070.83 1094.49C1071.31 1094.04 1071.78 1093.59 1072.26 1093.14L1086.05 1107.62ZM232.872 1083.52L218.753 1097.69C218.273 1097.21 217.793 1096.73 217.314 1096.25L231.479 1082.13C231.943 1082.59 232.407 1083.06 232.872 1083.52ZM1097.69 1096.25C1097.21 1096.73 1096.73 1097.21 1096.25 1097.69L1082.13 1083.52C1082.59 1083.06 1083.06 1082.59 1083.52 1082.13L1097.69 1096.25ZM221.862 1072.26L207.38 1086.05C206.912 1085.56 206.445 1085.07 205.979 1084.58L220.507 1070.83C220.958 1071.31 221.41 1071.78 221.862 1072.26ZM1109.02 1084.58C1108.55 1085.07 1108.09 1085.56 1107.62 1086.05L1093.14 1072.26C1093.59 1071.78 1094.04 1071.31 1094.49 1070.83L1109.02 1084.58ZM211.149 1060.71L196.312 1074.12C195.858 1073.62 195.404 1073.12 194.951 1072.61L209.832 1059.25C210.27 1059.74 210.71 1060.22 211.149 1060.71ZM1120.05 1072.61C1119.6 1073.12 1119.14 1073.62 1118.69 1074.12L1103.85 1060.71C1104.29 1060.22 1104.73 1059.74 1105.17 1059.25L1120.05 1072.61ZM200.742 1048.89L185.561 1061.91C185.119 1061.4 184.679 1060.88 184.239 1060.37L199.462 1047.4C199.888 1047.9 200.315 1048.39 200.742 1048.89ZM1130.76 1060.37C1130.32 1060.88 1129.88 1061.4 1129.44 1061.91L1114.26 1048.89C1114.69 1048.39 1115.11 1047.9 1115.54 1047.4L1130.76 1060.37ZM190.645 1036.8L175.129 1049.42C174.701 1048.9 174.275 1048.37 173.849 1047.85L189.404 1035.28C189.817 1035.79 190.231 1036.29 190.645 1036.8ZM1141.15 1047.85C1140.73 1048.37 1140.3 1048.9 1139.87 1049.42L1124.36 1036.8C1124.77 1036.29 1125.18 1035.79 1125.6 1035.28L1141.15 1047.85ZM180.866 1024.46L165.027 1036.67C164.613 1036.13 164.2 1035.6 163.788 1035.06L179.666 1022.9C180.065 1023.42 180.465 1023.94 180.866 1024.46ZM1151.21 1035.06C1150.8 1035.6 1150.39 1036.13 1149.97 1036.67L1134.13 1024.46C1134.53 1023.94 1134.93 1023.42 1135.33 1022.9L1151.21 1035.06ZM171.413 1011.86L155.261 1023.66C154.861 1023.11 154.462 1022.56 154.064 1022.01L170.255 1010.27C170.64 1010.8 171.026 1011.33 171.413 1011.86ZM1160.94 1022.01C1160.54 1022.56 1160.14 1023.11 1159.74 1023.66L1143.59 1011.86C1143.97 1011.33 1144.36 1010.8 1144.75 1010.27L1160.94 1022.01ZM162.291 999.022L145.837 1010.39C145.451 1009.83 145.066 1009.28 144.683 1008.72L161.174 997.4C161.545 997.942 161.918 998.482 162.291 999.022ZM1170.32 1008.72C1169.93 1009.28 1169.55 1009.83 1169.16 1010.39L1152.71 999.022C1153.08 998.482 1153.45 997.942 1153.83 997.4L1170.32 1008.72ZM153.509 985.951L136.764 996.888C136.393 996.32 136.023 995.751 135.654 995.183L152.436 984.302C152.792 984.852 153.15 985.402 153.509 985.951ZM1179.35 995.183C1178.98 995.751 1178.61 996.319 1178.24 996.887L1161.49 985.951C1161.85 985.402 1162.21 984.852 1162.56 984.302L1179.35 995.183ZM145.069 972.651L128.044 983.146C127.688 982.568 127.333 981.989 126.979 981.41L144.038 970.973C144.381 971.533 144.725 972.092 145.069 972.651ZM1188.02 981.41C1187.67 981.989 1187.31 982.567 1186.96 983.145L1169.93 972.651C1170.28 972.092 1170.62 971.532 1170.96 970.972L1188.02 981.41ZM136.985 959.143L119.69 969.187C119.35 968.6 119.01 968.013 118.672 967.426L135.999 957.438C136.327 958.007 136.656 958.575 136.985 959.143ZM1196.33 967.426C1195.99 968.013 1195.65 968.6 1195.31 969.187L1178.01 959.142C1178.34 958.574 1178.67 958.007 1179 957.438L1196.33 967.426ZM129.252 945.415L111.699 955.002C111.374 954.407 111.05 953.811 110.727 953.215L128.311 943.685C128.623 944.262 128.937 944.839 129.252 945.415ZM1204.27 953.214C1203.95 953.81 1203.63 954.407 1203.3 955.002L1185.75 945.415C1186.06 944.839 1186.38 944.262 1186.69 943.685L1204.27 953.214ZM121.889 931.505L104.091 940.628C103.782 940.025 103.473 939.421 103.166 938.816L120.994 929.751C121.292 930.336 121.589 930.921 121.889 931.505ZM1211.83 938.816C1211.53 939.421 1211.22 940.025 1210.91 940.628L1193.11 931.505C1193.41 930.921 1193.71 930.336 1194.01 929.751L1211.83 938.816ZM114.886 917.389L96.8545 926.041C96.5617 925.431 96.2694 924.82 95.9785 924.209L114.038 915.615C114.32 916.207 114.602 916.798 114.886 917.389ZM1219.02 924.208C1218.73 924.819 1218.44 925.431 1218.15 926.041L1200.11 917.389C1200.4 916.798 1200.68 916.207 1200.96 915.615L1219.02 924.208ZM108.266 903.113L90.0127 911.289C89.7354 910.67 89.4589 910.05 89.1836 909.43L107.463 901.315C107.729 901.915 107.997 902.514 108.266 903.113ZM1225.82 909.43C1225.54 910.05 1225.26 910.669 1224.99 911.288L1206.74 903.113C1207 902.514 1207.27 901.914 1207.54 901.314L1225.82 909.43ZM102.016 888.651L83.5537 896.343C83.2934 895.718 83.0337 895.093 82.7754 894.467L101.263 886.836C101.513 887.442 101.764 888.047 102.016 888.651ZM1232.22 894.467C1231.97 895.093 1231.71 895.718 1231.45 896.343L1212.98 888.651C1213.24 888.047 1213.49 887.441 1213.74 886.836L1232.22 894.467ZM96.1543 874.045L77.4961 881.247C77.2518 880.614 77.0089 879.981 76.7666 879.347L95.4482 872.206C95.6827 872.819 95.9179 873.432 96.1543 874.045ZM1238.23 879.347C1237.99 879.981 1237.75 880.614 1237.5 881.247L1218.85 874.045C1219.08 873.433 1219.32 872.819 1219.55 872.206L1238.23 879.347ZM90.6768 859.277L71.835 865.985C71.6079 865.348 71.3823 864.709 71.1572 864.07L90.0205 857.425C90.2382 858.043 90.4571 858.66 90.6768 859.277ZM1243.84 864.07C1243.62 864.709 1243.39 865.347 1243.17 865.984L1224.32 859.277C1224.54 858.66 1224.76 858.042 1224.98 857.424L1243.84 864.07ZM85.5928 844.379L66.5811 850.587C66.3703 849.942 66.1608 849.296 65.9521 848.649L84.9844 842.504C85.1863 843.129 85.3889 843.754 85.5928 844.379ZM1249.05 848.648C1248.84 849.295 1248.63 849.941 1248.42 850.586L1229.41 844.378C1229.61 843.754 1229.81 843.128 1230.02 842.503L1249.05 848.648ZM80.9033 829.347L61.7334 835.052C61.5403 834.403 61.3483 833.753 61.1572 833.104L80.3457 827.462C80.5305 828.091 80.7165 828.719 80.9033 829.347ZM1253.84 833.103C1253.65 833.752 1253.46 834.402 1253.27 835.051L1234.1 829.347C1234.28 828.719 1234.47 828.09 1234.65 827.461L1253.84 833.103ZM76.6113 814.195L57.2979 819.392C57.1214 818.736 56.9459 818.08 56.7715 817.423L76.1016 812.29C76.2703 812.926 76.4406 813.561 76.6113 814.195ZM1258.23 817.422C1258.05 818.079 1257.88 818.736 1257.7 819.392L1238.39 814.194C1238.56 813.56 1238.73 812.924 1238.9 812.289L1258.23 817.422ZM72.7217 798.942L53.2783 803.628C53.1197 802.97 52.9622 802.311 52.8057 801.652L72.2646 797.03C72.4161 797.668 72.5682 798.305 72.7217 798.942ZM1262.19 801.651C1262.04 802.311 1261.88 802.97 1261.72 803.628L1242.28 798.942C1242.43 798.305 1242.58 797.667 1242.74 797.029L1262.19 801.651ZM69.2324 783.579L49.6729 787.751C49.5311 787.086 49.3906 786.42 49.251 785.755L68.8242 781.648C68.9593 782.292 69.0953 782.936 69.2324 783.579ZM1265.75 785.754C1265.61 786.419 1265.47 787.085 1265.33 787.75L1245.77 783.578C1245.9 782.935 1246.04 782.291 1246.18 781.647L1265.75 785.754ZM66.1533 768.148L46.4902 771.804C46.3664 771.138 46.2437 770.471 46.1221 769.805L65.7969 766.214C65.9146 766.859 66.0335 767.504 66.1533 768.148ZM1268.88 769.805C1268.76 770.471 1268.63 771.138 1268.51 771.804L1248.85 768.147C1248.97 767.503 1249.09 766.858 1249.2 766.213L1268.88 769.805ZM63.4766 752.614L43.7236 755.752C43.6169 755.08 43.5118 754.408 43.4072 753.735L63.1699 750.663C63.2711 751.314 63.3733 751.964 63.4766 752.614ZM1271.59 753.734C1271.49 754.407 1271.38 755.079 1271.28 755.751L1251.52 752.613C1251.63 751.963 1251.73 751.313 1251.83 750.662L1271.59 753.734ZM61.2129 737.05L41.3848 739.669C41.2961 738.998 41.2086 738.325 41.1221 737.653L60.958 735.099C61.0418 735.749 61.127 736.4 61.2129 737.05ZM1273.88 737.652C1273.79 738.325 1273.7 738.996 1273.62 739.668L1253.79 737.049C1253.87 736.399 1253.96 735.748 1254.04 735.098L1273.88 737.652ZM59.3516 721.388L39.4629 723.486C39.3915 722.81 39.3202 722.132 39.251 721.455L59.1475 719.421C59.2145 720.077 59.2824 720.733 59.3516 721.388ZM1275.75 721.454C1275.68 722.132 1275.61 722.809 1275.54 723.486L1255.65 721.387C1255.72 720.732 1255.79 720.076 1255.85 719.42L1275.75 721.454ZM57.9053 705.731L37.9678 707.313C37.9142 706.638 37.862 705.962 37.8105 705.286L57.7529 703.77C57.8027 704.424 57.8534 705.078 57.9053 705.731ZM1277.19 705.285C1277.14 705.961 1277.09 706.637 1277.03 707.312L1257.09 705.73C1257.15 705.077 1257.2 704.423 1257.25 703.769L1277.19 705.285ZM56.8623 689.984L36.8906 691.047C36.8545 690.368 36.8191 689.69 36.7852 689.011L56.7607 688.013C56.7936 688.67 56.8274 689.328 56.8623 689.984ZM1278.21 689.01C1278.18 689.689 1278.15 690.367 1278.11 691.046L1258.14 689.983C1258.17 689.327 1258.21 688.669 1258.24 688.012L1278.21 689.01ZM56.2295 674.28L36.2373 674.827C36.2188 674.15 36.2009 673.473 36.1846 672.795L56.1787 672.312C56.1946 672.968 56.2115 673.624 56.2295 674.28ZM1278.82 672.794C1278.8 673.472 1278.78 674.149 1278.76 674.826L1258.77 674.279C1258.79 673.623 1258.81 672.967 1258.82 672.311L1278.82 672.794ZM36 657.5C36 657.159 36.0004 656.819 36.001 656.479L56.001 656.511C56.0004 656.84 56 657.17 56 657.5C56 657.83 56.0004 658.16 56.001 658.49L36.001 658.522C36.0004 658.182 36 657.841 36 657.5ZM1259 657.5C1259 657.17 1259 656.84 1259 656.51L1279 656.478C1279 656.818 1279 657.159 1279 657.5C1279 657.841 1279 658.181 1279 658.521L1259 658.489C1259 658.16 1259 657.83 1259 657.5ZM56.2295 640.721C56.2115 641.377 56.1946 642.033 56.1787 642.689L36.1846 642.206C36.2009 641.528 36.2188 640.851 36.2373 640.174L56.2295 640.721ZM1278.82 642.205L1258.82 642.688C1258.81 642.032 1258.79 641.376 1258.77 640.72L1278.76 640.173C1278.78 640.85 1278.8 641.527 1278.82 642.205ZM56.8623 625.017C56.8274 625.673 56.7926 626.331 56.7598 626.988L36.7852 625.99C36.8191 625.311 36.8545 624.633 36.8906 623.954L56.8623 625.017ZM1278.21 625.989L1258.24 626.987C1258.21 626.33 1258.17 625.672 1258.14 625.016L1278.11 623.953C1278.15 624.632 1278.18 625.31 1278.21 625.989ZM57.9053 609.27C57.8534 609.923 57.8027 610.577 57.7529 611.231L37.8105 609.715C37.862 609.039 37.9142 608.363 37.9678 607.688L57.9053 609.27ZM1277.19 609.714L1257.25 611.23C1257.2 610.576 1257.15 609.922 1257.09 609.269L1277.03 607.687C1277.09 608.362 1277.14 609.038 1277.19 609.714ZM59.3516 593.613C59.2824 594.268 59.2145 594.924 59.1475 595.58L39.251 593.546C39.3202 592.868 39.3905 592.191 39.4619 591.514L59.3516 593.613ZM1275.75 593.545L1255.85 595.579C1255.79 594.923 1255.72 594.267 1255.65 593.612L1275.54 591.514C1275.61 592.19 1275.68 592.868 1275.75 593.545ZM61.2129 577.951C61.127 578.601 61.0418 579.252 60.958 579.902L41.1221 577.348C41.2086 576.675 41.2961 576.004 41.3848 575.332L61.2129 577.951ZM1273.88 577.347L1254.04 579.901C1253.96 579.251 1253.87 578.6 1253.79 577.95L1273.62 575.331C1273.7 576.002 1273.79 576.675 1273.88 577.347ZM63.4766 562.387C63.3733 563.037 63.2711 563.687 63.1699 564.338L43.4072 561.266C43.5118 560.593 43.6169 559.921 43.7236 559.249L63.4766 562.387ZM1271.59 561.265L1251.83 564.337C1251.73 563.686 1251.63 563.036 1251.52 562.386L1271.28 559.248C1271.38 559.92 1271.49 560.592 1271.59 561.265ZM66.1533 546.853C66.0335 547.497 65.9146 548.142 65.7969 548.787L46.1221 545.195C46.2437 544.529 46.3664 543.862 46.4902 543.196L66.1533 546.853ZM1268.88 545.195L1249.2 548.786C1249.09 548.141 1248.97 547.496 1248.85 546.852L1268.51 543.196C1268.63 543.862 1268.76 544.529 1268.88 545.195ZM69.2324 531.422C69.0953 532.065 68.9593 532.709 68.8242 533.353L49.25 529.246C49.3896 528.581 49.5311 527.915 49.6729 527.25L69.2324 531.422ZM1265.75 529.245L1246.18 533.352C1246.04 532.708 1245.9 532.064 1245.77 531.421L1265.33 527.249C1265.47 527.914 1265.61 528.58 1265.75 529.245ZM72.7217 516.058C72.5682 516.695 72.4152 517.333 72.2637 517.971L52.8057 513.349C52.9622 512.689 53.1197 512.03 53.2783 511.372L72.7217 516.058ZM1262.19 513.348L1242.74 517.97C1242.58 517.332 1242.43 516.695 1242.28 516.058L1261.72 511.372C1261.88 512.03 1262.04 512.689 1262.19 513.348ZM76.6104 500.806C76.4396 501.44 76.2703 502.076 76.1016 502.711L56.7715 497.578C56.9459 496.921 57.1214 496.264 57.2979 495.608L76.6104 500.806ZM1258.23 497.577L1238.9 502.71C1238.73 502.074 1238.56 501.439 1238.39 500.805L1257.7 495.608C1257.88 496.264 1258.05 496.92 1258.23 497.577ZM80.9033 485.653C80.7165 486.281 80.5306 486.91 80.3457 487.539L61.1572 481.897C61.3483 481.248 61.5403 480.598 61.7334 479.949L80.9033 485.653ZM1253.84 481.896L1234.65 487.538C1234.47 486.909 1234.28 486.281 1234.1 485.653L1253.27 479.948C1253.46 480.597 1253.65 481.247 1253.84 481.896ZM85.5928 470.622C85.3889 471.246 85.1863 471.872 84.9844 472.497L65.9521 466.352C66.1608 465.705 66.3704 465.059 66.5811 464.414L85.5928 470.622ZM1249.05 466.351L1230.02 472.496C1229.81 471.871 1229.61 471.246 1229.41 470.621L1248.42 464.413C1248.63 465.058 1248.84 465.704 1249.05 466.351ZM90.6768 455.723C90.4571 456.34 90.2382 456.958 90.0205 457.576L71.1572 450.93C71.3822 450.291 71.608 449.653 71.835 449.016L90.6768 455.723ZM1243.84 450.93L1224.98 457.575C1224.76 456.957 1224.54 456.34 1224.32 455.723L1243.17 449.015C1243.39 449.652 1243.62 450.291 1243.84 450.93ZM96.1543 440.955C95.9179 441.567 95.6827 442.181 95.4482 442.794L76.7666 435.653C77.0089 435.019 77.2518 434.386 77.4961 433.753L96.1543 440.955ZM1238.23 435.653L1219.55 442.794C1219.32 442.181 1219.08 441.568 1218.85 440.955L1237.5 433.753C1237.75 434.386 1237.99 435.019 1238.23 435.653ZM102.016 426.349C101.764 426.953 101.513 427.559 101.263 428.164L82.7754 420.533C83.0337 419.907 83.2934 419.282 83.5537 418.657L102.016 426.349ZM1232.22 420.533L1213.74 428.164C1213.49 427.558 1213.24 426.953 1212.98 426.349L1231.45 418.657C1231.71 419.282 1231.97 419.907 1232.22 420.533ZM108.265 411.887C107.996 412.486 107.729 413.086 107.463 413.686L89.1836 405.57C89.4589 404.95 89.7355 404.331 90.0127 403.712L108.265 411.887ZM1225.82 405.57L1207.54 413.685C1207.27 413.085 1207 412.486 1206.73 411.887L1224.99 403.711C1225.26 404.33 1225.54 404.95 1225.82 405.57ZM114.886 397.611C114.602 398.202 114.32 398.793 114.038 399.385L95.9785 390.792C96.2694 390.181 96.5607 389.569 96.8535 388.959L114.886 397.611ZM1219.02 390.791L1200.96 399.385C1200.68 398.793 1200.4 398.202 1200.11 397.611L1218.15 388.959C1218.44 389.569 1218.73 390.18 1219.02 390.791ZM121.889 383.495C121.589 384.079 121.292 384.664 120.994 385.249L103.166 376.184C103.473 375.579 103.782 374.975 104.091 374.372L121.889 383.495ZM1211.83 376.184L1194.01 385.249C1193.71 384.664 1193.41 384.079 1193.11 383.495L1210.91 374.372C1211.22 374.975 1211.53 375.579 1211.83 376.184ZM129.252 369.585C128.937 370.161 128.623 370.738 128.311 371.315L110.727 361.786C111.05 361.19 111.374 360.593 111.699 359.998L129.252 369.585ZM1204.27 361.785L1186.69 371.315C1186.38 370.738 1186.06 370.161 1185.75 369.585L1203.3 359.998C1203.63 360.593 1203.95 361.189 1204.27 361.785ZM136.985 355.858C136.656 356.426 136.327 356.993 135.999 357.562L118.672 347.574C119.01 346.987 119.35 346.4 119.69 345.813L136.985 355.858ZM1196.33 347.574L1179 357.562C1178.67 356.993 1178.34 356.425 1178.01 355.857L1195.31 345.813C1195.65 346.4 1195.99 346.987 1196.33 347.574ZM145.069 342.349C144.725 342.908 144.381 343.468 144.038 344.028L126.979 333.59C127.333 333.011 127.688 332.433 128.044 331.855L145.069 342.349ZM1188.02 333.59L1170.96 344.027C1170.62 343.467 1170.28 342.908 1169.93 342.349L1186.96 331.854C1187.31 332.432 1187.67 333.011 1188.02 333.59ZM153.509 329.049C153.15 329.598 152.792 330.148 152.436 330.698L135.654 319.817C136.023 319.249 136.393 318.681 136.764 318.113L153.509 329.049ZM1179.35 319.817L1162.56 330.698C1162.21 330.148 1161.85 329.598 1161.49 329.049L1178.24 318.112C1178.61 318.68 1178.98 319.249 1179.35 319.817ZM162.291 315.978C161.918 316.518 161.545 317.058 161.174 317.6L144.683 306.284C145.066 305.725 145.451 305.166 145.837 304.608L162.291 315.978ZM1170.32 306.284L1153.83 317.6C1153.45 317.058 1153.08 316.518 1152.71 315.978L1169.16 304.608C1169.55 305.166 1169.93 305.725 1170.32 306.284ZM171.412 303.139C171.025 303.668 170.64 304.199 170.255 304.729L154.064 292.987C154.462 292.439 154.861 291.89 155.261 291.343L171.412 303.139ZM1160.94 292.987L1144.75 304.729C1144.36 304.198 1143.97 303.668 1143.59 303.139L1159.74 291.343C1160.14 291.89 1160.54 292.439 1160.94 292.987ZM180.866 290.542C180.465 291.062 180.065 291.582 179.666 292.104L163.788 279.942C164.2 279.404 164.613 278.866 165.027 278.329L180.866 290.542ZM1151.21 279.942L1135.33 292.104C1134.93 291.582 1134.53 291.062 1134.13 290.542L1149.97 278.329C1150.39 278.866 1150.8 279.404 1151.21 279.942ZM190.645 278.196C190.231 278.705 189.817 279.214 189.404 279.725L173.849 267.154C174.275 266.627 174.701 266.101 175.129 265.575L190.645 278.196ZM1141.15 267.154L1125.6 279.725C1125.18 279.214 1124.77 278.705 1124.36 278.196L1139.87 265.575C1140.3 266.101 1140.73 266.627 1141.15 267.154ZM200.742 266.108C200.315 266.607 199.888 267.105 199.462 267.604L184.239 254.634C184.679 254.118 185.119 253.602 185.561 253.088L200.742 266.108ZM1130.76 254.634L1115.54 267.604C1115.11 267.105 1114.69 266.607 1114.26 266.108L1129.44 253.088C1129.88 253.602 1130.32 254.118 1130.76 254.634ZM211.149 254.289C210.71 254.776 210.27 255.263 209.832 255.751L194.951 242.388C195.404 241.883 195.858 241.38 196.312 240.877L211.149 254.289ZM1120.05 242.388L1105.17 255.751C1104.73 255.263 1104.29 254.776 1103.85 254.289L1118.69 240.877C1119.14 241.38 1119.6 241.883 1120.05 242.388ZM221.862 242.742C221.41 243.217 220.958 243.694 220.507 244.171L205.979 230.425C206.445 229.932 206.912 229.44 207.38 228.949L221.862 242.742ZM1109.02 230.425L1094.49 244.171C1094.04 243.694 1093.59 243.217 1093.14 242.742L1107.62 228.949C1108.09 229.44 1108.55 229.932 1109.02 230.425ZM232.872 231.479C232.407 231.943 231.943 232.407 231.479 232.872L217.314 218.753C217.793 218.273 218.273 217.793 218.753 217.314L232.872 231.479ZM1097.69 218.753L1083.52 232.872C1083.06 232.407 1082.59 231.943 1082.13 231.479L1096.25 217.314C1096.73 217.793 1097.21 218.273 1097.69 218.753ZM244.171 220.507C243.694 220.958 243.217 221.41 242.742 221.862L228.949 207.38C229.44 206.912 229.932 206.445 230.425 205.979L244.171 220.507ZM1086.05 207.38L1072.26 221.862C1071.78 221.41 1071.31 220.958 1070.83 220.507L1084.58 205.979C1085.07 206.445 1085.56 206.912 1086.05 207.38ZM255.751 209.832C255.263 210.27 254.776 210.71 254.289 211.149L240.877 196.312C241.38 195.858 241.883 195.404 242.388 194.951L255.751 209.832ZM1074.12 196.312L1060.71 211.149C1060.22 210.71 1059.74 210.27 1059.25 209.832L1072.61 194.951C1073.12 195.404 1073.62 195.858 1074.12 196.312ZM267.604 199.462C267.105 199.888 266.607 200.315 266.108 200.742L253.088 185.561C253.602 185.119 254.118 184.679 254.634 184.239L267.604 199.462ZM1061.91 185.561L1048.89 200.742C1048.39 200.315 1047.9 199.888 1047.4 199.462L1060.37 184.239C1060.88 184.679 1061.4 185.119 1061.91 185.561ZM279.725 189.404C279.214 189.817 278.705 190.231 278.196 190.645L265.575 175.129C266.101 174.701 266.627 174.275 267.154 173.849L279.725 189.404ZM1049.42 175.129L1036.8 190.645C1036.29 190.231 1035.79 189.817 1035.28 189.404L1047.85 173.849C1048.37 174.275 1048.9 174.701 1049.42 175.129ZM292.104 179.666C291.582 180.065 291.062 180.465 290.542 180.866L278.329 165.027C278.866 164.613 279.404 164.2 279.942 163.788L292.104 179.666ZM1036.67 165.027L1024.46 180.866C1023.94 180.465 1023.42 180.065 1022.9 179.666L1035.06 163.788C1035.6 164.2 1036.13 164.613 1036.67 165.027ZM304.729 170.255C304.198 170.64 303.668 171.026 303.139 171.413L291.343 155.261C291.89 154.861 292.439 154.462 292.987 154.064L304.729 170.255ZM1023.66 155.261L1011.86 171.412C1011.33 171.025 1010.8 170.64 1010.27 170.255L1022.01 154.064C1022.56 154.462 1023.11 154.861 1023.66 155.261ZM317.6 161.174C317.058 161.545 316.518 161.918 315.978 162.291L304.608 145.837C305.166 145.451 305.725 145.066 306.284 144.683L317.6 161.174ZM1010.39 145.837L999.022 162.291C998.482 161.918 997.942 161.545 997.4 161.174L1008.72 144.683C1009.28 145.066 1009.83 145.451 1010.39 145.837ZM330.698 152.436C330.148 152.792 329.598 153.15 329.049 153.509L318.112 136.764C318.68 136.393 319.249 136.023 319.817 135.654L330.698 152.436ZM996.887 136.764L985.951 153.509C985.402 153.15 984.852 152.792 984.302 152.436L995.183 135.654C995.751 136.023 996.319 136.393 996.887 136.764ZM344.027 144.038C343.467 144.381 342.908 144.725 342.349 145.069L331.854 128.044C332.432 127.688 333.011 127.333 333.59 126.979L344.027 144.038ZM983.145 128.044L972.651 145.069C972.092 144.725 971.532 144.381 970.972 144.038L981.41 126.979C981.989 127.333 982.567 127.688 983.145 128.044ZM357.562 135.999C356.993 136.327 356.425 136.656 355.857 136.985L345.813 119.69C346.4 119.35 346.987 119.01 347.574 118.672L357.562 135.999ZM969.187 119.69L959.142 136.985C958.574 136.656 958.007 136.327 957.438 135.999L967.426 118.672C968.013 119.01 968.6 119.35 969.187 119.69ZM371.315 128.311C370.738 128.623 370.161 128.937 369.585 129.252L359.998 111.699C360.593 111.374 361.189 111.05 361.785 110.727L371.315 128.311ZM955.002 111.699L945.415 129.252C944.839 128.937 944.262 128.623 943.685 128.311L953.214 110.727C953.81 111.05 954.407 111.374 955.002 111.699ZM385.249 120.994C384.664 121.292 384.079 121.589 383.495 121.889L374.372 104.091C374.975 103.782 375.579 103.473 376.184 103.166L385.249 120.994ZM940.628 104.091L931.505 121.889C930.921 121.589 930.336 121.292 929.751 120.994L938.816 103.166C939.421 103.473 940.025 103.782 940.628 104.091ZM399.385 114.038C398.793 114.32 398.202 114.602 397.611 114.886L388.959 96.8545C389.569 96.5617 390.18 96.2694 390.791 95.9785L399.385 114.038ZM926.041 96.8535L917.389 114.886C916.798 114.602 916.207 114.32 915.615 114.038L924.208 95.9785C924.819 96.2694 925.431 96.5607 926.041 96.8535ZM413.685 107.463C413.085 107.729 412.486 107.997 411.887 108.266L403.711 90.0127C404.33 89.7354 404.95 89.4589 405.57 89.1836L413.685 107.463ZM911.288 90.0127L903.113 108.265C902.514 107.996 901.914 107.729 901.314 107.463L909.43 89.1836C910.05 89.4589 910.669 89.7355 911.288 90.0127ZM428.164 101.263C427.558 101.513 426.953 101.764 426.349 102.016L418.657 83.5537C419.282 83.2934 419.907 83.0337 420.533 82.7754L428.164 101.263ZM896.343 83.5537L888.651 102.016C888.047 101.764 887.441 101.513 886.836 101.263L894.467 82.7754C895.093 83.0337 895.718 83.2934 896.343 83.5537ZM442.794 95.4482C442.181 95.6827 441.568 95.9179 440.955 96.1543L433.753 77.4961C434.386 77.2518 435.019 77.0089 435.653 76.7666L442.794 95.4482ZM881.247 77.4961L874.045 96.1543C873.433 95.9179 872.819 95.6827 872.206 95.4482L879.347 76.7666C879.981 77.0089 880.614 77.2518 881.247 77.4961ZM457.575 90.0205C456.957 90.2382 456.34 90.4571 455.723 90.6768L449.015 71.835C449.652 71.6079 450.291 71.3823 450.93 71.1572L457.575 90.0205ZM865.984 71.835L859.277 90.6768C858.66 90.4571 858.042 90.2382 857.424 90.0205L864.07 71.1572C864.709 71.3822 865.347 71.608 865.984 71.835ZM472.496 84.9844C471.871 85.1863 471.246 85.3889 470.621 85.5928L464.413 66.5811C465.058 66.3703 465.704 66.1608 466.351 65.9521L472.496 84.9844ZM850.586 66.5811L844.378 85.5928C843.754 85.3889 843.128 85.1863 842.503 84.9844L848.648 65.9521C849.295 66.1608 849.941 66.3704 850.586 66.5811ZM487.538 80.3457C486.909 80.5305 486.281 80.7165 485.653 80.9033L479.948 61.7334C480.597 61.5403 481.247 61.3483 481.896 61.1572L487.538 80.3457ZM835.051 61.7334L829.347 80.9033C828.719 80.7165 828.09 80.5306 827.461 80.3457L833.103 61.1572C833.752 61.3483 834.402 61.5403 835.051 61.7334ZM502.71 76.1016C502.074 76.2703 501.439 76.4406 500.805 76.6113L495.608 57.2979C496.264 57.1214 496.92 56.9459 497.577 56.7715L502.71 76.1016ZM819.392 57.2979L814.194 76.6104C813.56 76.4396 812.924 76.2703 812.289 76.1016L817.422 56.7715C818.079 56.9459 818.736 57.1214 819.392 57.2979ZM517.97 72.2646C517.332 72.4161 516.695 72.5682 516.058 72.7217L511.372 53.2783C512.03 53.1197 512.689 52.9622 513.348 52.8057L517.97 72.2646ZM803.628 53.2783L798.942 72.7217C798.305 72.5682 797.667 72.4152 797.029 72.2637L801.651 52.8057C802.311 52.9622 802.97 53.1197 803.628 53.2783ZM533.352 68.8242C532.708 68.9593 532.064 69.0953 531.421 69.2324L527.249 49.6729C527.914 49.5311 528.58 49.3906 529.245 49.251L533.352 68.8242ZM787.75 49.6729L783.578 69.2324C782.935 69.0953 782.291 68.9593 781.647 68.8242L785.754 49.25C786.419 49.3896 787.085 49.5311 787.75 49.6729ZM548.786 65.7969C548.141 65.9146 547.496 66.0335 546.852 66.1533L543.196 46.4902C543.862 46.3664 544.529 46.2437 545.195 46.1221L548.786 65.7969ZM771.804 46.4902L768.147 66.1533C767.503 66.0335 766.858 65.9146 766.213 65.7969L769.805 46.1221C770.471 46.2437 771.138 46.3664 771.804 46.4902ZM564.337 63.1699C563.686 63.2711 563.036 63.3733 562.386 63.4766L559.248 43.7236C559.92 43.6169 560.592 43.5118 561.265 43.4072L564.337 63.1699ZM755.751 43.7236L752.613 63.4766C751.963 63.3733 751.313 63.2711 750.662 63.1699L753.734 43.4072C754.407 43.5118 755.079 43.6169 755.751 43.7236ZM579.901 60.958C579.251 61.0418 578.6 61.127 577.95 61.2129L575.331 41.3848C576.002 41.2961 576.675 41.2086 577.347 41.1221L579.901 60.958ZM739.668 41.3848L737.049 61.2129C736.399 61.127 735.748 61.0418 735.098 60.958L737.652 41.1221C738.325 41.2086 738.996 41.2961 739.668 41.3848ZM595.579 59.1475C594.923 59.2145 594.267 59.2824 593.612 59.3516L591.514 39.4629C592.19 39.3915 592.868 39.3202 593.545 39.251L595.579 59.1475ZM723.486 39.4619L721.387 59.3516C720.732 59.2824 720.076 59.2145 719.42 59.1475L721.454 39.251C722.132 39.3202 722.809 39.3905 723.486 39.4619ZM611.23 57.7529C610.576 57.8027 609.922 57.8534 609.269 57.9053L607.687 37.9678C608.362 37.9142 609.038 37.862 609.714 37.8105L611.23 57.7529ZM707.312 37.9678L705.73 57.9053C705.077 57.8534 704.423 57.8027 703.769 57.7529L705.285 37.8105C705.961 37.862 706.637 37.9142 707.312 37.9678ZM626.987 56.7607C626.33 56.7936 625.672 56.8274 625.016 56.8623L623.953 36.8906C624.632 36.8545 625.31 36.8191 625.989 36.7852L626.987 56.7607ZM691.046 36.8906L689.983 56.8623C689.327 56.8274 688.669 56.7926 688.012 56.7598L689.01 36.7852C689.689 36.8191 690.367 36.8545 691.046 36.8906ZM642.688 56.1787C642.032 56.1946 641.376 56.2115 640.72 56.2295L640.173 36.2373C640.85 36.2188 641.527 36.2009 642.205 36.1846L642.688 56.1787ZM674.826 36.2373L674.279 56.2295C673.623 56.2115 672.967 56.1946 672.311 56.1787L672.794 36.1846C673.472 36.2009 674.149 36.2188 674.826 36.2373ZM658.521 36.001L658.489 56.001C658.16 56.0004 657.83 56 657.5 56C657.17 56 656.84 56.0004 656.51 56.001L656.478 36.001C656.818 36.0004 657.159 36 657.5 36C657.841 36 658.181 36.0004 658.521 36.001Z" fill="white"/>
<circle cx="1309" cy="658" r="6" fill="white"/>
<circle cx="6" cy="658" r="6" fill="white"/>
<circle cx="657.5" cy="1309.5" r="6" transform="rotate(90 657.5 1309.5)" fill="white"/>
<circle cx="657.5" cy="6.5" r="6" transform="rotate(90 657.5 6.5)" fill="white"/>
<circle cx="1118.18" cy="1118.68" r="6" transform="rotate(45 1118.18 1118.68)" fill="white"/>
<circle cx="196.82" cy="197.32" r="6" transform="rotate(45 196.82 197.32)" fill="white"/>
<circle cx="196.82" cy="1118.68" r="6" transform="rotate(135 196.82 1118.68)" fill="white"/>
<circle cx="1118.18" cy="197.32" r="6" transform="rotate(135 1118.18 197.32)" fill="white"/>
</svg>
