<svg width="32" height="32" viewBox="0 0 32 32" fill="none" xmlns="http://www.w3.org/2000/svg">
<path d="M2 9.34644H12.0385" stroke="#0062FF" stroke-linecap="round"/>
<path d="M2 16.0386H6.46154" stroke="#0062FF" stroke-linecap="round"/>
<path d="M19.4439 8.04551C20.013 6.6515 21.987 6.6515 22.5562 8.04551L23.6103 10.6273C24.1225 11.8819 25.1181 12.8775 26.3727 13.3897L28.9545 14.4438C30.3485 15.013 30.3485 16.987 28.9545 17.5562L26.3727 18.6103C25.1181 19.1225 24.1225 20.1181 23.6103 21.3727L22.5561 23.9545C21.987 25.3485 20.013 25.3485 19.4438 23.9545L18.3897 21.3727C17.8775 20.1181 16.8819 19.1225 15.6273 18.6103L13.0455 17.5561C11.6515 16.987 11.6515 15.013 13.0455 14.4438L15.6273 13.3897C16.8819 12.8775 17.8775 11.8819 18.3897 10.6273L19.4439 8.04551Z" fill="#0062FF"/>
<path d="M2 22.731H12.0385" stroke="#0062FF" stroke-linecap="round"/>
</svg>
