<svg width="1240" height="132" viewBox="0 0 1240 132" fill="none" xmlns="http://www.w3.org/2000/svg">
<path d="M126.168 18.7617V171.037H95.6608V106.243H30.5068V171.037H0V18.7617H30.5068V81.3733H95.6608V18.7617H126.168Z" fill="url(#paint0_linear_317_1568)"/>
<path d="M148.35 110.17C148.35 97.9533 150.747 87.1181 155.541 77.6646C160.48 68.211 167.09 60.9391 175.37 55.8487C183.796 50.7583 193.166 48.2131 203.48 48.2131C212.487 48.2131 220.331 50.0311 227.014 53.6671C233.842 57.3031 239.289 61.8844 243.357 67.4111V50.1765H274.082V171.037H243.357V153.366C239.435 159.038 233.987 163.765 227.014 167.546C220.186 171.182 212.269 173 203.262 173C193.093 173 183.796 170.382 175.37 165.146C167.09 159.91 160.48 152.566 155.541 143.112C150.747 133.513 148.35 122.533 148.35 110.17ZM243.357 110.607C243.357 103.189 241.904 96.8625 238.999 91.6267C236.093 86.2455 232.171 82.1732 227.232 79.4099C222.293 76.5011 216.99 75.0467 211.325 75.0467C205.659 75.0467 200.429 76.4283 195.635 79.1917C190.842 81.955 186.919 86.0273 183.869 91.4086C180.963 96.6444 179.51 102.898 179.51 110.17C179.51 117.442 180.963 123.842 183.869 129.368C186.919 134.749 190.842 138.895 195.635 141.803C200.575 144.712 205.804 146.166 211.325 146.166C216.99 146.166 222.293 144.785 227.232 142.021C232.171 139.113 236.093 135.04 238.999 129.805C241.904 124.423 243.357 118.024 243.357 110.607Z" fill="url(#paint1_linear_317_1568)"/>
<path d="M359.225 75.2648H338.088V171.037H307.146V75.2648H293.417V50.1765H307.146V44.0681C307.146 29.2333 311.358 18.3254 319.784 11.3443C328.21 4.36318 340.921 1.0908 357.918 1.52712V27.2699C350.509 27.1244 345.352 28.3607 342.446 30.9786C339.541 33.5965 338.088 38.3232 338.088 45.1589V50.1765H359.225V75.2648Z" fill="url(#paint2_linear_317_1568)"/>
<path d="M394.466 35.7781C389.091 35.7781 384.588 34.1055 380.956 30.7604C377.47 27.2699 375.726 22.9794 375.726 17.889C375.726 12.7987 377.47 8.58092 380.956 5.23581C384.588 1.74527 389.091 0 394.466 0C399.841 0 404.272 1.74527 407.759 5.23581C411.39 8.58092 413.206 12.7987 413.206 17.889C413.206 22.9794 411.39 27.2699 407.759 30.7604C404.272 34.1055 399.841 35.7781 394.466 35.7781ZM409.502 50.1765V171.037H378.995V50.1765H409.502Z" fill="url(#paint3_linear_317_1568)"/>
<path d="M431.798 110.17C431.798 97.9533 434.195 87.1181 438.989 77.6646C443.928 68.211 450.611 60.9391 459.036 55.8487C467.462 50.7583 476.832 48.2131 487.146 48.2131C494.991 48.2131 502.472 49.9584 509.59 53.4489C516.709 56.794 522.374 61.3026 526.587 66.9748V9.599H557.53V171.037H526.587V153.148C522.81 159.111 517.508 163.91 510.68 167.546C503.852 171.182 495.935 173 486.928 173C476.759 173 467.462 170.382 459.036 165.146C450.611 159.91 443.928 152.566 438.989 143.112C434.195 133.513 431.798 122.533 431.798 110.17ZM526.805 110.607C526.805 103.189 525.352 96.8625 522.447 91.6267C519.542 86.2455 515.619 82.1732 510.68 79.4099C505.741 76.5011 500.438 75.0467 494.773 75.0467C489.107 75.0467 483.878 76.4283 479.084 79.1917C474.29 81.955 470.367 86.0273 467.317 91.4086C464.411 96.6444 462.959 102.898 462.959 110.17C462.959 117.442 464.411 123.842 467.317 129.368C470.367 134.749 474.29 138.895 479.084 141.803C484.023 144.712 489.253 146.166 494.773 146.166C500.438 146.166 505.741 144.785 510.68 142.021C515.619 139.113 519.542 135.04 522.447 129.805C525.352 124.423 526.805 118.024 526.805 110.607Z" fill="url(#paint4_linear_317_1568)"/>
<path d="M760.186 18.7617L708.76 118.024V171.037H678.253V118.024L626.61 18.7617H661.039L693.725 88.3544L726.193 18.7617H760.186Z" fill="url(#paint5_linear_317_1568)"/>
<path d="M891.745 50.1765V171.037H861.02V155.765C857.098 161.001 851.941 165.146 845.549 168.2C839.302 171.109 832.475 172.564 825.066 172.564C815.623 172.564 807.27 170.6 800.007 166.673C792.743 162.601 787.005 156.711 782.792 149.003C778.724 141.149 776.691 131.841 776.691 121.078V50.1765H807.198V116.715C807.198 126.314 809.595 133.731 814.388 138.967C819.182 144.058 825.72 146.603 834 146.603C842.426 146.603 849.036 144.058 853.829 138.967C858.623 133.731 861.02 126.314 861.02 116.715V50.1765H891.745Z" fill="url(#paint6_linear_317_1568)"/>
<path d="M968.041 173C958.163 173 949.301 171.255 941.457 167.764C933.612 164.128 927.365 159.256 922.717 153.148C918.213 147.039 915.744 140.276 915.308 132.859H946.033C946.614 137.513 948.865 141.367 952.788 144.421C956.855 147.475 961.867 149.003 967.823 149.003C973.634 149.003 978.138 147.839 981.333 145.512C984.675 143.185 986.345 140.203 986.345 136.567C986.345 132.641 984.311 129.732 980.244 127.841C976.322 125.805 970.002 123.623 961.286 121.296C952.279 119.115 944.871 116.86 939.06 114.533C933.394 112.206 928.455 108.643 924.242 103.844C920.175 99.0441 918.141 92.5721 918.141 84.4275C918.141 77.7373 920.029 71.6288 923.806 66.1021C927.729 60.5754 933.249 56.2123 940.367 53.0126C947.631 49.813 956.129 48.2131 965.862 48.2131C980.244 48.2131 991.72 51.8491 1000.29 59.1211C1008.86 66.2476 1013.58 75.9193 1014.46 88.1362H985.256C984.82 83.3367 982.786 79.5553 979.154 76.7919C975.668 73.8831 970.947 72.4287 964.991 72.4287C959.47 72.4287 955.185 73.4468 952.134 75.483C949.229 77.5191 947.776 80.3552 947.776 83.9912C947.776 88.0635 949.81 91.1904 953.877 93.372C957.945 95.4082 964.264 97.517 972.835 99.6986C981.551 101.88 988.742 104.135 994.408 106.462C1000.07 108.789 1004.94 112.425 1009.01 117.369C1013.22 122.169 1015.4 128.568 1015.54 136.567C1015.54 143.549 1013.58 149.802 1009.66 155.329C1005.88 160.856 1000.36 165.219 993.1 168.419C985.982 171.473 977.629 173 968.041 173Z" fill="url(#paint7_linear_317_1568)"/>
<path d="M1154.55 50.1765V171.037H1123.83V155.765C1119.9 161.001 1114.75 165.146 1108.36 168.2C1102.11 171.109 1095.28 172.564 1087.87 172.564C1078.43 172.564 1070.08 170.6 1062.81 166.673C1055.55 162.601 1049.81 156.711 1045.6 149.003C1041.53 141.149 1039.5 131.841 1039.5 121.078V50.1765H1070V116.715C1070 126.314 1072.4 133.731 1077.2 138.967C1081.99 144.058 1088.53 146.603 1096.81 146.603C1105.23 146.603 1111.84 144.058 1116.64 138.967C1121.43 133.731 1123.83 126.314 1123.83 116.715V50.1765H1154.55Z" fill="url(#paint8_linear_317_1568)"/>
<path d="M1240 75.2648H1218.86V171.037H1187.92V75.2648H1174.19V50.1765H1187.92V44.0681C1187.92 29.2333 1192.13 18.3254 1200.56 11.3443C1208.98 4.36318 1221.7 1.0908 1238.69 1.52712V27.2699C1231.28 27.1244 1226.13 28.3607 1223.22 30.9786C1220.32 33.5965 1218.86 38.3232 1218.86 45.1589V50.1765H1240V75.2648Z" fill="url(#paint9_linear_317_1568)"/>
<defs>
<linearGradient id="paint0_linear_317_1568" x1="615.105" y1="-68.9677" x2="615.105" y2="130.934" gradientUnits="userSpaceOnUse">
<stop stop-color="white"/>
<stop offset="1" stop-color="white" stop-opacity="0"/>
</linearGradient>
<linearGradient id="paint1_linear_317_1568" x1="615.105" y1="-68.9677" x2="615.105" y2="130.934" gradientUnits="userSpaceOnUse">
<stop stop-color="white"/>
<stop offset="1" stop-color="white" stop-opacity="0"/>
</linearGradient>
<linearGradient id="paint2_linear_317_1568" x1="615.105" y1="-68.9677" x2="615.105" y2="130.934" gradientUnits="userSpaceOnUse">
<stop stop-color="white"/>
<stop offset="1" stop-color="white" stop-opacity="0"/>
</linearGradient>
<linearGradient id="paint3_linear_317_1568" x1="615.105" y1="-68.9677" x2="615.105" y2="130.934" gradientUnits="userSpaceOnUse">
<stop stop-color="white"/>
<stop offset="1" stop-color="white" stop-opacity="0"/>
</linearGradient>
<linearGradient id="paint4_linear_317_1568" x1="615.105" y1="-68.9677" x2="615.105" y2="130.934" gradientUnits="userSpaceOnUse">
<stop stop-color="white"/>
<stop offset="1" stop-color="white" stop-opacity="0"/>
</linearGradient>
<linearGradient id="paint5_linear_317_1568" x1="615.105" y1="-68.9677" x2="615.105" y2="130.934" gradientUnits="userSpaceOnUse">
<stop stop-color="white"/>
<stop offset="1" stop-color="white" stop-opacity="0"/>
</linearGradient>
<linearGradient id="paint6_linear_317_1568" x1="615.105" y1="-68.9677" x2="615.105" y2="130.934" gradientUnits="userSpaceOnUse">
<stop stop-color="white"/>
<stop offset="1" stop-color="white" stop-opacity="0"/>
</linearGradient>
<linearGradient id="paint7_linear_317_1568" x1="615.105" y1="-68.9677" x2="615.105" y2="130.934" gradientUnits="userSpaceOnUse">
<stop stop-color="white"/>
<stop offset="1" stop-color="white" stop-opacity="0"/>
</linearGradient>
<linearGradient id="paint8_linear_317_1568" x1="615.105" y1="-68.9677" x2="615.105" y2="130.934" gradientUnits="userSpaceOnUse">
<stop stop-color="white"/>
<stop offset="1" stop-color="white" stop-opacity="0"/>
</linearGradient>
<linearGradient id="paint9_linear_317_1568" x1="615.105" y1="-68.9677" x2="615.105" y2="130.934" gradientUnits="userSpaceOnUse">
<stop stop-color="white"/>
<stop offset="1" stop-color="white" stop-opacity="0"/>
</linearGradient>
</defs>
</svg>
