<svg width="117" height="24" viewBox="0 0 117 24" fill="none" xmlns="http://www.w3.org/2000/svg">
<path d="M2.66797 3.55561C2.66797 2.57377 3.46391 1.77783 4.44575 1.77783L8.89019 1.77783V8.00005C8.89019 8.98189 8.09425 9.77783 7.11241 9.77783H2.66797L2.66797 3.55561Z" fill="#0062FF"/>
<path d="M15.1094 15.9999C15.1094 15.0181 15.9053 14.2222 16.8872 14.2222L21.3316 14.2222V20.4444C21.3316 21.4262 20.5357 22.2222 19.5538 22.2222H15.1094L15.1094 15.9999Z" fill="#0062FF"/>
<path d="M21.335 8.00049C21.3347 8.98202 20.5391 9.77763 19.5576 9.77783H18.668L17.4951 9.78076C15.113 9.80505 15.1133 9.99987 15.1133 11.5552L15.1123 11.5542V12.4448C15.1121 13.4265 14.3167 14.2222 13.335 14.2222H12.4453C8.8909 14.2222 8.88965 14.2224 8.88965 17.7778V20.4448C8.88941 21.4265 8.09399 22.2222 7.1123 22.2222H2.66797V15.9995C2.6682 15.018 3.46376 14.2223 4.44531 14.2222H5.33496C8.88989 14.2222 8.88965 14.2222 8.88965 12.4448H8.89062V11.5552C8.89086 10.5737 9.68645 9.77804 10.668 9.77783H11.5576C15.112 9.77783 15.1133 9.7776 15.1133 6.22217V3.55518C15.1135 2.57355 15.9089 1.77783 16.8906 1.77783H21.335V8.00049Z" fill="#0062FF"/>
<path d="M39.72 7.53V18H37.62V13.545H33.135V18H31.035V7.53H33.135V11.835H37.62V7.53H39.72ZM41.247 13.815C41.247 12.975 41.412 12.23 41.742 11.58C42.082 10.93 42.537 10.43 43.107 10.08C43.687 9.73 44.332 9.555 45.042 9.555C45.662 9.555 46.202 9.68 46.662 9.93C47.132 10.18 47.507 10.495 47.787 10.875V9.69H49.902V18H47.787V16.785C47.517 17.175 47.142 17.5 46.662 17.76C46.192 18.01 45.647 18.135 45.027 18.135C44.327 18.135 43.687 17.955 43.107 17.595C42.537 17.235 42.082 16.73 41.742 16.08C41.412 15.42 41.247 14.665 41.247 13.815ZM47.787 13.845C47.787 13.335 47.687 12.9 47.487 12.54C47.287 12.17 47.017 11.89 46.677 11.7C46.337 11.5 45.972 11.4 45.582 11.4C45.192 11.4 44.832 11.495 44.502 11.685C44.172 11.875 43.902 12.155 43.692 12.525C43.492 12.885 43.392 13.315 43.392 13.815C43.392 14.315 43.492 14.755 43.692 15.135C43.902 15.505 44.172 15.79 44.502 15.99C44.842 16.19 45.202 16.29 45.582 16.29C45.972 16.29 46.337 16.195 46.677 16.005C47.017 15.805 47.287 15.525 47.487 15.165C47.687 14.795 47.787 14.355 47.787 13.845ZM55.763 11.415H54.308V18H52.178V11.415H51.233V9.69H52.178V9.27C52.178 8.25 52.468 7.5 53.048 7.02C53.628 6.54 54.503 6.315 55.673 6.345V8.115C55.163 8.105 54.808 8.19 54.608 8.37C54.408 8.55 54.308 8.875 54.308 9.345V9.69H55.763V11.415ZM58.1889 8.7C57.8189 8.7 57.5089 8.585 57.2589 8.355C57.0189 8.115 56.8989 7.82 56.8989 7.47C56.8989 7.12 57.0189 6.83 57.2589 6.6C57.5089 6.36 57.8189 6.24 58.1889 6.24C58.5589 6.24 58.8639 6.36 59.1039 6.6C59.3539 6.83 59.4789 7.12 59.4789 7.47C59.4789 7.82 59.3539 8.115 59.1039 8.355C58.8639 8.585 58.5589 8.7 58.1889 8.7ZM59.2239 9.69V18H57.1239V9.69H59.2239ZM60.7587 13.815C60.7587 12.975 60.9237 12.23 61.2537 11.58C61.5937 10.93 62.0537 10.43 62.6337 10.08C63.2137 9.73 63.8587 9.555 64.5687 9.555C65.1087 9.555 65.6237 9.675 66.1137 9.915C66.6037 10.145 66.9937 10.455 67.2837 10.845V6.9H69.4137V18H67.2837V16.77C67.0237 17.18 66.6587 17.51 66.1887 17.76C65.7187 18.01 65.1737 18.135 64.5537 18.135C63.8537 18.135 63.2137 17.955 62.6337 17.595C62.0537 17.235 61.5937 16.73 61.2537 16.08C60.9237 15.42 60.7587 14.665 60.7587 13.815ZM67.2987 13.845C67.2987 13.335 67.1987 12.9 66.9987 12.54C66.7987 12.17 66.5287 11.89 66.1887 11.7C65.8487 11.5 65.4837 11.4 65.0937 11.4C64.7037 11.4 64.3437 11.495 64.0137 11.685C63.6837 11.875 63.4137 12.155 63.2037 12.525C63.0037 12.885 62.9037 13.315 62.9037 13.815C62.9037 14.315 63.0037 14.755 63.2037 15.135C63.4137 15.505 63.6837 15.79 64.0137 15.99C64.3537 16.19 64.7137 16.29 65.0937 16.29C65.4837 16.29 65.8487 16.195 66.1887 16.005C66.5287 15.805 66.7987 15.525 66.9987 15.165C67.1987 14.795 67.2987 14.355 67.2987 13.845ZM83.3639 7.53L79.8239 14.355V18H77.7239V14.355L74.1689 7.53H76.5389L78.7889 12.315L81.0239 7.53H83.3639ZM92.42 9.69V18H90.305V16.95C90.035 17.31 89.68 17.595 89.24 17.805C88.81 18.005 88.34 18.105 87.83 18.105C87.18 18.105 86.605 17.97 86.105 17.7C85.605 17.42 85.21 17.015 84.92 16.485C84.64 15.945 84.5 15.305 84.5 14.565V9.69H86.6V14.265C86.6 14.925 86.765 15.435 87.095 15.795C87.425 16.145 87.875 16.32 88.445 16.32C89.025 16.32 89.48 16.145 89.81 15.795C90.14 15.435 90.305 14.925 90.305 14.265V9.69H92.42ZM97.672 18.135C96.992 18.135 96.382 18.015 95.842 17.775C95.302 17.525 94.872 17.19 94.552 16.77C94.242 16.35 94.072 15.885 94.042 15.375H96.157C96.197 15.695 96.352 15.96 96.622 16.17C96.902 16.38 97.247 16.485 97.657 16.485C98.057 16.485 98.367 16.405 98.587 16.245C98.817 16.085 98.932 15.88 98.932 15.63C98.932 15.36 98.792 15.16 98.512 15.03C98.242 14.89 97.807 14.74 97.207 14.58C96.587 14.43 96.077 14.275 95.677 14.115C95.287 13.955 94.947 13.71 94.657 13.38C94.377 13.05 94.237 12.605 94.237 12.045C94.237 11.585 94.367 11.165 94.627 10.785C94.897 10.405 95.277 10.105 95.767 9.885C96.267 9.665 96.852 9.555 97.522 9.555C98.512 9.555 99.302 9.805 99.892 10.305C100.482 10.795 100.807 11.46 100.867 12.3H98.857C98.827 11.97 98.687 11.71 98.437 11.52C98.197 11.32 97.872 11.22 97.462 11.22C97.082 11.22 96.787 11.29 96.577 11.43C96.377 11.57 96.277 11.765 96.277 12.015C96.277 12.295 96.417 12.51 96.697 12.66C96.977 12.8 97.412 12.945 98.002 13.095C98.602 13.245 99.097 13.4 99.487 13.56C99.877 13.72 100.212 13.97 100.492 14.31C100.782 14.64 100.932 15.08 100.942 15.63C100.942 16.11 100.807 16.54 100.537 16.92C100.277 17.3 99.897 17.6 99.397 17.82C98.907 18.03 98.332 18.135 97.672 18.135ZM110.511 9.69V18H108.396V16.95C108.126 17.31 107.771 17.595 107.331 17.805C106.901 18.005 106.431 18.105 105.921 18.105C105.271 18.105 104.696 17.97 104.196 17.7C103.696 17.42 103.301 17.015 103.011 16.485C102.731 15.945 102.591 15.305 102.591 14.565V9.69H104.691V14.265C104.691 14.925 104.856 15.435 105.186 15.795C105.516 16.145 105.966 16.32 106.536 16.32C107.116 16.32 107.571 16.145 107.901 15.795C108.231 15.435 108.396 14.925 108.396 14.265V9.69H110.511ZM116.393 11.415H114.938V18H112.808V11.415H111.863V9.69H112.808V9.27C112.808 8.25 113.098 7.5 113.678 7.02C114.258 6.54 115.133 6.315 116.303 6.345V8.115C115.793 8.105 115.438 8.19 115.238 8.37C115.038 8.55 114.938 8.875 114.938 9.345V9.69H116.393V11.415Z" fill="#2A2B3C"/>
</svg>
