<svg width="42" height="42" viewBox="0 0 42 42" fill="none" xmlns="http://www.w3.org/2000/svg">
<path d="M4.66406 6.22268C4.66406 4.50446 6.05695 3.11157 7.77517 3.11157L15.553 3.11157L15.553 14.0005C15.553 15.7187 14.1601 17.1116 12.4418 17.1116H4.66406L4.66406 6.22268Z" fill="#0062FF"/>
<path d="M26.4453 28.001C26.4453 26.2828 27.8382 24.8899 29.5564 24.8899H37.3342V35.7788C37.3342 37.497 35.9413 38.8899 34.2231 38.8899H26.4453L26.4453 28.001Z" fill="#0062FF"/>
<path d="M37.3369 14.0002C37.3369 15.7184 35.9438 17.1115 34.2256 17.1116H32.666L32.667 17.1125C26.867 17.1125 26.474 17.1121 26.4473 19.6321V21.7786C26.4473 23.4967 25.055 24.8897 23.3369 24.8899H21.7793C15.5585 24.8899 15.5576 24.8904 15.5576 31.1125V35.7795C15.5574 37.4975 14.1643 38.8898 12.4463 38.8899H4.66797V28.0012C4.66802 26.2831 6.06121 24.89 7.7793 24.8899H9.33496C15.5569 24.8899 15.5576 24.8902 15.5576 21.7795H15.5586V20.2229C15.5588 18.5049 16.9518 17.1126 18.6699 17.1125H20.2227C26.4435 17.1125 26.4453 17.1121 26.4453 10.8899L26.4473 10.8918V6.2229C26.4473 4.50478 27.8405 3.1117 29.5586 3.11157H37.3369V14.0002Z" fill="#0062FF"/>
</svg>
