<svg width="27" height="22" viewBox="0 0 27 22" fill="none" xmlns="http://www.w3.org/2000/svg">
<path d="M9.19149 0L10.3404 1.73685C9.53617 2.54737 8.84681 3.3579 8.27234 4.16842C7.2383 5.67369 6.08936 7.7579 5.74468 10.4211C9.30638 10.4211 11.4894 12.6211 11.4894 16.2105C11.4894 19.8 9.30638 22 5.74468 22C2.18298 22 0 19.8 0 16.2105C0 10.7684 2.29787 6.6 4.59574 3.93685C5.97447 2.43158 7.46809 1.04211 9.19149 0ZM24.7021 0L25.8511 1.73685C25.0468 2.54737 24.3574 3.3579 23.783 4.16842C22.7489 5.67369 21.6 7.7579 21.2553 10.4211C24.817 10.4211 27 12.6211 27 16.2105C27 19.8 24.817 22 21.2553 22C17.6936 22 15.5106 19.8 15.5106 16.2105C15.5106 10.7684 17.8085 6.6 20.1064 3.93685C21.4851 2.43158 22.9787 1.04211 24.7021 0Z" fill="#0062FF"/>
</svg>
