<svg width="1053" height="1053" viewBox="0 0 1053 1053" fill="none" xmlns="http://www.w3.org/2000/svg">
<circle cx="1047" cy="527" r="6" fill="white"/>
<circle cx="6" cy="527" r="6" fill="white"/>
<circle cx="527" cy="1047" r="6" fill="white"/>
<circle cx="527" cy="6" r="6" fill="white"/>
<circle cx="894.196" cy="894.902" r="6" transform="rotate(45 894.196 894.902)" fill="white"/>
<circle cx="158.097" cy="158.805" r="6" transform="rotate(45 158.097 158.805)" fill="white"/>
<circle cx="158.804" cy="894.902" r="6" transform="rotate(45 158.804 894.902)" fill="white"/>
<circle cx="894.903" cy="158.805" r="6" transform="rotate(45 894.903 158.805)" fill="white"/>
<path d="M527.53 1017C527.187 1017 526.843 1017 526.5 1017C526.157 1017 525.813 1017 525.47 1017L525.511 996.999C525.84 997 526.17 997 526.5 997C526.83 997 527.16 997 527.489 996.999L527.53 1017ZM511.721 996.772L511.104 1016.76C510.422 1016.74 509.741 1016.72 509.06 1016.7L509.758 996.708C510.411 996.731 511.066 996.752 511.721 996.772ZM543.94 1016.7C543.259 1016.72 542.578 1016.74 541.896 1016.76L541.279 996.772C541.934 996.752 542.589 996.731 543.242 996.708L543.94 1016.7ZM496.017 996.028L494.74 1015.99C494.057 1015.94 493.374 1015.9 492.691 1015.85L494.051 995.898C494.706 995.943 495.361 995.986 496.017 996.028ZM560.309 1015.85C559.626 1015.9 558.943 1015.94 558.26 1015.99L556.983 996.028C557.639 995.986 558.294 995.943 558.949 995.898L560.309 1015.85ZM480.354 994.767L478.416 1014.67C477.739 1014.61 477.062 1014.54 476.386 1014.47L478.405 994.573C479.054 994.639 479.704 994.703 480.354 994.767ZM576.614 1014.47C575.938 1014.54 575.261 1014.61 574.584 1014.67L572.646 994.767C573.296 994.703 573.946 994.639 574.595 994.573L576.614 1014.47ZM464.711 992.98L462.11 1012.81C461.434 1012.72 460.757 1012.63 460.081 1012.54L462.765 992.721C463.413 992.808 464.062 992.895 464.711 992.98ZM592.919 1012.54C592.243 1012.63 591.566 1012.72 590.89 1012.81L588.289 992.98C588.938 992.895 589.587 992.808 590.235 992.721L592.919 1012.54ZM449.164 990.676L445.901 1010.41C445.226 1010.3 444.55 1010.18 443.876 1010.07L447.222 990.351C447.869 990.46 448.516 990.569 449.164 990.676ZM609.124 1010.07C608.45 1010.18 607.774 1010.3 607.099 1010.41L603.837 990.676C604.485 990.569 605.132 990.46 605.778 990.351L609.124 1010.07ZM433.704 987.854L429.782 1007.46C429.114 1007.33 428.447 1007.2 427.78 1007.06L431.784 987.465C432.424 987.596 433.064 987.725 433.704 987.854ZM625.22 1007.06C624.553 1007.2 623.886 1007.33 623.218 1007.46L619.296 987.854C619.936 987.725 620.576 987.596 621.216 987.465L625.22 1007.06ZM418.328 984.508L413.747 1003.98C413.083 1003.82 412.418 1003.66 411.755 1003.5L416.417 984.054C417.053 984.206 417.691 984.358 418.328 984.508ZM641.245 1003.5C640.582 1003.66 639.917 1003.82 639.253 1003.98L634.673 984.508C635.31 984.358 635.947 984.206 636.583 984.054L641.245 1003.5ZM403.091 980.651L397.857 999.955C397.197 999.776 396.537 999.596 395.878 999.414L401.192 980.133C401.824 980.307 402.458 980.48 403.091 980.651ZM657.122 999.414C656.463 999.596 655.803 999.776 655.143 999.955L649.91 980.651C650.543 980.48 651.176 980.307 651.808 980.133L657.122 999.414ZM387.995 976.285L382.115 995.401C381.463 995.201 380.811 994.999 380.16 994.796L386.12 975.704C386.744 975.899 387.37 976.093 387.995 976.285ZM672.84 994.796C672.189 994.999 671.537 995.201 670.885 995.401L665.005 976.285C665.63 976.093 666.256 975.899 666.88 975.704L672.84 994.796ZM373.037 971.407L366.517 990.314C365.871 990.092 365.226 989.868 364.582 989.643L371.182 970.763C371.799 970.979 372.418 971.194 373.037 971.407ZM688.418 989.643C687.774 989.868 687.129 990.092 686.483 990.314L679.963 971.407C680.582 971.194 681.201 970.979 681.818 970.763L688.418 989.643ZM358.264 966.032L351.11 984.71C350.472 984.465 349.834 984.219 349.196 983.972L356.429 965.325C357.04 965.562 357.651 965.798 358.264 966.032ZM703.804 983.972C703.166 984.219 702.528 984.465 701.89 984.71L694.736 966.032C695.349 965.798 695.96 965.562 696.571 965.325L703.804 983.972ZM343.687 960.166L335.909 978.592C335.279 978.326 334.649 978.059 334.021 977.79L341.875 959.397C342.478 959.655 343.082 959.911 343.687 960.166ZM718.979 977.79C718.351 978.059 717.721 978.326 717.091 978.592L709.313 960.166C709.918 959.911 710.522 959.655 711.125 959.397L718.979 977.79ZM329.297 953.806L320.904 971.959C320.285 971.673 319.665 971.386 319.047 971.097L327.516 952.978C328.109 953.255 328.703 953.531 329.297 953.806ZM733.953 971.096C733.335 971.385 732.715 971.672 732.096 971.959L723.704 953.806C724.298 953.531 724.892 953.255 725.484 952.978L733.953 971.096ZM315.137 946.969L306.14 964.831C305.529 964.524 304.919 964.215 304.311 963.905L313.383 946.081C313.967 946.378 314.551 946.674 315.137 946.969ZM748.689 963.905C748.081 964.215 747.471 964.524 746.86 964.831L737.863 946.969C738.449 946.674 739.033 946.378 739.617 946.081L748.689 963.905ZM301.22 939.664L291.629 957.215C291.029 956.887 290.43 956.557 289.831 956.227L299.494 938.717C300.068 939.034 300.644 939.349 301.22 939.664ZM763.17 956.227C762.571 956.557 761.971 956.886 761.371 957.214L751.78 939.664C752.356 939.349 752.932 939.034 753.506 938.717L763.17 956.227ZM287.544 931.891L277.372 949.111C276.784 948.764 276.197 948.415 275.611 948.065L285.855 930.889C286.417 931.224 286.98 931.558 287.544 931.891ZM777.39 948.065C776.803 948.415 776.216 948.763 775.628 949.11L765.456 931.891C766.02 931.558 766.583 931.224 767.145 930.889L777.39 948.065ZM274.14 923.667L263.397 940.537C262.821 940.17 262.245 939.802 261.671 939.433L272.483 922.607C273.035 922.962 273.587 923.315 274.14 923.667ZM791.329 939.433C790.754 939.802 790.179 940.17 789.603 940.537L778.86 923.667C779.413 923.315 779.965 922.962 780.517 922.607L791.329 939.433ZM261.021 915.002L249.721 931.505C249.157 931.119 248.594 930.731 248.031 930.343L259.399 913.888C259.939 914.26 260.48 914.632 261.021 915.002ZM804.969 930.343C804.407 930.731 803.843 931.118 803.279 931.504L791.98 915.002C792.521 914.632 793.061 914.26 793.601 913.888L804.969 930.343ZM248.193 905.901L236.351 922.019C235.8 921.614 235.251 921.209 234.702 920.803L246.612 904.735C247.138 905.125 247.666 905.514 248.193 905.901ZM818.298 920.802C817.749 921.208 817.201 921.614 816.65 922.019L804.808 905.901C805.335 905.514 805.863 905.124 806.389 904.734L818.298 920.802ZM235.676 896.379L223.303 912.093C222.766 911.67 222.23 911.246 221.695 910.821L234.134 895.159C234.647 895.567 235.161 895.974 235.676 896.379ZM831.305 910.821C830.77 911.246 830.234 911.67 829.697 912.093L817.325 896.379C817.84 895.974 818.354 895.567 818.867 895.159L831.305 910.821ZM223.483 886.446L210.595 901.739C210.072 901.299 209.551 900.858 209.03 900.416L221.982 885.176C222.482 885.6 222.982 886.024 223.483 886.446ZM843.97 900.416C843.449 900.858 842.928 901.299 842.405 901.739L829.517 886.446C830.018 886.024 830.518 885.6 831.018 885.176L843.97 900.416ZM211.627 876.113L198.238 890.97C197.731 890.513 197.224 890.054 196.719 889.595L210.17 874.794C210.655 875.235 211.14 875.675 211.627 876.113ZM856.281 889.595C855.776 890.054 855.27 890.513 854.763 890.97L841.373 876.112C841.86 875.674 842.345 875.234 842.83 874.794L856.281 889.595ZM200.12 865.391L186.245 879.795C185.753 879.321 185.261 878.846 184.771 878.37L198.707 864.023C199.177 864.48 199.648 864.936 200.12 865.391ZM868.229 878.37C867.739 878.846 867.248 879.321 866.756 879.795L852.88 865.391C853.352 864.936 853.823 864.48 854.293 864.023L868.229 878.37ZM188.977 854.293L174.63 868.229C174.154 867.739 173.679 867.248 173.205 866.756L187.609 852.88C188.064 853.352 188.52 853.823 188.977 854.293ZM879.795 866.755C879.321 867.247 878.846 867.739 878.37 868.229L864.023 854.293C864.48 853.823 864.936 853.352 865.391 852.88L879.795 866.755ZM178.206 842.83L163.405 856.281C162.946 855.776 162.487 855.27 162.03 854.763L176.888 841.373C177.326 841.86 177.766 842.345 178.206 842.83ZM890.97 854.762C890.513 855.269 890.054 855.776 889.595 856.281L874.794 842.83C875.235 842.345 875.675 841.86 876.113 841.373L890.97 854.762ZM167.824 831.018L152.584 843.97C152.142 843.449 151.701 842.928 151.261 842.405L166.554 829.517C166.976 830.018 167.4 830.518 167.824 831.018ZM901.739 842.405C901.299 842.928 900.858 843.449 900.416 843.97L885.176 831.018C885.6 830.518 886.024 830.018 886.446 829.517L901.739 842.405ZM157.841 818.867L142.179 831.305C141.754 830.77 141.33 830.234 140.907 829.697L156.621 817.325C157.026 817.84 157.433 818.354 157.841 818.867ZM912.093 829.697C911.67 830.234 911.246 830.77 910.821 831.305L895.159 818.866C895.567 818.353 895.974 817.839 896.379 817.324L912.093 829.697ZM148.266 806.389L132.198 818.298C131.792 817.749 131.386 817.201 130.981 816.65L147.099 804.808C147.486 805.335 147.876 805.863 148.266 806.389ZM922.019 816.649C921.614 817.2 921.209 817.749 920.803 818.298L904.735 806.388C905.125 805.862 905.514 805.334 905.901 804.807L922.019 816.649ZM139.112 793.601L122.657 804.969C122.269 804.407 121.882 803.843 121.496 803.279L137.998 791.98C138.368 792.521 138.74 793.061 139.112 793.601ZM931.505 803.279C931.119 803.843 930.731 804.406 930.343 804.969L913.888 793.601C914.26 793.061 914.632 792.52 915.002 791.979L931.505 803.279ZM130.393 780.517L113.567 791.329C113.198 790.754 112.83 790.179 112.463 789.603L129.333 778.86C129.685 779.413 130.038 779.965 130.393 780.517ZM940.537 789.603C940.17 790.179 939.802 790.755 939.433 791.329L922.607 780.517C922.962 779.965 923.315 779.413 923.667 778.86L940.537 789.603ZM122.111 767.145L104.935 777.39C104.585 776.803 104.237 776.216 103.89 775.628L121.109 765.456C121.442 766.02 121.776 766.583 122.111 767.145ZM949.111 775.628C948.764 776.216 948.415 776.803 948.065 777.389L930.889 767.145C931.224 766.583 931.558 766.02 931.891 765.456L949.111 775.628ZM114.283 753.506L96.7734 763.17C96.4431 762.571 96.1141 761.971 95.7861 761.371L113.336 751.78C113.651 752.356 113.966 752.932 114.283 753.506ZM957.215 761.371C956.887 761.971 956.557 762.57 956.227 763.169L938.717 753.506C939.034 752.932 939.349 752.356 939.664 751.78L957.215 761.371ZM106.919 739.617L89.0947 748.689C88.7848 748.081 88.4764 747.471 88.1689 746.86L106.031 737.863C106.326 738.449 106.622 739.033 106.919 739.617ZM964.831 746.86C964.524 747.471 964.215 748.081 963.905 748.689L946.081 739.617C946.378 739.033 946.674 738.449 946.969 737.863L964.831 746.86ZM100.022 725.484L81.9043 733.953C81.6153 733.335 81.3275 732.715 81.041 732.096L99.1943 723.704C99.469 724.298 99.7454 724.892 100.022 725.484ZM971.959 732.096C971.673 732.715 971.386 733.335 971.097 733.953L952.978 725.484C953.255 724.891 953.531 724.297 953.806 723.703L971.959 732.096ZM93.6025 711.125L75.21 718.979C74.9414 718.351 74.6742 717.721 74.4082 717.091L92.834 709.313C93.0891 709.918 93.345 710.522 93.6025 711.125ZM978.592 717.091C978.326 717.721 978.059 718.351 977.79 718.979L959.397 711.125C959.655 710.522 959.911 709.918 960.166 709.313L978.592 717.091ZM87.6748 696.571L69.0283 703.804C68.7811 703.166 68.5346 702.528 68.29 701.89L86.9678 694.736C87.2023 695.349 87.4378 695.96 87.6748 696.571ZM984.71 701.89C984.465 702.528 984.219 703.166 983.972 703.804L965.325 696.571C965.562 695.96 965.798 695.349 966.032 694.736L984.71 701.89ZM82.2373 681.818L63.3574 688.418C63.1322 687.774 62.9081 687.129 62.6855 686.483L81.5928 679.963C81.8062 680.582 82.0213 681.201 82.2373 681.818ZM990.314 686.483C990.092 687.129 989.868 687.774 989.643 688.418L970.763 681.818C970.979 681.201 971.194 680.582 971.407 679.963L990.314 686.483ZM77.2959 666.88L58.2041 672.84C58.0009 672.189 57.7992 671.537 57.5986 670.885L76.7148 665.005C76.9072 665.63 77.101 666.256 77.2959 666.88ZM995.401 670.885C995.201 671.537 994.999 672.189 994.796 672.84L975.704 666.88C975.899 666.256 976.093 665.63 976.285 665.005L995.401 670.885ZM72.8672 651.808L53.5859 657.122C53.4042 656.463 53.2239 655.803 53.0449 655.143L72.3486 649.91C72.5202 650.543 72.693 651.176 72.8672 651.808ZM999.955 655.143C999.776 655.803 999.596 656.463 999.414 657.122L980.133 651.808C980.307 651.176 980.48 650.542 980.651 649.909L999.955 655.143ZM68.9463 636.583L49.4971 641.245C49.338 640.582 49.1798 639.917 49.0234 639.253L68.4922 634.673C68.6421 635.31 68.7938 635.947 68.9463 636.583ZM1003.98 639.253C1003.82 639.917 1003.66 640.582 1003.5 641.245L984.054 636.583C984.206 635.947 984.358 635.309 984.508 634.672L1003.98 639.253ZM65.5352 621.216L45.9404 625.22C45.8042 624.553 45.6687 623.886 45.5352 623.218L65.1465 619.296C65.2746 619.936 65.4045 620.576 65.5352 621.216ZM1007.46 623.218C1007.33 623.886 1007.2 624.553 1007.06 625.22L987.465 621.216C987.596 620.576 987.725 619.936 987.854 619.296L1007.46 623.218ZM62.6494 605.778L42.9307 609.124C42.8162 608.45 42.7035 607.774 42.5918 607.099L62.3242 603.837C62.4313 604.485 62.5397 605.132 62.6494 605.778ZM1010.41 607.099C1010.3 607.774 1010.18 608.45 1010.07 609.124L990.351 605.778C990.46 605.131 990.569 604.484 990.676 603.836L1010.41 607.099ZM60.2793 590.235L40.46 592.919C40.3684 592.243 40.2782 591.566 40.1895 590.89L60.0195 588.289C60.1047 588.938 60.1915 589.587 60.2793 590.235ZM1012.81 590.89C1012.72 591.566 1012.63 592.243 1012.54 592.919L992.721 590.235C992.808 589.587 992.895 588.938 992.98 588.289L1012.81 590.89ZM58.4268 574.595L38.5293 576.614C38.4607 575.938 38.393 575.261 38.3271 574.584L58.2334 572.646C58.2966 573.296 58.3609 573.946 58.4268 574.595ZM1014.67 574.584C1014.61 575.261 1014.54 575.938 1014.47 576.614L994.573 574.595C994.639 573.946 994.703 573.296 994.767 572.646L1014.67 574.584ZM57.1016 558.949L37.1475 560.309C37.101 559.626 37.0554 558.943 37.0117 558.26L56.9717 556.983C57.0136 557.639 57.057 558.294 57.1016 558.949ZM1015.99 558.26C1015.94 558.943 1015.9 559.626 1015.85 560.309L995.898 558.949C995.943 558.294 995.986 557.639 996.028 556.983L1015.99 558.26ZM56.292 543.242L36.3047 543.94C36.2809 543.259 36.2583 542.578 36.2373 541.896L56.2275 541.279C56.2477 541.934 56.2691 542.589 56.292 543.242ZM1016.76 541.896C1016.74 542.578 1016.72 543.259 1016.7 543.94L996.708 543.242C996.731 542.589 996.752 541.934 996.772 541.279L1016.76 541.896ZM36 526.5C36 526.157 36.0003 525.813 36.001 525.47L56.001 525.511C56.0003 525.84 56 526.17 56 526.5C56 526.83 56.0003 527.16 56.001 527.489L36.001 527.53C36.0003 527.187 36 526.843 36 526.5ZM997 526.5C997 526.17 997 525.84 996.999 525.511L1017 525.47C1017 525.813 1017 526.157 1017 526.5C1017 526.843 1017 527.187 1017 527.53L996.999 527.489C997 527.16 997 526.83 997 526.5ZM56.292 509.758C56.2691 510.411 56.2477 511.066 56.2275 511.721L36.2373 511.104C36.2583 510.422 36.2809 509.741 36.3047 509.06L56.292 509.758ZM1016.76 511.104L996.772 511.721C996.752 511.066 996.731 510.411 996.708 509.758L1016.7 509.06C1016.72 509.741 1016.74 510.422 1016.76 511.104ZM57.1016 494.051C57.057 494.706 57.0136 495.361 56.9717 496.017L37.0117 494.74C37.0554 494.057 37.101 493.374 37.1475 492.691L57.1016 494.051ZM1015.99 494.74L996.028 496.017C995.986 495.361 995.943 494.706 995.898 494.051L1015.85 492.691C1015.9 493.374 1015.94 494.057 1015.99 494.74ZM58.4268 478.405C58.3609 479.054 58.2966 479.704 58.2334 480.354L38.3271 478.416C38.393 477.739 38.4607 477.062 38.5293 476.386L58.4268 478.405ZM1014.67 478.416L994.767 480.354C994.703 479.704 994.639 479.054 994.573 478.405L1014.47 476.386C1014.54 477.062 1014.61 477.739 1014.67 478.416ZM60.2793 462.765C60.1915 463.413 60.1047 464.062 60.0195 464.711L40.1895 462.11C40.2782 461.434 40.3684 460.757 40.46 460.081L60.2793 462.765ZM1012.81 462.11L992.98 464.711C992.895 464.062 992.808 463.413 992.721 462.765L1012.54 460.081C1012.63 460.757 1012.72 461.434 1012.81 462.11ZM62.6494 447.222C62.5397 447.869 62.4313 448.516 62.3242 449.164L42.5918 445.901C42.7035 445.226 42.8162 444.55 42.9307 443.876L62.6494 447.222ZM1010.41 445.901L990.676 449.163C990.569 448.515 990.46 447.868 990.351 447.222L1010.07 443.876C1010.18 444.55 1010.3 445.226 1010.41 445.901ZM65.5352 431.784C65.4045 432.424 65.2746 433.064 65.1465 433.704L45.5352 429.782C45.6687 429.114 45.8042 428.447 45.9404 427.78L65.5352 431.784ZM1007.46 429.782L987.854 433.704C987.725 433.064 987.596 432.424 987.465 431.784L1007.06 427.78C1007.2 428.447 1007.33 429.114 1007.46 429.782ZM68.9463 416.417C68.7937 417.053 68.6421 417.691 68.4922 418.328L49.0234 413.747C49.1798 413.083 49.338 412.418 49.4971 411.755L68.9463 416.417ZM1003.98 413.747L984.508 418.327C984.358 417.69 984.206 417.053 984.054 416.417L1003.5 411.755C1003.66 412.418 1003.82 413.083 1003.98 413.747ZM72.8672 401.192C72.693 401.824 72.5203 402.458 72.3486 403.091L53.0449 397.857C53.2239 397.197 53.4042 396.537 53.5859 395.878L72.8672 401.192ZM999.955 397.857L980.651 403.09C980.48 402.457 980.307 401.824 980.133 401.192L999.414 395.878C999.596 396.537 999.776 397.197 999.955 397.857ZM77.2959 386.12C77.101 386.744 76.9072 387.37 76.7148 387.995L57.5986 382.115C57.7992 381.463 58.0009 380.811 58.2041 380.16L77.2959 386.12ZM995.401 382.115L976.285 387.995C976.093 387.37 975.899 386.744 975.704 386.12L994.796 380.16C994.999 380.811 995.201 381.463 995.401 382.115ZM82.2373 371.182C82.0213 371.799 81.8062 372.418 81.5928 373.037L62.6855 366.517C62.9081 365.871 63.1322 365.226 63.3574 364.582L82.2373 371.182ZM990.314 366.517L971.407 373.037C971.194 372.418 970.979 371.799 970.763 371.182L989.643 364.582C989.868 365.226 990.092 365.871 990.314 366.517ZM87.6748 356.429C87.4378 357.04 87.2023 357.651 86.9678 358.264L68.29 351.11C68.5346 350.472 68.7811 349.834 69.0283 349.196L87.6748 356.429ZM984.71 351.11L966.032 358.264C965.798 357.651 965.562 357.04 965.325 356.429L983.972 349.196C984.219 349.834 984.465 350.472 984.71 351.11ZM93.6025 341.875C93.345 342.478 93.0891 343.082 92.834 343.687L74.4082 335.909C74.6742 335.279 74.9414 334.649 75.21 334.021L93.6025 341.875ZM978.592 335.909L960.166 343.687C959.911 343.082 959.655 342.478 959.397 341.875L977.79 334.021C978.059 334.649 978.326 335.279 978.592 335.909ZM100.022 327.516C99.7453 328.109 99.4691 328.703 99.1943 329.297L81.041 320.904C81.3275 320.285 81.6143 319.665 81.9033 319.047L100.022 327.516ZM971.959 320.904L953.806 329.296C953.531 328.702 953.255 328.108 952.978 327.516L971.096 319.047C971.385 319.665 971.672 320.285 971.959 320.904ZM106.919 313.383C106.622 313.967 106.326 314.551 106.031 315.137L88.1689 306.14C88.4764 305.529 88.7848 304.919 89.0947 304.311L106.919 313.383ZM964.831 306.14L946.969 315.137C946.674 314.551 946.378 313.967 946.081 313.383L963.905 304.311C964.215 304.919 964.524 305.529 964.831 306.14ZM114.283 299.494C113.966 300.068 113.651 300.644 113.336 301.22L95.7852 291.629C96.1131 291.029 96.4431 290.43 96.7734 289.831L114.283 299.494ZM957.214 291.629L939.664 301.22C939.349 300.644 939.034 300.068 938.717 299.494L956.227 289.83C956.557 290.429 956.886 291.029 957.214 291.629ZM122.111 285.855C121.776 286.417 121.442 286.98 121.109 287.544L103.889 277.372C104.236 276.784 104.585 276.197 104.935 275.611L122.111 285.855ZM949.11 277.372L931.891 287.544C931.558 286.98 931.224 286.417 930.889 285.855L948.065 275.61C948.415 276.197 948.763 276.784 949.11 277.372ZM130.393 272.483C130.038 273.035 129.685 273.587 129.333 274.14L112.463 263.397C112.83 262.821 113.198 262.245 113.567 261.671L130.393 272.483ZM940.537 263.397L923.667 274.14C923.315 273.587 922.962 273.035 922.607 272.483L939.433 261.671C939.802 262.246 940.17 262.821 940.537 263.397ZM139.112 259.399C138.74 259.939 138.368 260.48 137.998 261.021L121.495 249.721C121.881 249.157 122.269 248.594 122.657 248.031L139.112 259.399ZM931.504 249.721L915.002 261.02C914.632 260.479 914.26 259.939 913.888 259.399L930.343 248.031C930.731 248.593 931.118 249.157 931.504 249.721ZM148.265 246.612C147.875 247.138 147.486 247.666 147.099 248.193L130.981 236.351C131.386 235.8 131.791 235.251 132.197 234.702L148.265 246.612ZM922.019 236.35L905.901 248.192C905.514 247.665 905.124 247.137 904.734 246.611L920.802 234.702C921.208 235.251 921.614 235.799 922.019 236.35ZM157.841 234.134C157.433 234.647 157.026 235.161 156.621 235.676L140.907 223.303C141.33 222.766 141.754 222.23 142.179 221.695L157.841 234.134ZM912.093 223.303L896.379 235.675C895.974 235.16 895.567 234.646 895.159 234.133L910.821 221.695C911.246 222.23 911.67 222.766 912.093 223.303ZM167.824 221.982C167.4 222.482 166.976 222.982 166.554 223.483L151.261 210.595C151.701 210.072 152.142 209.551 152.584 209.03L167.824 221.982ZM901.739 210.595L886.446 223.483C886.024 222.982 885.6 222.482 885.176 221.982L900.416 209.03C900.858 209.551 901.299 210.072 901.739 210.595ZM178.206 210.17C177.765 210.655 177.325 211.14 176.887 211.627L162.03 198.238C162.487 197.731 162.946 197.224 163.405 196.719L178.206 210.17ZM890.97 198.237L876.112 211.627C875.674 211.14 875.234 210.655 874.794 210.17L889.595 196.719C890.054 197.224 890.513 197.73 890.97 198.237ZM188.977 198.707C188.52 199.177 188.064 199.648 187.609 200.12L173.205 186.245C173.679 185.753 174.154 185.261 174.63 184.771L188.977 198.707ZM879.795 186.244L865.391 200.12C864.936 199.648 864.48 199.177 864.023 198.707L878.37 184.771C878.846 185.261 879.321 185.752 879.795 186.244ZM200.12 187.609C199.648 188.064 199.177 188.52 198.707 188.977L184.771 174.63C185.261 174.154 185.752 173.679 186.244 173.205L200.12 187.609ZM868.229 174.63L854.293 188.977C853.823 188.52 853.352 188.064 852.88 187.609L866.755 173.205C867.247 173.679 867.739 174.154 868.229 174.63ZM211.627 176.888C211.14 177.326 210.655 177.766 210.17 178.206L196.719 163.405C197.224 162.946 197.73 162.487 198.237 162.03L211.627 176.888ZM856.281 163.405L842.83 178.206C842.345 177.765 841.86 177.325 841.373 176.887L854.762 162.03C855.269 162.487 855.776 162.946 856.281 163.405ZM223.483 166.554C222.982 166.976 222.482 167.4 221.982 167.824L209.03 152.584C209.551 152.142 210.072 151.701 210.595 151.261L223.483 166.554ZM843.97 152.584L831.018 167.824C830.518 167.4 830.018 166.976 829.517 166.554L842.405 151.261C842.928 151.701 843.449 152.142 843.97 152.584ZM235.675 156.621C235.16 157.026 234.646 157.433 234.133 157.841L221.695 142.179C222.23 141.754 222.766 141.33 223.303 140.907L235.675 156.621ZM831.305 142.179L818.866 157.841C818.353 157.433 817.839 157.026 817.324 156.621L829.697 140.907C830.234 141.33 830.77 141.754 831.305 142.179ZM248.192 147.099C247.665 147.486 247.137 147.876 246.611 148.266L234.702 132.198C235.251 131.792 235.799 131.386 236.35 130.981L248.192 147.099ZM818.298 132.197L806.388 148.265C805.862 147.875 805.334 147.486 804.807 147.099L816.649 130.981C817.2 131.386 817.749 131.791 818.298 132.197ZM261.02 137.998C260.479 138.368 259.939 138.74 259.399 139.112L248.031 122.657C248.593 122.269 249.157 121.882 249.721 121.496L261.02 137.998ZM804.969 122.657L793.601 139.112C793.061 138.74 792.52 138.368 791.979 137.998L803.279 121.495C803.843 121.881 804.406 122.269 804.969 122.657ZM274.14 129.333C273.587 129.685 273.035 130.038 272.483 130.393L261.671 113.567C262.246 113.198 262.821 112.83 263.397 112.463L274.14 129.333ZM791.329 113.567L780.517 130.393C779.965 130.038 779.413 129.685 778.86 129.333L789.603 112.463C790.179 112.83 790.755 113.198 791.329 113.567ZM287.544 121.109C286.98 121.442 286.417 121.776 285.855 122.111L275.61 104.935C276.197 104.585 276.784 104.237 277.372 103.89L287.544 121.109ZM777.389 104.935L767.145 122.111C766.583 121.776 766.02 121.442 765.456 121.109L775.628 103.889C776.216 104.236 776.803 104.585 777.389 104.935ZM301.22 113.336C300.644 113.651 300.068 113.966 299.494 114.283L289.83 96.7734C290.429 96.4431 291.029 96.1141 291.629 95.7861L301.22 113.336ZM763.169 96.7734L753.506 114.283C752.932 113.966 752.356 113.651 751.78 113.336L761.371 95.7852C761.971 96.1131 762.57 96.4431 763.169 96.7734ZM315.137 106.031C314.551 106.326 313.967 106.622 313.383 106.919L304.311 89.0947C304.919 88.7848 305.529 88.4764 306.14 88.1689L315.137 106.031ZM748.689 89.0947L739.617 106.919C739.033 106.622 738.449 106.326 737.863 106.031L746.86 88.1689C747.471 88.4764 748.081 88.7848 748.689 89.0947ZM329.296 99.1943C328.702 99.469 328.108 99.7454 327.516 100.022L319.047 81.9043C319.665 81.6153 320.285 81.3275 320.904 81.041L329.296 99.1943ZM733.953 81.9033L725.484 100.022C724.891 99.7453 724.297 99.4691 723.703 99.1943L732.096 81.041C732.715 81.3275 733.335 81.6143 733.953 81.9033ZM343.687 92.834C343.082 93.0891 342.478 93.345 341.875 93.6025L334.021 75.21C334.649 74.9414 335.279 74.6742 335.909 74.4082L343.687 92.834ZM718.979 75.21L711.125 93.6025C710.522 93.345 709.918 93.0891 709.313 92.834L717.091 74.4082C717.721 74.6742 718.351 74.9414 718.979 75.21ZM358.264 86.9678C357.651 87.2023 357.04 87.4378 356.429 87.6748L349.196 69.0283C349.834 68.7811 350.472 68.5346 351.11 68.29L358.264 86.9678ZM703.804 69.0283L696.571 87.6748C695.96 87.4378 695.349 87.2023 694.736 86.9678L701.89 68.29C702.528 68.5346 703.166 68.7811 703.804 69.0283ZM373.037 81.5928C372.418 81.8062 371.799 82.0213 371.182 82.2373L364.582 63.3574C365.226 63.1322 365.871 62.9081 366.517 62.6855L373.037 81.5928ZM688.418 63.3574L681.818 82.2373C681.201 82.0213 680.582 81.8062 679.963 81.5928L686.483 62.6855C687.129 62.9081 687.774 63.1322 688.418 63.3574ZM387.995 76.7148C387.37 76.9072 386.744 77.101 386.12 77.2959L380.16 58.2041C380.811 58.0009 381.463 57.7992 382.115 57.5986L387.995 76.7148ZM672.84 58.2041L666.88 77.2959C666.256 77.101 665.63 76.9072 665.005 76.7148L670.885 57.5986C671.537 57.7992 672.189 58.0009 672.84 58.2041ZM403.09 72.3486C402.457 72.5202 401.824 72.693 401.192 72.8672L395.878 53.5859C396.537 53.4042 397.197 53.2239 397.857 53.0449L403.09 72.3486ZM657.122 53.5859L651.808 72.8672C651.176 72.693 650.542 72.5203 649.909 72.3486L655.143 53.0449C655.803 53.2239 656.463 53.4042 657.122 53.5859ZM418.327 68.4922C417.69 68.6421 417.053 68.7938 416.417 68.9463L411.755 49.4971C412.418 49.338 413.083 49.1798 413.747 49.0234L418.327 68.4922ZM641.245 49.4971L636.583 68.9463C635.947 68.7937 635.309 68.6421 634.672 68.4922L639.253 49.0234C639.917 49.1798 640.582 49.338 641.245 49.4971ZM433.704 65.1465C433.064 65.2746 432.424 65.4045 431.784 65.5352L427.78 45.9404C428.447 45.8042 429.114 45.6687 429.782 45.5352L433.704 65.1465ZM625.22 45.9404L621.216 65.5352C620.576 65.4045 619.936 65.2746 619.296 65.1465L623.218 45.5352C623.886 45.6687 624.553 45.8042 625.22 45.9404ZM449.163 62.3242C448.515 62.4313 447.868 62.5397 447.222 62.6494L443.876 42.9307C444.55 42.8162 445.226 42.7035 445.901 42.5918L449.163 62.3242ZM609.124 42.9307L605.778 62.6494C605.131 62.5397 604.484 62.4313 603.836 62.3242L607.099 42.5918C607.774 42.7035 608.45 42.8162 609.124 42.9307ZM464.711 60.0195C464.062 60.1047 463.413 60.1915 462.765 60.2793L460.081 40.46C460.757 40.3684 461.434 40.2782 462.11 40.1895L464.711 60.0195ZM592.919 40.46L590.235 60.2793C589.587 60.1915 588.938 60.1047 588.289 60.0195L590.89 40.1895C591.566 40.2782 592.243 40.3684 592.919 40.46ZM480.354 58.2334C479.704 58.2966 479.054 58.3609 478.405 58.4268L476.386 38.5293C477.062 38.4607 477.739 38.393 478.416 38.3271L480.354 58.2334ZM576.614 38.5293L574.595 58.4268C573.946 58.3609 573.296 58.2966 572.646 58.2334L574.584 38.3271C575.261 38.393 575.938 38.4607 576.614 38.5293ZM496.017 56.9717C495.361 57.0136 494.706 57.057 494.051 57.1016L492.691 37.1475C493.374 37.101 494.057 37.0554 494.74 37.0117L496.017 56.9717ZM560.309 37.1475L558.949 57.1016C558.294 57.057 557.639 57.0136 556.983 56.9717L558.26 37.0117C558.943 37.0554 559.626 37.101 560.309 37.1475ZM511.721 56.2275C511.066 56.2477 510.411 56.2691 509.758 56.292L509.06 36.3047C509.741 36.2809 510.422 36.2583 511.104 36.2373L511.721 56.2275ZM543.94 36.3047L543.242 56.292C542.589 56.2691 541.934 56.2477 541.279 56.2275L541.896 36.2373C542.578 36.2583 543.259 36.2809 543.94 36.3047ZM527.53 36.001L527.489 56.001C527.16 56.0003 526.83 56 526.5 56C526.17 56 525.84 56.0003 525.511 56.001L525.47 36.001C525.813 36.0003 526.157 36 526.5 36C526.843 36 527.187 36.0003 527.53 36.001Z" fill="white"/>
</svg>
