<svg width="32" height="32" viewBox="0 0 32 32" fill="none" xmlns="http://www.w3.org/2000/svg">
<path d="M5.99887 16C5.34857 16 4.73132 15.8348 4.1941 15.6051C3.43063 15.2787 2.3555 15.694 2.28769 16.5216C1.84172 21.9636 2.11859 30 5.99887 30C9.87915 30 10.156 21.9636 9.71005 16.5216C9.64223 15.694 8.56711 15.2788 7.80364 15.6051C7.26642 15.8348 6.64916 16 5.99887 16Z" fill="#0062FF"/>
<path d="M1.99991 7.49995C2.42884 5.35527 4.54432 3.21059 6.26377 1.97932C6.93376 1.49955 7.568 2.09878 7.38299 2.90178C7.25003 3.47887 7.24465 3.98941 7.49991 4.49995C8.1707 5.84161 9.99991 6.65721 9.99991 9.49995C9.99991 12 8.49935 14 5.99937 14C3.49988 14 1.15492 11.7404 1.99991 7.49995Z" fill="#0062FF"/>
<path d="M14 6.44444C14.8254 6.15651 15.7124 6 16.636 6C21.0543 6 24.636 9.58172 24.636 14C24.636 18.4183 21.0543 22 16.636 22C15.7124 22 14.8254 21.8435 14 21.5556" stroke="#0062FF" stroke-linecap="round"/>
<path d="M32 26V17C32 15.3431 30.6569 14 29 14H24.5C24.5 16.1154 23 20.6923 17 22.0769V26C17 27.6569 18.3431 29 20 29H29C30.6569 29 32 27.6569 32 26Z" fill="#0062FF"/>
</svg>
