<svg width="28" height="29" viewBox="0 0 28 29" fill="none" xmlns="http://www.w3.org/2000/svg">
<g clip-path="url(#clip0_317_1556)">
<path d="M13.9987 26.6409C20.442 26.6409 25.6654 21.4176 25.6654 14.9743C25.6654 8.53096 20.442 3.30762 13.9987 3.30762C7.55538 3.30762 2.33203 8.53096 2.33203 14.9743C2.33203 17.7028 3.26871 20.2126 4.83806 22.1996C5.32371 22.8145 5.5681 23.6018 5.40367 24.3679L4.66536 27.8076L8.38285 26.1049C8.98679 25.8283 9.67605 25.8344 10.3062 26.0445C11.4667 26.4314 12.7082 26.6409 13.9987 26.6409Z" stroke="#0062FF" stroke-width="2" stroke-linecap="round" stroke-linejoin="round"/>
<path d="M11.5444 18.0063C9.51878 15.9807 8.71833 13.6648 8.39472 12.086C8.20747 11.1725 8.56849 10.2528 9.22787 9.59342C9.85161 8.96968 10.8629 8.96968 11.4866 9.59342L12.7202 10.827C13.2114 11.3182 13.2114 12.1146 12.7202 12.6058C12.2485 13.0776 11.9613 13.7423 12.2673 14.3352C12.5056 14.7969 12.9209 15.3642 13.6096 16.0529C14.2984 16.7417 14.8656 17.157 15.3274 17.3953C15.9203 17.7013 16.585 17.4141 17.0568 16.9423C17.548 16.4511 18.3443 16.4511 18.8355 16.9423L19.3989 17.5056C20.0934 18.2002 20.0934 19.3263 19.3989 20.0209C18.8104 20.6093 18.029 20.9933 17.2035 20.8885C15.7644 20.7058 13.5734 20.0354 11.5444 18.0063Z" stroke="#0062FF" stroke-width="2" stroke-linecap="round"/>
</g>
<defs>
<clipPath id="clip0_317_1556">
<rect width="28" height="28" fill="white" transform="translate(0 0.974609)"/>
</clipPath>
</defs>
</svg>
